<?xml version="1.0" encoding="utf-8"?>
<!-- Generator: Adobe Illustrator 27.5.0, SVG Export Plug-In . SVG Version: 6.00 Build 0)  -->
<svg version="1.1" xmlns="http://www.w3.org/2000/svg" xmlns:xlink="http://www.w3.org/1999/xlink" x="0px" y="0px"
	 viewBox="0 0 500 500" style="enable-background:new 0 0 500 500;" xml:space="preserve">
<g id="BACKGROUND">
	<rect style="fill:#FFFFFF;" width="500" height="500"/>
</g>
<g id="OBJECTS">
	<ellipse style="fill:#EAE9E8;" cx="246.397" cy="450.519" rx="223.54" ry="18.545"/>
	<g>
		<g>
			<g>
				<path style="fill:#FFD460;" d="M222.382,347.586c0.022,0.011,0.033,0.022,0.044,0.044v0.011c0.53,0.508,1.061,1.005,1.613,1.502
					c13.179,12.075,31.496,22.658,48.873,20.614c0.597-0.066,1.193-0.155,1.779-0.243c0.298-0.044,0.597-0.111,0.884-0.166
					c0.122-0.022,0.232-0.044,0.354-0.066c0.608-0.121,1.215-0.254,1.823-0.398c17.189-4.01,31.75-14.306,41.902-28.767
					c0.166-0.221,0.32-0.442,0.464-0.674l0.011-0.011c0.309-0.442,0.619-0.895,0.917-1.348c-0.574,0.011-1.149,0.033-1.723,0.066
					c-0.519,0.022-1.049,0.055-1.569,0.088c-9.887,0.663-19.554,3.27-28.48,7.656c10.661-10.252,17.896-23.729,19.885-38.301
					c0.077-0.519,0.144-1.049,0.199-1.569c0.088-0.818,0.166-1.646,0.232-2.486c-0.431,0.276-0.851,0.564-1.271,0.851
					c-0.066,0.044-0.133,0.088-0.199,0.133c-11.025,7.59-19.763,18.162-24.923,30.523c1.337-19.101-4.043-38.091-14.571-54.032
					c0-0.011-0.011-0.011-0.011-0.011c-0.11-0.166-0.221-0.331-0.331-0.497c-0.442-0.663-0.884-1.315-1.348-1.966
					c-0.166,0.586-0.309,1.16-0.464,1.723c-0.044,0.155-0.077,0.298-0.111,0.453c-4.816,18.902-5.8,38.742-1.768,57.81
					c-7.479-12.174-16.538-22.757-27.209-32.18l-0.011-0.011c-0.155-0.144-0.32-0.287-0.486-0.442c-0.011,0-0.011,0-0.011-0.011
					c-0.221-0.188-0.442-0.375-0.663-0.574c0.166,1.337,0.376,2.673,0.619,3.988c0,0,0,0.011,0,0.022
					c0.055,0.331,0.122,0.674,0.188,1.005c2.95,15.455,10.097,29.872,20.824,41.46c-10.274-4.662-21.432-6.352-32.523-4.706
					c-0.133,0.022-0.254,0.033-0.387,0.066C224.083,347.265,223.222,347.409,222.382,347.586z"/>
				<path style="fill:#EDBE48;" d="M224.934,347.144c16.262,5.977,33.075,10.429,50.187,13.235
					c-0.088-1.878-0.199-3.745-0.331-5.612c-0.376,0.232-0.873,0.243-1.281-0.144c-13.036-12.262-24.613-26.06-34.401-41.04
					c-0.707-1.083-1.403-2.165-2.088-3.259c-0.066-0.331-0.133-0.674-0.188-1.005c0-0.011,0-0.022,0-0.022
					c-0.243-1.315-0.453-2.651-0.619-3.988c0.221,0.199,0.442,0.387,0.663,0.574c0,0.011,0,0.011,0.011,0.011
					c7.921,13.091,17.167,25.364,27.607,36.566c3.27,3.524,6.672,6.927,10.163,10.208c-0.917-14.041-2.243-28.06-3.966-42.023
					c-1.237-10.009-2.685-19.984-4.331-29.927c0.033-0.155,0.066-0.298,0.111-0.453c0.155-0.563,0.298-1.138,0.464-1.723
					c0.464,0.652,0.906,1.304,1.348,1.966c0.111,0.166,0.221,0.331,0.331,0.497c0,0,0.011,0,0.011,0.011
					c2.983,18.151,5.292,36.412,6.927,54.728c0.376,4.253,0.718,8.517,1.016,12.782c11.412-11.401,21.155-24.403,28.866-38.577
					c0.994-1.834,1.955-3.69,2.883-5.557c0.42-0.287,0.84-0.574,1.271-0.851c-0.066,0.84-0.144,1.668-0.232,2.486
					c-0.055,0.519-0.122,1.049-0.199,1.569c-5.987,11.622-13.312,22.536-21.796,32.501c-3.038,3.568-6.231,7.004-9.556,10.307
					c-0.342,0.342-0.74,0.376-1.083,0.243c0.11,1.591,0.221,3.171,0.309,4.761c0.121-0.121,0.276-0.221,0.464-0.276
					c13.986-4.187,27.474-9.854,40.256-16.891c0.519-0.033,1.049-0.066,1.569-0.088c0.574-0.033,1.149-0.055,1.723-0.066
					c-0.298,0.453-0.607,0.906-0.917,1.348l-0.011,0.011c-13.312,7.457-27.419,13.433-42.035,17.808
					c-0.398,0.122-0.718,0.022-0.95-0.177c0.243,3.933,0.453,7.877,0.619,11.809c0.398,8.827,0.619,17.653,0.696,26.491
					c0.088,11.224-0.077,22.448-0.497,33.661c-0.044,1.403-2.243,1.414-2.198,0c0.74-19.719,0.685-39.461-0.155-59.169
					c-0.011-0.177-0.011-0.342-0.022-0.519c-0.099-2.243-0.199-4.485-0.32-6.728c-17.477-2.828-34.633-7.346-51.215-13.478
					c-0.552-0.497-1.083-0.994-1.613-1.502v-0.011c-0.011-0.022-0.022-0.033-0.044-0.044
					C223.222,347.409,224.083,347.265,224.934,347.144z"/>
			</g>
			<g>
				<path style="fill:#E85656;" d="M199.238,356.866c0.398,0.729,0.807,1.425,1.215,2.121c0.177,0.298,0.364,0.585,0.552,0.884
					l0.011,0.011c7.744,12.351,19.808,21.52,33.65,26.326c-9.887-0.243-19.686,1.436-28.877,5.027c0,0.011-0.011,0.011-0.011,0.011
					c-0.011,0.011-0.011,0.011-0.011-0.011c-0.011,0.011-0.011,0-0.011,0c-0.342,0.133-0.652,0.265-0.994,0.409
					c-0.519,0.21-1.038,0.42-1.547,0.652c0.585,0.365,1.182,0.718,1.779,1.072c0.099,0.055,0.188,0.111,0.287,0.166
					c15.146,8.794,32.556,11.964,49.712,8.252c0.376-0.066,0.762-0.155,1.138-0.243c0.342-0.088,0.674-0.166,1.016-0.254
					c0.055-0.011,0.11-0.033,0.166-0.044c0.563-0.166,1.127-0.331,1.69-0.519c16.007-5.214,27.817-21.641,34.644-37.516
					c0.42-0.95,0.806-1.9,1.182-2.85v-0.011c0.011-0.022,0.011-0.033,0.022-0.066c-0.652,0.155-1.293,0.332-1.944,0.519
					c-0.287,0.077-0.586,0.155-0.873,0.243h-0.011c-10.528,3.082-19.763,9.158-26.988,17.521
					c4.806-14.781,5.236-30.634,1.447-45.658c0,0,0-0.011,0-0.022c-0.055-0.243-0.11-0.475-0.177-0.707
					c0-0.011-0.011-0.022-0.011-0.022c-0.32-1.271-0.674-2.541-1.072-3.8c-0.21,0.464-0.42,0.928-0.619,1.392v0.011
					c-0.088,0.199-0.177,0.387-0.254,0.585c-5.49,12.572-9.114,25.519-10.749,39.195c-4.121-18.084-12.726-34.865-24.249-49.403
					c-0.431-0.552-0.873-1.105-1.315-1.646c-0.365-0.442-0.74-0.895-1.116-1.348c-0.11,0.586-0.21,1.171-0.298,1.757v0.011
					c-0.044,0.188-0.066,0.354-0.1,0.541c-2.994,18.681-0.011,38.002,9.092,54.628c-9.655-8.893-21.763-14.704-34.677-16.935
					l-0.221-0.033c0,0,0,0-0.011,0C200.221,357.02,199.724,356.943,199.238,356.866z"/>
				<path style="fill:#C6383F;" d="M200.707,357.108c0.011,0,0.011,0,0.011,0c15.543,9.733,31.595,18.615,48.088,26.602
					l-15.079-44.056c-2.375-6.915-4.739-13.831-7.103-20.747v-0.011c0.088-0.586,0.188-1.171,0.298-1.757
					c0.376,0.453,0.751,0.906,1.116,1.348c0.442,0.541,0.884,1.094,1.315,1.646c7.766,22.68,15.532,45.349,23.299,68.029
					c6.44-16.284,10.34-33.55,11.423-51.027c0.144-2.265,0.243-4.529,0.276-6.794c0.077-0.199,0.166-0.387,0.254-0.585v-0.011
					c0.199-0.464,0.409-0.928,0.619-1.392c0.398,1.259,0.751,2.53,1.072,3.8c0,0,0.011,0.011,0.011,0.022
					c0.066,0.232,0.121,0.464,0.177,0.707c0,0.011,0,0.022,0,0.022c-0.541,14.538-2.95,28.999-7.181,42.918
					c-1.536,5.06-3.314,10.031-5.325,14.914c-0.077,0.177-0.177,0.32-0.298,0.431c0.243,0.718,0.497,1.447,0.74,2.165
					c13.964-9.423,26.867-20.338,38.488-32.534c0.652-0.188,1.293-0.365,1.944-0.519c-0.011,0.033-0.011,0.044-0.022,0.066v0.011
					c-0.376,0.95-0.762,1.9-1.182,2.85c-11.633,12.075-24.547,22.89-38.466,32.258c-0.011,0-0.011,0.011-0.022,0.011
					c0.663,1.933,1.326,3.878,1.988,5.811c0.221,0.674,0.453,1.337,0.685,2.011c2.916,8.528,5.844,17.057,8.76,25.585
					c0.464,1.337-1.668,1.911-2.121,0.585l-9.478-27.684l-2.298-6.728c-0.077,0.022-0.166,0.033-0.265,0.033
					c-15.831,0.353-31.683-0.221-47.437-1.723c-0.597-0.354-1.193-0.707-1.779-1.072c0.508-0.232,1.027-0.442,1.547-0.652
					c0.342-0.144,0.652-0.276,0.994-0.409c0,0,0,0.011,0.011,0c0,0.022,0.011,0.022,0.022,0c15.334,1.447,30.755,1.988,46.166,1.668
					l-2.176-6.363c-0.111-0.011-0.232-0.044-0.354-0.099c-16.604-7.976-32.766-16.836-48.409-26.558l-0.011-0.011
					c-0.188-0.298-0.376-0.586-0.552-0.884c-0.409-0.696-0.818-1.392-1.215-2.121C199.724,356.943,200.221,357.02,200.707,357.108z"
					/>
			</g>
			<path style="fill:#F07B3F;" d="M264.797,332.329c0.011,0.033,0.022,0.044,0.022,0.077v0.011
				c6.12,21.387,19.023,45.183,39.262,54.032c0.663,0.298,1.337,0.574,2.011,0.84c0.475,0.177,0.95,0.342,1.425,0.508
				c21.078,7.147,43.438,5.479,63.588-3.734c0.906-0.409,1.801-0.84,2.695-1.281c-0.608-0.342-1.215-0.663-1.834-0.983
				c-11.213-5.899-23.519-9.368-36.169-10.296c18.04-4.342,34.357-14.56,45.404-29.397c0.597-0.806,1.182-1.624,1.757-2.464
				c-0.707,0.033-1.425,0.077-2.132,0.133c-16.173,1.193-31.783,6.893-44.741,16.67c13.212-19.366,19.211-42.808,17.775-66.173
				c-0.055-0.961-0.121-1.922-0.21-2.883c-0.519,0.508-1.027,1.016-1.535,1.525c-16.792,16.891-30.104,37.185-37.627,59.776
				c-0.365-17.3-3.358-33.915-8.76-50.309v-0.011c-0.188-0.596-0.387-1.193-0.585-1.79c-0.641,1.502-1.237,3.027-1.79,4.551
				c0,0-0.011,0.011-0.011,0.022c-6.739,18.294-8.23,38.179-4.021,57.28c-7.888-11.169-18.526-19.763-31.131-24.834h-0.011
				C267.061,333.146,265.935,332.727,264.797,332.329z"/>
			<path style="fill:#CE5824;" d="M268.177,333.599h0.011c7.976,12.307,17.201,23.807,27.508,34.257
				c3.745,3.789,7.634,7.446,11.655,10.959c0.022,0.022,0.044,0.044,0.066,0.066c1.072-2.441,2.165-4.883,3.27-7.313
				c-5.513-20.216-8.12-41.206-7.678-62.151c0.055-2.751,0.166-5.513,0.331-8.263c0-0.011,0.011-0.022,0.011-0.022
				c0.552-1.525,1.149-3.049,1.79-4.551c0.199,0.597,0.398,1.193,0.585,1.79v0.011c-1.326,18.526-0.298,37.207,3.126,55.457
				c0.917,4.894,2.011,9.755,3.259,14.571c8.274-18.139,17.002-36.069,26.204-53.778c4.485-8.628,9.092-17.201,13.798-25.718
				c0.508-0.508,1.016-1.016,1.535-1.525c0.088,0.961,0.155,1.922,0.21,2.883c-8.959,16.239-17.532,32.7-25.707,49.348
				c-4.695,9.567-9.258,19.2-13.676,28.899c19.973-5.877,39.306-13.831,57.589-23.785c2.95-1.602,5.866-3.259,8.76-4.96
				c0.707-0.055,1.425-0.099,2.132-0.133c-0.575,0.84-1.16,1.657-1.757,2.464c-15.864,9.269-32.589,17.079-49.9,23.265
				c-5.667,2.022-11.401,3.866-17.178,5.546c-0.276,0.077-0.519,0.055-0.718-0.044c-0.972,2.121-1.933,4.242-2.872,6.363
				c17.653,4.198,35.859,5.899,53.988,5.06c2.486-0.121,4.971-0.276,7.446-0.497c0.619,0.32,1.226,0.641,1.834,0.983
				c-0.895,0.442-1.79,0.873-2.695,1.281c-15.367,1.226-30.855,0.641-46.1-1.734c-5.17-0.806-10.307-1.834-15.389-3.049
				c-1.193,2.662-2.364,5.336-3.524,8.009c-1.215,2.784-2.419,5.568-3.612,8.363c-4.585,10.771-9.014,21.608-13.279,32.512
				c-0.508,1.304-2.64,0.729-2.121-0.586c5.402-13.82,11.069-27.53,17.002-41.129c0.84-1.933,1.69-3.867,2.552-5.8
				c-0.287,0.033-0.574-0.044-0.84-0.276c-14.328-12.539-26.999-26.944-37.605-42.764c-1.149-1.712-2.276-3.447-3.369-5.192v-0.011
				c0-0.033-0.011-0.044-0.022-0.077C265.935,332.727,267.061,333.146,268.177,333.599z"/>
		</g>
		<g>
			<path style="fill:#F07B3F;" d="M298.639,425.072v6.96c0,12.108-9.81,21.918-21.918,21.918c-6.264,0-11.909-2.629-15.908-6.849
				c-3.712-3.922-5.999-9.224-5.999-15.068v-6.96H298.639z"/>
			<path style="fill:#CE5824;" d="M298.639,425.072v6.96c0,12.108-9.81,21.918-21.918,21.918c-6.264,0-11.909-2.629-15.908-6.849
				c6.971,1.359,14.174,1.469,20.437-1.635c4.33-2.143,7.899-5.767,9.987-10.108c1.535-3.193,2.265-6.75,2.132-10.285H298.639z"/>
		</g>
	</g>
	<g>
		<g>
			<g>
				<polygon style="fill:#E7AC8D;" points="369.887,434.238 372.863,445.772 380.8,445.772 379.444,433.575 				"/>
				<g>
					<path style="fill:#2D4059;" d="M381.636,452.877c-0.073,1.069-0.178,1.74-0.178,1.74l-5.534,0.702
						c0,0-8.017,1.708-23.864,0.021c-0.063-3.563,3.909-4.758,8.709-5.953c4.014-1.006,8.604-2.023,11.885-4.433h8.143
						C381.751,447.742,381.751,450.949,381.636,452.877z"/>
					<path style="fill:#FFD460;" d="M381.636,452.877c-0.073,1.069-0.178,1.74-0.178,1.74l-5.534,0.702
						c0,0-8.017,1.708-23.864,0.021c-0.063-3.563,3.909-4.758,8.709-5.953c1.059,1.258,1.719,2.851,1.824,4.496
						C368.965,454.156,375.327,453.831,381.636,452.877z"/>
					<g>
						<path style="fill:#FFD460;" d="M367.916,448.275c-0.245-0.425-0.558-0.819-0.92-1.15c-0.101-0.093-0.229-0.153-0.369-0.153
							c-0.128,0-0.281,0.057-0.369,0.153c-0.091,0.099-0.159,0.23-0.153,0.369c0.006,0.135,0.05,0.275,0.153,0.369
							c0.169,0.155,0.322,0.325,0.465,0.504c0.104,0.14,0.204,0.284,0.292,0.435c0.065,0.113,0.186,0.205,0.312,0.24
							c0.125,0.034,0.291,0.019,0.402-0.053c0.111-0.072,0.209-0.179,0.24-0.312C368,448.54,367.988,448.4,367.916,448.275z"/>
						<path style="fill:#FFD460;" d="M370.464,447.852c-0.357-0.563-0.783-1.086-1.269-1.543c-0.199-0.187-0.543-0.212-0.737,0
							c-0.186,0.203-0.212,0.538,0,0.737c0.274,0.258,0.525,0.538,0.758,0.834c0.122,0.162,0.24,0.327,0.348,0.498
							c0.072,0.113,0.181,0.204,0.312,0.24c0.125,0.034,0.291,0.019,0.402-0.053C370.507,448.417,370.62,448.099,370.464,447.852z"
							/>
						<path style="fill:#FFD460;" d="M372.585,446.904c-0.423-0.498-0.846-0.997-1.269-1.495c-0.082-0.097-0.246-0.153-0.369-0.153
							c-0.128,0-0.281,0.057-0.369,0.153c-0.091,0.099-0.159,0.23-0.153,0.369c0.007,0.145,0.059,0.258,0.153,0.369
							c0.423,0.498,0.846,0.997,1.27,1.495c0.082,0.097,0.246,0.153,0.369,0.153c0.128,0,0.281-0.057,0.369-0.153
							c0.091-0.099,0.159-0.23,0.153-0.369C372.732,447.128,372.679,447.014,372.585,446.904z"/>
					</g>
				</g>
				<g>
					<g>
						<path style="fill:#2D4059;" d="M368.285,297.204l24.525,5.948l-2.627,16.237c-4.695,16.387-9.492,42.257-13.918,59.848
							l6.019,48.694c0.702,5.038-3.016,9.679-8.095,9.95c-0.076,0.004-0.151,0.008-0.227,0.011
							c-4.261,0.182-7.977-2.899-8.787-7.086c-2.246-11.61-7.479-40.378-6.721-54.428
							C359.442,358.086,368.285,297.204,368.285,297.204z"/>
					</g>
				</g>
			</g>
			<g>
				<g>
					<polygon style="fill:#E7AC8D;" points="420.997,433.575 425.909,448.458 433.792,447.574 430.624,433.575 					"/>
					<g>
						<path style="fill:#2D4059;" d="M413.344,301.29l-26.161,3.968l3.001,14.132c0.882-0.117,12.317,63.426,27.467,111.713
							c1.076,3.428,4.411,5.691,7.984,5.315c0.055-0.006,0.111-0.012,0.166-0.018c4.464-0.506,7.448-4.855,6.482-9.243
							C429.301,413.614,422.446,375.224,413.344,301.29z"/>
					</g>
				</g>
				<g>
					<g>
						<path style="fill:#2D4059;" d="M436.217,455.099c-3.259,1.792-8.175,1.079-11.685-0.346c-0.566-0.23-1.142-0.514-1.509-0.996
							c-0.283-0.388-0.419-0.954-0.419-1.541c0-0.692,0.157-1.415,0.398-1.897c1.121-2.232,2.499-5.446,6.023-5.823
							c4.776-0.511,7.927,2.899,9.09,6.221C438.691,452.353,438.292,453.967,436.217,455.099z"/>
						<path style="fill:#FFD460;" d="M436.217,455.099c-3.259,1.792-8.175,1.079-11.685-0.346c-0.566-0.23-1.142-0.514-1.509-0.996
							c-0.283-0.388-0.419-0.954-0.419-1.541c0.776,0.44,1.625,0.755,2.494,0.912c0.503-1.551,1.813-2.777,3.217-3.616
							c1.404-0.838,3.176-1.09,4.727-0.555c1.551,0.534,2.819,1.876,3.154,3.479c0.723-0.43,1.415-1.027,1.918-1.719
							C438.691,452.353,438.292,453.967,436.217,455.099z"/>
					</g>
					<g>
						<path style="fill:#FFD460;" d="M431.888,446.213c-1.484-0.303-2.99-0.133-4.375,0.475c-0.258,0.113-0.317,0.49-0.187,0.713
							c0.156,0.266,0.454,0.301,0.714,0.187c1.11-0.487,2.386-0.612,3.571-0.37c0.276,0.056,0.563-0.08,0.641-0.364
							C432.323,446.597,432.165,446.27,431.888,446.213z"/>
						<path style="fill:#FFD460;" d="M431.773,444.628c-1.585-0.371-3.229-0.189-4.701,0.499c-0.255,0.119-0.32,0.486-0.187,0.713
							c0.153,0.262,0.457,0.307,0.713,0.187c1.208-0.564,2.603-0.697,3.898-0.394c0.274,0.064,0.565-0.085,0.642-0.364
							C432.21,445.005,432.048,444.693,431.773,444.628z"/>
					</g>
				</g>
			</g>
		</g>
		<g>
			<g>
				<g>
					<g>
						<g>
							<path style="fill:#E7AC8D;" d="M404.604,225.204c0,0-20.988,24.872-92.789,37.908l-1.248-7.48
								c0,0,44.162-12.025,72.344-31.531L404.604,225.204z"/>
						</g>
					</g>
					<g>
						<path style="fill:#E7AC8D;" d="M313.209,256.708c-0.743-0.553-1.538-1.026-2.358-1.443c-0.633,0.27-1.297,0.493-1.955,0.622
							c-0.446,0.087-0.899,0.125-1.345,0.213c-0.221,0.043-0.436,0.116-0.657,0.16c-0.188,0.038-0.353,0.052-0.519,0.058
							c-0.054,0.008-0.103,0.022-0.162,0.024l0.034,0.009c-1.638,0.346-3.326,0.441-4.994,0.264
							c-1.08-0.115-2.148-0.336-3.182-0.671c-0.789-0.256-1.752-0.604-2.42,0.107c-0.34,0.362-0.363,0.803-0.203,1.199
							c-0.253,0.404-0.272,0.948,0.002,1.412c0.076,0.128,0.171,0.245,0.274,0.355c-0.171,0.101-0.283,0.294-0.18,0.53
							c0.308,0.704,0.846,1.219,1.479,1.619c-0.035,0.148-0.006,0.311,0.14,0.437c2.783,2.392,6.568,3.473,10.202,3.036
							c1.699-0.205,3.723-0.716,5.062-1.841C314.082,261.409,313.682,257.06,313.209,256.708z"/>
						<path style="fill:#2D4059;" d="M307.326,277.003h-22.074c-1.322,0-2.482-0.88-2.839-2.153l-9.297-33.195
							c-0.526-1.88,0.887-3.743,2.839-3.743h22.074c1.322,0,2.482,0.88,2.839,2.153l9.297,33.195
							C310.691,275.14,309.278,277.003,307.326,277.003z"/>
						<path style="fill:#455D77;" d="M306.614,274.943h-20.856c-0.629,0-1.184-0.419-1.352-1.017l-2.117-7.431l-7.116-24.912
							c-0.262-0.891,0.419-1.792,1.352-1.792h20.856c0.629,0,1.184,0.419,1.352,1.027l1.174,4.108l2.086,7.315l1.991,6.959
							l3.982,13.949C308.217,274.052,307.547,274.943,306.614,274.943z"/>
						<path style="fill:#E7AC8D;" d="M304.179,253.602c-0.559,0.001-1.402-0.083-1.746,0.481c-0.35,0.574,0.077,1.19,0.626,1.416
							c0.749,0.308,1.616,0.439,2.398,0.645c0.263,0.069,0.526,0.138,0.789,0.208l6.962,0.357
							C310.592,254.761,307.445,253.597,304.179,253.602z"/>
						<g style="opacity:0.2;">
							<path style="fill:#FFFFFF;" d="M299.907,244.927l-11.046,30.015h-3.102c-0.629,0-1.184-0.419-1.352-1.017l-2.117-7.431
								l12.524-26.704h2.568c0.629,0,1.184,0.419,1.352,1.027L299.907,244.927z"/>
							<polygon style="fill:#FFFFFF;" points="303.983,259.201 298.974,274.943 294.352,274.943 301.992,252.242 							"/>
						</g>
					</g>
				</g>
				<path style="fill:#E85656;" d="M381.504,223.29c0,0-11.595,4.181-19.926,11.231l4.753,14.365c0,0,9.267-2.754,13.882-5.789
					L381.504,223.29z"/>
			</g>
			<g>
				<g>
					<g>
						<g>
							<path style="fill:#E85656;" d="M392.745,220.921c-3.356,0.288-7.195,1.197-11.241,2.37c0,0-8.698,20.04-14.63,75.401
								c25.111,12.989,47.979,4.461,47.979,4.461c-1.604-14.834,2.48-72.074-1.033-76.375c-3.182-1.699-10.404-4.705-10.404-4.705
								L392.745,220.921z"/>
						</g>
					</g>
				</g>
				<path style="fill:#C6383F;" d="M400.813,243.764l9.012,1.201l-0.361,5.527c-0.175,2.683-2.556,4.676-5.228,4.377l0,0
					c-2.61-0.293-4.478-2.662-4.152-5.269L400.813,243.764z"/>
			</g>
			<g>
				<g>
					<g>
						<g>
							<g>
								<path style="fill:#E7AC8D;" d="M417.411,230.6c-4.437,2.99-4.436,5.415-6.481,12.498c4.381,5.772,8.626,13.75,10.878,22.361
									c0,0-18.519-6.566-29.183-14.285l-5.228,5.103c0,0,34.204,26.657,43.488,18.733
									C440.169,267.086,417.411,230.6,417.411,230.6z"/>
							</g>
						</g>
						<g>
							<path style="fill:#E7AC8D;" d="M387.416,256.295c0.38,0.4,4.464,0.282,5.568-1.411c0.894-1.37,1.141-3.308,1.139-4.909
								c-0.003-3.425-1.434-6.818-3.969-9.133c-0.134-0.122-0.288-0.13-0.421-0.081c-0.443-0.543-0.982-0.984-1.671-1.191
								c-0.231-0.069-0.398,0.056-0.472,0.227c-0.114-0.084-0.233-0.159-0.361-0.215c-0.462-0.202-0.965-0.124-1.312,0.157
								c-0.386-0.104-0.792-0.033-1.09,0.324c-0.585,0.701-0.153,1.555,0.173,2.259c0.428,0.922,0.753,1.889,0.982,2.879
								c0.353,1.529,0.455,3.107,0.318,4.668c-0.094-0.236-0.188-0.473-0.282-0.71c-0.279-0.703-0.498-1.494-0.869-2.155
								c-0.272-0.485-0.892-0.812-1.386-0.422c-0.485,0.383-0.313,1.157-0.25,1.676
								C383.877,251.292,385.312,254.084,387.416,256.295z"/>
							<path style="fill:#BC6F4D;" d="M389.309,253.142c-0.019,0.008-0.039,0.013-0.061,0.017c-0.166,0.028-0.322-0.083-0.351-0.249
								c-0.2-1.182-0.852-2.288-1.789-3.036c-0.131-0.105-0.152-0.296-0.048-0.428c0.107-0.131,0.297-0.153,0.428-0.048
								c1.053,0.84,1.785,2.083,2.009,3.41C389.522,252.953,389.44,253.091,389.309,253.142z"/>
						</g>
					</g>
				</g>
				<path style="fill:#E85656;" d="M413.82,226.777c0,0,7.035,5.3,13.523,20.32l-11.348,7.217l-6.892-12.665L413.82,226.777z"/>
			</g>
		</g>
		<g>
			<path style="fill:#5B3D31;" d="M418.159,202.147c-2.646,3.777-5.794,7.212-9.38,10.115c-1.265,1.024-2.821,2.255-4.565,1.782
				c-1.895-0.514-2.525-2.44-2.983-4.122c-2.1-7.712-9.884-12.194-12.083-19.906c-0.33-1.157-0.477-2.303-0.462-3.416
				c-1.794-2.773-1.985-6.541-0.47-9.476c1.515-2.935,4.346-5.069,7.472-6.134c3.126-1.065,6.528-1.13,9.792-0.628
				c1.122,0.173,2.47,0.646,2.624,1.771c0.157,1.143-1.044,1.958-2.076,2.473c2.225-0.359,4.378-0.234,6.587,0.214
				c0.813,0.165,1.729,0.483,2.013,1.263c0.184,0.506,0.03,1.093-0.305,1.514c-0.335,0.421-0.828,0.692-1.34,0.858
				c1.845-0.389,3.885,0.481,5.114,1.911c1.229,1.43,1.606,3.542,0.945,5.308c1.783,2.242,2.832,5.401,2.646,8.26
				C421.502,196.792,419.802,199.801,418.159,202.147z"/>
			<g>
				<path style="fill:#E7AC8D;" d="M414.711,188.84c-2.166-9.884-19.381-11.743-22.628-5.333
					c-6.682,13.185-6.363,19.49-3.447,23.914c3.375,5.12,6.444,5.488,4.109,13.499c-1.19,6.689,7.16,5.385,10.672,1.151
					c2.963-10.649,8.582-15.779,8.582-15.779S415.604,192.916,414.711,188.84z"/>
				<g>
					<g>
						<path d="M400.883,199.075c-0.169,0.579-0.776,0.912-1.355,0.743s-0.912-0.776-0.743-1.355
							c0.169-0.579,0.775-0.912,1.355-0.743C400.719,197.889,401.052,198.495,400.883,199.075z"/>
						<path style="fill:#FFFFFF;" d="M399.917,198.482c-0.062,0.212-0.284,0.334-0.496,0.272c-0.212-0.062-0.334-0.284-0.272-0.496
							c0.062-0.212,0.284-0.334,0.496-0.272C399.857,198.048,399.979,198.27,399.917,198.482z"/>
					</g>
					<g>
						<path d="M392.767,196.71c-0.169,0.579-0.776,0.912-1.355,0.743c-0.579-0.169-0.912-0.776-0.743-1.355
							c0.169-0.579,0.776-0.912,1.355-0.743C392.603,195.524,392.936,196.13,392.767,196.71z"/>
						<path style="fill:#FFFFFF;" d="M391.801,196.117c-0.062,0.212-0.284,0.334-0.496,0.272c-0.212-0.062-0.334-0.284-0.272-0.496
							c0.062-0.212,0.284-0.334,0.496-0.272S391.863,195.905,391.801,196.117z"/>
					</g>
					<path style="fill:#5B3D31;" d="M394.666,192.806c-1.051-1.301-2.778-1.748-4.333-1.036c-0.291,0.133-0.45,0.526-0.349,0.839
						c0.103,0.32,0.432,0.465,0.724,0.331c0.638-0.292,1.346-0.302,1.966-0.07c0.314,0.117,0.606,0.295,0.858,0.528
						c0.223,0.206,0.411,0.505,0.753,0.422c0.082-0.02,0.159-0.062,0.227-0.118C394.745,193.508,394.866,193.053,394.666,192.806z"
						/>
					<path style="fill:#5B3D31;" d="M398.757,193.998c1.779-0.477,3.726,0.148,4.837,1.637c0.208,0.279,0.137,0.697-0.142,0.9
						c-0.285,0.207-0.691,0.137-0.9-0.142c-0.456-0.611-1.145-1.019-1.885-1.182c-0.374-0.082-0.762-0.104-1.143-0.06
						c-0.336,0.038-0.695,0.176-0.98-0.089c-0.068-0.063-0.12-0.143-0.154-0.23C398.275,194.536,398.419,194.089,398.757,193.998z"
						/>
					<path style="fill:#BC6F4D;" d="M393.241,199.935c-0.059-0.017-0.103-0.072-0.103-0.137c0.001-0.97,0.394-1.186,0.723-1.196
						c0.333-0.008,0.676,0.177,1.017,0.554c0.053,0.058,0.048,0.149-0.011,0.202c-0.059,0.052-0.15,0.046-0.202-0.011
						c-0.281-0.312-0.55-0.467-0.797-0.46c-0.295,0.008-0.445,0.315-0.446,0.91c0,0.078-0.064,0.142-0.143,0.142
						C393.268,199.941,393.254,199.939,393.241,199.935z"/>
					<g>
						<path style="fill:#8E4136;" d="M396.276,203.945c-0.418,1.287-1.58,2.064-2.595,1.735c-1.016-0.329-1.5-1.64-1.082-2.928
							c0.418-1.288,1.58-2.064,2.595-1.735C396.209,201.346,396.693,202.657,396.276,203.945z"/>
						<path style="fill:#C16B5B;" d="M396.001,204.552c-0.244-0.164-0.53-0.306-0.848-0.409c-1.144-0.371-2.252-0.117-2.474,0.568
							c-0.003,0.01-0.004,0.02-0.007,0.029c0.209,0.449,0.555,0.792,1.008,0.939C394.524,205.953,395.466,205.462,396.001,204.552z"
							/>
						<path style="fill:#FFFFFF;" d="M395.194,201.017c-0.43-0.139-0.885-0.079-1.3,0.133c0.114,0.342,0.489,0.676,0.997,0.841
							c0.5,0.162,0.992,0.117,1.287-0.085C395.967,201.481,395.63,201.158,395.194,201.017z"/>
					</g>
				</g>
			</g>
			<path style="fill:#5B3D31;" d="M389.801,187.354c0,0-0.332-3.417,4.903-7.429c3.348-2.566,10.554-1.34,16.178,1.491
				c5.624,2.831,7.455,6.168,6.406,10.489c-1.049,4.321-2.167,9.771-2.167,9.771l-2.82,1.087c-1.387-2.009-1.228-4.846-1.092-7.283
				c0.136-2.437,0.15-5.117-1.388-7.012c-1.462-1.801-3.993-2.399-6.307-2.238c-2.314,0.161-4.53,0.953-6.796,1.448
				C394.452,188.173,392.085,187.76,389.801,187.354z"/>
			<g>
				<path style="fill:#E7AC8D;" d="M415.499,207.646c-1.89,1.264-4.236,1.072-5.24-0.428c-1.003-1.5-0.284-3.742,1.606-5.006
					c1.89-1.264,4.236-1.072,5.24,0.428C418.108,204.141,417.389,206.382,415.499,207.646z"/>
				<path style="fill:#BC6F4D;" d="M415.951,203.192c-0.505-0.489-1.304-0.706-2.138-0.579c-0.416,0.063-0.742,0.193-0.998,0.395
					c-0.339,0.268-0.529,0.674-0.497,1.058c0.028,0.344,0.217,0.618,0.383,0.859c0.12,0.175,0.234,0.34,0.277,0.509
					c0.065,0.261-0.059,0.563-0.288,0.704c-0.229,0.14-0.554,0.112-0.757-0.064c-0.119-0.104-0.299-0.091-0.403,0.028
					c-0.103,0.119-0.091,0.299,0.028,0.403c0.13,0.113,0.284,0.194,0.448,0.242c0.326,0.095,0.69,0.058,0.983-0.122
					c0.44-0.27,0.668-0.828,0.544-1.329c-0.067-0.27-0.223-0.496-0.361-0.695c-0.138-0.2-0.268-0.389-0.284-0.582
					c-0.016-0.194,0.095-0.415,0.283-0.564c0.076-0.06,0.169-0.107,0.269-0.149c0.273,0.077,0.589,0.26,0.707,0.498
					c0.132,0.269,0.134,0.603,0.005,0.873c-0.068,0.142-0.008,0.312,0.134,0.381c0.014,0.007,0.029,0.012,0.044,0.017
					c0.132,0.038,0.276-0.023,0.337-0.151c0.206-0.429,0.204-0.942-0.007-1.371c-0.079-0.159-0.198-0.287-0.329-0.4
					c0.489,0.01,0.93,0.164,1.223,0.449c0.363,0.351,0.516,1.031,0.157,1.443c-0.103,0.119-0.091,0.299,0.028,0.403
					c0.119,0.103,0.299,0.091,0.403-0.028C416.663,204.82,416.576,203.799,415.951,203.192z"/>
			</g>
		</g>
	</g>
	<g>
		<g>
			<g>
				<g>
					<path style="fill:#F07B3F;" d="M195.72,82.192c2.069,4.127,0.401,9.15-3.726,11.219c-4.127,2.069-9.15,0.401-11.219-3.726
						c-2.069-4.127-0.401-9.15,3.726-11.219C188.628,76.397,193.651,78.065,195.72,82.192z"/>
					<path style="fill:#FFD460;" d="M208.598,67.086l-3.093,1.55l-8.275-16.506c-4.257-8.49-14.589-11.922-23.079-7.665
						s-11.922,14.59-7.665,23.079l8.275,16.506l-3.093,1.55c-1.776,0.89-2.494,3.052-1.603,4.828
						c0.89,1.776,3.052,2.494,4.828,1.603l36.93-18.515c1.776-0.89,2.494-3.052,1.603-4.828
						C212.536,66.914,210.374,66.196,208.598,67.086z"/>
				</g>
				<g>
					<path style="fill:#FFD460;" d="M200.762,41.198c-5.901-6.908-15.686-9.912-24.464-7.665c-1.974,0.505-1.137,3.561,0.842,3.055
						c7.751-1.984,16.201,0.786,21.381,6.85C199.849,44.99,202.08,42.741,200.762,41.198z"/>
					<path style="fill:#FFD460;" d="M207.881,50.743c-0.265-0.695-0.574-1.373-0.975-2c-0.398-0.622-0.863-1.212-1.379-1.74
						c-0.282-0.288-0.719-0.464-1.12-0.464c-0.389,0-0.853,0.173-1.12,0.464c-0.277,0.302-0.483,0.698-0.464,1.12
						c0.019,0.423,0.163,0.812,0.464,1.12c0.193,0.197,0.368,0.408,0.542,0.621c0.414,0.563,0.769,1.166,1.041,1.81
						c-0.003-0.006-0.005-0.013-0.008-0.019c0.148,0.362,0.339,0.67,0.692,0.877c0.339,0.199,0.84,0.283,1.221,0.16
						c0.383-0.124,0.753-0.362,0.947-0.728C207.909,51.607,208.03,51.135,207.881,50.743z"/>
				</g>
			</g>
			<g>
				<path style="fill:#E85656;" d="M168.352,67.561H95.681c-3.581,0-6.483-2.903-6.483-6.483v-6.727c0-3.58,2.903-6.483,6.483-6.483
					h72.671c3.581,0,6.483,2.903,6.483,6.483v6.727C174.835,64.659,171.933,67.561,168.352,67.561z"/>
				
					<text transform="matrix(1 0 0 1 95.9122 63.0309)" style="fill:#FFFFFF; font-family:'RobotoCondensed-Bold'; font-size:14.7514px;">9.999.999...</text>
			</g>
		</g>
		<g>
			<g>
				<polygon style="fill:#FFD460;" points="434.526,167.545 254.343,167.545 226.085,63.548 406.268,63.548 				"/>
				<g>
					<g>
						<polygon style="fill:#EDBE48;" points="405.719,95.137 370.304,95.137 364.332,73.161 399.748,73.161 						"/>
						<polygon style="fill:#EDBE48;" points="414.382,127.016 378.966,127.016 372.995,105.04 408.41,105.04 						"/>
						<polygon style="fill:#EDBE48;" points="423.044,158.895 387.628,158.895 381.657,136.919 417.072,136.919 						"/>
					</g>
					<g>
						<polygon style="fill:#EDBE48;" points="377.827,158.895 261.794,158.895 238.498,73.161 354.531,73.161 						"/>
						<polygon style="fill:#F07B3F;" points="369.894,152.872 266.453,152.872 265.84,150.615 369.281,150.615 						"/>
						<g>
							
								<ellipse transform="matrix(0.6578 -0.7532 0.7532 0.6578 18.0645 271.8157)" style="fill:#F07B3F;" cx="308.163" cy="116.028" rx="19.337" ry="25.353"/>
							<polygon style="fill:#FFFFFF;" points="324.076,116.028 295.171,101.603 303.01,130.453 324.076,116.028 295.171,101.603 
								303.01,130.453 							"/>
						</g>
					</g>
				</g>
			</g>
			<g>
				<polygon style="fill:#EDBE48;" points="191.913,131.135 78.284,131.135 120.112,276.232 233.741,276.232 				"/>
				<g>
					<polygon style="fill:#FFD460;" points="270.355,253.026 156.727,253.026 114.899,107.93 228.527,107.93 					"/>
					<polygon style="fill:#F07B3F;" points="226.085,119.465 126.115,119.465 124.591,114.178 224.561,114.178 					"/>
					<polygon style="fill:#EDBE48;" points="235.657,165.784 143.249,165.784 131.591,125.344 223.999,125.344 					"/>
					<g>
						<polygon style="fill:#EDBE48;" points="189.721,175.807 145.722,175.807 144.739,172.399 188.738,172.399 						"/>
						<polygon style="fill:#EDBE48;" points="191.975,183.628 147.976,183.628 146.994,180.22 190.993,180.22 						"/>
						<polygon style="fill:#EDBE48;" points="194.23,191.449 150.231,191.449 149.249,188.041 193.247,188.041 						"/>
						<polygon style="fill:#EDBE48;" points="196.485,199.27 152.486,199.27 151.503,195.862 195.502,195.862 						"/>
						<polygon style="fill:#EDBE48;" points="198.739,207.092 154.74,207.092 153.758,203.684 197.757,203.684 						"/>
						<polygon style="fill:#EDBE48;" points="200.994,214.913 156.995,214.913 156.012,211.505 200.011,211.505 						"/>
						<polygon style="fill:#EDBE48;" points="203.249,222.734 159.25,222.734 158.267,219.326 202.266,219.326 						"/>
						<polygon style="fill:#EDBE48;" points="205.503,230.555 161.504,230.555 160.522,227.147 204.521,227.147 						"/>
						<polygon style="fill:#EDBE48;" points="207.758,238.376 163.759,238.376 162.776,234.968 206.775,234.968 						"/>
						<polygon style="fill:#EDBE48;" points="210.012,246.197 166.014,246.197 165.031,242.789 209.03,242.789 						"/>
					</g>
					<g>
						<polygon style="fill:#EDBE48;" points="194.964,175.807 238.963,175.807 237.98,172.399 193.981,172.399 						"/>
						<polygon style="fill:#EDBE48;" points="197.218,183.628 241.217,183.628 240.235,180.22 196.236,180.22 						"/>
						<polygon style="fill:#EDBE48;" points="199.473,191.449 243.472,191.449 242.49,188.041 198.491,188.041 						"/>
						<polygon style="fill:#EDBE48;" points="201.728,199.27 245.727,199.27 244.744,195.862 200.745,195.862 						"/>
						<polygon style="fill:#EDBE48;" points="203.982,207.092 247.981,207.092 246.999,203.684 203,203.684 						"/>
						<polygon style="fill:#EDBE48;" points="206.237,214.913 250.236,214.913 249.253,211.505 205.255,211.505 						"/>
						<polygon style="fill:#EDBE48;" points="208.492,222.734 252.491,222.734 251.508,219.326 207.509,219.326 						"/>
						<polygon style="fill:#EDBE48;" points="210.746,230.555 254.745,230.555 253.763,227.147 209.764,227.147 						"/>
						<polygon style="fill:#EDBE48;" points="213.001,238.376 257,238.376 256.017,234.968 212.019,234.968 						"/>
						<polygon style="fill:#EDBE48;" points="215.256,246.197 259.255,246.197 258.272,242.789 214.273,242.789 						"/>
					</g>
				</g>
			</g>
			<g>
				<polygon style="fill:#FFD460;" points="347.992,229.674 271.456,229.674 256.62,177.022 333.157,177.022 				"/>
				<path style="fill:#EDBE48;" d="M324.247,195.752l-8.838,14.187l-28.698-24.37c0,0-12.151,15.253-17.811,21.958l5.25,18.634
					h69.167l-4.764-16.906L324.247,195.752z"/>
			</g>
		</g>
		<g>
			<path style="fill:#E85656;" d="M323.616,54.071h-88.92c-6.947,0-14.387-5.632-16.618-12.579l0,0
				c-2.231-6.947,1.592-12.579,8.54-12.579h88.92c6.947,0,14.388,5.632,16.618,12.579l0,0
				C334.387,48.439,330.563,54.071,323.616,54.071z"/>
			
				<text transform="matrix(0.9521 0 0.3058 0.9521 230.9331 48.5895)" style="fill:#FFFFFF; font-family:'RobotoCondensed-Bold'; font-size:21.1144px;">INFODEMIC</text>
		</g>
		<g>
			<g>
				<path style="fill:#E85656;" d="M232.544,113.105c-24.807,0-39.022,20.112-31.763,44.918
					c7.257,24.796,33.243,44.908,58.05,44.908c24.807,0,39.022-20.112,31.766-44.908
					C283.338,133.216,257.351,113.105,232.544,113.105z M235.145,121.992c8.353,0,16.866,2.84,24.368,7.598l-35.758,50.567
					c-6.557-6.11-11.645-13.792-14.086-22.134C203.845,138.121,215.254,121.992,235.145,121.992z M256.231,194.044
					c-8.342,0-16.855-2.84-24.361-7.609l35.761-50.557c6.557,6.11,11.648,13.802,14.089,22.145
					C287.542,177.915,276.133,194.044,256.231,194.044z"/>
			</g>
			<g>
				<g>
					<path style="fill:#E85656;" d="M100.464,285.708c-19.002,0-39.734-15.459-46.216-34.46
						c-6.483-19.002,3.702-34.461,22.704-34.461s39.734,15.459,46.216,34.461C129.65,270.249,119.466,285.708,100.464,285.708z
						 M79.454,224.123c-14.956,0-22.973,12.168-17.87,27.124c5.102,14.956,21.422,27.124,36.377,27.124
						c14.956,0,22.973-12.168,17.87-27.124C110.729,236.291,94.41,224.123,79.454,224.123z"/>
				</g>
				<g>
					<path style="fill:#E85656;" d="M86.326,259.118c-0.858-2.569-1.136-4.478-0.833-5.725c0.301-1.247,1.183-2.749,2.643-4.506
						c0.702-1.044,1.149-2.196,1.342-3.458c0.194-1.261,0.012-2.708-0.545-4.34c-0.596-1.745-1.422-3.13-2.48-4.155
						c-1.058-1.024-2.239-1.537-3.542-1.537c-1.002,0-1.719,0.445-2.153,1.333c-0.433,0.888-0.38,2.154,0.162,3.797h-7.821
						l-0.115-0.17c-1.326-3.722-1.243-6.551,0.251-8.488c1.493-1.936,3.987-2.905,7.482-2.905c3.779,0,7.121,1.091,10.029,3.273
						c2.908,2.182,4.997,5.134,6.267,8.856c0.806,2.362,0.947,4.548,0.423,6.56c-0.522,2.012-1.459,3.698-2.808,5.059
						c-0.667,0.869-1.01,1.762-1.028,2.678c-0.018,0.917,0.241,2.159,0.776,3.727H86.326z M98.31,270.822h-7.963l-2.388-7h7.963
						L98.31,270.822z"/>
				</g>
			</g>
			<g>
				<path style="fill:#E85656;" d="M415.169,80.066c-21.06,0-33.922,17.133-28.672,38.193c5.25,21.06,26.654,38.193,47.714,38.193
					c21.06,0,33.923-17.133,28.673-38.193C457.634,97.199,436.229,80.066,415.169,80.066z M432.184,148.322
					c-16.576,0-33.424-13.486-37.556-30.062c-4.132-16.576,5.992-30.063,22.568-30.063c16.577,0,33.425,13.486,37.557,30.063
					C458.885,134.835,448.761,148.322,432.184,148.322z"/>
				<polygon style="fill:#E85656;" points="432.097,100.734 423.257,112.509 408.546,100.734 404.231,106.484 418.941,118.259 
					410.101,130.033 417.283,135.783 426.123,124.008 440.834,135.783 445.149,130.033 430.439,118.259 439.279,106.484 				"/>
			</g>
		</g>
		<g>
			<g>
				<path style="fill:#2D4059;" d="M139.362,111.559c-14.819-16.789-40.433-18.382-57.222-3.574
					c-15.736,13.889-18.122,37.27-6.159,53.963L46.362,188.09c-1.723,1.52-1.887,4.149-0.366,5.872
					c1.52,1.723,4.15,1.887,5.872,0.366l29.618-26.142c15.079,13.945,38.576,14.474,54.313,0.594
					C152.577,153.962,154.181,128.338,139.362,111.559z M130.695,163.006c-13.593,12-34.344,10.711-46.354-2.893
					c-12-13.593-10.7-34.354,2.893-46.354c13.603-12,34.354-10.711,46.354,2.893C145.587,130.245,144.298,151.007,130.695,163.006z"
					/>
				<path style="opacity:0.3;fill:#9FD1FF;" d="M130.695,163.006c-10.208,9.013-24.451,10.533-36,4.957
					c-2.557-1.226-4.978-2.798-7.189-4.716c-1.111-0.964-2.169-2.002-3.165-3.134c-0.241-0.273-0.472-0.545-0.692-0.828
					c-3.27-3.93-5.45-8.426-6.592-13.1c-2.788-11.476,0.713-24.073,10.176-32.426c8.374-7.389,19.451-9.736,29.523-7.273
					c4.727,1.142,9.223,3.343,13.132,6.571c1.299,1.09,2.547,2.285,3.699,3.595c0.084,0.094,0.157,0.178,0.231,0.272
					c1.928,2.232,3.511,4.643,4.727,7.179C144.801,137.036,141.992,153.04,130.695,163.006z"/>
			</g>
			<g>
				<path style="fill:#FFFFFF;" d="M129.888,113.057l-46.239,46.229c-3.27-3.93-5.45-8.426-6.592-13.1l39.699-39.699
					C121.482,107.629,125.979,109.829,129.888,113.057z"/>
				<path style="fill:#FFFFFF;" d="M138.544,124.104l-43.849,43.86c-2.557-1.226-4.978-2.798-7.189-4.716l46.312-46.323
					C135.746,119.157,137.329,121.567,138.544,124.104z"/>
			</g>
		</g>
	</g>
	<g>
		<g>
			<g>
				<rect x="194.342" y="443.873" style="fill:#2D4059;" width="5.297" height="10.076"/>
				<rect x="126.687" y="443.873" style="fill:#2D4059;" width="5.297" height="10.076"/>
				<rect x="86.675" y="443.873" style="fill:#2D4059;" width="5.297" height="10.076"/>
			</g>
			<g>
				<rect x="119.108" y="343.638" style="fill:#CE5824;" width="80.531" height="92.656"/>
				<rect x="82.26" y="336.059" style="fill:#F07B3F;" width="44.427" height="107.814"/>
				<rect x="199.639" y="343.638" style="fill:#F07B3F;" width="7.579" height="92.656"/>
				
					<rect x="159.374" y="353.491" transform="matrix(-1.836970e-16 1 -1 -1.836970e-16 553.1294 226.803)" style="fill:#F07B3F;" width="7.579" height="72.951"/>
				
					<rect x="159.374" y="295.794" transform="matrix(-1.836970e-16 1 -1 -1.836970e-16 503.0121 176.6857)" style="fill:#F07B3F;" width="7.579" height="88.11"/>
				
					<rect x="159.374" y="396.029" transform="matrix(-1.836970e-16 1 -1 -1.836970e-16 603.2468 276.9204)" style="fill:#F07B3F;" width="7.579" height="88.11"/>
				<g>
					<rect x="127.025" y="343.638" style="fill:#B74316;" width="29.63" height="42.538"/>
					<rect x="127.025" y="393.756" style="fill:#B74316;" width="29.63" height="42.538"/>
				</g>
			</g>
		</g>
		<g>
			<path style="fill:#E85656;" d="M168.106,336.059l-53.207,0c-2.593-3.627-2.593-7.255,0-10.882h53.207V336.059z"/>
			<path style="fill:#FFD460;" d="M168.106,334.311h-39.571c-1.167-2.653-1.289-5.135,0-7.385h39.571V334.311z"/>
		</g>
	</g>
</g>
</svg>
