<?xml version="1.0" encoding="utf-8"?>
<!-- Generator: Adobe Illustrator 27.5.0, SVG Export Plug-In . SVG Version: 6.00 Build 0)  -->
<svg version="1.1" xmlns="http://www.w3.org/2000/svg" xmlns:xlink="http://www.w3.org/1999/xlink" x="0px" y="0px"
	 viewBox="0 0 500 500" style="enable-background:new 0 0 500 500;" xml:space="preserve">
<g id="BACKGROUND">
	<rect y="0" style="fill:#FFFFFF;" width="500" height="500"/>
</g>
<g id="OBJECTS">
	<g>
		<g>
			<g>
				<polygon style="fill:#CD2B7B;" points="336.179,114.59 332.179,114.59 332.179,99.099 347.671,99.099 347.671,103.099 
					336.179,103.099 				"/>
			</g>
			<g>
				<polygon style="fill:#CD2B7B;" points="386.773,114.59 382.773,114.59 382.773,103.099 371.282,103.099 371.282,99.099 
					386.773,99.099 				"/>
			</g>
			<g>
				<polygon style="fill:#CD2B7B;" points="347.671,153.693 332.179,153.693 332.179,138.201 336.179,138.201 336.179,149.693 
					347.671,149.693 				"/>
			</g>
			<g>
				<polygon style="fill:#CD2B7B;" points="386.773,153.693 371.282,153.693 371.282,149.693 382.773,149.693 382.773,138.201 
					386.773,138.201 				"/>
			</g>
		</g>
		
			<ellipse transform="matrix(0.7071 -0.7071 0.7071 0.7071 15.9129 291.2086)" style="fill:#6FB1FE;" cx="359.476" cy="126.396" rx="20.238" ry="20.238"/>
		
			<ellipse transform="matrix(0.2314 -0.9729 0.9729 0.2314 153.321 446.8627)" style="fill:#F9FBFC;" cx="359.476" cy="126.396" rx="16.865" ry="16.865"/>
		
			<ellipse transform="matrix(0.2311 -0.9729 0.9729 0.2311 153.4317 446.9339)" style="fill:#FACC07;" cx="359.476" cy="126.396" rx="13.492" ry="13.492"/>
		<g>
			<g>
				<rect x="357.976" y="122.549" style="fill:#F9FBFC;" width="3" height="7.694"/>
			</g>
			<g>
				<rect x="355.629" y="124.896" style="fill:#F9FBFC;" width="7.695" height="3"/>
			</g>
		</g>
		<g>
			<g>
				
					<rect x="363.127" y="111.778" transform="matrix(0.7071 -0.7071 0.7071 0.7071 28.5312 296.4352)" style="fill:#131D42;" width="17.935" height="4"/>
			</g>
			<g>
				<polygon style="fill:#131D42;" points="373.363,122.118 363.754,122.118 363.754,112.509 367.754,112.509 367.754,118.118 
					373.363,118.118 				"/>
			</g>
		</g>
	</g>
	<g>
		<path style="fill:#FACC07;" d="M243.836,113.763c-33.29,3.009-59.559,30.841-60.688,64.247
			c-0.839,24.812,11.77,46.601,30.992,58.831c7.32,4.657,12.339,12.189,14.349,20.629l4.561,19.154l18.96-0.397l18.96-0.397
			l3.789-19.508c1.674-8.619,6.64-16.227,13.81-21.295c17.528-12.391,28.792-32.977,28.308-56.054
			C316.069,140.461,282.869,110.235,243.836,113.763z"/>
		<g>
			<path style="fill:#EA830C;" d="M246.002,284.069c-0.074,0.002-0.149-0.001-0.225-0.008c-1.057-0.1-1.834-1.038-1.733-2.096
				c2.489-26.274,0.738-49.451-2.812-63.13c-0.461-0.022-0.928-0.048-1.4-0.076c-8.137-0.241-11.152-3.654-12.22-5.664
				c-1.217-2.295-1.125-4.953,0.246-7.116c1.456-2.296,4.087-3.577,7.024-3.445c1.569,0.076,3.056,0.911,4.42,2.483
				c1.75,2.019,3.382,5.458,4.792,10.073c5.168,0.123,9.407-0.145,12.864-0.658c1.91-4.636,4.424-8.512,7.209-10.704
				c2.671-2.106,4.942-2.091,6.377-1.719c2.979,0.785,4.678,3.21,4.225,6.036c-0.617,3.861-5.055,7.924-14.975,9.824
				c-1.688,4.71-2.786,10.249-2.674,15.629c-0.488,17.077,0.998,48.029,1.013,48.34c0.051,1.061-0.767,1.962-1.828,2.015
				c-1.04,0.069-1.962-0.767-2.014-1.829c-0.015-0.311-1.509-31.413-1.016-48.541c-0.105-4.905,0.734-10.17,2.22-14.972
				c-3.034,0.34-6.471,0.506-10.339,0.448c3.549,14.398,5.191,37.256,2.716,63.368C247.78,283.311,246.965,284.049,246.002,284.069z
				 M234.335,206.374c-1.403,0.029-2.566,0.625-3.227,1.666c-0.63,0.994-0.665,2.178-0.096,3.252
				c1.15,2.167,4.428,3.488,8.994,3.623c0.026,0.001,0.051,0.003,0.077,0.006c-1.12-3.353-2.367-5.863-3.685-7.383
				c-0.63-0.725-1.233-1.137-1.696-1.159C234.577,206.372,234.455,206.371,234.335,206.374z M268.99,205.663
				c-0.725,0.015-1.543,0.378-2.441,1.087c-1.672,1.316-3.392,3.699-4.897,6.729c6.762-1.805,9.095-4.634,9.32-6.042
				c0.178-1.116-0.804-1.548-1.405-1.706C269.382,205.682,269.19,205.659,268.99,205.663z"/>
		</g>
		<polygon style="fill:#FF3E98;" points="262.254,307.676 243.094,308.078 238.695,298.834 266.261,298.256 		"/>
		<path style="fill:#CD2B7B;" d="M273.637,274.427l-43.31,0.908c-2.506,0.052-4.494,2.126-4.441,4.632l0.109,5.199
			c0.053,2.506,2.126,4.494,4.632,4.442l0.291-0.006c-1.239,1.315-1.986,3.093-1.946,5.041c0.083,3.941,3.345,7.069,7.286,6.987
			l32.556-0.683c3.941-0.083,7.07-3.345,6.987-7.286c-0.041-1.948-0.862-3.694-2.155-4.955l0.29-0.006
			c2.506-0.053,4.494-2.126,4.442-4.632l-0.109-5.199C278.216,276.363,276.143,274.374,273.637,274.427z"/>
		<path style="fill:#AE115D;" d="M273.637,274.427l-21.196,0.445l0.73,26.403l15.643-0.328c3.941-0.083,7.069-3.345,6.987-7.286
			c-0.041-1.948-0.862-3.694-2.155-4.956l0.29-0.006c2.506-0.053,4.494-2.126,4.442-4.632l-0.109-5.199
			C278.216,276.363,276.143,274.374,273.637,274.427z"/>
	</g>
	<g>
		<path style="fill:#6FB1FE;" d="M444.084,360.77c-0.118-2.304-0.577-4.543-1.343-6.655c5.082-3.759,8.129-6.3,7.877-6.675
			l-4.973-7.403c-0.253-0.378-3.756,1.486-9.159,4.765c-1.667-1.504-3.565-2.778-5.652-3.757c0.932-6.249,1.293-10.2,0.847-10.288
			l-8.75-1.718c-0.445-0.087-1.607,3.706-3.106,9.844c-2.303,0.117-4.54,0.579-6.653,1.341c-3.76-5.078-6.3-8.129-6.678-7.875
			l-7.401,4.974c-0.376,0.252,1.485,3.756,4.768,9.158c-1.508,1.666-2.781,3.564-3.76,5.653c-6.25-0.935-10.2-1.292-10.288-0.847
			l-1.718,8.75c-0.087,0.444,3.706,1.604,9.844,3.105c0.117,2.303,0.577,4.543,1.344,6.654c-5.082,3.761-8.13,6.301-7.877,6.677
			l4.971,7.402c0.254,0.377,3.758-1.486,9.16-4.765c1.668,1.506,3.565,2.778,5.652,3.756c-0.934,6.251-1.292,10.203-0.848,10.29
			l8.75,1.718c0.446,0.088,1.606-3.707,3.106-9.847c2.303-0.116,4.541-0.576,6.653-1.34c3.762,5.079,6.3,8.127,6.677,7.875
			l7.403-4.972c0.375-0.253-1.485-3.757-4.767-9.16c1.508-1.665,2.779-3.564,3.76-5.652c6.248,0.932,10.2,1.292,10.288,0.848
			l1.718-8.75C454.016,363.431,450.221,362.267,444.084,360.77z"/>
		<path style="fill:#4A80E8;" d="M435.591,364.819c-1.581,8.052-9.39,13.297-17.443,11.716c-8.052-1.581-13.298-9.39-11.717-17.442
			c1.581-8.05,9.39-13.296,17.442-11.715C431.926,348.959,437.172,356.768,435.591,364.819z"/>
		<path style="fill:#3547C7;" d="M431.176,363.952c-1.102,5.615-6.547,9.271-12.162,8.168c-5.613-1.102-9.27-6.546-8.167-12.16
			c1.102-5.613,6.546-9.271,12.159-8.169C428.621,352.894,432.278,358.339,431.176,363.952z"/>
	</g>
	<g>
		<path style="fill:#6FB1FE;" d="M126.136,216.206c0.937-3.248,1.37-6.568,1.318-9.86c8.835-2.781,14.269-4.845,14.099-5.484
			l-3.353-12.63c-0.169-0.644-5.913,0.265-14.962,2.227c-1.59-2.88-3.611-5.551-6.035-7.904c4.276-8.211,6.663-13.512,6.087-13.846
			l-11.3-6.559c-0.575-0.334-3.997,4.367-9.004,12.153c-3.246-0.938-6.566-1.367-9.857-1.32c-2.783-8.83-4.845-14.269-5.489-14.098
			l-12.627,3.355c-0.641,0.169,0.263,5.912,2.231,14.963c-2.884,1.587-5.554,3.609-7.908,6.035
			c-8.211-4.28-13.513-6.661-13.846-6.087l-6.559,11.3c-0.333,0.573,4.367,3.992,12.154,9.002c-0.937,3.246-1.37,6.568-1.317,9.858
			c-8.836,2.782-14.271,4.845-14.101,5.488l3.351,12.627c0.172,0.643,5.916-0.263,14.964-2.226c1.591,2.882,3.611,5.551,6.036,7.902
			c-4.279,8.213-6.663,13.516-6.089,13.85l11.3,6.559c0.576,0.334,3.995-4.368,9.006-12.156c3.245,0.939,6.566,1.37,9.855,1.322
			c2.785,8.831,4.846,14.267,5.488,14.096l12.63-3.352c0.641-0.171-0.262-5.913-2.229-14.966c2.883-1.586,5.552-3.61,7.907-6.033
			c8.209,4.275,13.513,6.661,13.845,6.088l6.559-11.3C138.622,224.636,133.922,221.211,126.136,216.206z"/>
		<path style="fill:#4A80E8;" d="M112.438,217.758c-6.035,10.398-19.358,13.935-29.758,7.899
			c-10.398-6.035-13.935-19.358-7.9-29.756c6.034-10.397,19.357-13.934,29.755-7.898
			C114.935,194.039,118.472,207.361,112.438,217.758z"/>
		<path style="fill:#3547C7;" d="M106.736,214.449c-4.208,7.251-13.497,9.715-20.747,5.507c-7.249-4.208-9.714-13.494-5.506-20.745
			c4.207-7.249,13.495-9.716,20.744-5.508C108.478,197.911,110.944,207.2,106.736,214.449z"/>
	</g>
	<g>
		<path style="fill:#E1BFB2;" d="M170.264,130.917h-24.866v25.638c-13.76,0-24.899-11.15-24.899-24.899
			c0-13.749,11.139-24.899,24.899-24.899C158.897,106.758,169.883,117.505,170.264,130.917z"/>
		<path style="fill:#E1BFB2;" d="M151.317,161.376V137.15h26.111C177.428,137.15,178.305,165.04,151.317,161.376z"/>
	</g>
	<text transform="matrix(1 0 0 1 113.6836 72.9856)" style="fill:#131D42; font-family:'Voltaire'; font-size:28px;">INNOVATION CONCEPT</text>
	<g>
		<g>
			<g>
				<path style="fill:#CD2B7B;" d="M141.119,313.955c0,0-8.761,1.244-9.23,3.843c-0.309,1.717,17.134,15.203,21.573,14.903
					c4.439-0.3,4.799-12.708,4.799-12.708l-5.927-1.578l-2.742,5.479L141.119,313.955z"/>
				<g>
					<g>
						<g>
							<g>
								<path style="fill:#D8684E;" d="M158.396,306.109c0.381,0.136,0.035,6.178-0.29,6.733l-0.55,0.705l-0.115,2.984
									c0,0-0.501,0.133-1.165,0.11c-0.359-0.01-0.766-0.069-1.169-0.217c-0.225-0.082-0.449-0.193-0.661-0.341
									c-0.109-0.077-0.147-1.679-0.147-1.679s-2.02-0.551-2.377-1.654c-0.21-0.651-0.425-1.311-0.864-1.836
									c-0.228-0.275-0.495-0.521-0.691-0.819c-0.197-0.3-0.318-0.675-0.215-1.018c0.012-0.04,0.028-0.081,0.059-0.109
									c0.064-0.06,0.164-0.047,0.25-0.02c0.009,0.002,0.019,0.006,0.027,0.009c0.949,0.328,1.78,0.99,2.31,1.841
									c0,0,0.766-3.272,0.667-4.212c0,0,0.316-2.027,0.708-2.046c0.145-0.007,0.27,0.022,0.369,0.062
									c0.169,0.066,0.265,0.163,0.265,0.163s-0.081,4.36,0.05,4.518c0.132,0.158,1.115-3.661,1.426-3.851
									c0.088-0.055,0.224-0.039,0.372,0.015c0.137,0.048,0.285,0.127,0.417,0.209c0.224,0.134,0.401,0.273,0.401,0.273
									s0.051,0.005,0.134,0.013c0.112,0.015,0.28,0.039,0.455,0.077C158.176,306.042,158.292,306.073,158.396,306.109z"/>
								<g>
									<g>
										<path style="fill:#AC4732;" d="M157.072,305.657c-0.017,0.112-0.035,0.226-0.058,0.341
											c-0.129,0.672-0.324,1.264-0.489,1.682c-0.155,0.393-0.278,0.637-0.293,0.665c0.002-0.032,0.021-0.305,0.069-0.721
											c0.051-0.445,0.132-1.053,0.259-1.713c0.031-0.159,0.063-0.314,0.095-0.464
											C156.791,305.496,156.94,305.575,157.072,305.657z"/>
									</g>
									<g>
										<path style="fill:#AC4732;" d="M158.063,306.019c-0.185,1.073-0.518,1.9-0.539,1.952
											c-0.005-0.057-0.068-0.948,0.084-2.028C157.719,305.957,157.887,305.981,158.063,306.019z"/>
									</g>
								</g>
								<path style="fill:#ED7864;" d="M150.46,308.949c0.013,0.074,0.028,0.147,0.046,0.217c0.151,0.582,0.619,1.017,0.947,1.52
									c0.45,0.694,0.652,1.549,1.223,2.147c0.483,0.504,1.163,0.754,1.798,1.046c0.196,0.091,0.401,0.196,0.508,0.384
									c0.088,0.155,0.094,0.341,0.098,0.519c0.013,0.541-0.003,1.098,0.026,1.643c-0.225-0.082-0.449-0.193-0.661-0.341
									c-0.109-0.077-0.147-1.679-0.147-1.679s-2.02-0.551-2.377-1.654c-0.21-0.651-0.425-1.311-0.864-1.836
									c-0.228-0.275-0.495-0.521-0.691-0.819c-0.197-0.3-0.318-0.675-0.215-1.018c0.012-0.04,0.028-0.081,0.059-0.109
									C150.274,308.909,150.374,308.922,150.46,308.949z"/>
							</g>
						</g>
					</g>
					<g>
						<polygon style="fill:#D8684E;" points="157.44,316.532 157.299,319.983 154.621,319.467 153.564,319.262 154.297,314.404 
							155.081,314.936 						"/>
						<polygon style="fill:#ED7864;" points="155.081,314.936 154.621,319.467 153.564,319.262 154.297,314.404 						"/>
					</g>
				</g>
				<polygon style="fill:#AE115D;" points="151.591,320.244 152.334,318.414 158.261,319.992 158.123,322.072 				"/>
				<path style="fill:#AE115D;" d="M151.09,321.141c-0.548,0.584-0.886,1.408-1.212,2.134c-0.089,0.198-0.188,0.405-0.286,0.619
					c-1.219-1.767-2.902-3.251-4.484-4.682c-1.487-1.345-3.1-2.81-4.889-3.735c-0.204-0.105-0.376,0.14-0.202,0.293
					c1.523,1.337,3.263,2.427,4.797,3.765c1.659,1.447,3.044,3.152,4.651,4.643c-0.247,0.565-0.46,1.16-0.457,1.728
					c0.001,0.194,0.239,0.291,0.361,0.127c0.474-0.634,0.64-1.495,0.938-2.226c0.332-0.816,0.821-1.657,1.002-2.516
					C151.331,321.178,151.195,321.029,151.09,321.141z"/>
			</g>
			<g>
				<polygon style="fill:#ED7864;" points="102.397,367.736 95.991,369.789 99.957,374.096 106.646,372.204 				"/>
				<path style="fill:#3547C7;" d="M101.187,382.513c0.161-0.182,0.303-0.448,0.208-0.769c-0.278-0.938-1.473-4.237-1.51-5.367
					c-0.029-0.877,0.496-2.102,0.732-2.606l-4.246-4.473c-1.459,0.739-3.974,2.508-4.499,2.88L101.187,382.513z"/>
				<polygon style="fill:#FDE4D9;" points="100.14,383.423 90.825,373.088 91.872,372.177 101.187,382.513 				"/>
				<g>
					<path style="fill:#FDE4D9;" d="M98.807,375.761c-0.019,0.003-0.037,0.007-0.055,0.011c-0.137,0.029-0.308,0.119-0.255,0.287
						c0.027,0.086,0.099,0.15,0.172,0.204c0.25,0.189,0.537,0.313,0.832,0.413c0.317,0.108,0.658,0.222,0.997,0.177
						c0.351-0.046,0.378-0.424,0.105-0.625C100.13,375.88,99.397,375.658,98.807,375.761z"/>
					<path style="fill:#FDE4D9;" d="M98.945,377.025c-0.019,0.003-0.037,0.007-0.055,0.011c-0.137,0.029-0.308,0.119-0.255,0.287
						c0.027,0.086,0.099,0.15,0.172,0.204c0.25,0.189,0.537,0.312,0.832,0.413c0.317,0.108,0.658,0.222,0.997,0.177
						c0.351-0.046,0.378-0.424,0.104-0.626C100.269,377.144,99.536,376.922,98.945,377.025z"/>
					<path style="fill:#FDE4D9;" d="M99.438,378.303c-0.019,0.003-0.037,0.007-0.055,0.011c-0.137,0.029-0.308,0.119-0.255,0.287
						c0.027,0.086,0.099,0.15,0.172,0.204c0.249,0.189,0.537,0.312,0.832,0.413c0.317,0.108,0.658,0.222,0.997,0.177
						c0.351-0.046,0.377-0.424,0.104-0.626C100.762,378.422,100.028,378.2,99.438,378.303z"/>
				</g>
			</g>
			<path style="fill:#EA830C;" d="M141.065,346.345l-9.671-7.791c-3.405,3.862-12.18,21.119-14.144,21.852
				c-0.059,0.022-0.409,0.098-0.974,0.213l-0.48,0.449l-18.724,6.943l4.346,5.672l16.386-5.034l0.009,0.049
				c1.388-0.326,2.893-0.545,3.973-0.733c0.872-0.152,1.645-0.643,2.157-1.365L141.065,346.345z"/>
			<g>
				<polygon style="fill:#D8684E;" points="158.683,377.384 162.979,382.843 167.549,380.543 163.876,375.258 				"/>
				<path style="fill:#3547C7;" d="M176.548,381.881c-0.129-0.205-0.344-0.417-0.684-0.422c-0.991-0.014-4.538,0.145-5.643-0.152
					c-0.858-0.231-1.889-1.085-2.307-1.456l-5.586,2.691c0.285,1.593,1.254,4.484,1.46,5.088L176.548,381.881z"/>
				<polygon style="fill:#FDE4D9;" points="177.121,383.136 164.36,388.885 163.788,387.63 176.548,381.881 				"/>
				<g>
					<path style="fill:#FDE4D9;" d="M169.307,382.143c-0.002,0.018-0.004,0.037-0.006,0.055c-0.012,0.138,0.025,0.325,0.203,0.325
						c0.091,0,0.174-0.05,0.249-0.102c0.256-0.18,0.461-0.415,0.646-0.663c0.199-0.268,0.409-0.555,0.466-0.889
						c0.059-0.345-0.299-0.48-0.575-0.282C169.813,380.929,169.382,381.556,169.307,382.143z"/>
					<path style="fill:#FDE4D9;" d="M170.572,382.383c-0.002,0.018-0.004,0.037-0.006,0.055c-0.012,0.138,0.025,0.325,0.203,0.325
						c0.091,0,0.174-0.05,0.249-0.102c0.256-0.18,0.461-0.415,0.646-0.663c0.199-0.267,0.409-0.555,0.466-0.888
						c0.059-0.345-0.299-0.481-0.575-0.282C171.078,381.17,170.647,381.796,170.572,382.383z"/>
					<path style="fill:#FDE4D9;" d="M171.956,382.294c-0.002,0.018-0.004,0.037-0.006,0.055c-0.012,0.138,0.025,0.325,0.203,0.325
						c0.091,0,0.174-0.05,0.249-0.102c0.256-0.18,0.461-0.415,0.646-0.663c0.199-0.268,0.409-0.555,0.466-0.889
						c0.059-0.345-0.299-0.481-0.575-0.282C172.462,381.081,172.03,381.707,171.956,382.294z"/>
				</g>
			</g>
			<polygon style="fill:#FACC07;" points="156.645,361.88 141.979,350.421 125.619,350.091 150.308,368.9 162.558,383.572 
				168.268,380.142 			"/>
			<path style="fill:#FACC07;" d="M124.685,342.151c0,0-0.876,6.225-0.367,6.998c0.509,0.773,9.107,6.013,17.723,2.106l-0.658-8.685
				l-12.855-1.563L124.685,342.151z"/>
			<g>
				<g>
					<g>
						<g>
							<g>
								<g>
									<g>
										<g>
											<g>
												<g>
													<g>
														<g>
															<path style="fill:#FDE4D9;" d="M141.005,344.294l-15.745-0.554c0,0-0.698-9.176-0.182-17.804
																c0.373-6.202,1.373-12.12,3.714-14.129c0.122-0.108,0.251-0.203,0.382-0.287c0.138-0.087,0.41-0.242,0.744-0.417
																c0.303-0.16,0.649-0.334,0.995-0.489c0.596-0.27,1.173-0.49,1.444-0.477c0,0,3.797,0.208,6.778,2.291l0.013,0.014
																c0.563,0.489,1.046,0.971,1.454,1.487C141.139,320.064,141.005,344.294,141.005,344.294z"/>
														</g>
													</g>
												</g>
											</g>
										</g>
									</g>
								</g>
							</g>
						</g>
					</g>
				</g>
			</g>
			<g>
				<g>
					<path style="fill:#D8684E;" d="M132.194,312.076c0.1,0.131,4.656,4.572,4.656,4.572s0.198-2.326,0.307-3.537
						c0.035-0.375,0.059-0.643,0.067-0.702c0.066-0.481,0.761-2.509,0.761-2.509l-4.795-3.036c0,0-0.225,1.044-0.462,2.197
						C132.442,310.453,132.139,312.004,132.194,312.076z"/>
					<path style="fill:#AC4732;" d="M132.728,309.062c1.28,1.225,4.101,3.909,4.401,4.04c0.009,0.004,0.018,0.007,0.027,0.009
						c0.035-0.375,0.059-0.643,0.067-0.702c0.066-0.481,0.761-2.509,0.761-2.509l-4.795-3.036
						C133.19,306.865,132.965,307.908,132.728,309.062z"/>
				</g>
			</g>
			<g>
				<g>
					<g>
						<path style="fill:#D8684E;" d="M131.085,308.077c0,0,0.176,0.357,0.818,0.795l0.001,0c0.131,0.09,0.283,0.184,0.455,0.278
							c0.661,0.359,6.643,2.079,7.503,1.852c0.86-0.227,1.307-3.335,1.313-3.657c0.038-1.975,0.059-8.064,0.059-8.064
							c-2.977-6.26-10.249-1.911-11.044-1.16C129.396,298.871,131.085,308.077,131.085,308.077z"/>
						<g>
							<path style="fill:#ED7864;" d="M138.722,305.099c0,0-1.313,0.356-1.649,0.207l0.295,0.82c0,0,1.754-0.628,1.948-0.802
								L138.722,305.099z"/>
							<path style="fill:#AC4732;" d="M137.911,301.674c-0.096,1.189,0.199,2.436,0.811,3.425c-0.385,0.487-0.825,0.866-1.377,1.034
								c0.703,0.101,1.48-0.184,1.944-0.787C138.592,304.3,138.049,302.974,137.911,301.674z"/>
						</g>
						<path style="fill:#FFFFFF;" d="M135.367,307.384c0,0,1.576-0.604,4.193-0.12c0,0-0.597,1.898-2.119,1.844
							C135.919,309.054,135.367,307.384,135.367,307.384z"/>
						<path style="fill:#ED7864;" d="M131.904,308.871c0.131,0.09,0.283,0.184,0.455,0.278c0.661,0.359,6.643,2.079,7.503,1.852
							c0.86-0.227,1.307-3.335,1.313-3.657c-0.379,1.388-0.765,3.291-1.392,3.311C138.84,310.685,132.639,309.148,131.904,308.871z"
							/>
					</g>
					<g>
						<path style="fill:#131A70;" d="M140.849,301.655c0,0-0.786-1.575-1.464-1.13c-0.678,0.445-0.428,0.55-0.428,0.55
							L140.849,301.655z"/>
						<path style="fill:#131A70;" d="M132.659,301.83c0,0,2.044-2.149,2.803-1.318c0.443,0.485,0.106,0.786,0.106,0.786
							L132.659,301.83z"/>
						<g>
							<path style="fill:#131D42;" d="M133.814,303.468c0.076,0.603,0.442,1.054,0.817,1.007c0.376-0.047,0.619-0.574,0.543-1.178
								c-0.076-0.603-0.442-1.054-0.818-1.007C133.981,302.338,133.738,302.865,133.814,303.468z"/>
							<path style="fill:#FFF0E7;" d="M133.088,302.94c0,0,0.286,0.345,0.722,0.461c0.436,0.116,0.856-0.042,0.856-0.042
								s-0.286-0.345-0.722-0.461C133.507,302.783,133.088,302.94,133.088,302.94z"/>
						</g>
						<g>
							<path style="fill:#131D42;" d="M140.297,303.07c0.057,0.455-0.126,0.852-0.409,0.888c-0.283,0.035-0.559-0.304-0.616-0.759
								c-0.057-0.455,0.126-0.852,0.409-0.888C139.964,302.276,140.24,302.615,140.297,303.07z"/>
							<path style="fill:#FFF0E7;" d="M140.687,302.615c0,0-0.149,0.266-0.429,0.422c-0.28,0.156-0.584,0.145-0.584,0.145
								s0.15-0.265,0.43-0.422C140.383,302.604,140.687,302.615,140.687,302.615z"/>
						</g>
						<path style="fill:#ED7864;" d="M140.108,305.655c0.12,0.228,0.639,0.191,1.161-0.083c0.522-0.274,0.848-0.68,0.728-0.908
							c-0.12-0.228-0.639-0.191-1.161,0.083C140.314,305.021,139.988,305.427,140.108,305.655z"/>
						<path style="fill:#ED7864;" d="M133.08,305.404c-0.048,0.372,0.604,0.763,1.457,0.874c0.853,0.11,1.583-0.102,1.631-0.475
							c0.048-0.372-0.604-0.763-1.457-0.874C133.858,304.819,133.128,305.032,133.08,305.404z"/>
					</g>
				</g>
				<g>
					<path style="fill:#131D42;" d="M127.124,302.967c0.22,0.185,0.502,0.29,0.788,0.318c-0.164,0.291-0.296,0.591-0.362,0.917
						c-0.023,0.109-0.035,0.223-0.038,0.335c-0.017,0.509,0.161,1.027,0.574,1.31c0.504,0.347,1.353,0.133,1.488-0.463
						c-0.032,0.331,0.345,0.603,0.674,0.537c0.326-0.066,0.561-0.375,0.635-0.7c0.074-0.324,0.015-0.665-0.05-0.99
						c-0.175-0.818-0.42-1.62-0.667-2.42c0.123,0.429,0.811,0.4,1.073,0.038c0.261-0.361,0.22-0.85,0.17-1.291
						c0.401,0.425,1.052,0.588,1.607,0.408c0.551-0.184,0.977-0.707,1.047-1.285c0.335,0.585,1.052,0.928,1.717,0.818
						c0.687-0.114,1.352-0.553,1.576-1.228c0.342,0.603,0.763,1.336,1.54,1.402c0.578,0.049,1.359-0.437,1.384-1.06
						c0.293,0.957,1.774,1.807,2.434,0.627c0.208-0.372,0.123-0.884-0.195-1.169c0.396,0.078,0.804,0.088,1.203,0.03
						c0.245-0.035,0.518-0.122,0.618-0.348c0.13-0.293-0.124-0.628-0.417-0.758c-0.293-0.131-0.628-0.142-0.922-0.271
						c0.373-0.092,0.753-0.186,1.076-0.392c0.531-0.338,0.898-1.132,0.238-1.519c-0.601-0.353-1.665-0.038-2.229,0.249
						c0.209-0.295,0.375-0.619,0.494-0.96c0.098-0.28,0.161-0.595,0.041-0.866c-0.197-0.447-0.787-0.561-1.271-0.495
						c-0.625,0.085-1.221,0.37-1.679,0.803c0.161-0.449,0.219-0.969-0.006-1.389c-0.28-0.523-0.936-0.752-1.528-0.702
						c-0.605,0.052-1.285,0.342-1.781,0.652c0.023-0.317,0.015-0.635-0.022-0.95c-0.03-0.246-0.094-0.518-0.297-0.662
						c-0.349-0.25-0.827,0.034-1.127,0.344c-0.44,0.451-0.804,0.978-1.079,1.549c-0.332-0.633-0.818-1.183-1.409-1.584
						c-0.267-0.181-0.588-0.34-0.906-0.269c-0.423,0.092-0.665,0.576-0.639,1.009c0.025,0.434,0.251,0.826,0.471,1.201
						c-0.535-0.267-1.231-0.159-1.657,0.256c-0.279,0.269-0.428,0.656-0.434,1.041c-0.916-0.186-2.037,0.236-2.541,0.928
						c-0.681,0.938-0.495,2.396,0.404,3.128c-0.285,0.633-0.575,1.284-0.644,1.975C126.404,301.762,126.593,302.519,127.124,302.967
						z"/>
					<path style="fill:#131A70;" d="M143.922,297.996c-0.293-0.131-0.628-0.142-0.922-0.271c0.372-0.092,0.752-0.186,1.076-0.392
						c0.531-0.338,0.898-1.132,0.238-1.519c-0.601-0.353-1.665-0.038-2.229,0.249c0.209-0.295,0.375-0.619,0.494-0.96
						c0.097-0.28,0.161-0.595,0.041-0.866c-0.197-0.447-0.787-0.561-1.272-0.495c-0.625,0.085-1.221,0.37-1.679,0.803
						c0.161-0.449,0.219-0.968-0.006-1.389c-0.28-0.523-0.936-0.752-1.528-0.702c-0.605,0.052-1.285,0.342-1.781,0.652
						c0.023-0.317,0.015-0.635-0.022-0.95c-0.03-0.246-0.094-0.518-0.297-0.662c-0.349-0.25-0.827,0.034-1.127,0.344
						c-0.44,0.451-0.804,0.978-1.079,1.549c-0.332-0.633-0.818-1.183-1.409-1.584c-0.267-0.181-0.588-0.34-0.906-0.269
						c-0.423,0.092-0.665,0.575-0.639,1.009c0.025,0.434,0.251,0.826,0.471,1.201c-0.535-0.267-1.231-0.159-1.657,0.256
						c-0.279,0.269-0.428,0.656-0.434,1.041c-0.916-0.186-2.037,0.236-2.541,0.928c-0.681,0.938-0.495,2.396,0.404,3.128
						c-0.285,0.633-0.575,1.284-0.644,1.975c-0.073,0.691,0.117,1.448,0.647,1.896c0.22,0.185,0.502,0.29,0.788,0.318
						c-0.164,0.291-0.296,0.591-0.362,0.917c-0.023,0.109-0.035,0.223-0.038,0.335c-0.017,0.509,0.161,1.027,0.574,1.311
						c0.07,0.048,0.146,0.083,0.227,0.11c0.159-0.104,0.309-0.217,0.437-0.351c0.906-0.949,0.587-2.61,0.137-3.702
						c0.128,0.194,0.311,0.352,0.521,0.45c0.426-0.267,0.449-0.87,0.408-1.371c-0.066-0.795-0.173-1.586-0.32-2.37
						c0.289,0.463,1.039,0.395,1.423,0.007c0.384-0.388,0.498-0.961,0.594-1.499c0.274,0.509,0.962,0.688,1.515,0.516
						c0.552-0.171,0.98-0.616,1.297-1.099c-0.095,0.661,0.743,1.14,1.389,0.967c0.645-0.173,1.097-0.738,1.502-1.269
						c-0.084,0.737,0.658,1.39,1.4,1.386c0.742-0.004,1.405-0.519,1.791-1.153c-0.04,0.641,0.139,1.333,0.629,1.749
						c0.49,0.416,1.326,0.436,1.727-0.066c-0.279,0.207-0.293,0.593-0.16,0.927c0.369,0.063,0.747,0.074,1.118,0.021
						c0.245-0.035,0.518-0.122,0.618-0.348C144.469,298.461,144.215,298.126,143.922,297.996z"/>
					<g>
						<path style="fill:#172D8A;" d="M143.703,297.919c-0.101-0.029-0.205-0.052-0.308-0.076
							C143.495,297.878,143.598,297.903,143.703,297.919z"/>
						<path style="fill:#172D8A;" d="M142.906,297.574c0.058,0.049,0.122,0.087,0.186,0.125c0.342-0.085,0.687-0.178,0.984-0.367
							c0.531-0.338,0.898-1.132,0.238-1.519c-0.601-0.353-1.665-0.038-2.229,0.249c0.209-0.295,0.375-0.619,0.494-0.96
							c0.097-0.28,0.161-0.595,0.041-0.866c-0.197-0.447-0.787-0.561-1.272-0.495c-0.625,0.085-1.221,0.37-1.679,0.803
							c0.161-0.449,0.219-0.968-0.006-1.389c-0.28-0.523-0.936-0.752-1.528-0.702c-0.605,0.052-1.285,0.342-1.781,0.652
							c0.023-0.317,0.015-0.635-0.022-0.95c-0.03-0.246-0.094-0.518-0.297-0.662c-0.349-0.25-0.827,0.034-1.127,0.344
							c-0.44,0.451-0.804,0.978-1.079,1.549c-0.332-0.633-0.818-1.183-1.409-1.584c-0.267-0.181-0.588-0.34-0.906-0.269
							c-0.423,0.092-0.665,0.575-0.639,1.009c0.025,0.434,0.251,0.826,0.471,1.201c-0.535-0.267-1.231-0.159-1.657,0.256
							c-0.279,0.269-0.428,0.656-0.434,1.041c-0.916-0.186-2.037,0.236-2.541,0.928c-0.681,0.938-0.495,2.396,0.404,3.128
							c-0.285,0.633-0.575,1.284-0.644,1.975c-0.073,0.691,0.117,1.448,0.647,1.896c0.22,0.185,0.502,0.29,0.788,0.318
							c-0.164,0.291-0.296,0.591-0.362,0.917c-0.023,0.109-0.035,0.223-0.038,0.335c-0.007,0.197,0.026,0.392,0.08,0.578
							c1.197-1.008,1.299-2.632-0.011-3.658c0.505-0.188,0.811-0.734,0.851-1.271c0.04-0.537-0.141-1.066-0.362-1.557
							c0.637-0.493,1.025-1.294,1.015-2.1c0.548,0.3,1.253,0.291,1.794-0.021c0.541-0.313,0.9-0.919,0.914-1.543
							c0.502,0.344,1.076,0.63,1.685,0.623c0.608-0.007,1.244-0.382,1.388-0.973c0.126,0.649,0.924,0.978,1.57,0.837
							c0.646-0.141,1.165-0.607,1.651-1.055c0.061,0.523,0.47,0.988,0.981,1.115c0.511,0.127,1.09-0.092,1.389-0.526
							c-0.117,0.67,0.608,1.335,1.265,1.16c-0.315,0.257-0.135,0.818,0.226,1.004c0.361,0.186,0.796,0.115,1.195,0.037
							C142.981,297.227,142.869,297.41,142.906,297.574z"/>
					</g>
				</g>
				<g>
					<path style="fill:#ED7864;" d="M131.949,308.203c-1.181,0.055-2.119-0.532-2.648-1.056c-0.119-0.118-0.217-0.233-0.293-0.336
						c-0.41-0.564-0.77-2.652,0.029-3.248c0.56-0.417,1.06,0.023,1.31,0.325l0,0.001c0.106,0.128,0.167,0.231,0.167,0.231
						L131.949,308.203z"/>
					<path style="fill:#D8684E;" d="M131.949,308.203c-1.181,0.055-2.119-0.532-2.648-1.056c-0.047-0.054-0.088-0.107-0.124-0.156
						c-0.41-0.564-0.77-2.651,0.029-3.247c0.453-0.338,0.868-0.114,1.142,0.145l0,0.001c0.106,0.128,0.167,0.231,0.167,0.231
						L131.949,308.203z"/>
					<path style="fill:#ED7864;" d="M128.976,305.265c-0.022,0.173,0.027,0.345,0.103,0.504c0.323,0.675,1.095,1.125,1.831,1.539
						c-0.246-0.316-0.369-0.693-0.375-1.074c-0.002-0.133,0.01-0.266-0.005-0.398C130.47,305.308,129.106,304.24,128.976,305.265z"
						/>
					<g>
						<path style="fill:#AC4732;" d="M131.274,307.466c0,0-0.014-0.006-0.041-0.017c-0.026-0.012-0.068-0.026-0.117-0.051
							c-0.098-0.049-0.235-0.13-0.37-0.259c-0.135-0.128-0.265-0.306-0.344-0.525c-0.074-0.219-0.097-0.483-0.008-0.751
							c0.009-0.034,0.023-0.066,0.037-0.099l0.011-0.024c0.003-0.006,0.001-0.002,0.001-0.002l0,0l0.001,0h0
							c0,0,0.001,0.001-0.002-0.003l-0.014-0.019l-0.028-0.037c-0.019-0.025-0.037-0.049-0.057-0.073
							c-0.077-0.095-0.158-0.184-0.239-0.265c-0.082-0.081-0.166-0.155-0.248-0.222c-0.083-0.066-0.162-0.128-0.238-0.172
							c-0.076-0.044-0.157-0.069-0.23-0.069c-0.073,0.001-0.139,0.026-0.182,0.054c-0.044,0.029-0.066,0.062-0.073,0.085
							c-0.009,0.023-0.006,0.037-0.007,0.037c0,0-0.005-0.012-0.003-0.038c0.002-0.025,0.016-0.065,0.057-0.105
							c0.042-0.039,0.11-0.079,0.205-0.094c0.095-0.013,0.201,0.006,0.299,0.046c0.099,0.04,0.19,0.095,0.286,0.155
							c0.096,0.061,0.194,0.131,0.289,0.211c0.096,0.08,0.189,0.169,0.277,0.267c0.022,0.024,0.043,0.05,0.064,0.075l0.031,0.039
							l0.042,0.055l0.029,0.039c-0.004,0.015-0.012,0.03-0.018,0.045l-0.027,0.064c-0.012,0.028-0.024,0.056-0.032,0.086
							c-0.078,0.233-0.072,0.465-0.027,0.668c0.05,0.203,0.143,0.378,0.245,0.512c0.103,0.135,0.214,0.231,0.295,0.293
							c0.04,0.031,0.076,0.052,0.099,0.068C131.262,307.458,131.274,307.466,131.274,307.466z"/>
					</g>
				</g>
			</g>
			<path style="fill:#E1BFB2;" d="M139.293,316.059l-0.292,1.126l-2.203-2.357l-2.482,2.921l-5.524-5.941
				c0.122-0.108,0.251-0.203,0.382-0.287c0.138-0.087,0.41-0.242,0.744-0.417l4.304,5.105l2.449-2.52L139.293,316.059z"/>
			<path style="fill:#FDE4D9;" d="M132.367,309.617c0,0-2.088,0.848-2.449,1.485l4.305,5.105l2.447-2.521l1.772,1.661l-0.055-3.393
				c0,0-0.344-0.566-0.864-0.649l-1.056,1.309L132.367,309.617z"/>
			<path style="fill:#CD2B7B;" d="M129.918,311.102c0,0,0.545,34.082-0.154,35.389c-0.699,1.307-8.25,2.686-8.579,0.237
				c-0.33-2.449,0.493-29.047,3.674-32.501S129.918,311.102,129.918,311.102z"/>
			<path style="fill:#CD2B7B;" d="M144.138,345.071c-0.977,1.167-3.477,1.376-3.477,1.376l-2.271-34.493
				c0.007,0,0.01,0.004,0.017,0.004c0.647,0.202,2.074,1.212,2.905,2.123c0.296,0.326,0.516,0.638,0.597,0.896
				c0.134,0.425,0.742,5.786,1.313,11.869C143.99,334.976,144.696,344.4,144.138,345.071z"/>
			<polygon style="fill:#3547C7;" points="136.671,313.687 135.392,315.003 135.926,316.549 133.973,335.826 136.837,338.953 
				139.173,334.867 137.401,316.359 137.993,314.926 			"/>
			<path style="fill:#AE115D;" d="M141.809,315.511c-0.048-0.108-0.191-0.034-0.18,0.066c0.168,1.638,0.564,3.247,0.733,4.89
				c0.168,1.626,0.037,3.295,0.285,4.904c0.026,0.171,0.308,0.189,0.348,0.017C143.668,322.455,143.024,318.231,141.809,315.511z"/>
			<path style="fill:#AE115D;" d="M123.328,318.335c-0.701,2.838-1.191,5.932-0.908,8.854c0.016,0.169,0.267,0.127,0.284-0.025
				c0.32-2.93,0.508-5.768,1.126-8.665C123.9,318.173,123.411,318.001,123.328,318.335z"/>
			<g>
				<path style="fill:#CD2B7B;" d="M127.615,321.543c0,0,2.686-8.432,0.548-9.983c-1.412-1.025-21.137,8.828-22.795,12.957
					c-1.658,4.129,9.362,9.843,9.362,9.843l3.996-4.653l-3.744-4.85L127.615,321.543z"/>
				<g>
					<g>
						<g>
							<g>
								<path style="fill:#D8684E;" d="M127.176,340.512c-0.288,0.284-5.58-2.652-5.939-3.187l-0.396-0.802l-2.638-1.4
									c0,0,0.098-0.509,0.407-1.098c0.165-0.319,0.395-0.66,0.704-0.959c0.172-0.167,0.369-0.32,0.595-0.447
									c0.117-0.065,1.576,0.597,1.576,0.597s1.374-1.58,2.522-1.423c0.677,0.093,1.366,0.186,2.029,0.02
									c0.347-0.086,0.684-0.22,1.038-0.266c0.355-0.047,0.746,0.007,1.01,0.249c0.031,0.028,0.061,0.06,0.073,0.101
									c0.026,0.083-0.029,0.168-0.091,0.234c-0.006,0.008-0.013,0.014-0.019,0.021c-0.708,0.712-1.665,1.173-2.662,1.281
									c0,0,2.615,2.111,3.504,2.43c0,0,1.688,1.165,1.535,1.526c-0.057,0.133-0.137,0.234-0.217,0.306
									c-0.133,0.123-0.261,0.168-0.261,0.168s-3.892-1.967-4.091-1.917c-0.2,0.051,2.813,2.595,2.849,2.957
									c0.011,0.103-0.063,0.219-0.176,0.329c-0.103,0.102-0.238,0.202-0.37,0.285c-0.218,0.143-0.42,0.243-0.42,0.243
									s-0.026,0.044-0.07,0.115c-0.062,0.094-0.157,0.236-0.267,0.377C127.331,340.344,127.254,340.435,127.176,340.512z"/>
								<g>
									<g>
										<path style="fill:#AC4732;" d="M128.159,339.517c-0.094-0.064-0.188-0.13-0.282-0.2c-0.549-0.408-0.997-0.841-1.303-1.171
											c-0.287-0.31-0.453-0.527-0.472-0.553c0.028,0.016,0.266,0.151,0.619,0.375c0.379,0.239,0.891,0.576,1.431,0.978
											c0.13,0.097,0.255,0.193,0.376,0.287C128.425,339.334,128.29,339.433,128.159,339.517z"/>
									</g>
									<g>
										<path style="fill:#AC4732;" d="M127.402,340.252c-0.886-0.632-1.486-1.291-1.524-1.333c0.053,0.02,0.883,0.35,1.791,0.956
											C127.607,339.969,127.512,340.111,127.402,340.252z"/>
									</g>
								</g>
								<path style="fill:#ED7864;" d="M128.066,332.132c-0.072-0.02-0.145-0.039-0.216-0.053c-0.59-0.117-1.185,0.116-1.78,0.192
									c-0.82,0.104-1.679-0.086-2.465,0.169c-0.664,0.216-1.184,0.72-1.723,1.165c-0.167,0.137-0.351,0.276-0.567,0.291
									c-0.177,0.012-0.348-0.064-0.51-0.137c-0.493-0.223-0.988-0.48-1.492-0.69c0.172-0.167,0.369-0.32,0.595-0.447
									c0.117-0.065,1.576,0.597,1.576,0.597s1.374-1.58,2.522-1.423c0.677,0.093,1.366,0.186,2.029,0.02
									c0.347-0.086,0.684-0.22,1.038-0.266c0.355-0.047,0.746,0.007,1.01,0.249c0.031,0.028,0.061,0.06,0.073,0.101
									C128.182,331.981,128.128,332.065,128.066,332.132z"/>
							</g>
						</g>
					</g>
					<g>
						<polygon style="fill:#D8684E;" points="118.203,335.124 115.156,333.498 116.784,331.31 117.428,330.447 121.485,333.217 
							120.666,333.693 						"/>
						<polygon style="fill:#ED7864;" points="120.666,333.693 116.784,331.31 117.428,330.447 121.485,333.217 						"/>
					</g>
				</g>
				<polygon style="fill:#AE115D;" points="117.401,328.243 118.726,329.707 114.73,334.36 112.917,333.333 				"/>
				<path style="fill:#AE115D;" d="M116.811,327.402c-0.288-0.747-0.883-1.409-1.396-2.019c-0.14-0.166-0.284-0.345-0.433-0.526
					c2.121-0.331,4.189-1.202,6.165-2.005c1.858-0.755,3.878-1.572,5.488-2.781c0.183-0.138,0.037-0.399-0.176-0.309
					c-1.866,0.791-3.603,1.884-5.475,2.685c-2.024,0.865-4.161,1.372-6.202,2.172c-0.401-0.468-0.845-0.918-1.358-1.162
					c-0.176-0.083-0.366,0.088-0.272,0.27c0.365,0.702,1.068,1.226,1.598,1.812c0.591,0.653,1.136,1.459,1.831,1.995
					C116.672,327.604,116.866,327.546,116.811,327.402z"/>
			</g>
		</g>
		<path style="fill:#6FB1FE;" d="M217.11,325.165c-2.07-10.502-6.201-20.263-11.955-28.849c6.928-7.977,10.656-12.983,9.981-13.665
			l-18.377-18.369c-0.683-0.69-5.68,3.046-13.665,9.974c-8.587-5.746-18.355-9.878-28.857-11.955
			c-0.741-10.539-1.637-16.711-2.605-16.711h-25.98c-0.969,0-1.864,6.172-2.605,16.711c-10.502,2.077-20.27,6.209-28.857,11.955
			c-7.977-6.928-12.983-10.664-13.665-9.974l-18.369,18.369c-0.682,0.682,3.053,5.688,9.974,13.665
			c-5.754,8.587-9.886,18.347-11.955,28.849c-10.531,0.741-16.703,1.644-16.703,2.613v25.98c0,0.961,6.165,1.864,16.696,2.605
			c2.077,10.502,6.209,20.27,11.962,28.857c-6.928,7.977-10.656,12.983-9.974,13.665l18.369,18.369
			c0.683,0.683,5.688-3.053,13.665-9.974c8.587,5.746,18.355,9.878,28.857,11.955c0.741,10.539,1.637,16.711,2.605,16.711h25.98
			c0.969,0,1.864-6.172,2.605-16.711c10.502-2.077,20.27-6.209,28.864-11.962c7.977,6.935,12.975,10.664,13.658,9.981l18.377-18.369
			c0.675-0.682-3.053-5.688-9.981-13.665c5.754-8.587,9.886-18.355,11.962-28.857c10.531-0.741,16.704-1.644,16.704-2.605v-25.98
			C233.821,326.809,227.641,325.906,217.11,325.165z M138.642,401.491c-33.532,0-60.723-27.19-60.723-60.723
			s27.19-60.723,60.723-60.723c33.543,0,60.723,27.19,60.723,60.723S172.184,401.491,138.642,401.491z"/>
	</g>
	<g>
		<g>
			<g>
				<path style="fill:#FACC07;" d="M305.189,356.725c0,0-6.786,0.96-7.164,3.06c-0.25,1.388,13.849,12.289,17.437,12.046
					c3.588-0.243,3.879-10.272,3.879-10.272l-4.791-1.275l-2.216,4.429L305.189,356.725z"/>
				<g>
					<g>
						<g>
							<g>
								<path style="fill:#FFA07F;" d="M319.449,350.338c0.307,0.11,0.028,4.994-0.235,5.443l-0.445,0.57l-0.093,2.412
									c0,0-0.405,0.108-0.942,0.089c-0.29-0.008-0.62-0.056-0.945-0.176c-0.182-0.066-0.363-0.156-0.535-0.276
									c-0.089-0.062-0.119-1.357-0.119-1.357s-1.633-0.445-1.921-1.336c-0.17-0.526-0.344-1.06-0.698-1.484
									c-0.184-0.222-0.4-0.421-0.558-0.662c-0.159-0.242-0.257-0.546-0.174-0.823c0.01-0.032,0.022-0.065,0.048-0.088
									c0.052-0.048,0.132-0.038,0.202-0.016c0.008,0.001,0.015,0.005,0.022,0.007c0.767,0.265,1.438,0.8,1.867,1.488
									c0,0,0.619-2.645,0.539-3.405c0,0,0.255-1.638,0.572-1.654c0.117-0.006,0.218,0.018,0.298,0.051
									c0.136,0.054,0.214,0.131,0.214,0.131s-0.065,3.524,0.041,3.651c0.107,0.128,0.902-2.959,1.153-3.112
									c0.072-0.044,0.181-0.031,0.301,0.012c0.111,0.039,0.23,0.103,0.337,0.169c0.181,0.108,0.324,0.22,0.324,0.22
									s0.041,0.004,0.109,0.011c0.09,0.012,0.226,0.031,0.368,0.062C319.272,350.284,319.365,350.308,319.449,350.338z"/>
								<g>
									<g>
										<path style="fill:#CF4A57;" d="M318.379,349.972c-0.014,0.091-0.029,0.183-0.047,0.276
											c-0.104,0.543-0.262,1.021-0.395,1.36c-0.125,0.317-0.225,0.515-0.237,0.538c0.002-0.026,0.017-0.246,0.056-0.583
											c0.041-0.36,0.106-0.851,0.209-1.385c0.025-0.129,0.051-0.254,0.077-0.375
											C318.152,349.842,318.272,349.906,318.379,349.972z"/>
									</g>
									<g>
										<path style="fill:#CF4A57;" d="M319.18,350.265c-0.149,0.867-0.418,1.536-0.436,1.578
											c-0.004-0.046-0.055-0.766,0.068-1.64C318.902,350.215,319.038,350.234,319.18,350.265z"/>
									</g>
								</g>
								<path style="fill:#FFBF90;" d="M313.035,352.633c0.011,0.06,0.023,0.119,0.037,0.176c0.122,0.47,0.5,0.822,0.765,1.229
									c0.364,0.56,0.527,1.252,0.989,1.735c0.391,0.408,0.94,0.61,1.453,0.846c0.158,0.073,0.324,0.159,0.411,0.311
									c0.071,0.125,0.076,0.276,0.079,0.419c0.011,0.438-0.003,0.888,0.021,1.328c-0.182-0.066-0.363-0.156-0.535-0.276
									c-0.089-0.062-0.119-1.357-0.119-1.357s-1.633-0.445-1.921-1.336c-0.17-0.526-0.344-1.06-0.698-1.484
									c-0.184-0.222-0.4-0.421-0.558-0.662c-0.159-0.242-0.257-0.546-0.174-0.823c0.01-0.032,0.022-0.065,0.048-0.088
									C312.884,352.601,312.965,352.611,313.035,352.633z"/>
							</g>
						</g>
					</g>
					<g>
						<polygon style="fill:#FFA07F;" points="318.677,358.763 318.562,361.552 316.398,361.135 315.543,360.969 316.136,357.043 
							316.77,357.472 						"/>
						<polygon style="fill:#FFBF90;" points="316.77,357.472 316.398,361.135 315.543,360.969 316.136,357.043 						"/>
					</g>
				</g>
				<polygon style="fill:#EA830C;" points="313.949,361.763 314.549,360.284 319.34,361.559 319.228,363.24 				"/>
			</g>
			<g>
				<polygon style="fill:#FFBF90;" points="274.186,400.151 269.008,401.81 272.214,405.291 277.62,403.762 				"/>
				<path style="fill:#3547C7;" d="M273.208,412.094c0.13-0.148,0.245-0.362,0.168-0.622c-0.224-0.758-1.191-3.425-1.221-4.338
					c-0.023-0.709,0.401-1.699,0.592-2.106l-3.432-3.616c-1.179,0.598-3.212,2.027-3.636,2.328L273.208,412.094z"/>
				<polygon style="fill:#FDE4D9;" points="272.361,412.83 264.832,404.476 265.678,403.74 273.208,412.094 				"/>
				<g>
					<path style="fill:#FDE4D9;" d="M271.284,406.637c-0.015,0.003-0.03,0.005-0.045,0.009c-0.111,0.024-0.249,0.096-0.206,0.232
						c0.022,0.069,0.08,0.121,0.139,0.165c0.202,0.152,0.434,0.253,0.673,0.334c0.257,0.088,0.531,0.179,0.806,0.143
						c0.284-0.037,0.305-0.343,0.085-0.506C272.354,406.733,271.761,406.554,271.284,406.637z"/>
					<path style="fill:#FDE4D9;" d="M271.396,407.659c-0.015,0.003-0.03,0.005-0.045,0.009c-0.111,0.024-0.249,0.096-0.206,0.232
						c0.022,0.069,0.08,0.121,0.139,0.165c0.202,0.152,0.434,0.253,0.673,0.334c0.257,0.088,0.532,0.179,0.806,0.143
						c0.284-0.037,0.305-0.343,0.085-0.506C272.466,407.754,271.873,407.575,271.396,407.659z"/>
					<path style="fill:#FDE4D9;" d="M271.794,408.692c-0.015,0.003-0.03,0.006-0.045,0.009c-0.111,0.024-0.249,0.096-0.206,0.232
						c0.022,0.069,0.08,0.121,0.139,0.165c0.202,0.152,0.434,0.253,0.673,0.334c0.257,0.088,0.531,0.179,0.806,0.143
						c0.284-0.037,0.305-0.343,0.085-0.506C272.864,408.788,272.271,408.609,271.794,408.692z"/>
				</g>
			</g>
			<path style="fill:#165C80;" d="M305.441,382.86l-7.817-6.297c-2.752,3.121-9.845,17.07-11.433,17.663
				c-0.048,0.018-0.331,0.079-0.787,0.172l-0.388,0.363l-15.134,5.612l3.513,4.585l13.245-4.069l0.008,0.04
				c1.122-0.264,2.338-0.441,3.211-0.593c0.705-0.123,1.329-0.519,1.743-1.103L305.441,382.86z"/>
			<g>
				<polygon style="fill:#FFA07F;" points="319.681,407.949 323.154,412.361 326.847,410.502 323.878,406.23 				"/>
				<path style="fill:#3547C7;" d="M334.122,411.583c-0.105-0.166-0.278-0.337-0.553-0.341c-0.801-0.011-3.668,0.117-4.561-0.123
					c-0.694-0.186-1.527-0.877-1.865-1.177l-4.515,2.175c0.23,1.288,1.014,3.625,1.18,4.113L334.122,411.583z"/>
				<polygon style="fill:#FDE4D9;" points="334.584,412.598 324.27,417.245 323.808,416.231 334.122,411.583 				"/>
				<g>
					<path style="fill:#FDE4D9;" d="M328.269,411.795c-0.002,0.015-0.003,0.03-0.005,0.045c-0.01,0.112,0.02,0.263,0.164,0.262
						c0.073,0,0.141-0.04,0.201-0.083c0.207-0.145,0.373-0.335,0.522-0.536c0.16-0.216,0.331-0.449,0.377-0.718
						c0.048-0.279-0.242-0.388-0.465-0.228C328.678,410.814,328.329,411.321,328.269,411.795z"/>
					<path style="fill:#FDE4D9;" d="M329.291,411.989c-0.002,0.015-0.004,0.03-0.005,0.045c-0.01,0.112,0.02,0.263,0.164,0.262
						c0.074,0,0.141-0.04,0.201-0.082c0.207-0.146,0.373-0.335,0.522-0.536c0.161-0.216,0.331-0.449,0.377-0.718
						c0.048-0.279-0.242-0.388-0.465-0.228C329.7,411.009,329.352,411.515,329.291,411.989z"/>
					<path style="fill:#FDE4D9;" d="M330.409,411.917c-0.002,0.015-0.004,0.03-0.005,0.045c-0.01,0.112,0.02,0.263,0.164,0.262
						c0.074,0,0.141-0.04,0.201-0.082c0.207-0.146,0.373-0.335,0.522-0.536c0.161-0.216,0.331-0.449,0.377-0.718
						c0.048-0.279-0.242-0.388-0.465-0.228C330.818,410.937,330.47,411.443,330.409,411.917z"/>
				</g>
			</g>
			<polygon style="fill:#1E9182;" points="318.034,395.417 306.18,386.155 292.956,385.888 312.912,401.091 322.813,412.951 
				327.429,410.178 			"/>
			<path style="fill:#1E9182;" d="M292.201,379.471c0,0-0.708,5.031-0.296,5.656c0.412,0.625,7.361,4.86,14.326,1.702l-0.532-7.02
				l-10.391-1.263L292.201,379.471z"/>
			<g>
				<g>
					<g>
						<g>
							<g>
								<g>
									<g>
										<g>
											<g>
												<g>
													<g>
														<g>
															<path style="fill:#FDE4D9;" d="M305.392,381.203l-12.726-0.448c0,0-0.564-7.417-0.147-14.391
																c0.301-5.013,1.11-9.796,3.002-11.421c0.099-0.087,0.203-0.164,0.309-0.232c0.112-0.071,0.332-0.196,0.601-0.337
																c0.245-0.129,0.525-0.27,0.804-0.395c0.482-0.218,0.948-0.396,1.167-0.386c0,0,3.069,0.168,5.478,1.852l0.01,0.011
																c0.455,0.396,0.846,0.785,1.175,1.202C305.501,361.618,305.392,381.203,305.392,381.203z"/>
														</g>
													</g>
												</g>
											</g>
										</g>
									</g>
								</g>
							</g>
						</g>
					</g>
				</g>
			</g>
			<path style="fill:#FACC07;" d="M308.226,381.796c-6.473,2.388-16.903,0.431-16.903,0.431c-0.098-3.003,0.165-10.683,0.471-15.083
				c0.388-5.522,1.347-10.774,3.523-12.323c0.021-0.014,0.039-0.028,0.059-0.041c0.026-0.019,0.052-0.034,0.078-0.05
				c0.098-0.059,0.515-0.351,1.034-0.627c0.554-0.291,1.219-0.572,1.728-0.542l3.717,0.709c0.227,0.125,1.096,0.665,1.662,1.029
				c0.209,0.134,0.376,0.243,0.455,0.3c0,0,0.002,0,0.002,0.003c0.002,0.003,0.005,0.005,0.009,0.008
				c0.014,0.013,0.038,0.034,0.071,0.064c0.024,0.021,0.052,0.048,0.085,0.077c0.293,0.273,0.95,0.905,1.735,1.839
				c0.207,0.415,0.401,1.152,0.584,2.121c0.733,3.855,1.28,11.361,1.602,16.776C308.216,377.791,308.173,380.815,308.226,381.796z"
				/>
			<g>
				<g>
					<path style="fill:#FFA07F;" d="M298.27,355.161c0.08,0.106,3.568,1.882,3.568,1.882s0.355-0.066,0.443-1.045
						c0.028-0.303,0.048-0.52,0.055-0.567c0.053-0.389,0.615-2.028,0.615-2.028l-3.875-2.454c0,0-0.182,0.844-0.373,1.776
						C298.471,353.849,298.226,355.103,298.27,355.161z"/>
					<path style="fill:#CF4A57;" d="M298.702,352.724c1.034,0.99,3.315,3.159,3.558,3.266c0.007,0.003,0.014,0.006,0.022,0.008
						c0.028-0.303,0.048-0.52,0.055-0.567c0.053-0.389,0.615-2.028,0.615-2.028l-3.875-2.454
						C299.076,350.948,298.894,351.792,298.702,352.724z"/>
				</g>
			</g>
			<g>
				<g>
					<g>
						<path style="fill:#FFA07F;" d="M297.818,351.543c0,0,0.149,0.282,0.672,0.619l0.001,0c0.107,0.069,0.23,0.141,0.371,0.213
							c0.537,0.273,5.363,1.52,6.047,1.32c0.684-0.2,0.974-2.698,0.972-2.956c-0.013-1.582-0.128-6.457-0.128-6.457
							c-2.519-4.946-8.246-1.308-8.866-0.689C296.266,344.21,297.818,351.543,297.818,351.543z"/>
						<g>
							<path style="fill:#FFBF90;" d="M303.867,348.993c0,0-1.043,0.314-1.315,0.202l0.254,0.65c0,0,1.391-0.541,1.542-0.684
								L303.867,348.993z"/>
							<path style="fill:#CF4A57;" d="M303.143,346.269c-0.051,0.954,0.212,1.946,0.724,2.724c-0.298,0.398-0.642,0.711-1.08,0.858
								c0.565,0.066,1.181-0.179,1.539-0.672C303.745,348.357,303.282,347.307,303.143,346.269z"/>
						</g>
						<path style="fill:#FFFFFF;" d="M301.23,350.895c0,0,1.248-0.517,3.354-0.187c0,0-0.437,1.532-1.657,1.522
							C301.708,352.22,301.23,350.895,301.23,350.895z"/>
						<path style="fill:#FFBF90;" d="M298.491,352.161c0.107,0.069,0.23,0.141,0.371,0.213c0.537,0.273,5.363,1.52,6.047,1.32
							c0.684-0.2,0.974-2.698,0.972-2.956c-0.273,1.12-0.541,2.651-1.042,2.68C304.082,353.463,299.085,352.366,298.491,352.161z"/>
					</g>
					<g>
						<path style="fill:#131D42;" d="M305.495,346.191c0,0-0.663-1.244-1.196-0.873c-0.533,0.371-0.33,0.449-0.33,0.449
							L305.495,346.191z"/>
						<path style="fill:#131D42;" d="M298.942,346.508c0,0,1.589-1.764,2.215-1.116c0.365,0.379,0.102,0.627,0.102,0.627
							L298.942,346.508z"/>
						<g>
							<path style="fill:#131D42;" d="M299.902,347.794c0.074,0.481,0.376,0.834,0.676,0.788c0.3-0.046,0.483-0.473,0.409-0.955
								s-0.376-0.834-0.676-0.788C300.012,346.886,299.829,347.313,299.902,347.794z"/>
							<path style="fill:#FFF0E7;" d="M299.309,347.387c0,0,0.237,0.27,0.588,0.353c0.351,0.083,0.684-0.052,0.684-0.052
								s-0.237-0.27-0.588-0.353C299.642,347.252,299.309,347.387,299.309,347.387z"/>
						</g>
						<g>
							<path style="fill:#131D42;" d="M305.114,347.53c0.072,0.47-0.053,0.879-0.279,0.914c-0.226,0.035-0.467-0.318-0.539-0.789
								c-0.072-0.47,0.053-0.879,0.279-0.914C304.8,346.706,305.042,347.06,305.114,347.53z"/>
							<path style="fill:#FFF0E7;" d="M305.386,346.963c0,0-0.114,0.216-0.335,0.347c-0.221,0.131-0.465,0.128-0.465,0.128
								s0.114-0.216,0.335-0.347C305.142,346.96,305.386,346.963,305.386,346.963z"/>
						</g>
						<path style="fill:#FFBF90;" d="M304.988,349.409c0.101,0.18,0.516,0.139,0.928-0.092c0.412-0.23,0.664-0.563,0.563-0.743
							c-0.101-0.18-0.516-0.139-0.928,0.092C305.14,348.896,304.888,349.229,304.988,349.409z"/>
						<path style="fill:#FFBF90;" d="M299.357,349.36c-0.03,0.299,0.5,0.598,1.185,0.668c0.685,0.07,1.265-0.116,1.295-0.415
							c0.031-0.299-0.5-0.598-1.185-0.668C299.967,348.875,299.387,349.061,299.357,349.36z"/>
					</g>
				</g>
				<g>
					<path style="fill:#FFBF90;" d="M298.512,351.625c-0.944,0.069-1.708-0.38-2.142-0.788c-0.098-0.092-0.179-0.182-0.241-0.263
						c-0.34-0.442-0.673-2.106-0.047-2.6c0.439-0.346,0.849-0.004,1.056,0.232l0,0.001c0.088,0.1,0.139,0.181,0.139,0.181
						L298.512,351.625z"/>
					<path style="fill:#FFA07F;" d="M298.512,351.625c-0.944,0.069-1.708-0.38-2.142-0.788c-0.039-0.043-0.073-0.083-0.103-0.122
						c-0.34-0.442-0.673-2.106-0.047-2.6c0.355-0.281,0.692-0.11,0.917,0.091l0,0.001c0.088,0.1,0.139,0.181,0.139,0.181
						L298.512,351.625z"/>
					<g>
						<path style="fill:#131D42;" d="M302.543,344.733c-0.823-0.102-1.649-0.209-2.434-0.478c-0.498-0.171-0.98-0.415-1.391-0.745
							c-1.18,1.6-1.609,3.812-0.946,5.668c-0.142-0.393-0.494-0.701-0.901-0.795c-0.409-0.091-0.825-0.03-1.124,0.263
							c-0.332-0.677-0.664-1.359-0.915-2.067c-0.125-0.351-0.229-0.706-0.304-1.071c-0.224-1.102-0.151-2.31,0.447-3.264
							c0.545-0.871,1.588-1.462,2.595-1.342c0.032-0.238,0.112-0.453,0.265-0.62c0.312-0.347,0.984-0.475,1.412-0.584
							c0.594-0.154,1.208-0.234,1.825-0.238c1.092-0.005,2.206,0.241,3.116,0.843c0.809,0.532,1.424,1.319,1.886,2.168
							c0.026,0.045,0.05,0.094,0.073,0.14c0.42,0.809,0.723,1.676,1.023,2.542c-1.704,0.061-3.424-0.453-4.816-1.439
							C302.259,344.057,302.332,344.444,302.543,344.733z"/>
						<path style="fill:#131A70;" d="M300.444,341.763c0.061,0.561,0.204,1.119,0.422,1.64c-0.803-0.083-1.572-0.476-2.111-1.077
							c-0.637,0.57-1.283,1.143-1.792,1.831c-0.513,0.685-0.887,1.503-0.91,2.357c-0.401,0.092-0.814,0.114-1.22,0.063
							c-0.125-0.351-0.229-0.706-0.304-1.071c-0.116-0.575-0.153-1.179-0.075-1.762c0.069-0.532,0.235-1.046,0.522-1.502
							c0.545-0.871,1.588-1.462,2.595-1.342c0.032-0.238,0.112-0.453,0.265-0.62c0.312-0.347,0.984-0.475,1.412-0.584
							c0.594-0.154,1.208-0.234,1.825-0.238c1.092-0.005,2.206,0.241,3.116,0.843c0.076,0.049,0.15,0.101,0.222,0.161
							c0.7,0.519,1.244,1.237,1.664,2.007c0.026,0.045,0.05,0.094,0.073,0.14c-0.663,0.047-1.324,0.066-1.987,0.035
							C302.877,342.59,301.589,342.339,300.444,341.763z"/>
						<path style="fill:#172D8A;" d="M299.179,340.941c-0.067,0.373-0.004,0.764,0.173,1.096c-0.609-0.033-1.209-0.169-1.774-0.398
							c-0.984,0.675-1.722,1.699-2.051,2.845c-0.381-0.208-0.742-0.455-1.074-0.739c0.069-0.532,0.235-1.046,0.522-1.502
							c0.545-0.871,1.588-1.462,2.595-1.342c0.032-0.238,0.112-0.453,0.265-0.62c0.312-0.347,0.984-0.475,1.412-0.584
							c0.594-0.154,1.208-0.234,1.825-0.238c1.092-0.005,2.206,0.241,3.116,0.843c0.076,0.049,0.15,0.101,0.222,0.161
							C302.714,340.937,300.931,341.106,299.179,340.941z"/>
					</g>
					<path style="fill:#FFBF90;" d="M296.069,349.338c-0.014,0.139,0.029,0.276,0.094,0.401c0.273,0.534,0.901,0.877,1.499,1.193
						c-0.204-0.248-0.311-0.547-0.323-0.852c-0.004-0.106,0.002-0.213-0.013-0.318C297.265,349.34,296.151,348.515,296.069,349.338z
						"/>
					<g>
						<path style="fill:#CF4A57;" d="M297.956,351.05c0,0-0.012-0.004-0.033-0.013c-0.021-0.009-0.055-0.02-0.095-0.039
							c-0.079-0.037-0.191-0.099-0.302-0.199c-0.111-0.1-0.219-0.239-0.286-0.413c-0.064-0.174-0.088-0.385-0.023-0.601
							c0.006-0.027,0.017-0.054,0.028-0.08l0.008-0.02c0.002-0.005,0.001-0.002,0.001-0.002l0,0l0,0h0c0,0,0.001,0.001-0.002-0.003
							l-0.011-0.015l-0.023-0.029c-0.016-0.019-0.031-0.038-0.047-0.057c-0.063-0.075-0.13-0.143-0.198-0.207
							c-0.067-0.063-0.136-0.12-0.203-0.172c-0.068-0.051-0.132-0.099-0.194-0.132c-0.062-0.033-0.127-0.051-0.186-0.05
							c-0.058,0.002-0.111,0.024-0.144,0.047c-0.034,0.024-0.051,0.051-0.057,0.07c-0.006,0.019-0.004,0.03-0.005,0.03
							c0,0-0.004-0.01-0.003-0.03c0.001-0.02,0.011-0.052,0.044-0.085c0.033-0.032,0.086-0.066,0.162-0.079
							c0.076-0.012,0.161,0.001,0.241,0.031c0.08,0.03,0.154,0.072,0.232,0.118c0.078,0.047,0.158,0.101,0.236,0.162
							c0.078,0.062,0.155,0.131,0.227,0.208c0.018,0.019,0.036,0.039,0.053,0.059l0.026,0.031l0.035,0.043l0.024,0.03
							c-0.003,0.012-0.009,0.024-0.013,0.036l-0.02,0.052c-0.009,0.023-0.018,0.046-0.024,0.069
							c-0.057,0.188-0.048,0.374-0.007,0.536c0.045,0.161,0.122,0.299,0.207,0.405c0.085,0.106,0.176,0.18,0.243,0.228
							c0.033,0.024,0.062,0.04,0.081,0.052C297.946,351.044,297.956,351.05,297.956,351.05z"/>
					</g>
				</g>
			</g>
			<g>
				<path style="fill:#FACC07;" d="M294.569,362.813c0,0,2.988-6.848,1.261-8.101c-1.141-0.828-17.902,7.168-19.242,10.505
					c-1.34,3.337,7.567,7.956,7.567,7.956l3.23-3.761l-3.027-3.92L294.569,362.813z"/>
				<g>
					<g>
						<g>
							<g>
								<path style="fill:#FFA07F;" d="M294.214,378.146c-0.233,0.229-4.51-2.143-4.8-2.576l-0.32-0.648l-2.132-1.132
									c0,0,0.079-0.411,0.329-0.887c0.133-0.258,0.319-0.534,0.569-0.775c0.139-0.135,0.298-0.259,0.481-0.362
									c0.094-0.053,1.274,0.483,1.274,0.483s1.11-1.277,2.038-1.15c0.548,0.076,1.104,0.151,1.64,0.016
									c0.28-0.07,0.553-0.178,0.839-0.215c0.287-0.038,0.603,0.005,0.816,0.201c0.025,0.023,0.049,0.048,0.059,0.081
									c0.021,0.067-0.023,0.135-0.073,0.189c-0.004,0.006-0.011,0.011-0.016,0.017c-0.572,0.576-1.346,0.948-2.151,1.035
									c0,0,2.113,1.706,2.833,1.964c0,0,1.365,0.942,1.241,1.234c-0.046,0.108-0.111,0.189-0.175,0.247
									c-0.108,0.099-0.211,0.136-0.211,0.136s-3.146-1.59-3.307-1.549c-0.162,0.041,2.274,2.098,2.303,2.39
									c0.009,0.084-0.051,0.177-0.142,0.266c-0.083,0.082-0.193,0.163-0.299,0.23c-0.176,0.116-0.339,0.196-0.339,0.196
									s-0.021,0.036-0.057,0.093c-0.05,0.076-0.126,0.19-0.216,0.305C294.34,378.01,294.277,378.083,294.214,378.146z"/>
								<g>
									<g>
										<path style="fill:#CF4A57;" d="M295.009,377.341c-0.076-0.052-0.152-0.105-0.228-0.162
											c-0.444-0.33-0.806-0.68-1.053-0.947c-0.232-0.25-0.366-0.426-0.381-0.447c0.023,0.013,0.215,0.122,0.501,0.303
											c0.306,0.193,0.72,0.465,1.156,0.79c0.105,0.078,0.206,0.156,0.304,0.232
											C295.224,377.193,295.115,377.273,295.009,377.341z"/>
									</g>
									<g>
										<path style="fill:#CF4A57;" d="M294.397,377.935c-0.716-0.511-1.201-1.044-1.232-1.078
											c0.043,0.016,0.714,0.283,1.447,0.773C294.563,377.707,294.486,377.821,294.397,377.935z"/>
									</g>
								</g>
								<path style="fill:#FFBF90;" d="M294.934,371.372c-0.058-0.016-0.117-0.031-0.174-0.043
									c-0.477-0.094-0.958,0.093-1.439,0.155c-0.663,0.084-1.357-0.069-1.992,0.137c-0.537,0.175-0.957,0.582-1.393,0.941
									c-0.135,0.11-0.284,0.223-0.458,0.235c-0.143,0.009-0.281-0.052-0.412-0.111c-0.399-0.18-0.798-0.388-1.206-0.558
									c0.139-0.135,0.298-0.259,0.481-0.362c0.094-0.053,1.274,0.483,1.274,0.483s1.11-1.277,2.038-1.15
									c0.548,0.076,1.104,0.151,1.64,0.016c0.28-0.07,0.553-0.178,0.839-0.215c0.287-0.038,0.603,0.005,0.816,0.201
									c0.025,0.023,0.049,0.048,0.059,0.081C295.028,371.25,294.984,371.318,294.934,371.372z"/>
							</g>
						</g>
					</g>
					<g>
						<polygon style="fill:#FFA07F;" points="286.961,373.79 284.499,372.476 285.814,370.708 286.335,370.01 289.615,372.249 
							288.952,372.633 						"/>
						<polygon style="fill:#FFBF90;" points="288.952,372.633 285.814,370.708 286.335,370.01 289.615,372.249 						"/>
					</g>
				</g>
				<polygon style="fill:#EA830C;" points="286.313,368.228 287.384,369.412 284.155,373.173 282.689,372.342 				"/>
			</g>
			<path style="fill:#E1BFB2;" d="M304.244,358.666l0.181,1.289l-2.433-2.571l-2.006,2.361l-4.538-5.093
				c0.099-0.087,0.314-0.12,0.42-0.188c0.112-0.07,0.23-0.153,0.499-0.295l3.542,4.332l1.98-2.037L304.244,358.666z"/>
			<path style="fill:#FDE4D9;" d="M298.41,353.173c0,0-1.983,0.609-2.275,1.124l3.775,4.203l1.978-2.038l2.351,2.203l-0.19-3.067
				c0,0-1.051-0.993-1.472-1.06l-0.854,1.058L298.41,353.173z"/>
		</g>
		<path style="fill:#6FB1FE;" d="M366.907,365.741c-1.673-8.489-5.013-16.378-9.663-23.319c5.6-6.448,8.613-10.494,8.068-11.045
			l-14.854-14.848c-0.552-0.558-4.591,2.462-11.045,8.062c-6.94-4.645-14.836-7.985-23.325-9.663
			c-0.599-8.518-1.323-13.507-2.106-13.507h-20.999c-0.783,0-1.507,4.989-2.106,13.507c-8.489,1.679-16.384,5.019-23.325,9.663
			c-6.448-5.6-10.494-8.619-11.045-8.062l-14.848,14.848c-0.552,0.552,2.468,4.597,8.062,11.045
			c-4.651,6.94-7.99,14.83-9.663,23.319c-8.512,0.599-13.501,1.329-13.501,2.112v20.999c0,0.777,4.983,1.507,13.495,2.106
			c1.679,8.489,5.018,16.384,9.669,23.325c-5.6,6.448-8.613,10.494-8.062,11.045l14.848,14.848
			c0.552,0.552,4.597-2.468,11.045-8.062c6.94,4.645,14.836,7.984,23.325,9.663c0.599,8.518,1.323,13.507,2.106,13.507h20.999
			c0.783,0,1.507-4.989,2.106-13.507c8.489-1.679,16.384-5.018,23.331-9.669c6.448,5.606,10.488,8.619,11.04,8.068l14.854-14.848
			c0.546-0.552-2.468-4.597-8.068-11.045c4.651-6.941,7.99-14.836,9.669-23.325c8.512-0.599,13.501-1.329,13.501-2.106v-20.999
			C380.414,367.07,375.42,366.34,366.907,365.741z M303.482,427.434c-27.104,0-49.082-21.978-49.082-49.082
			c0-27.104,21.978-49.082,49.082-49.082c27.112,0,49.082,21.978,49.082,49.082C352.564,405.456,330.594,427.434,303.482,427.434z"
			/>
	</g>
	<g>
		<path style="fill:#6FB1FE;" d="M446.475,242.259c-1.673-8.489-5.013-16.378-9.663-23.319c5.6-6.448,8.613-10.494,8.068-11.045
			l-14.854-14.848c-0.552-0.558-4.591,2.462-11.045,8.062c-6.94-4.645-14.836-7.984-23.325-9.663
			c-0.599-8.518-1.323-13.507-2.106-13.507H372.55c-0.783,0-1.507,4.989-2.106,13.507c-8.489,1.679-16.384,5.018-23.325,9.663
			c-6.448-5.6-10.494-8.619-11.045-8.062l-14.848,14.848c-0.552,0.552,2.468,4.597,8.062,11.045
			c-4.651,6.94-7.99,14.83-9.663,23.319c-8.512,0.599-13.501,1.329-13.501,2.112v20.999c0,0.777,4.983,1.507,13.495,2.106
			c1.679,8.489,5.018,16.384,9.669,23.325c-5.6,6.448-8.613,10.494-8.062,11.045l14.848,14.848
			c0.552,0.552,4.597-2.468,11.045-8.062c6.94,4.645,14.836,7.985,23.325,9.663c0.599,8.518,1.323,13.507,2.106,13.507h20.999
			c0.783,0,1.507-4.989,2.106-13.507c8.489-1.679,16.384-5.018,23.331-9.669c6.448,5.606,10.488,8.619,11.039,8.068l14.854-14.848
			c0.546-0.552-2.468-4.597-8.068-11.045c4.651-6.941,7.99-14.836,9.669-23.325c8.512-0.599,13.501-1.329,13.501-2.106v-20.999
			C459.982,243.588,454.988,242.858,446.475,242.259z M383.05,303.952c-27.104,0-49.082-21.978-49.082-49.082
			c0-27.104,21.978-49.082,49.082-49.082c27.112,0,49.082,21.978,49.082,49.082C432.132,281.975,410.162,303.952,383.05,303.952z"/>
		<g>
			<g>
				<path style="fill:#CD2B7B;" d="M391.823,238.918c0,0-5.108,0.722-5.393,2.304c-0.188,1.045,10.426,9.251,13.127,9.068
					c2.701-0.183,2.92-7.733,2.92-7.733l-3.607-0.96l-1.668,3.334L391.823,238.918z"/>
				<g>
					<g>
						<g>
							<g>
								<path style="fill:#FFA07F;" d="M402.558,234.11c0.232,0.083,0.021,3.759-0.177,4.097l-0.335,0.429l-0.07,1.816
									c0,0-0.305,0.081-0.709,0.067c-0.218-0.006-0.466-0.042-0.711-0.132c-0.137-0.05-0.273-0.118-0.402-0.208
									c-0.067-0.047-0.089-1.022-0.089-1.022s-1.229-0.336-1.446-1.006c-0.128-0.396-0.259-0.798-0.526-1.117
									c-0.139-0.167-0.301-0.317-0.42-0.499c-0.12-0.182-0.194-0.411-0.131-0.619c0.007-0.024,0.017-0.049,0.036-0.066
									c0.039-0.036,0.1-0.029,0.152-0.012c0.005,0.001,0.011,0.003,0.016,0.005c0.577,0.199,1.083,0.602,1.405,1.12
									c0,0,0.466-1.991,0.406-2.563c0,0,0.192-1.233,0.431-1.245c0.088-0.004,0.164,0.014,0.225,0.038
									c0.103,0.04,0.161,0.099,0.161,0.099s-0.049,2.653,0.031,2.749c0.081,0.096,0.679-2.228,0.868-2.343
									c0.054-0.033,0.136-0.023,0.227,0.009c0.083,0.029,0.174,0.077,0.254,0.127c0.136,0.081,0.244,0.166,0.244,0.166
									s0.031,0.003,0.082,0.008c0.068,0.009,0.171,0.023,0.277,0.047C402.424,234.069,402.495,234.088,402.558,234.11z"/>
								<g>
									<g>
										<path style="fill:#CF4A57;" d="M401.752,233.835c-0.01,0.068-0.022,0.138-0.035,0.208
											c-0.078,0.409-0.198,0.769-0.297,1.024c-0.094,0.239-0.169,0.387-0.179,0.405c0.001-0.02,0.013-0.185,0.042-0.439
											c0.031-0.271,0.08-0.641,0.158-1.043c0.019-0.097,0.039-0.191,0.058-0.282
											C401.582,233.737,401.672,233.785,401.752,233.835z"/>
									</g>
									<g>
										<path style="fill:#CF4A57;" d="M402.355,234.055c-0.112,0.653-0.315,1.156-0.328,1.188
											c-0.003-0.035-0.042-0.577,0.051-1.234C402.146,234.018,402.249,234.032,402.355,234.055z"/>
									</g>
								</g>
								<path style="fill:#FFBF90;" d="M397.729,235.838c0.008,0.045,0.017,0.09,0.028,0.132c0.092,0.354,0.377,0.619,0.576,0.925
									c0.274,0.422,0.397,0.943,0.744,1.306c0.294,0.307,0.708,0.459,1.094,0.637c0.119,0.055,0.244,0.12,0.309,0.234
									c0.053,0.094,0.057,0.208,0.06,0.316c0.008,0.329-0.002,0.668,0.016,1c-0.137-0.05-0.273-0.118-0.402-0.208
									c-0.067-0.047-0.089-1.022-0.089-1.022s-1.229-0.336-1.446-1.006c-0.128-0.396-0.259-0.798-0.526-1.117
									c-0.139-0.167-0.301-0.317-0.42-0.499c-0.12-0.182-0.194-0.411-0.131-0.619c0.007-0.024,0.017-0.049,0.036-0.066
									C397.616,235.814,397.677,235.821,397.729,235.838z"/>
							</g>
						</g>
					</g>
					<g>
						<polygon style="fill:#FFA07F;" points="401.976,240.452 401.89,242.552 400.261,242.238 399.618,242.113 400.064,239.158 
							400.541,239.481 						"/>
						<polygon style="fill:#FFBF90;" points="400.541,239.481 400.261,242.238 399.618,242.113 400.064,239.158 						"/>
					</g>
				</g>
				<polygon style="fill:#FF3E98;" points="398.417,242.711 398.869,241.598 402.476,242.557 402.392,243.823 				"/>
			</g>
			<g>
				<path style="fill:#131D42;" d="M393.769,237.051l-12.317-0.296c-0.374-2.234-0.38-4.526-0.019-6.76
					c0.102-0.622,0.237-1.257,0.585-1.782c0.348-0.527,0.95-0.926,1.577-0.865c0.437-1.273,1.792-2.221,3.132-2.37
					c1.338-0.149,2.698,0.368,3.739,1.222c1.04,0.856,1.789,2.025,2.328,3.259C393.789,231.727,394.133,234.603,393.769,237.051z"/>
				<path style="fill:#131A70;" d="M393.769,237.051l-1.173-0.028c0.104-2.783,0.028-5.65-1.266-8.093
					c-0.285-0.076-0.716-0.217-1.009-0.233c-0.219-0.538-0.477-1.061-0.775-1.562c-0.196,0.425-0.514,0.842-0.767,1.238
					c-0.341,0.056-0.781,0-1.127-0.038c-0.271-0.39-0.542-0.78-0.815-1.168c-0.372,0.492-0.681,0.999-0.951,1.552
					c-0.501,0.112-1.122,0.354-1.558,0.626c-0.466,0.292-0.758,0.79-0.998,1.285c-0.918,1.895-1.287,4.052-1.066,6.144l-0.812-0.02
					c-0.172-1.04-0.269-2.091-0.283-3.146c-0.017-1.211,0.07-2.421,0.264-3.615c0.102-0.622,0.237-1.257,0.585-1.782
					c0.348-0.527,0.95-0.926,1.577-0.865c0.437-1.273,1.792-2.221,3.132-2.37c1.338-0.149,2.698,0.368,3.739,1.222
					c1.04,0.856,1.789,2.025,2.328,3.259C393.789,231.727,394.133,234.603,393.769,237.051z"/>
				<path style="fill:#172D8A;" d="M393.769,237.051l-0.016,0c0.017-1.393-0.046-2.786-0.291-4.159
					c-0.329-1.868-1.054-3.718-2.212-5.222c-0.271-0.007-0.557,0.065-0.83,0.058c-0.397-0.584-0.843-1.134-1.329-1.646
					c-0.11,0.383-0.285,0.76-0.392,1.143c-0.302-0.026-0.652-0.018-0.957-0.046c0.011,0.012,0.015,0.039-0.003,0.046
					c-0.032,0.008-0.059-0.022-0.077-0.048c-0.284-0.42-0.568-0.84-0.852-1.26c-0.356,0.589-0.728,1.25-1.12,1.815
					c-1.758,0.073-3.23,1.495-3.898,3.124c-0.361,0.875-0.535,1.806-0.622,2.754c-0.017-1.211,0.07-2.421,0.264-3.615
					c0.102-0.622,0.237-1.257,0.585-1.782c0.348-0.527,0.95-0.926,1.577-0.865c0.437-1.273,1.792-2.221,3.132-2.37
					c1.338-0.149,2.698,0.368,3.739,1.222c1.04,0.856,1.789,2.025,2.328,3.259C393.789,231.727,394.133,234.603,393.769,237.051z"/>
			</g>
			<g>
				<path style="fill:#FFA07F;" d="M401.51,297.683l1.42-0.704l-1.19-2.131c0,0,2.437,1.53,2.927,1.389
					c0.489-0.141,4.35-2.687,5.537-4.004c1.211-1.346,0.855-1.727,0.855-1.727c-0.356-0.199-1.986-0.181-3.28,0.215
					c-0.262,0.079-0.657,0.111-1.123,0.109c-1.823-0.006-4.71-0.511-4.71-0.511l-2.765,1.925
					C399.025,294.464,401.51,297.683,401.51,297.683z"/>
				<path style="fill:#E9CFC5;" d="M401.51,297.683l1.42-0.704l-1.189-2.13c0,0,2.437,1.53,2.927,1.389
					c0.489-0.141,4.35-2.687,5.537-4.004c1.211-1.346,0.855-1.727,0.855-1.727c-0.356-0.199-1.986-0.181-3.28,0.215
					c0,0,0.496,1.767-0.546,2.449c-1.044,0.683-4.912,0.613-5.901-0.035c-0.991-0.647-2.132-0.261-2.132-0.261
					C399.045,295.094,401.51,297.683,401.51,297.683z"/>
			</g>
			<path style="fill:#165C80;" d="M387.176,258.637l-6.087,4.641l14.378,12.685l2.805,17.737l5.309-3.37
				c-0.172-4.963-1.087-17.408-1.09-18.738C402.49,270.651,391.596,262.243,387.176,258.637z"/>
			<g>
				<path style="fill:#FFA07F;" d="M349.984,283.057l0.898,1.306l1.941-1.48c0,0-1.169,2.629-0.96,3.094
					c0.209,0.465,3.277,3.925,4.749,4.913c1.504,1.008,1.83,0.602,1.83,0.602c0.146-0.38-0.103-1.991-0.677-3.216
					c-0.116-0.248-0.203-0.635-0.267-1.096c-0.252-1.805-0.162-4.735-0.162-4.735l-2.297-2.464
					C352.818,280.141,349.984,283.057,349.984,283.057z"/>
				<path style="fill:#E9CFC5;" d="M349.984,283.057l0.898,1.306l1.94-1.479c0,0-1.169,2.629-0.96,3.094
					c0.209,0.465,3.277,3.925,4.749,4.913c1.504,1.008,1.83,0.602,1.83,0.602c0.146-0.38-0.103-1.991-0.677-3.216
					c0,0-1.679,0.741-2.501-0.193c-0.824-0.937-1.304-4.775-0.802-5.846c0.5-1.073-0.044-2.147-0.044-2.147
					C352.197,280.25,349.984,283.057,349.984,283.057z"/>
			</g>
			<path style="fill:#1E9182;" d="M386.604,263.333l-5.458-5.368l-10.519,16.031l-17.16,5.29l4.089,4.778
				c4.888-0.873,17.078-3.544,18.395-3.735C376.882,280.195,383.661,268.219,386.604,263.333z"/>
			<polygon style="fill:#1E9182;" points="382.007,267.364 383.831,268.027 390.201,261.067 381.604,258.415 			"/>
			<path style="fill:#FDE4D9;" d="M392.673,248.01c-0.522,1.643-2.043,3.049-2.043,3.049l-0.429,10.008c0,0-10.491-1.05-12.76-2.066
				l4.499-13.286l0.412-8.184l2.561-0.17l0.997-0.457l3.147,0.827l1.711,0.867C390.768,238.598,393.195,246.368,392.673,248.01z"/>
			<g>
				<path style="fill:#FFA07F;" d="M385.911,236.905c0,0,1.699,1.633,2.095,1.556c0.396-0.074,1.052-0.73,1.052-0.73
					c-0.062-0.109-0.542-0.573-0.466-0.859c0.175-0.66,0.576-1.554,0.576-1.554l-2.121-1.149c0,0-0.2,0.628-0.443,1.288
					C386.358,236.126,386.071,236.823,385.911,236.905z"/>
				<path style="fill:#FF7D6F;" d="M386.604,235.456c0.541,0.564,1.21,1.237,1.444,1.363c0.191,0.102,0.387,0.093,0.543,0.053
					c0.176-0.66,0.577-1.553,0.577-1.553l-2.121-1.149C387.047,234.17,386.846,234.799,386.604,235.456z"/>
			</g>
			<g>
				<g>
					<path style="fill:#FFBF90;" d="M384.497,228.454c1.285-1.401,3.391-1.781,5.015-0.791c0.373,0.228,0.67,0.483,0.799,0.759
						c0.518,1.105,1.196,5.144,0.317,7.056c-0.88,1.912-2.185,1.616-2.648,1.469c-0.464-0.147-2.637-1.115-3.127-1.843
						c-0.49-0.728-1.49-4.448-1.224-5.405C383.716,229.38,384.068,228.922,384.497,228.454z"/>
					<path style="fill:#FFA07F;" d="M384.354,228.161c1.285-1.401,3.391-1.781,5.015-0.791c0.373,0.227,0.67,0.483,0.799,0.759
						c0.518,1.105,1.196,5.144,0.316,7.056c-0.88,1.912-2.185,1.616-2.648,1.469c-0.464-0.147-2.637-1.115-3.127-1.843
						c-0.49-0.728-1.49-4.448-1.224-5.405C383.573,229.086,383.925,228.629,384.354,228.161z"/>
				</g>
				<g>
					<path style="fill:#FFA07F;" d="M384.686,233.1c-0.116-0.059-0.69-0.845-1.115-0.382c-0.424,0.463-0.551,1.239-0.168,1.683
						c0.349,0.406,0.838,0.846,1.448,0.703L384.686,233.1z"/>
					<path style="fill:#FF7D6F;" d="M383.573,233.313c-0.026,0.103-0.011,0.212,0.02,0.314c0.132,0.437,0.537,0.773,0.924,1.085
						c-0.116-0.212-0.157-0.451-0.13-0.683c0.009-0.081,0.026-0.161,0.028-0.242C384.421,233.461,383.727,232.701,383.573,233.313z"
						/>
					<g>
						<path style="fill:#CF4A57;" d="M384.712,234.838c0,0-0.008-0.005-0.022-0.014c-0.014-0.009-0.037-0.021-0.063-0.041
							c-0.052-0.038-0.124-0.098-0.191-0.187c-0.067-0.089-0.127-0.207-0.155-0.347c-0.025-0.139-0.018-0.301,0.054-0.456
							c0.008-0.02,0.018-0.038,0.029-0.057l0.008-0.014c0.002-0.003,0.001-0.001,0.001-0.001l0,0l0,0v0c0,0,0,0.001-0.001-0.002
							l-0.006-0.013l-0.013-0.025c-0.009-0.016-0.017-0.033-0.027-0.049c-0.036-0.064-0.076-0.124-0.116-0.18
							c-0.04-0.056-0.082-0.108-0.124-0.155c-0.042-0.047-0.082-0.091-0.122-0.124c-0.04-0.033-0.084-0.055-0.126-0.061
							c-0.042-0.005-0.081,0.004-0.108,0.018c-0.027,0.014-0.042,0.032-0.048,0.046c-0.007,0.014-0.006,0.022-0.006,0.022
							s-0.003-0.008,0.001-0.023c0.003-0.015,0.014-0.038,0.041-0.059c0.027-0.02,0.069-0.039,0.124-0.04
							c0.055,0,0.115,0.02,0.167,0.053c0.053,0.033,0.101,0.073,0.151,0.118c0.05,0.045,0.1,0.095,0.149,0.152
							c0.048,0.056,0.095,0.118,0.137,0.185c0.011,0.017,0.021,0.034,0.031,0.051l0.015,0.026l0.02,0.037l0.013,0.026
							c-0.004,0.008-0.009,0.017-0.014,0.026l-0.02,0.037c-0.009,0.016-0.018,0.032-0.025,0.049
							c-0.063,0.135-0.078,0.276-0.067,0.403c0.013,0.127,0.052,0.241,0.1,0.331c0.048,0.09,0.104,0.158,0.146,0.202
							c0.021,0.022,0.039,0.038,0.051,0.049C384.706,234.832,384.712,234.838,384.712,234.838z"/>
					</g>
				</g>
				<g>
					<g>
						<path style="fill:#FF7D6F;" d="M388.438,233.302c-0.1-0.018-0.203-0.054-0.301-0.027c0.138,0.211,0.362,0.364,0.608,0.415
							c0.019,0.004,0.039,0.007,0.058,0.004c0.023-0.005,0.043-0.02,0.061-0.035c0.115-0.097,0.211-0.216,0.28-0.35
							c0.014-0.027,0.027-0.056,0.029-0.086c0.006-0.101-0.057-0.068-0.11-0.036c-0.062,0.038-0.129,0.067-0.199,0.089
							C388.727,233.318,388.58,233.328,388.438,233.302z"/>
						<path style="fill:#FC5B68;" d="M388.757,233.632c0.05-0.063,0.109-0.119,0.161-0.181c0.064-0.076,0.122-0.158,0.17-0.245
							c-0.352-0.163-0.404-0.493-0.452-0.868c-0.022-0.169-0.003-0.343,0.054-0.504c0.03-0.085,0.07-0.165,0.119-0.24
							c0.025-0.038,0.053-0.075,0.082-0.109c0.029-0.034,0.061-0.056,0.099-0.079c-0.016,0.025-0.025,0.053-0.038,0.079
							c-0.036,0.067-0.074,0.131-0.103,0.202c-0.029,0.071-0.051,0.145-0.067,0.22c-0.032,0.15-0.04,0.305-0.019,0.457
							c0.02,0.149,0.067,0.295,0.145,0.424c0.089,0.147,0.225,0.285,0.384,0.353c0.001,0-0.173,0.287-0.19,0.311
							c-0.046,0.062-0.097,0.12-0.154,0.171c-0.056,0.05-0.12,0.11-0.198,0.12c-0.024,0.003-0.05,0.002-0.072-0.009
							c0.012-0.011,0.022-0.023,0.032-0.036c0.004-0.006,0.008-0.012,0.012-0.017C388.732,233.664,388.744,233.648,388.757,233.632z
							"/>
						<g>
							<path style="fill:#FC5B68;" d="M386.773,234.176c0.766,0.447,1.73,0.54,2.567,0.247c-0.412,0.274-0.866,0.445-1.359,0.402
								C387.488,234.783,387.132,234.516,386.773,234.176z"/>
							<path style="fill:#FC5B68;" d="M387.517,235.051c0.319,0.205,0.741,0.242,1.091,0.095c-0.136,0.164-0.323,0.265-0.536,0.259
								S387.644,235.222,387.517,235.051z"/>
						</g>
					</g>
					<path style="fill:#131A70;" d="M390.615,230.427c0,0-0.569-0.458-0.931-0.431c-0.362,0.027-0.478,0.356-0.337,0.425
						C389.488,230.489,390.615,230.427,390.615,230.427z"/>
					<path style="fill:#131A70;" d="M385.493,230.882c0,0,0.849-0.716,1.413-0.811c0.563-0.095,0.766,0.238,0.553,0.364
						C387.244,230.563,385.493,230.882,385.493,230.882z"/>
					<g>
						<path style="fill:#FF7D6F;" d="M386.91,233.476c-0.026,0.171-0.415,0.254-0.868,0.184c-0.453-0.07-0.799-0.265-0.772-0.437
							c0.026-0.171,0.415-0.254,0.868-0.184C386.59,233.109,386.936,233.304,386.91,233.476z"/>
						<path style="fill:#FF7D6F;" d="M391.355,232.688c0.054,0.12-0.196,0.348-0.558,0.509c-0.362,0.161-0.698,0.195-0.752,0.075
							c-0.054-0.12,0.196-0.348,0.558-0.509C390.965,232.601,391.301,232.568,391.355,232.688z"/>
					</g>
					<g>
						<path style="fill:#161818;" d="M385.839,231.388c0.079,0.135,0.285,0.218,0.427,0.261c0.055-0.088,0.13-0.147,0.219-0.161
							c0.227-0.036,0.459,0.23,0.518,0.595c0.059,0.365-0.078,0.69-0.306,0.727c-0.227,0.036-0.459-0.23-0.517-0.595
							c-0.018-0.113-0.017-0.222-0.001-0.32C385.98,231.77,385.839,231.388,385.839,231.388z"/>
						<path style="fill:#FFFFFF;" d="M386.589,232.197c0,0-0.218,0.115-0.446,0.066c-0.228-0.049-0.38-0.243-0.38-0.243
							s0.218-0.115,0.446-0.066C386.437,232.003,386.589,232.197,386.589,232.197z"/>
					</g>
					<g>
						<path style="fill:#161818;" d="M390.575,231.097c-0.087,0.13-0.298,0.2-0.443,0.234c-0.049-0.091-0.12-0.155-0.208-0.175
							c-0.225-0.051-0.473,0.201-0.554,0.561c-0.081,0.361,0.035,0.694,0.259,0.745c0.225,0.051,0.473-0.201,0.554-0.561
							c0.025-0.112,0.031-0.221,0.021-0.32C390.41,231.469,390.575,231.097,390.575,231.097z"/>
						<path style="fill:#FFFFFF;" d="M389.775,231.857c0,0,0.21,0.128,0.441,0.094c0.231-0.034,0.395-0.219,0.395-0.219
							s-0.21-0.129-0.441-0.094C389.939,231.673,389.775,231.857,389.775,231.857z"/>
					</g>
				</g>
				<path style="fill:#131D42;" d="M384.197,230.324c0.693-0.53,1.531-0.87,2.398-0.972c0.001-0.374,0.193-0.672,0.335-1.018
					c0.1,0.312,0.271,0.689,0.371,1.001c0.654,0.043,1.318-0.019,1.972,0.024c0.078-0.234,0.212-0.557,0.291-0.791
					c0.07,0.31,0.184,0.732,0.254,1.041c0.424,0.033,0.892,0.12,1.292,0.266c0.096-1.747-1.344-3.419-3.059-3.77
					c-1.715-0.351-3.571,0.542-4.498,2.027c-0.926,1.485-1.002,3.413-0.245,4.991c0,0,0.484-1.01,1.247-0.023L384.197,230.324z"/>
			</g>
			<path style="fill:#CD2B7B;" d="M372.683,271.005c2.207,2.688,8.043,3.003,8.043,3.003c1.586-2.583,2.663-12.661,3.329-21.594
				c0.594-7.983,0.857-15.054,0.857-15.054c-0.233-0.111-0.611-0.158-1.048-0.17c-1.313-0.033-3.151,0.276-3.151,0.276
				L372.683,271.005z"/>
			<g>
				<path style="fill:#CD2B7B;" d="M390.629,249.369c-0.121,0.235-0.198,0.38-0.198,0.38l-0.23,11.317
					c0.737,0.589,1.051,0.838,1.867,1.489c-0.196-5.695-0.494-11.524-0.494-11.524s1.704-2.521,1.688-3.468
					c-0.008-0.469-0.353-2.594-0.701-4.618c-0.128-0.745-0.254-1.478-0.366-2.107c-0.194-1.107-0.338-1.897-0.338-1.897
					l-0.654-0.241c0-0.002,0-0.002,0-0.002l-0.873-0.323c0,0,1.589,6.597,1.651,7.475
					C392.032,246.539,391.058,248.53,390.629,249.369z"/>
				<path style="fill:#CD2B7B;" d="M389.671,270.849l0.006,3.92c0,0,1.742-0.648,2.366-1.483c0.03-0.04,0.056-0.143,0.078-0.276
					L389.671,270.849z"/>
			</g>
			<path style="fill:#FF3E98;" d="M390.629,249.369c0,0,2.232-3.372,2.29-3.848c0.058-0.478-0.785-1.835-0.785-1.835
				s0.245-0.334,0.427-0.74c0.067-0.143,0.124-0.297,0.158-0.448c0.049-0.214-0.195-0.892-0.524-1.659
				c-0.319-0.745-0.715-1.574-0.992-2.139c0-0.002,0-0.002,0-0.002l-0.873-0.323c0,0,1.589,6.597,1.651,7.475
				C392.032,246.539,391.058,248.53,390.629,249.369z"/>
			<polygon style="fill:#FF3E98;" points="381.231,262.844 381.604,264.073 375.574,266.04 375.332,265.173 			"/>
			<path style="fill:#FF3E98;" d="M383.365,244.339c0,0-1.254,1.98-1.355,2.706c-0.069,0.496,1.225,3.519,2.046,5.37
				c0.594-7.983,0.857-15.054,0.857-15.054c-0.233-0.111-0.611-0.158-1.048-0.17c-0.35,1.551-1.246,5.583-1.248,5.92
				C382.614,243.529,383.365,244.339,383.365,244.339z"/>
			<g>
				<path style="fill:#CD2B7B;" d="M380.291,243.581c0,0,2.249-5.155,0.949-6.099c-0.859-0.623-13.477,5.396-14.485,7.908
					c-1.009,2.512,5.697,5.989,5.697,5.989l2.431-2.832l-2.278-2.951L380.291,243.581z"/>
				<g>
					<g>
						<g>
							<g>
								<path style="fill:#FFA07F;" d="M380.024,255.123c-0.175,0.173-3.395-1.614-3.614-1.939l-0.241-0.488l-1.605-0.852
									c0,0,0.059-0.31,0.248-0.668c0.1-0.194,0.24-0.402,0.428-0.583c0.104-0.102,0.225-0.195,0.362-0.272
									c0.071-0.04,0.959,0.363,0.959,0.363s0.836-0.961,1.534-0.866c0.412,0.057,0.831,0.113,1.235,0.012
									c0.211-0.052,0.416-0.134,0.632-0.162c0.216-0.029,0.454,0.004,0.615,0.151c0.019,0.017,0.037,0.036,0.044,0.061
									c0.016,0.051-0.018,0.102-0.055,0.142c-0.003,0.005-0.008,0.009-0.012,0.012c-0.431,0.434-1.013,0.714-1.62,0.779
									c0,0,1.591,1.285,2.133,1.479c0,0,1.027,0.709,0.934,0.929c-0.034,0.081-0.084,0.142-0.132,0.186
									c-0.081,0.075-0.159,0.102-0.159,0.102s-2.368-1.197-2.489-1.166c-0.122,0.031,1.712,1.579,1.733,1.799
									c0.007,0.063-0.038,0.133-0.107,0.2c-0.063,0.062-0.145,0.123-0.225,0.173c-0.132,0.087-0.255,0.148-0.255,0.148
									s-0.016,0.027-0.043,0.07c-0.038,0.057-0.095,0.143-0.162,0.229C380.119,255.021,380.072,255.076,380.024,255.123z"/>
								<g>
									<g>
										<path style="fill:#CF4A57;" d="M380.623,254.517c-0.057-0.039-0.115-0.079-0.172-0.122
											c-0.334-0.248-0.607-0.512-0.793-0.713c-0.174-0.189-0.275-0.321-0.287-0.337c0.017,0.01,0.161,0.092,0.377,0.228
											c0.23,0.146,0.542,0.35,0.87,0.595c0.079,0.059,0.155,0.118,0.229,0.175C380.785,254.406,380.702,254.467,380.623,254.517
											z"/>
									</g>
									<g>
										<path style="fill:#CF4A57;" d="M380.162,254.965c-0.539-0.385-0.904-0.786-0.927-0.811
											c0.033,0.012,0.537,0.213,1.09,0.582C380.287,254.793,380.229,254.879,380.162,254.965z"/>
									</g>
								</g>
								<path style="fill:#FFBF90;" d="M380.566,250.024c-0.044-0.012-0.088-0.023-0.131-0.032c-0.359-0.071-0.721,0.07-1.083,0.117
									c-0.499,0.063-1.021-0.052-1.5,0.103c-0.404,0.132-0.721,0.438-1.049,0.709c-0.102,0.083-0.214,0.168-0.345,0.177
									c-0.108,0.007-0.212-0.039-0.31-0.084c-0.3-0.136-0.601-0.292-0.908-0.42c0.104-0.102,0.225-0.195,0.362-0.272
									c0.071-0.04,0.959,0.363,0.959,0.363s0.836-0.961,1.534-0.866c0.412,0.057,0.831,0.113,1.235,0.012
									c0.211-0.052,0.416-0.134,0.632-0.162c0.216-0.029,0.454,0.004,0.615,0.151c0.019,0.017,0.037,0.036,0.044,0.061
									C380.637,249.932,380.604,249.984,380.566,250.024z"/>
							</g>
						</g>
					</g>
					<g>
						<polygon style="fill:#FFA07F;" points="374.564,251.845 372.711,250.855 373.701,249.524 374.093,248.999 376.562,250.684 
							376.063,250.974 						"/>
						<polygon style="fill:#FFBF90;" points="376.063,250.974 373.701,249.524 374.093,248.999 376.562,250.684 						"/>
					</g>
				</g>
				<polygon style="fill:#FF3E98;" points="374.077,247.658 374.883,248.548 372.451,251.38 371.348,250.755 				"/>
			</g>
		</g>
	</g>
</g>
</svg>
