<?xml version="1.0" encoding="utf-8"?>
<!-- Generator: Adobe Illustrator 27.5.0, SVG Export Plug-In . SVG Version: 6.00 Build 0)  -->
<svg version="1.1" xmlns="http://www.w3.org/2000/svg" xmlns:xlink="http://www.w3.org/1999/xlink" x="0px" y="0px"
	 viewBox="0 0 500 500" style="enable-background:new 0 0 500 500;" xml:space="preserve">
<g id="BACKGROUND">
	<rect id="XMLID_391_" style="fill:#F1F4FF;" width="500" height="500"/>
</g>
<g id="OBJECT">
	<g id="XMLID_510_">
		<ellipse id="XMLID_506_" style="fill:#494949;" cx="205.066" cy="237.125" rx="29.347" ry="24.375"/>
		<polygon id="XMLID_411_" style="fill:#494949;" points="188.75,333.667 256.75,381.167 256.75,333.667 		"/>
		<polygon id="XMLID_392_" style="fill:#919191;" points="240.083,172.333 382.75,208.333 382.75,437 256.75,437 256.75,333.667 
			319.417,333.667 319.417,238.333 236.083,205.667 		"/>
		<rect id="XMLID_193_" x="175.083" y="160.667" style="fill:#494949;" width="65" height="11.667"/>
		<path id="XMLID_398_" style="fill:#A5A5A5;" d="M244.12,167.167v26.348c0,8.727-5.202,16.237-12.671,19.594
			c-0.252,0.112-0.504,0.224-0.755,0.322c0,0,0,0-0.014,0c-0.154,0.07-0.308,0.14-0.462,0.196c-0.923,0.35-1.86,0.643-2.839,0.853
			c-1.217,0.28-2.476,0.448-3.762,0.504c-0.322,0.014-0.657,0.028-0.993,0.028h-31.495c-0.741,0-1.482-0.042-2.196-0.112
			c-0.867-0.084-1.72-0.224-2.545-0.42c-0.923-0.196-1.818-0.461-2.671-0.783c-0.21-0.084-0.434-0.168-0.643-0.252
			c-7.888-3.189-13.44-10.895-13.44-19.929v-26.348H244.12z"/>
		<path id="XMLID_190_" style="fill:#B7B7B7;" d="M202.975,214.829l-0.671,0.182h-11.174c-0.741,0-1.482-0.042-2.196-0.112
			c-10.629-6.671-10.079-17.314-10.079-17.314l-0.816-30.418h8.545c-0.266,4.853-1.007,22.195,1.832,31.761
			C191.73,210.116,202.975,214.829,202.975,214.829z"/>
		<path id="XMLID_396_" style="fill:#B7B7B7;" d="M231.449,206.759v6.475c0,0-0.266,0.07-0.755,0.196c0,0,0,0-0.014,0
			c-1.189,0.294-3.734,0.895-7.063,1.553c-0.322,0.014-0.657,0.028-0.993,0.028h-31.495c-0.741,0-1.482-0.042-2.196-0.112
			c-0.867-0.084-1.72-0.224-2.545-0.42c-0.923-0.196-1.818-0.461-2.671-0.783c-0.21-0.084-0.434-0.168-0.643-0.252
			c-0.112-0.084-0.224-0.196-0.322-0.294v-6.391H231.449z"/>
		<rect id="XMLID_189_" x="169.634" y="174.397" style="fill:#747575;" width="74.486" height="6.293"/>
		<path id="XMLID_393_" style="fill:#494949;" d="M230.218,208.256v5.37c-0.923,0.35-1.86,0.643-2.839,0.853h-40.991
			c-0.923-0.196-1.818-0.461-2.671-0.783v-5.44H230.218z"/>
		<rect id="XMLID_183_" x="169.764" y="172.761" style="fill:#B7B7B7;" width="74.239" height="2.214"/>
		<rect id="XMLID_184_" x="185.381" y="210.288" style="fill:#747575;" width="43.821" height="10.256"/>
		<polygon id="XMLID_185_" style="fill:#747575;" points="241.089,222.409 171.862,222.409 176.524,217.048 236.195,217.048 		"/>
		<rect id="XMLID_186_" x="185.498" y="215.212" style="fill:#494949;" width="43.471" height="1.923"/>
		<rect id="XMLID_187_" x="169.473" y="176.432" style="fill:#494949;" width="74.297" height="2.972"/>
		<polygon id="XMLID_188_" style="fill:#494949;" points="174.309,219.495 238.409,219.495 242.022,223.341 171.046,223.341 		"/>
		<rect id="XMLID_191_" x="171.09" y="223.327" style="fill:#B7B7B7;" width="70.91" height="7.473"/>
		<rect id="XMLID_192_" x="167.375" y="229.751" style="fill:#747575;" width="78.318" height="5.07"/>
		<rect id="XMLID_194_" x="167.375" y="234.821" style="fill:#A5A5A5;" width="78.318" height="11.887"/>
		<polygon id="XMLID_408_" style="fill:#A5A5A5;" points="249.08,147.997 240.08,160.667 175.08,160.667 170.77,155.997 
			167.08,151.997 205.42,109.667 208.77,112.607 		"/>
		<polygon id="XMLID_406_" style="fill:#B7B7B7;" points="208.77,112.607 170.77,155.997 167.08,151.997 205.42,109.667 		"/>
		<polygon id="XMLID_394_" style="fill:#747575;" points="167.083,152 249.083,148 240.083,160.667 175.083,160.667 		"/>
		<polygon id="XMLID_400_" style="fill:#A5A5A5;" points="321.417,234.667 245.75,204 245.75,175.833 380.417,209.333 		"/>
		
			<ellipse id="XMLID_195_" transform="matrix(0.2384 -0.9712 0.9712 0.2384 1.2039 395.2018)" style="fill:#494949;" cx="252.583" cy="196.833" rx="12.167" ry="12.167"/>
		<path id="XMLID_395_" style="fill:#747575;" d="M257.917,197.083c0,2.992-2.425,5.417-5.417,5.417
			c-2.992,0-5.417-2.425-5.417-5.417c0-2.992,2.425-5.417,5.417-5.417C255.491,191.667,257.917,194.092,257.917,197.083z"/>
		<polygon id="XMLID_397_" style="fill:#494949;" points="321.417,234.667 380.417,209.333 379.75,212.333 323.083,236.333 		"/>
		<polygon id="XMLID_399_" style="fill:#A5A5A5;" points="328.75,331.167 324.25,235.917 379.75,212.333 379.75,331.667 		"/>
		<polygon id="XMLID_401_" style="fill:#B7B7B7;" points="266.583,188.667 355.75,213.333 363.917,208.5 267.917,183.5 		"/>
		<polygon id="XMLID_402_" style="fill:#B7B7B7;" points="353.75,224 360.083,331.333 374.083,331.333 374.75,214.333 		"/>
		<rect id="XMLID_487_" x="141.42" y="308.667" style="fill:#A5A5A5;" width="129.66" height="25.33"/>
		<polygon id="XMLID_404_" style="fill:#B7B7B7;" points="329.083,240 335.083,328 341.083,327.333 333.417,238.333 		"/>
		<polygon id="XMLID_405_" style="fill:#494949;" points="382.75,208.333 384.083,200.667 244.12,167.167 244.125,173.792 		"/>
		<polygon id="XMLID_521_" style="fill:#494949;" points="274.42,83.83 239.75,140.17 233.07,134.27 222.74,125.16 216.42,119.58 
			255.75,70.33 		"/>
		<polygon id="XMLID_516_" style="fill:#505151;" points="265.5,82.25 234.25,135 233.07,134.27 222.74,125.16 260.25,78.75 		"/>
		<g id="XMLID_451_">
			<rect id="XMLID_418_" x="350.625" y="234.833" style="fill:#494949;" width="18.375" height="5.167"/>
			<rect id="XMLID_423_" x="350.625" y="244.583" style="fill:#494949;" width="18.375" height="5.167"/>
			<rect id="XMLID_424_" x="350.625" y="254.208" style="fill:#494949;" width="18.375" height="5.167"/>
			<rect id="XMLID_425_" x="350.625" y="263.833" style="fill:#494949;" width="18.375" height="5.167"/>
			<rect id="XMLID_426_" x="350.625" y="273.458" style="fill:#494949;" width="18.375" height="5.167"/>
			<rect id="XMLID_447_" x="350.625" y="281.667" style="fill:#494949;" width="18.375" height="5.167"/>
			<rect id="XMLID_446_" x="350.625" y="291.292" style="fill:#494949;" width="18.375" height="5.167"/>
			<rect id="XMLID_431_" x="350.625" y="300" style="fill:#494949;" width="18.375" height="5.167"/>
			<rect id="XMLID_430_" x="350.625" y="309.75" style="fill:#494949;" width="18.375" height="5.167"/>
			<rect id="XMLID_429_" x="350.625" y="319.375" style="fill:#494949;" width="18.375" height="5.167"/>
			<rect id="XMLID_428_" x="350.625" y="329" style="fill:#494949;" width="18.375" height="5.167"/>
			<rect id="XMLID_427_" x="350.625" y="338.625" style="fill:#494949;" width="18.375" height="5.167"/>
			<rect id="XMLID_445_" x="350.625" y="348" style="fill:#494949;" width="18.375" height="5.167"/>
			<rect id="XMLID_444_" x="350.625" y="357.75" style="fill:#494949;" width="18.375" height="5.167"/>
			<rect id="XMLID_443_" x="350.625" y="367.375" style="fill:#494949;" width="18.375" height="5.167"/>
			<rect id="XMLID_433_" x="350.625" y="377" style="fill:#494949;" width="18.375" height="5.167"/>
			<rect id="XMLID_432_" x="350.625" y="386.625" style="fill:#494949;" width="18.375" height="5.167"/>
			<rect id="XMLID_450_" x="350.625" y="394.875" style="fill:#494949;" width="18.375" height="5.167"/>
			<rect id="XMLID_449_" x="350.625" y="404.5" style="fill:#494949;" width="18.375" height="5.167"/>
			<rect id="XMLID_448_" x="350.625" y="414.125" style="fill:#494949;" width="18.375" height="5.167"/>
		</g>
		<rect id="XMLID_412_" x="356.25" y="229.667" style="fill:#747575;" width="7" height="200"/>
		<rect id="XMLID_407_" x="349.333" y="357.417" style="fill:#494949;" width="101.5" height="15"/>
		<path id="XMLID_419_" style="fill:#A5A5A5;" d="M367.25,364.5c0,2.577-2.089,4.667-4.667,4.667c-2.577,0-4.667-2.089-4.667-4.667
			s2.089-4.667,4.667-4.667C365.161,359.833,367.25,361.923,367.25,364.5z"/>
		<rect id="XMLID_475_" x="132.083" y="425.5" style="fill:#494949;" width="284" height="21.833"/>
		<rect id="XMLID_476_" x="264.75" y="342.167" style="fill:#A5A5A5;" width="76" height="82.5"/>
		<polygon id="XMLID_478_" style="fill:#B7B7B7;" points="267.083,345.667 338.417,422 269.75,422 		"/>
		<rect id="XMLID_485_" x="141.42" y="308.667" style="fill:#B7B7B7;" width="129.66" height="11.58"/>
		<path id="XMLID_507_" style="fill:#FFC243;" d="M208.333,293.833v2.458c0,3.222-2.612,5.833-5.833,5.833
			c-3.222,0-5.833-2.612-5.833-5.833v-2.458h-49.25v15.333h113.667v-15.333H208.333z"/>
		<path id="XMLID_520_" style="fill:#494949;" d="M213.5,260.83v8.67c0,3.47-2,6.47-4.91,7.91c-1.18,0.59-2.51,0.92-3.92,0.92
			c-1.69,0-3.28-0.48-4.62-1.3c-2.53-1.56-4.22-4.34-4.22-7.53v-8.67c0-4.88,3.96-8.83,8.84-8.83c2.44,0,4.65,0.99,6.25,2.58
			C212.51,256.18,213.5,258.39,213.5,260.83z"/>
		<path id="XMLID_512_" style="fill:#2A2B2A;" d="M198.578,267.5v2.869c0,3.294,2.67,5.964,5.964,5.964
			c3.294,0,5.964-2.67,5.964-5.964V267.5H198.578z"/>
		<path id="XMLID_517_" style="fill:#747575;" d="M208.59,277.41c-1.18,0.59-2.51,0.92-3.92,0.92c-1.69,0-3.28-0.48-4.62-1.3
			c0.41-1.99,2.15-3.49,4.24-3.49C206.51,273.54,208.34,275.23,208.59,277.41z"/>
		<rect id="XMLID_513_" x="230.25" y="295.5" style="fill:#F7D79F;" width="25" height="12"/>
		<rect id="XMLID_519_" x="150.75" y="296" style="fill:#F7D79F;" width="25" height="12"/>
		<rect id="XMLID_515_" x="218.375" y="295.75" style="fill:#F7D79F;" width="6.25" height="12"/>
	</g>
	<g id="XMLID_499_">
		<path id="XMLID_468_" style="fill:#FF8E69;" d="M443.605,258.57c0,0,2.178-1.564,3.407-2.122c1.229-0.558,2.29-1.34,2.569-2.234
			c0.279-0.894,0.056-2.011,0.056-2.011l-2.904-1.061l-4.077,5.306L443.605,258.57z"/>
		<path id="XMLID_466_" style="fill:#8797C1;" d="M416.774,254.975c0,0,3.629,5.131,11.388,8.384
			c7.759,3.254,15.956-4.568,15.956-4.568l-2.002-4.881c0,0-12.577,2.378-14.892,0.375c-2.315-2.002-7.884-11.325-7.884-11.325
			L416.774,254.975z"/>
		<polygon id="XMLID_467_" style="fill:#FFC243;" points="430.393,253.515 433.897,261.524 456.59,248.843 449.582,234.994 
			429.726,248.175 		"/>
		<polygon id="XMLID_469_" style="fill:#B86900;" points="440.269,244.025 436.734,240.02 437.453,239.363 441.364,243.462 		"/>
		<path id="XMLID_465_" style="fill:#FF8E69;" d="M436.358,252.096l2.566-0.876c0,0,1.94-0.125,3.379-0.813
			c1.439-0.688,1.689-1.689,1.689-1.689s1.502-0.063,1.877-0.751c0.375-0.688-0.751-1.689-0.751-1.689s-0.334-0.98-0.876-1.314
			c0,0-0.083-0.459-0.834-0.918c-0.751-0.459-0.375-1.001-1.877-0.876c-1.502,0.125-2.837,1.669-3.796,2.878
			c-0.959,1.21-2.336,2.169-2.336,2.169L436.358,252.096z"/>
		<path id="XMLID_472_" style="fill:#E06746;" d="M413.45,316.707c0,0,0.98,2.381-0.28,8.542
			c-1.26,6.162-11.623,25.767-11.623,25.767l-3.921-4.481c0,0,4.201-18.485,5.322-23.246c1.12-4.761,1.26-8.262,1.26-8.262
			L413.45,316.707z"/>
		<path id="XMLID_471_" style="fill:#FF8E69;" d="M398.44,304.406c0,0-0.954,14.868,6.327,47.357l5.882,0.654l-0.446-47.76
			L398.44,304.406z"/>
		<path id="XMLID_422_" style="fill:#FF8E69;" d="M424.489,211.202c0,0-0.583,5.992-3.657,8.401
			c-3.074,2.409-6.017,1.795-6.017,1.795l-1.585,3.016l-6.783-2.631l4.484-15.082C410.931,206.702,420.25,201.509,424.489,211.202z"
			/>
		<polygon id="XMLID_461_" style="fill:#001833;" points="392.454,278.509 396.085,317.542 417.603,317.542 416.224,279.259 		"/>
		<path id="XMLID_421_" style="fill:#B3C2FF;" d="M406.186,218.714l9.908,4.81c0,0-1.357,3.414-0.718,4.295
			c8.343,11.513,6.174,61.57,6.174,61.57l-33.244-2.811c0,0,8.096-58.057,15.628-63.955L406.186,218.714z"/>
		<path id="XMLID_420_" style="fill:#001833;" d="M424.489,211.202c0,0-2.74,3.132-8.214,1.307c0,0-0.14,1.474-1.334,1.685
			c0,0,0.211-1.334-1.123-1.614c-1.334-0.281-3.229,3.299-1.263,4.492c0,0-1.685,1.123-4.913,0.351
			c-3.229-0.772-8.914-9.686,0.351-12.915c0,0,1.334-6.317,10.318-5.405c8.984,0.912,11.09,8.072,10.669,12.985
			c-0.421,4.913-6.01,4.703-6.01,4.703S424.179,214.29,424.489,211.202z"/>
		<path id="XMLID_462_" style="fill:#001833;" d="M408.834,203.594c0,0,0.842-1.544-0.983-2.597
			c-1.825-1.053-3.439,1.755-3.58,2.737c-0.14,0.983,0.351,2.597,2.246,2.246C408.413,205.63,408.834,203.594,408.834,203.594z"/>
		<path id="XMLID_464_" style="fill:#001833;" d="M407.29,201.77c0,0-0.912-5.194-4.913-6.177c-4.001-0.983-6.106,4.352-6.247,7.651
			c-0.14,3.299-2.386,3.72-2.106,5.264c0.281,1.544,3.088,1.755,4.282-0.632c0,0-2.878,4.913-0.772,5.755
			c2.106,0.842,6.738-3.439,5.405-7.58c-1.333-4.141,2.106-1.825,2.106-1.825L407.29,201.77z"/>
		<path id="XMLID_463_" style="fill:#9EACDD;" d="M402.13,237.635c0,0,2.939,11.448,6.188,17.481
			c3.249,6.033,10.829,7.116,20.111,3.249s9.746-5.105,9.746-5.105l-2.785-6.188l-17.481,3.249l-6.225-17.942
			c-0.932-2.688-3.809-4.172-6.54-3.374l0,0c-2.852,0.834-4.474,3.835-3.609,6.677L402.13,237.635z"/>
		<path id="XMLID_474_" style="fill:#001833;" d="M397.602,346.504c0,0-2.929,4.257-3.02,5.297c-0.091,1.04,2.567,0.805,2.567,0.805
			s2.362,2.77,4.86,4.431c2.499,1.661,4.232,1.912,3.652,0.226c-0.58-1.686-3.36-5.935-3.384-6.952S397.602,346.504,397.602,346.504
			z"/>
		<path id="XMLID_470_" style="fill:#143D63;" d="M404.834,351.725c0,0-0.089,5.525,0.446,6.506c0.535,0.98,2.763-0.802,2.763-0.802
			s3.743,1.069,6.952,1.069s4.902-0.802,3.387-1.961s-6.506-3.297-7.13-4.189C410.627,351.458,404.834,351.725,404.834,351.725z"/>
	</g>
	<g id="XMLID_511_">
		<path id="XMLID_410_" style="fill:#FF8E69;" d="M271.214,42.541c0,0,0.18,6.873,3.487,9.865s6.709,2.531,6.709,2.531l1.562,3.564
			l7.938-2.449l-3.891-17.541C287.02,38.509,276.824,31.842,271.214,42.541z"/>
		<path id="XMLID_416_" style="fill:#FF8E69;" d="M259.686,84.171l-1.512-0.983c0,0-0.491-2.872-1.549-4.006
			c-1.058-1.134-1.361-1.852-1.965-1.852c-0.605,0,0.113,2.268,0.529,2.797c0.416,0.529-2.872-0.68-3.477-1.361
			c-0.605-0.68-1.171-1.625-1.738-1.398c-0.567,0.227-0.416,1.172,0.076,1.776c0,0-0.567,0.794-0.491,1.323
			c0.076,0.529,0.454,1.02,0.454,1.02s-0.416,0.68-0.151,1.172c0.265,0.491,0.491,0.68,0.491,0.68s-0.113,1.096,0.265,1.625
			c0.378,0.529,1.512,1.285,2.948,1.776c1.436,0.491,2.985,0.605,2.985,0.605l0.983,0.529L259.686,84.171z"/>
		<path id="XMLID_414_" style="fill:#001833;" d="M278.162,40.583c0,0-0.059,2.559,0.726,3.529c0.785,0.971,2.26,0.831,2.26,0.831
			s-0.021,2.012,1.237,2.345c0,0-0.561-3.274,1.065-3.83c1.626-0.556,2.607,1.954,2.708,3.975c0.101,2.021-1.881,2.43-1.881,2.43
			s3.543,0.8,5.191-0.059c0,0,3.048-7.716-0.232-12.22c0,0-2.383-5.111-9.369-4.691c-6.986,0.42-8.861,5.352-10.616,6.021
			c-1.756,0.669-3.278,0.622-3.26,2.088c0.018,1.466,2.247,1.868,2.247,1.868s-1.322,0.846-0.294,1.566
			C270.559,46.268,276.469,44.673,278.162,40.583z"/>
		<path id="XMLID_473_" style="fill:#001833;" d="M303.088,110.812c0,0-3.568,26.32-5.629,36.552l2.254,24.591l-14.468,0.405
			c0,0-5.459-27.241-5.276-34.682c0.183-7.44,2.438-24.723,2.438-24.723L303.088,110.812z"/>
		<path id="XMLID_417_" style="fill:#001833;" d="M296.795,170.814l0.796,7.462c0,0,0.807,2.619,0.722,4.823
			c-0.085,2.204-5.833,1.337-7.592,1.387c-1.76,0.049-4.09,0.701-7.947-0.805c-3.858-1.506,1.079-3.406,3.119-3.903
			c2.041-0.497,4.782-2.188,4.782-2.188l-1.936-6.256L296.795,170.814z"/>
		<path id="XMLID_413_" style="fill:#B3C2FF;" d="M292.795,53.285l-12.876,5.16l1.198,4.387l-6.838,69.317l33.121-3.959
			c0,0-3.186-61.712-12.122-69.793L292.795,53.285z"/>
		<path id="XMLID_415_" style="fill:#9EACDD;" d="M290.596,63.88c0,0-3.696-1.09-6.742,2.928
			c-3.046,4.018-10.115,19.348-10.115,19.348l-14.679-5.469l-2.111,7.214c0,0,13.663,8.618,21.212,8.601
			c7.548-0.017,14.742-26.199,14.742-26.199S294.189,66.436,290.596,63.88z"/>
	</g>
	<g id="XMLID_509_">
		<g id="XMLID_508_">
			<polygon id="XMLID_482_" style="fill:#747575;" points="122.833,332.25 157.5,447.167 145.167,447.167 115.167,346.25 			"/>
			<polygon id="XMLID_488_" style="fill:#747575;" points="97.75,390.917 134.75,390.917 131.5,402.417 94.75,402.417 			"/>
			<polygon id="XMLID_503_" style="fill:#747575;" points="92.5,368.667 129.5,368.667 126.25,380.167 89.5,380.167 			"/>
			<polygon id="XMLID_504_" style="fill:#747575;" points="87.75,346.417 124.75,346.417 121.5,357.917 84.75,357.917 			"/>
			<polygon id="XMLID_489_" style="fill:#747575;" points="105.5,415.417 142.5,415.417 139.25,426.917 102.5,426.917 			"/>
			<polygon id="XMLID_481_" style="fill:#747575;" points="87,332.25 121.5,447.917 109.167,447.917 78.333,344.417 			"/>
			<polygon id="XMLID_477_" style="fill:#B7B7B7;" points="78.333,323.667 41.75,450.333 54.083,450.333 88,332.167 			"/>
			<polygon id="XMLID_480_" style="fill:#B7B7B7;" points="117.333,321.5 77.417,452.667 89.75,452.667 126,333.667 			"/>
			<polygon id="XMLID_479_" style="fill:#B7B7B7;" points="66.25,376.667 103.25,376.667 100,388.167 63.25,388.167 			"/>
			<polygon id="XMLID_502_" style="fill:#B7B7B7;" points="74.25,351.167 111.25,351.167 108,362.667 71.25,362.667 			"/>
			<polygon id="XMLID_484_" style="fill:#B7B7B7;" points="58.75,403.667 95.75,403.667 92.5,415.167 55.75,415.167 			"/>
			<polygon id="XMLID_486_" style="fill:#B7B7B7;" points="52.75,427.417 89.75,427.417 86.5,438.917 49.75,438.917 			"/>
			<rect id="XMLID_403_" x="72.583" y="323.5" style="fill:#A5A5A5;" width="60.667" height="11.167"/>
		</g>
		<g id="XMLID_409_">
			<path id="XMLID_500_" style="fill:#9EACDD;" d="M109.842,203.277c-5.254,0.457-4.709,9.416-3.752,20.76
				c1.326,15.729,21.478,10.947,21.478,10.947l-1.312-6.731l-8.986,0.332C117.271,228.585,115.186,202.812,109.842,203.277z"/>
			<path id="XMLID_498_" style="fill:#A5A5A5;" d="M122.036,219.298c0,0,30.801,43.578,33.082,48.141
				c2.282,4.563,1.597,7.985,1.597,7.985s3.536,4.791,3.993,7.073c0.456,2.281-1.483,2.053-2.624,2.053
				c-1.141,0-5.476-6.16-5.476-6.16s-3.879,0-6.845-2.282c-2.966-2.281-33.349-51.335-33.349-51.335L122.036,219.298z"/>
			<path id="XMLID_491_" style="fill:#FF8E69;" d="M112.87,179.912c0,0,1.128,6.639-1.483,10.141
				c-2.612,3.502-5.969,3.703-5.969,3.703l-0.826,3.721l-8.093-0.851l0.417-17.595C96.916,179.031,105.452,170.693,112.87,179.912z"
				/>
			<path id="XMLID_490_" style="fill:#001833;" d="M105.822,179.347c0,0,0.541,2.448-0.03,3.529
				c-0.571,1.082-2.014,1.227-2.014,1.227s0.401,1.93-0.745,2.488c0,0-0.081-3.252-1.748-3.479c-1.668-0.226-2.136,2.372-1.85,4.333
				c0.286,1.961,2.267,1.979,2.267,1.979s-3.254,1.44-5,0.926c0,0-4.391-6.839-2.091-11.788c0,0,1.323-5.364,8.116-6.283
				c6.793-0.919,9.529,3.465,11.343,3.776c1.814,0.31,3.268-0.023,3.528,1.389c0.26,1.412-1.806,2.221-1.806,2.221
				s1.43,0.562,0.579,1.449C114.205,183.37,108.223,182.957,105.822,179.347z"/>
			<polygon id="XMLID_483_" style="fill:#B3C2FF;" points="95.704,194.29 106.561,195.583 106.302,199.46 111.99,204.372 
				112.909,247.513 84.846,245.992 86.397,200.236 94.928,197.909 			"/>
			<path id="XMLID_493_" style="fill:#001833;" d="M84.846,245.992c0,0,0.456,44.49,2.281,68.218l7.681,0.837l5.324-54.681
				l2.51-0.228l3.65,23.5l1.825,28.976h8.214c0,0,0.913-27.151,0.685-34.68c-0.228-7.529-3.651-31.942-3.651-31.942H84.846z"/>
			<path id="XMLID_496_" style="fill:#642E00;" d="M110.707,222.145c0,0-5.535-2.802-5.93-7.004
				c-0.396-4.202,4.373-8.318,9.094-8.075c4.721,0.243,5.548,10.248,5.548,10.248s4.258-2.234,5.934-1.476
				c1.676,0.759-13.447,12.954-16.442,12.778C105.914,228.44,110.707,222.145,110.707,222.145z"/>
			<path id="XMLID_495_" style="fill:#001833;" d="M109.373,312.157l0.228,3.879c0,0-1.483,6.959-1.141,7.415
				c0.342,0.456,12.434,0.685,13.461-0.114c1.027-0.799-0.684-3.422-3.308-3.879c-2.624-0.456-3.993-3.194-3.993-3.194l-0.342-4.107
				H109.373z"/>
			<path id="XMLID_497_" style="fill:#FF8E69;" d="M107.51,226.257l4.905-1.483c0,0,2.738-2.966,4.335-4.107
				c1.597-1.141,3.194-1.198,4.335-0.742c1.141,0.456,1.426,1.084,1.369,1.312c-0.057,0.228-1.996-0.171-1.996-0.171l-1.369,0.684
				c0,0,1.597-0.342,2.624,0.228c1.027,0.57,0.856,1.597,0.856,1.597s0.456,0.627,0.399,0.913c-0.057,0.285-0.285,0.856-0.285,0.856
				s0.513,0.513,0.285,0.97c-0.228,0.456-0.684,0.913-1.027,0.913c-0.342,0-0.342-0.856-0.342-0.856s-3.765,1.711-4.62,1.939
				c-0.856,0.228-2.51-0.228-2.51-0.228l-4.107,2.282L107.51,226.257z"/>
			<path id="XMLID_494_" style="fill:#001833;" d="M87.774,311.853l0.228,3.879c0,0-1.483,6.959-1.141,7.415
				c0.342,0.456,12.434,0.685,13.461-0.114c1.027-0.799-0.684-3.422-3.308-3.879s-3.993-3.194-3.993-3.194l-0.342-4.107H87.774z"/>
			<path id="XMLID_492_" style="fill:#9EACDD;" d="M86.266,200.691c-5.254,0.457-4.709,9.416-3.752,20.76
				c1.327,15.729,12.507,13.644,20.466,12.507c7.959-1.137,10.233-3.411,10.233-3.411l-1.706-6.443l-17.813,1.895
				C93.695,225.999,91.61,200.226,86.266,200.691z"/>
			<path id="XMLID_501_" style="fill:#FF8E69;" d="M127.854,229.108c0,0,0.989-0.951,2.129-1.141
				c1.141-0.19,1.749,1.027,1.749,1.027s1.103,0.304,1.141,1.369c0,0,0.418,0.228,0.456,1.255c0,0,0.684,0.875,0.418,1.863
				c-0.266,0.989-0.799,1.749-1.293,2.053s-1.369,0.532-1.711,0.342c-0.342-0.19,0-0.837,0.646-1.179
				c0.646-0.342,0.684-0.951,0.684-0.951s-0.266,0.532-1.217,0.684c-0.951,0.152-1.369,0.418-1.673,0.076
				c-0.304-0.342,0.342-0.913,1.293-1.407l0.837-0.875c0,0-0.494,0.57-1.597,0.837c-1.103,0.266-1.635,0.57-1.749,0.266
				c-0.114-0.304-0.076-1.027,0.989-1.369c1.065-0.342,1.217-1.179,1.217-1.179s-1.369,0.989-2.662,1.179
				c-1.293,0.19-0.608-0.837,0.19-1.255c0.799-0.418,1.559-0.989,1.559-0.989s-1.179,0.608-1.711,0.38
				C127.017,229.869,127.854,229.108,127.854,229.108z"/>
		</g>
	</g>
	<path id="XMLID_505_" style="fill:#C7D5F2;" d="M473.333,459.667h-447c-3.682,0-6.667-2.985-6.667-6.667l0,0
		c0-3.682,2.985-6.667,6.667-6.667h447c3.682,0,6.667,2.985,6.667,6.667l0,0C480,456.682,477.015,459.667,473.333,459.667z"/>
</g>
</svg>
