<?xml version="1.0" encoding="utf-8"?>
<!-- Generator: Adobe Illustrator 27.5.0, SVG Export Plug-In . SVG Version: 6.00 Build 0)  -->
<svg version="1.1" id="Layer_1" xmlns="http://www.w3.org/2000/svg" xmlns:xlink="http://www.w3.org/1999/xlink" x="0px" y="0px"
	 viewBox="0 0 2885.396 2000" style="enable-background:new 0 0 2885.396 2000;" xml:space="preserve">
<rect x="0" y="0" style="fill:#FFFFFF;" width="2885.396" height="2000"/>
<g>
	<path style="fill:#FADEC0;" d="M2644.747,1829.489c0,0,213.867-507.908-31.373-907.452
		c-450.537-734.012-799.921-230.398-1133.51-450.308C997.575,153.792,207.971,207.456,273.259,1076.535
		c28.812,383.532-274.554,383.67-88.691,753.737L2644.747,1829.489z"/>
	<g>
		<path style="fill:#FFF5ED;" d="M1838.155,1644.503c-47.714,0-87.617,33.416-97.599,78.12
			c-9.352-8.753-21.917-14.115-35.736-14.115c-11.432,0-22.005,3.67-30.612,9.892c0.252-2.442,0.382-4.919,0.382-7.427
			c0-39.515-32.033-71.548-71.548-71.548c-2.071,0-4.12,0.093-6.147,0.266v-248.849l-96.403-107.79l-129.937,170.93v138.363
			c-2.08-0.13-4.176-0.203-6.289-0.203c-54.942,0-99.481,44.539-99.481,99.481c0,1.693,0.043,3.375,0.127,5.047
			c-7.09-1.964-14.558-3.017-22.273-3.017c-7.873,0-15.49,1.094-22.709,3.135c-9.484-45.815-50.063-80.251-98.689-80.251
			c-55.662,0-100.785,45.123-100.785,100.785c0,3.694,0.205,7.339,0.592,10.93c-7.391-4.331-15.995-6.817-25.181-6.817
			c-27.55,0-49.884,22.334-49.884,49.884c0,27.55,22.333,49.884,49.884,49.884h879.674v-0.353c12.072,0,62.623-21.106,62.623-76.339
			S1893.389,1644.503,1838.155,1644.503z"/>
		<g>
			<polygon style="fill:#FFB27D;" points="2364.787,1794.126 2368.95,1764.142 2351.463,1749.529 2345.954,1789.225 			"/>
			<path style="fill:#233862;" d="M2306.715,1820.909h71.294c0,0,1.708-10.865-2.015-19.109c-3.568-7.91-9.121-12.792-9.628-18.852
				c-4.53,4.665-10.105,7.664-20.411,6.278c-1.263,2.048-8.152,13.005-12.371,16.035
				C2328.924,1808.609,2308.149,1807.416,2306.715,1820.909z"/>
			<path style="fill:#F99746;" d="M2321.039,1389.245c4.662,37.506,8.475,72.867,11.58,105.821
				c16.592,175.59,13.336,282.912,13.336,282.912s1.199,3.176,11.485,3.224c5.814,0.032,11.509-1.238,11.509-1.238
				s37.148-114.661,34.281-179.91c-0.342-7.848-1.263-14.98-2.899-21.12c-8.912-33.383,32.978-161.054-12.558-208.6
				C2342.246,1322.795,2318.895,1372.033,2321.039,1389.245z"/>
			<path style="fill:#ED7D2B;" d="M2321.039,1389.245c4.662,37.506,8.475,72.867,11.58,105.821l70.611,104.987
				c-0.342-7.848-1.263-14.98-2.899-21.12c-8.912-33.383,32.978-161.054-12.558-208.6
				C2342.246,1322.795,2318.895,1372.033,2321.039,1389.245z"/>
			<path style="fill:#FFB27D;" d="M2264.929,1031.498c0,0,1.718-8.569,3.653-15.108c0.856-2.894-5.112-21.899-9.241-24.238
				c-4.13-2.339-14.887,10.46-11.843,20.288c1.563,5.048,4.132,21.475,4.132,21.475L2264.929,1031.498z"/>
			<path style="fill:#FFB27D;" d="M2264.929,1031.498c0,0,2.245-4.968,4.273-5.774c2.027-0.805,4.2-8.93,5.689-12.151
				c0,0-1.437-2.108-3.953,0.603c-1.535,1.654-4.955,6.503-4.955,6.503L2264.929,1031.498z"/>
			<path style="fill:#FFB27D;" d="M2559.238,1060.322c0.437,0.902,1.044,2.514,1.585,4.03c0.009-0.414,0.015-0.822,0.019-1.225
				c0.029-3.018,11.298-19.444,15.931-20.471c4.634-1.028,11.173,14.359,5.386,22.866c-2.972,4.369-10.237,19.325-10.237,19.325
				l-12.009-6.203c0,0-0.693-5.409-2.396-6.772s-1.403-9.768-1.884-13.283C2555.635,1058.588,2557.626,1056.993,2559.238,1060.322z"
				/>
			<path style="fill:#FFB27D;" d="M2484.351,1785.136c1.008-9.611,1.258-34.895,1.258-34.895s-25.765-8.236-24.816-2.581
				c4.662,27.8,3.396,41.565,3.396,41.565l10.419,6.224L2484.351,1785.136z"/>
			<path style="fill:#F99746;" d="M2342.557,1387.458c0,0,99.532,272.833,119.125,391.179c0,0,4.54,3.119,13.006,2.084
				c9.603-1.173,12.235-7.843,12.235-7.843s17.981-141.843-17.758-191.089c-24.553-33.832,10.59-182.418-46.597-194.332
				C2365.379,1375.544,2342.557,1387.458,2342.557,1387.458z"/>
			<path style="fill:#163560;" d="M2359.508,1178.295c0.446,1.163,0.952,2.275,1.505,3.331c0.846,1.619,1.803,3.102,2.892,4.452
				c-0.441-1.406-0.849-3.101-1.203-5.155l0.001-0.009c-0.16-0.907-0.299-1.883-0.427-2.938c-0.565-4.805-0.776-11.163-0.243-19.595
				c-0.022,2.059,0.01,10.716,1.668,19.442c0.151,0.826,0.323,1.653,0.515,2.474c0.619,2.733,1.418,5.42,2.459,7.84
				c0.185,0.465,0.391,0.922,0.609,1.371c6.652,5.935,14.595,15.007,22.69,25.442c5.575,7.167,11.217,14.982,16.546,22.853
				c2.057,3.038,4.073,6.07,6.022,9.082l0.009,0.012c0.826,1.27,1.626,2.516,2.414,3.771c0,0,0.01,0.001,0.008,0.011
				c0.987,1.559,1.937,3.092,2.877,4.622c2.61,4.237,5.034,8.345,7.207,12.243c0.498,0.887,0.987,1.761,1.448,2.622
				c6.726,12.334,10.734,22.121,9.82,25.875c0,0,0.431-0.302,1.234-0.853c0.225-0.148,0.475-0.325,0.757-0.516
				c2.751-1.906,8.169-5.63,15.036-10.285l0.45-1.385l3.428-10.62c0.752,2.387,0.246,6.608-0.266,9.568
				c10.76-7.276,24.188-16.235,36.355-24.022c0.011-0.009,0.011-0.009,0.011-0.009c9.093-5.828,17.467-10.99,23.518-14.325
				c-0.821-5.402-3.711-15.053-3.811-15.404c3.553,1.575,6.944,9.025,8.542,12.959c0.406-0.204,0.798-0.379,1.155-0.529
				c0,0,0.666-30.418-39.059-59.114c-20.815-15.04-35.575-22.181-32.465-36.88c3.121-14.698,5.8-79.546-40.042-69.294
				c0,0-6.496-4.125-9.685-4.122c0,0,2.481,0.866,3.574,2.39c-4.984-1.036-12.222-1.737-18.73,0.778
				c-3.566,1.379-7.521,5.848-11.367,12.313l-0.012,0.009c-0.235,0.422-0.479,0.833-0.728,1.273
				c-1.633,2.855-3.227,6.06-4.767,9.518c-2.674,6.03-5.153,12.861-7.236,20.036c0,0,0,0-0.001,0.01
				c-0.684,2.345-1.319,4.709-1.901,7.111c-0.037,0.117-0.065,0.234-0.083,0.354c0,0,0,0-0.001,0.01
				C2355.587,1144.169,2354.143,1164.6,2359.508,1178.295z"/>
			<path style="fill:#FFB27D;" d="M2368.848,1190.701c-0.154,0.045,12.834,9.446,23.851,8.125
				c10.362-1.234,18.79-13.178,18.657-13.227c-4.093-1.465-4.447-7.441-0.653-32.331l-1.962,0.092l-33,1.579
				c0,0-0.771,10.197-2.163,19.704C2372.411,1182.625,2370.802,1190.121,2368.848,1190.701z"/>
			<path style="fill:#ED975D;" d="M2375.74,1154.939c0,0-0.771,10.197-2.163,19.704c18.013,2.162,29.928-12.79,35.163-21.283
				L2375.74,1154.939z"/>
			<path style="fill:#163560;" d="M2412.57,1150.362c0,0,11.609-13.455,15.755-25.82c2.96-8.827,3.341-43.125-31.154-43.308
				c0,0-9.954-0.493-20.1,4.363c-8.07,3.862-20.244,12.981-12.773,44.071l1.6,10.364L2412.57,1150.362z"/>
			<path style="fill:#FFFFFF;" d="M2316.88,1382.22c0,0,42.943,25.52,96.859,12.399c0.635-0.156,44.396-7.139,44.396-7.139
				c-0.752-2.058-6.407-35.862-7.147-37.754c-9.565-24.684-27.046-158.651-41.652-165.26c-3.729,4.062-14.388,6.842-23.511,6.032
				c-10.505-0.928-14.022-5.467-13.15-10.348c-11.625,5.496-20.557,10.605-20.557,10.605
				C2341.493,1206.675,2316.88,1382.22,2316.88,1382.22z"/>
			<path style="fill:#FFB27D;" d="M2368.41,1163.047c0,0,42.337,7.012,46.299-19.419c3.961-26.434,12.094-43.33-14.77-48.926
				c-26.863-5.595-33.639,3.703-37.107,12.204C2359.364,1115.407,2357.5,1160.541,2368.41,1163.047z"/>
			<path style="fill:#163560;" d="M2380.706,1091.18c0,0,7.007,32.744,24.158,39.983c17.151,7.239,25.597,3.611,25.597,3.611
				s-3.997-16.573-4.014-35.965C2426.448,1098.809,2391.668,1077.722,2380.706,1091.18z"/>
			<path style="fill:#163560;" d="M2383.212,1094.127c0,0-9.708,5.633-12.825,12.051c-3.117,6.417-6.131,20.135-10.1,19.063
				c0,0-5.619-22.383,5.994-32.846C2378.594,1081.3,2383.212,1094.127,2383.212,1094.127z"/>
			<path style="fill:#2B478B;" d="M2251.341,1032.109c1.721-0.606,4.259-2.041,7.569-2.339c2.948-0.265,6.652,0.695,6.652,0.695
				s11.945,74.251,12.832,78.185c0.887,3.933,51.234,60.65,64.808,60.422c12.257-0.205,26.779,9.257,29.474,11.076
				c0,0-28.545,60.36-29.969,71.699c-1.549,12.337-16.326,202.328-16.326,202.328s0.879,8.839-15.636,4.087
				c-16.514-4.751-20.644-8.683-20.644-8.683s15.169-149.573,18.352-196.089c0.427-6.245,1.446-12.024,2.897-17.355
				c1.399-5.141,0.296-10.639-2.841-14.944c-20.879-28.662-53.85-75.097-55.687-84.966
				C2250.123,1121.724,2251.341,1032.109,2251.341,1032.109z"/>
			<path style="fill:#233862;" d="M2424.949,1820.909h71.294c0,0,1.709-10.865-2.015-19.109c-3.568-7.91-9.121-12.792-9.628-18.852
				c-4.53,4.665-10.104,7.664-20.412,6.278c-1.263,2.048-8.152,13.005-12.371,16.035
				C2447.159,1808.609,2426.385,1807.416,2424.949,1820.909z"/>
			<path style="fill:#2B478B;" d="M2375.976,1257.709c2.402-14.785,33.08-74.154,33.08-74.154s19.393-5.8,32.157-1.176
				c12.764,4.623,78.804-32.664,80.92-36.095c2.117-3.433,37.488-69.344,37.488-69.344s2.933-1.699,7.632,0.75
				c4.649,2.423,4.67,7.155,4.67,7.155s-27.299,82.985-34.562,95.823c-4.38,7.741-41.2,34.693-69.748,54.874
				c-5.451,3.854-8.313,10.415-7.418,17.03c3.838,28.377,4.815,44.357,9.23,93.052c3.662,40.395,5.064,118.6,5.064,118.6
				s-31.946,11.054-53.993,12.521c-22.048,1.467-26.852-21.776-26.852-21.776S2373.506,1272.912,2375.976,1257.709z"/>
			<path style="fill:#FFFFFF;" d="M2382.284,1149.979c0,0-5.144,3.02-11.216,2.109c-4.161-0.623-5.105-5.559-5.105-5.559
				s2.892-0.911,7.507,0.016C2378.084,1147.471,2382.284,1149.979,2382.284,1149.979z"/>
		</g>
		<g>
			<path style="fill:#FFB27D;" d="M722.347,1085.261c0,0-17.091-17.148-6.802-24.464c10.29-7.316,16.526-4.941,18.357-0.462
				c1.832,4.479,2.003,24.091,2.003,24.091L722.347,1085.261z"/>
			<path style="fill:#F99746;" d="M767.662,1212.729c-19.813,9.558-38.504,16.632-55.703,21.831
				c-16.327,4.938-31.306,8.181-44.628,10.271c-3.575,0.566-7.028,1.044-10.361,1.448c-35.193,4.268-56.364,0.371-56.364,0.371
				s3.754-78.763,29.749-78.88c29.679-0.135,95.66,8.515,98.539-0.214c3.24-9.833-11.888-82.23-11.888-82.23
				c11.058-8.529,20.84-5.277,20.84-5.277S797.953,1198.11,767.662,1212.729z"/>
			<path style="fill:#ED7D2B;" d="M767.662,1212.729c-19.813,9.558-38.504,16.632-55.703,21.831
				c-16.327,4.938-31.306,8.181-44.628,10.271c-14.658-22.58-27.279-46.296-7.397-35.409
				C695.008,1228.621,767.662,1212.729,767.662,1212.729z"/>
			<path style="fill:#233862;" d="M584.96,1791.79c0,0-2.274,26.308,3.287,29.046l71.171-0.146c0,0,0-8.214-11.432-10.039
				c-11.431-1.825-31.514-8.518-34.912-23.424C609.676,1772.321,584.96,1791.79,584.96,1791.79z"/>
			<path style="fill:#2A4E96;" d="M637.21,1473.378c-0.351,17.203-1.177,34.947-2.796,50.895
				c-7.686,75.673-10.388,167.103-11.493,184.731c-1.914,30.599-7.96,79.485-7.96,79.485s-11.99,11.382-35.361,5.95
				c0,0-19.364-70.409-23.689-144.547c-0.067-1.216-0.134-2.439-0.195-3.661c-0.503-9.802-1.027-21.01-1.563-33.095
				c-3.562-80.948-7.429-201.198-7.429-201.198l89.309-20.971C636.033,1390.968,638.087,1430.493,637.21,1473.378z"/>
			<path style="fill:#233862;" d="M637.21,1473.378c-22.634,39.05-65.776,110.995-83.057,139.758
				c-3.562-80.948-7.429-201.198-7.429-201.198l89.309-20.971C636.033,1390.968,638.087,1430.493,637.21,1473.378z"/>
			<path style="fill:#FFB27D;" d="M411.077,1397.733c0,0-14.532,17.091-15.84,21.829c-1.308,4.738-3.636,21.813-2.388,26.942
				c1.247,5.13,10.909-14.305,14.423-16.381c3.514-2.075-2.638,7.73-1.436,9.367c1.201,1.636,8.141-5.724,10.847-8.214
				c2.706-2.491,2.437-15.895,5.687-23.821C425.618,1399.527,411.077,1397.733,411.077,1397.733z"/>
			<path style="fill:#233862;" d="M407.667,1761.891c0,0-12.667,11.56-10.196,19.774c2.472,8.214,13.903,13.689,15.448,23.729
				c1.545,10.039,7.724,15.515,13.285,15.515c5.561,0,26.513,0,26.513,0s4.094-7.064-5.793-9.194
				c-9.887-2.129-13.614-13.926-12.997-24.878c0.618-10.952-0.927-25.554-0.927-25.554l-21.009-4.867L407.667,1761.891z"/>
			<path style="fill:#2A4E96;" d="M621.959,1413.771c0,0-83.604,178.879-128.093,257.366
				c-44.49,78.487-58.392,100.391-58.392,100.391s-25.489-10.039-27.806-16.884c0,0,17.013-151.524,46.807-188.461
				c16.835-20.871,36.611-83.506,37.538-105.41c0.927-21.903,20.458-74.182,20.458-74.182L621.959,1413.771z"/>
			<path style="fill:#F99746;" d="M646.402,1422.207c0,0-33.247,22.228-80.301,20.163c-20.651-0.902-61.613-6.757-68.225-23.18
				c-1.552-3.856-0.414-8.749,1.914-16.261c6.044-19.521,20.129-56.694,15.875-139.117c-0.397-7.668-0.181-14.879,0.554-21.63
				c4.432-40.598,27.699-64.641,50.187-72.497c54.844-19.168,73.126,7.388,73.126,7.388s24.242,19.206,27.896,59.288
				C674.731,1316.536,646.402,1422.207,646.402,1422.207z"/>
			<path style="fill:#FFB27D;" d="M583.567,1180.79c0,0,28.546,7.254,53.372-4.887c0,0,4.756-2.894,0.362-8.173
				c0.091-5.375,0.034-4.876-0.162-8.791c-0.275-9.061-1.055-14.098-1.055-14.098l-19.582-11.023l-21.004-9.894
				c1.124,4.562,1.641,9.605,2.027,13.57C600.549,1168.523,583.567,1180.79,583.567,1180.79z"/>
			<path style="fill:#ED985F;" d="M599.804,1137.418c0,0,14.665,19.068,37.336,21.522c-0.275-9.061-1.468-18.262-1.468-18.262
				l-19.169-6.859L599.804,1137.418z"/>
			<path style="fill:#FFB27D;" d="M652.468,1138.995c0,0-44.162,19.825-56.042-7.407c-11.879-27.231-25.578-43.013,2.116-56.822
				c27.694-13.809,37.742-5.794,43.955,2.327C648.71,1085.214,663.65,1133.136,652.468,1138.995z"/>
			<path style="fill:#2C3A64;" d="M564.776,1080.103c-0.547-0.369-1.617-0.5-3.799-0.045c0,0,1.434-1.532,3.718-2.201
				c-0.346-3.111-0.162-8.829,4.645-11.485c0,0-2.375,2.21-1.891,5.487c4.335-7.71,15.928-15.565,52.055-22.177
				c47.611-8.714,40.178,25.228,35.087,30.392c-5.091,5.164-22.881-0.554-33.892,3.328c-11.011,3.882-8.83,20.705-12.053,23.949
				c-3.223,3.245-2.771-1.098-8.554-2.059c-5.784-0.961-4,7.724-1.031,12.89c2.97,5.166-2.174,14.389-2.174,14.389s0,0-9.22-5.815
				c-9.221-5.815-24.669-36.72-23.263-44.557C564.529,1081.507,564.648,1080.808,564.776,1080.103z"/>
			<g>
				<polygon style="fill:#2A4E96;" points="712.818,1079.733 638.407,1103.281 634.456,1092.213 707.07,1063.635 				"/>
				<polygon style="fill:#2A4E96;" points="769.717,1064.332 688.84,1090.422 681.654,1070.298 760.734,1039.177 				"/>
				<polygon style="fill:#233862;" points="824.986,1049.134 756.507,1070.229 746.805,1043.062 813.128,1015.929 				"/>
				<path style="fill:#233862;" d="M827.39,1053.484L827.39,1053.484c2.084-0.744,3.17-3.037,2.426-5.121l-12.463-34.898
					c-0.744-2.084-3.037-3.17-5.12-2.426l0,0c-2.084,0.744-3.17,3.037-2.426,5.121l12.462,34.898
					C823.014,1053.142,825.306,1054.229,827.39,1053.484z"/>
				<path style="fill:#2A4E96;" d="M638.911,1105.749L638.911,1105.749c-1.852,0.661-3.891-0.304-4.552-2.156l-3.234-9.056
					c-0.662-1.853,0.304-3.89,2.156-4.552l0,0c1.853-0.662,3.89,0.304,4.552,2.156l3.234,9.056
					C641.729,1103.049,640.763,1105.087,638.911,1105.749z"/>
			</g>
			<path style="fill:#ED7D2B;" d="M499.791,1402.929c6.044-19.521,20.129-56.694,15.875-139.117
				c-0.397-7.668-0.181-14.879,0.554-21.63l0.006,0.001c18.049-1.552,45.638,17.961,45.638,17.961
				S544.873,1363.733,499.791,1402.929z"/>
			<path style="fill:#F99746;" d="M582.476,1165.08c0,0-46.28,7.955-70.418,37.423c-24.138,29.467-62.966,71.018-72.146,85.567
				c-9.18,14.55-34.665,113.569-34.665,113.569s1.682,3.183,8.71,5.036c6.727,1.773,11.608-0.976,11.608-0.976
				s33.765-57.786,46.472-86.653c5.279-11.994,96.59-59.493,130.918-54.572C616.438,1266.407,582.476,1165.08,582.476,1165.08z"/>
			<path style="fill:#FFB27D;" d="M711.625,1058.503c0,0,10.008,1.162,15.284-2.11c5.126-3.179,3.828-5.411,3.828-5.411
				S712.086,1052.865,711.625,1058.503z"/>
			<path style="fill:#BC3F3F;" d="M627.384,1197.362c0,0-20.31,128.227-164.413,165.561l-15.697,30.97l27.576,4.667
				c0,0,164.056-47.528,161.847-203.465L627.384,1197.362z"/>
			<polygon style="fill:#A02E2E;" points="624.236,1176.895 617.584,1177.546 617.584,1187.175 627.384,1197.362 636.702,1195.095 
				636.702,1181.733 630.004,1176.895 			"/>
			<path style="fill:#ED7D2B;" d="M597.461,1152.196c0,0-7.392,2.59-20.484,12.884c0,0,14.639,31.073,45.525,34.795
				c0,0-0.499-14.421,1.734-22.98C624.236,1176.895,599.083,1168.933,597.461,1152.196z"/>
			<path style="fill:#ED7D2B;" d="M624.236,1176.895c0,0,15.071,8.001,16.187,20.467c0,0,5.588-9.084,4.091-15.448
				c-2.134-9.073-7.212-14.183-7.212-14.183S638.191,1175.965,624.236,1176.895z"/>
		</g>
		<g>
			<path style="fill:#F99746;" d="M1430.739,1282.017c-73.896,39.294-87.439,150.235-41.972,226.657
				c12.576-59.64,42.159-91.877,42.159-91.877c-18.687,128.637,41.898,205.887,41.898,205.887
				c116.096-114.645,67.82-251.376,67.82-251.376c35.793,53.542,28.128,103.509,28.128,103.509
				c82.152-109.313-12.72-190.546-12.72-190.546C1472.823,1265.689,1430.739,1282.017,1430.739,1282.017z"/>
			<path style="fill:#ED7D2B;" d="M1455.999,1273.45c-38.695,29.659-21.191,78.995-21.191,78.995
				c14.51-34.824,24.577-44.015,24.577-44.015c-16.445,63.847,23.027,122.697,23.027,122.697
				c66.924-63.687,35.938-125.916,35.938-125.916c26.843,12.333,26.204,47.802,26.204,47.802
				c18.387-44.255-12.083-77.627-12.083-77.627C1497.646,1271.031,1455.999,1273.45,1455.999,1273.45z"/>
			<g>
				<path style="fill:#2A4E96;" d="M1488.863,1048.934H1348.24c-51.062,0-94.86,36.42-104.174,86.625l-33.118,178.505
					c-0.984,5.301,4.877,9.188,9.378,6.219l268.537-177.119V1048.934z"/>
				<path style="fill:#233862;" d="M1397.367,1151.549c-12.162-56.555-83.033-91.876-83.033-91.876
					c37.852,121.94-40.416,192.5-97.939,225.031l-5.447,29.36c-0.984,5.301,4.877,9.188,9.378,6.219l184.267-121.537
					C1403.149,1180.734,1400.186,1164.656,1397.367,1151.549z"/>
				<path style="fill:#2A4E96;" d="M1488.863,1048.934h140.623c51.062,0,94.86,36.42,104.174,86.625l33.118,178.505
					c0.983,5.301-4.877,9.188-9.378,6.219l-268.538-177.119V1048.934z"/>
				<path style="fill:#233862;" d="M1757.401,1320.284c4.5,2.969,10.361-0.918,9.378-6.219l-33.118-178.505
					c-2.698-14.542-8.294-27.925-16.117-39.604c26.109,131.098,7.37,186.013-50.741,148.397
					c-58.112-37.616-72.624-75.079-66.819-118.345c-24.29,17.534-40.682,36.909-50.647,57.043L1757.401,1320.284z"/>
				<path style="fill:#BC3F3F;" d="M1431.971,1271.551h113.784c63.255-63.255,165.603-265.072,165.603-485.417
					c0-262.324-222.495-384.045-222.495-384.045s-222.495,121.722-222.495,384.045
					C1266.368,1006.478,1365.409,1204.989,1431.971,1271.551z"/>
				<path style="fill:#AB2E2E;" d="M1558.514,1148.839c-61.953,74.93-105.07,95.445-180.766,49.318
					c18.734,31.626,37.503,56.674,54.223,73.394h113.784c63.255-63.255,165.603-265.072,165.603-485.417
					c0-262.323-222.495-384.045-222.495-384.045C1738.445,577.607,1666.859,1013.407,1558.514,1148.839z"/>
				<circle style="fill:#233862;" cx="1490.689" cy="717.241" r="127.514"/>
				<circle style="fill:#2A4E96;" cx="1482.627" cy="712.404" r="127.514"/>
				<circle style="fill:#F99746;" cx="1482.627" cy="605.151" r="9.19"/>
				
					<ellipse transform="matrix(0.3848 -0.923 0.923 0.3848 155.5249 1872.6642)" style="fill:#F99746;" cx="1482.627" cy="819.658" rx="9.19" ry="9.19"/>
				<circle style="fill:#F99746;" cx="1375.374" cy="712.404" r="9.19"/>
				
					<ellipse transform="matrix(0.3805 -0.9248 0.9248 0.3805 326.0509 1911.5603)" style="fill:#F99746;" cx="1589.881" cy="712.404" rx="9.19" ry="9.19"/>
				<path style="fill:#F99746;" d="M1413.286,630.066c3.589,3.589,3.589,9.408,0,12.997c-3.589,3.589-9.408,3.589-12.997,0
					c-3.589-3.589-3.589-9.408,0-12.997C1403.878,626.478,1409.697,626.478,1413.286,630.066z"/>
				<path style="fill:#F99746;" d="M1564.965,781.746c-3.589-3.589-9.408-3.589-12.997,0c-3.589,3.589-3.589,9.408,0,12.997
					c3.589,3.589,9.408,3.589,12.997,0C1568.554,791.154,1568.554,785.335,1564.965,781.746z"/>
				<path style="fill:#F99746;" d="M1400.289,781.746c3.589-3.589,9.408-3.589,12.997,0c3.589,3.589,3.589,9.408,0,12.997
					c-3.589,3.589-9.408,3.589-12.997,0C1396.7,791.154,1396.7,785.335,1400.289,781.746z"/>
				<path style="fill:#F99746;" d="M1551.969,630.066c-3.589,3.589-3.589,9.408,0,12.997c3.589,3.589,9.408,3.589,12.997,0
					c3.589-3.589,3.589-9.408,0-12.997S1555.558,626.478,1551.969,630.066z"/>
				
					<ellipse transform="matrix(0.7071 -0.7071 0.7071 0.7071 -70.0908 1260.754)" style="fill:#77A4E5;" cx="1486.819" cy="714.984" rx="85.26" ry="85.26"/>
				<path style="fill:#5D8DD4;" d="M1401.559,714.984c0-47.088,38.172-85.26,85.26-85.26c15.444,0,29.929,4.107,42.423,11.287
					c-13.398-8.766-29.409-13.867-46.615-13.867c-47.088,0-85.26,38.172-85.26,85.26c0,31.644,17.239,59.261,42.837,73.973
					C1416.936,771.154,1401.559,744.866,1401.559,714.984z"/>
				<path style="fill:#8EB2E5;" d="M1416.231,738.986c0-51.35,41.628-92.978,92.978-92.978c1.007,0,2.009,0.022,3.009,0.053
					c-8.54-3.462-17.874-5.374-27.656-5.374c-40.677,0-73.652,32.975-73.652,73.652c0,9.782,1.911,19.116,5.374,27.656
					C1416.253,740.995,1416.231,739.993,1416.231,738.986z"/>
				<path style="fill:#2A4E96;" d="M1556.051,1284.271h-134.376c-7.025,0-12.72-5.695-12.72-12.72l0,0
					c0-7.025,5.695-12.72,12.72-12.72h134.376c7.025,0,12.72,5.695,12.72,12.72l0,0
					C1568.772,1278.576,1563.077,1284.271,1556.051,1284.271z"/>
				<path style="fill:#233862;" d="M1556.051,1258.83h-2.172c2.04,2.256,3.283,5.247,3.283,8.528c0,7.025-5.695,12.72-12.72,12.72
					h-132.205c2.328,2.574,5.693,4.192,9.437,4.192h134.376c7.025,0,12.72-5.695,12.72-12.72l0,0
					C1568.772,1264.526,1563.077,1258.83,1556.051,1258.83z"/>
			</g>
		</g>
	</g>
	<path style="fill:#2E3552;" d="M113.83,1824.64v1.792c0,2.862,1.352,5.219,2.995,5.219h2637.269c1.642,0,2.995-2.357,2.995-5.219
		v-1.792c0-2.862-1.353-5.217-2.995-5.217H116.825C115.182,1819.423,113.83,1821.779,113.83,1824.64z"/>
</g>
</svg>
