<?xml version="1.0" encoding="utf-8"?>
<!-- Generator: Adobe Illustrator 27.5.0, SVG Export Plug-In . SVG Version: 6.00 Build 0)  -->
<svg version="1.1" xmlns="http://www.w3.org/2000/svg" xmlns:xlink="http://www.w3.org/1999/xlink" x="0px" y="0px"
	 viewBox="0 0 500 500" style="enable-background:new 0 0 500 500;" xml:space="preserve">
<g id="BACKGROUND">
	<rect style="fill:#FFFFFF;" width="500" height="500"/>
</g>
<g id="OBJECTS">
	<g>
		<path style="fill:#6FB1FE;" d="M156.188,187.057c1.142-3.959,1.67-8.005,1.606-12.016c10.767-3.389,17.389-5.904,17.182-6.684
			l-4.087-15.393c-0.207-0.785-7.206,0.323-18.234,2.714c-1.938-3.509-4.401-6.764-7.355-9.632
			c5.211-10.007,8.12-16.467,7.418-16.874l-13.771-7.993c-0.7-0.406-4.87,5.322-10.973,14.811
			c-3.955-1.143-8.002-1.665-12.012-1.609c-3.392-10.761-5.904-17.389-6.69-17.181l-15.389,4.089
			c-0.782,0.206,0.321,7.205,2.719,18.235c-3.515,1.935-6.768,4.399-9.638,7.355c-10.006-5.216-16.468-8.118-16.874-7.418
			l-7.993,13.771c-0.405,0.698,5.322,4.866,14.812,10.971c-1.142,3.956-1.669,8.005-1.605,12.014
			c-10.769,3.391-17.392,5.905-17.184,6.688l4.084,15.389c0.209,0.784,7.21-0.32,18.236-2.713c1.939,3.512,4.401,6.764,7.356,9.63
			c-5.215,10.009-8.12,16.472-7.42,16.878l13.771,7.993c0.702,0.408,4.869-5.323,10.975-14.815c3.954,1.144,8.002,1.67,12.011,1.611
			c3.394,10.762,5.905,17.387,6.688,17.179l15.392-4.085c0.781-0.209-0.32-7.206-2.717-18.239c3.514-1.933,6.766-4.4,9.636-7.352
			c10.005,5.21,16.468,8.118,16.873,7.42l7.993-13.771C171.406,197.329,165.677,193.156,156.188,187.057z"/>
		<path style="fill:#4A80E8;" d="M139.494,188.947c-7.355,12.672-23.592,16.983-36.266,9.626
			c-12.672-7.355-16.983-23.592-9.628-36.264c7.354-12.67,23.591-16.981,36.263-9.626
			C142.538,160.041,146.848,176.277,139.494,188.947z"/>
		<path style="fill:#3547C7;" d="M132.546,184.915c-5.129,8.836-16.448,11.84-25.285,6.711c-8.834-5.128-11.839-16.445-6.71-25.281
			c5.128-8.834,16.446-11.841,25.281-6.713C134.668,164.76,137.674,176.08,132.546,184.915z"/>
	</g>
	<g>
		<path style="fill:#6FB1FE;" d="M336.248,327.201c0.389-1.348,0.569-2.726,0.547-4.092c3.667-1.154,5.922-2.011,5.851-2.276
			l-1.392-5.242c-0.07-0.267-2.454,0.11-6.21,0.924c-0.66-1.195-1.499-2.304-2.505-3.28c1.774-3.408,2.765-5.608,2.526-5.746
			l-4.689-2.722c-0.238-0.138-1.659,1.812-3.737,5.044c-1.347-0.389-2.725-0.567-4.091-0.548c-1.155-3.665-2.011-5.922-2.278-5.851
			l-5.241,1.392c-0.266,0.07,0.109,2.453,0.926,6.21c-1.197,0.659-2.305,1.498-3.282,2.505c-3.408-1.776-5.608-2.764-5.746-2.526
			l-2.722,4.689c-0.138,0.238,1.812,1.657,5.044,3.736c-0.389,1.347-0.569,2.726-0.546,4.091c-3.667,1.155-5.923,2.011-5.852,2.277
			l1.391,5.24c0.071,0.267,2.455-0.109,6.21-0.924c0.66,1.196,1.499,2.303,2.505,3.279c-1.776,3.409-2.765,5.609-2.527,5.748
			l4.69,2.722c0.239,0.139,1.658-1.813,3.737-5.045c1.347,0.39,2.725,0.569,4.09,0.548c1.156,3.665,2.011,5.921,2.277,5.85
			l5.241-1.391c0.266-0.071-0.109-2.454-0.925-6.211c1.197-0.658,2.304-1.498,3.281-2.504c3.407,1.774,5.608,2.764,5.746,2.527
			l2.722-4.69C341.43,330.699,339.479,329.278,336.248,327.201z"/>
		<path style="fill:#4A80E8;" d="M330.563,327.845c-2.505,4.315-8.034,5.783-12.35,3.278c-4.315-2.505-5.783-8.034-3.278-12.349
			c2.504-4.315,8.033-5.783,12.349-3.278C331.599,318.001,333.067,323.53,330.563,327.845z"/>
		<path style="fill:#3547C7;" d="M328.197,326.471c-1.747,3.009-5.601,4.032-8.61,2.285c-3.008-1.746-4.032-5.6-2.285-8.609
			c1.746-3.008,5.6-4.032,8.609-2.286C328.919,319.608,329.943,323.463,328.197,326.471z"/>
	</g>
	<text transform="matrix(1 0 0 1 70.4526 75.9855)" style="fill:#131D42; font-family:'Voltaire'; font-size:28px;">BUSINESS STRATEGY CONCEPT</text>
	<g>
		<g>
			<g>
				<g>
					<polygon style="fill:#131D42;" points="280.673,265.51 327.347,457.223 314.019,457.223 267.521,265.51 					"/>
				</g>
				<g>
					<polygon style="fill:#131D42;" points="219.327,265.51 232.48,265.51 185.981,457.223 172.653,457.223 					"/>
				</g>
			</g>
			
				<rect x="138.209" y="135.447" transform="matrix(-1 -1.224647e-16 1.224647e-16 -1 500 429.6126)" style="fill:#C99D8D;" width="223.582" height="158.72"/>
			
				<rect x="145.442" y="142.463" transform="matrix(-1 -1.224647e-16 1.224647e-16 -1 500 429.6127)" style="fill:#FFFFFF;" width="209.116" height="144.688"/>
		</g>
		<g>
			<path style="fill:#CD2B7B;" d="M218.6,181.495h-25.065v25.844c-13.87,0-25.099-11.239-25.099-25.098
				c0-13.859,11.228-25.098,25.099-25.098C207.142,157.143,218.217,167.976,218.6,181.495z"/>
			<path style="fill:#FACC07;" d="M199.501,212.199v-24.421h26.321C225.822,187.779,226.706,215.893,199.501,212.199z"/>
		</g>
		<g>
			<rect x="163.128" y="224.831" style="fill:#131D42;" width="93.46" height="4.455"/>
			<rect x="163.128" y="235.761" style="fill:#131D42;" width="93.46" height="4.455"/>
			<rect x="163.128" y="246.691" style="fill:#131D42;" width="93.46" height="4.455"/>
		</g>
		<g>
			<path style="fill:#FACC07;" d="M303.943,161.988c-18.124,1.638-32.426,16.79-33.04,34.978
				c-0.457,13.508,6.408,25.371,16.873,32.029c3.985,2.536,6.718,6.636,7.812,11.231l2.483,10.428l10.322-0.216l10.323-0.216
				l2.063-10.621c0.911-4.692,3.615-8.835,7.518-11.594c9.543-6.746,15.675-17.954,15.412-30.517
				C343.268,176.523,325.193,160.067,303.943,161.988z"/>
			<g>
				<path style="fill:#EA830C;" d="M305.122,254.707c-0.04,0.001-0.081,0-0.122-0.005c-0.576-0.054-0.998-0.565-0.943-1.141
					c1.355-14.304,0.401-26.923-1.531-34.37c-0.251-0.012-0.505-0.026-0.762-0.041c-4.43-0.131-6.071-1.989-6.653-3.083
					c-0.662-1.249-0.612-2.697,0.134-3.874c0.793-1.25,2.225-1.947,3.824-1.875c0.854,0.041,1.664,0.496,2.406,1.352
					c0.953,1.099,1.842,2.972,2.609,5.484c2.814,0.067,5.121-0.079,7.004-0.359c1.04-2.524,2.409-4.634,3.925-5.828
					c1.454-1.146,2.691-1.139,3.472-0.936c1.622,0.427,2.547,1.748,2.3,3.286c-0.336,2.102-2.752,4.314-8.153,5.349
					c-0.919,2.564-1.517,5.58-1.456,8.509c-0.266,9.297,0.543,26.148,0.551,26.318c0.028,0.577-0.417,1.068-0.995,1.097
					c-0.566,0.037-1.068-0.417-1.096-0.996c-0.008-0.17-0.822-17.102-0.553-26.427c-0.057-2.671,0.4-5.537,1.208-8.151
					c-1.652,0.185-3.523,0.275-5.629,0.244c1.932,7.839,2.826,20.283,1.479,34.5C306.09,254.294,305.646,254.696,305.122,254.707z
					 M298.77,212.407c-0.764,0.016-1.397,0.34-1.757,0.907c-0.343,0.541-0.362,1.186-0.052,1.771
					c0.626,1.18,2.411,1.899,4.896,1.973c0.014,0.001,0.028,0.001,0.042,0.003c-0.609-1.825-1.289-3.192-2.006-4.02
					c-0.343-0.395-0.671-0.619-0.924-0.631C298.902,212.406,298.835,212.406,298.77,212.407z M317.638,212.02
					c-0.395,0.008-0.84,0.206-1.329,0.592c-0.91,0.717-1.846,2.014-2.666,3.663c3.682-0.982,4.951-2.523,5.074-3.29
					c0.097-0.607-0.438-0.843-0.765-0.929C317.85,212.03,317.746,212.018,317.638,212.02z"/>
			</g>
			<polygon style="fill:#3547C7;" points="313.97,267.559 303.539,267.778 301.144,262.745 316.151,262.431 			"/>
			<path style="fill:#6FB1FE;" d="M320.167,249.457l-23.579,0.495c-1.364,0.028-2.447,1.158-2.418,2.522l0.059,2.83
				c0.029,1.364,1.158,2.447,2.522,2.418l0.158-0.003c-0.674,0.716-1.082,1.684-1.059,2.745c0.045,2.146,1.821,3.849,3.967,3.804
				l17.725-0.372c2.146-0.045,3.849-1.821,3.804-3.967c-0.022-1.061-0.47-2.011-1.173-2.698l0.158-0.003
				c1.364-0.029,2.447-1.158,2.418-2.522l-0.059-2.83C322.66,250.511,321.531,249.429,320.167,249.457z"/>
			<path style="fill:#4A80E8;" d="M320.167,249.457l-11.54,0.242l0.398,14.375l8.517-0.179c2.146-0.045,3.849-1.821,3.804-3.967
				c-0.022-1.061-0.47-2.011-1.173-2.698l0.158-0.003c1.364-0.029,2.447-1.158,2.418-2.522l-0.059-2.83
				C322.66,250.511,321.531,249.429,320.167,249.457z"/>
		</g>
	</g>
	<g>
		<g>
			
				<ellipse transform="matrix(0.9925 -0.122 0.122 0.9925 -11.989 49.6788)" style="fill:#131D42;" cx="399.851" cy="122.783" rx="30.816" ry="30.816"/>
			
				<ellipse transform="matrix(0.1652 -0.9863 0.9863 0.1652 212.7048 496.8585)" style="fill:#6FB1FE;" cx="399.851" cy="122.783" rx="24.157" ry="24.157"/>
		</g>
		<g>
			<polygon style="fill:#FFFFFF;" points="388.916,136.975 387.748,135.806 399.505,124.048 399.505,108.404 401.158,108.404 
				401.158,124.733 			"/>
		</g>
	</g>
	<g>
		<path style="fill:#131D42;" d="M127.57,219.158c-1.522,2.981-4.843,4.577-8.037,5.58c-11.415,3.582-24.302,2.156-34.66-3.831
			c-2.243-1.295-4.406-2.838-5.896-4.956c-0.934-1.348-1.566-2.953-1.685-4.57c-0.046-0.551-0.033-1.107,0.06-1.658
			c0.055-0.384,0.149-0.761,0.275-1.132c0.823-2.355,2.91-4.039,4.112-6.225c1.635-2.969,1.491-6.538,2.083-9.872
			c0.624-3.501,2.211-6.791,4.433-9.552c3.729-4.644,9.967-8.412,16.032-8.718c6.389-0.321,14.136,4.09,17.367,9.456
			c1.95,3.23,2.678,7.022,3.372,10.727c0.281,1.499,0.564,2.99,0.846,4.488l2.012,10.705c0.272,1.415,0.526,2.884,0.602,4.337
			C128.579,215.753,128.387,217.543,127.57,219.158z"/>
		<path style="fill:#131D42;" d="M115.815,188.809c2.035,1.253,3.689,3.117,4.691,5.287c2.495-4.581,0.834-10.692-3.038-14.187
			c-3.872-3.495-9.449-4.631-14.633-4.048c-3.635,0.409-7.286,1.658-9.943,4.172c-2.932,2.774-4.388,6.882-4.448,10.917
			c-0.059,4.036,1.437,8.527,3.238,12.139c0,0,0.53-2.095,1.831-2.764c1.302-0.669,2.357,0.473,2.357,0.473
			c0.528-1.172,1.3-8.426,1.3-8.426s9.374-0.784,11.278-4.788l-1.444,3.197C107.006,190.781,114.653,192.115,115.815,188.809z"/>
		<path style="fill:#131A70;" d="M125.874,198.895c-0.096-0.24-0.2-0.473-0.297-0.704c-2.292-5.373-5.158-10.803-9.98-14.104
			c-1.501,1.58-3.344,2.833-5.368,3.641c0.172-1.637,0.343-3.274,0.515-4.91c-3.873,3.557-8.849,5.882-14.064,6.568
			c-1.837,0.243-3.808,0.322-5.342,1.369c-2.126,1.448-2.747,4.226-3.615,6.646c-1.859,5.155-5.631,9.585-10.371,12.323
			c0.055-0.384,0.149-0.761,0.275-1.132c0.823-2.355,2.91-4.039,4.112-6.225c1.137-2.058,1.408-4.408,1.681-6.766
			c0.111-1.04,0.222-2.088,0.403-3.107c0.624-3.501,2.211-6.791,4.433-9.552c3.729-4.644,9.967-8.412,16.032-8.718
			c6.389-0.321,14.136,4.09,17.367,9.456c0.409,0.676,0.765,1.375,1.075,2.098c1.181,2.718,1.747,5.699,2.298,8.629
			C125.31,195.906,125.592,197.396,125.874,198.895z"/>
		<path style="fill:#172D8A;" d="M122.731,185.778c-2.516-2.348-5.197-4.514-8.012-6.49c-0.961,1.285-1.921,2.562-2.883,3.847
			c-0.068-1.188-0.134-2.384-0.2-3.58c-2.966,2.344-6.539,3.926-10.268,4.534c0.784-1.26,1.565-2.505,2.358-3.764
			c-1.164,1.757-3.246,2.744-5.277,3.371c-2.181,0.681-4.499,1.082-6.466,2.246c-2.023,1.204-3.502,3.108-4.938,4.962
			c-1.211,1.567-2.414,3.136-3.624,4.696c0.111-1.04,0.222-2.088,0.403-3.107c0.624-3.501,2.211-6.791,4.433-9.552
			c3.729-4.644,9.967-8.412,16.032-8.718c6.389-0.321,14.136,4.09,17.367,9.456C122.065,184.356,122.421,185.055,122.731,185.778z"
			/>
		<g>
			<g>
				<g>
					<g>
						<path style="fill:#FFA07F;" d="M180.721,232.551c-0.695-0.6-12.397,8.384-12.397,8.384c0.471-2.294,0.131-4.753-0.947-6.836
							c-0.01-0.019-0.021-0.038-0.031-0.057c-0.106-0.184-0.253-0.365-0.457-0.368c-0.098-0.001-0.191,0.042-0.275,0.09
							c-0.726,0.414-1.123,1.245-1.275,2.069c-0.15,0.821-0.092,1.667-0.149,2.497c-0.102,1.596-0.8,3.061-1.494,4.501
							c-1.168,2.439,1.366,6.624,1.366,6.624s-0.264,0.29-0.618,0.693l5.163,5.385l2.347-2.288l2.066-0.307
							c1.446-0.417,11.752-10.087,11.325-10.932c-0.114-0.229-0.262-0.466-0.415-0.69c-0.238-0.346-0.486-0.656-0.651-0.862
							c-0.125-0.15-0.207-0.238-0.207-0.238s-0.074-0.521-0.241-1.107c-0.089-0.35-0.215-0.722-0.368-1.025
							c-0.162-0.33-0.368-0.575-0.606-0.625c-0.238-0.05-1.056,0.316-2.099,0.857c-2.578,1.332-6.531,3.707-6.511,3.365
							c0.033-0.475,7.185-7.727,7.185-7.727s-0.009-0.318-0.186-0.702C181.143,233.025,180.978,232.773,180.721,232.551z"/>
						<g>
							<g>
								<path style="fill:#CF4A57;" d="M183.835,239.108c-0.209,0.163-0.424,0.326-0.647,0.484c-1.3,0.93-2.583,1.617-3.535,2.062
									c-0.894,0.416-1.495,0.63-1.567,0.654c0.055-0.051,0.526-0.482,1.276-1.11c0.803-0.672,1.917-1.57,3.196-2.484
									c0.309-0.22,0.613-0.43,0.907-0.631C183.618,238.385,183.743,238.757,183.835,239.108z"/>
							</g>
							<g>
								<path style="fill:#CF4A57;" d="M184.929,241.316c-2.039,1.52-3.933,2.384-4.053,2.438c0.083-0.104,1.409-1.714,3.406-3.3
									C184.447,240.658,184.694,240.97,184.929,241.316z"/>
							</g>
						</g>
						<path style="fill:#FFBF90;" d="M165.687,251.447c0.028-0.032,0.065-0.066,0.093-0.098c0.152-0.168,0.307-0.343,0.439-0.532
							c0.098-0.161,0.18-0.323,0.227-0.506c0.125-0.486-0.054-0.995-0.243-1.461c-0.6-1.516-1.353-3.037-1.359-4.672
							c-0.006-1.929,1.034-3.701,1.385-5.599c0.254-1.379,0.167-2.867,0.842-4.095c0.081-0.146,0.178-0.291,0.272-0.446
							c-0.104-0.177-0.251-0.365-0.454-0.366c-0.1,0.004-0.191,0.046-0.277,0.092c-0.726,0.414-1.127,1.246-1.272,2.071
							c-0.151,0.822-0.093,1.664-0.151,2.494c-0.104,1.601-0.799,3.061-1.489,4.5c-1.172,2.442,1.357,6.628,1.357,6.628
							s-0.296,0.243-0.66,0.494c-0.026,0.016-0.057,0.039-0.087,0.062l-0.266,0.196L165.687,251.447z"/>
					</g>
					<g>
						<path style="fill:#CF4A57;" d="M169.731,250.777c0,0,0.08-0.071,0.22-0.194c0.143-0.127,0.329-0.331,0.53-0.609
							c0.404-0.55,0.823-1.458,0.874-2.529c0.048-1.071-0.285-2.014-0.636-2.6c-0.175-0.296-0.341-0.516-0.471-0.656
							c-0.127-0.136-0.201-0.214-0.201-0.214s0.021,0.105,0.057,0.286c0.042,0.179,0.085,0.442,0.129,0.755
							c0.091,0.631,0.132,1.469,0.092,2.38c-0.045,0.91-0.164,1.742-0.313,2.361c-0.072,0.308-0.14,0.566-0.198,0.74
							C169.761,250.674,169.731,250.777,169.731,250.777z"/>
					</g>
				</g>
			</g>
			<g>
				<path style="fill:#3FBF9D;" d="M163.621,248.649l-0.367-0.414l-0.404,0.28l-3.921,2.688l-1.13,0.773l-2.155,1.483l-2.875,1.967
					l-8.765,4.131c0,0-16.024-30.122-21.654-33.874c-1.141-0.762-2.043-1.214-3.67-1.603l2.911,37.098
					c1.554,0.931,11.7,15.331,16.677,17.445c2.186,0.924,4.166,1.571,5.432,1.557c2.435-0.004,10.462-5.928,17.478-11.492
					c0.501-0.403,0.996-0.791,1.49-1.193c2.273-1.818,4.373-3.548,6.075-4.967c2.496-2.07,4.123-3.47,4.123-3.47L163.621,248.649z"
					/>
				<path style="fill:#1E9182;" d="M172.865,259.06c0,0-1.627,1.4-4.123,3.47l-9.813-11.326l3.921-2.688l0.404-0.28l0.367,0.414
					L172.865,259.06z"/>
				<path style="fill:#1E9182;" d="M139.865,270.285c1.232-1.948,2.208-4.015,2.925-6.207c0.155-0.475,0.818-0.455,0.958,0.018
					c0.478,1.607,1.108,3.14,1.897,4.62c0.301,0.564-0.564,1.053-0.865,0.488c-0.598-1.123-1.107-2.28-1.534-3.471
					c-0.677,1.765-1.515,3.457-2.529,5.062C140.375,271.336,139.522,270.827,139.865,270.285z"/>
			</g>
		</g>
		<g>
			<g>
				<path style="fill:#FFA07F;" d="M64.418,437.009l4.68,3.095l4.406-7.432c0,0-0.347,10.181,0.956,11.429
					c1.302,1.247,15.964,8.533,22.106,9.823c6.274,1.313,6.806-0.455,6.806-0.455c-0.024-1.443-2.98-6.4-6.491-9.657
					c-0.71-0.66-1.509-1.815-2.331-3.244c-3.225-5.591-6.815-15.328-6.815-15.328l-10.811-5.039
					C69.85,423.678,64.418,437.009,64.418,437.009z"/>
				<path style="fill:#AE115D;" d="M64.418,437.009l4.681,3.092l4.405-7.429c0,0-0.347,10.181,0.956,11.429
					c1.302,1.247,15.964,8.533,22.106,9.823c6.274,1.313,6.806-0.455,6.806-0.455c-0.024-1.443-2.98-6.4-6.491-9.657
					c0,0-4.528,4.662-8.467,2.685c-3.947-1.981-10.616-13.944-10.391-18.125c0.217-4.185-2.993-6.99-2.993-6.99
					C67.956,424.859,64.418,437.009,64.418,437.009z"/>
			</g>
			<g>
				<path style="fill:#FFA07F;" d="M101.698,452.656l5.479,1.207l1.442-8.518c0,0,3.334,9.626,4.998,10.322
					c1.664,0.696,17.963,2.228,24.16,1.225c6.327-1.028,6.188-2.869,6.188-2.869c-0.542-1.338-5.08-4.902-9.527-6.68
					c-0.899-0.361-2.06-1.152-3.341-2.19c-5.018-4.059-11.867-11.856-11.867-11.856l-11.899-0.818
					C101.978,438.264,101.698,452.656,101.698,452.656z"/>
				<path style="fill:#FF3E98;" d="M101.698,452.657l5.48,1.204l1.442-8.516c0,0,3.334,9.626,4.998,10.322
					c1.664,0.696,17.963,2.228,24.16,1.225c6.327-1.028,6.188-2.869,6.188-2.869c-0.542-1.338-5.08-4.902-9.527-6.68
					c0,0-2.551,5.978-6.937,5.547c-4.395-0.431-14.916-9.199-16.209-13.181c-1.301-3.983-5.304-5.448-5.304-5.448
					C100.635,440.047,101.698,452.657,101.698,452.657z"/>
			</g>
			<path style="fill:#E05D00;" d="M126.811,304.95l-26.996-2.384l7.34,67.484l-31.947,51.546l19.209,9.946
				c11.392-13.39,38.372-52.681,41.539-56.167C138.196,372.91,129.766,324.925,126.811,304.95z"/>
			<g>
				<g>
					<g>
						<polygon style="fill:#FFA07F;" points="106.193,413.794 108.904,434.752 112.221,434.561 120.381,434.091 120.312,409.782 
							107.44,413.44 						"/>
						<polygon style="fill:#FF7D6F;" points="106.193,413.794 108.904,434.752 112.221,434.561 111.635,414.169 107.44,413.44 
													"/>
					</g>
				</g>
				<path style="fill:#FACC07;" d="M122.834,354.466c-0.459-2.567-4.675-35.14-6.858-52.376l-33.235-4.062
					c-0.813,4.681-1.525,9.55-1.819,13.521c3.279,10.993,17.355,48.274,17.355,48.274l2.497,74.928l22.381-1.041
					C123.473,413.906,123.794,359.99,122.834,354.466z"/>
				<path style="fill:#EA830C;" d="M104.665,360.554c0,0-13.212-39.86-13.937-42.427c-0.526-1.885-0.348-13.204-0.22-19.15
					l-7.766-0.949c-0.813,4.681-1.525,9.55-1.819,13.521c3.279,10.993,17.355,48.274,17.355,48.274l2.497,74.928l3.661-0.17
					L104.665,360.554z"/>
			</g>
		</g>
		<path style="fill:#FFF0E7;" d="M128.813,255.335c-0.869,6.04-5.365,11.833-5.365,11.833l3.362,37.781
			c0,0-36.296-0.155-44.811-2.384l7.997-49.012l-3.313-28.82l8.846-2.081l3.216-2.174l11.47,1.059l6.478,2.035
			C116.695,223.572,129.682,249.295,128.813,255.335z"/>
		<g>
			<path style="fill:#FFA07F;" d="M98.746,220.479c0,0,7.571,8.618,8.911,8.12c1.34-0.49,2.56-7.061,2.56-7.061
				c-0.279-0.343-2.224-1.686-2.126-2.73c0.227-2.407,1.108-5.762,1.108-5.762l-8.073-2.78c0,0-0.334,2.31-0.8,4.755
				C99.855,217.497,99.258,220.1,98.746,220.479z"/>
			<path style="fill:#FF7D6F;" d="M100.327,215.018c2.219,1.656,4.945,3.617,5.836,3.921c0.727,0.246,1.406,0.098,1.925-0.131
				c0.231-2.408,1.112-5.759,1.112-5.759l-8.073-2.781C101.127,210.268,100.79,212.58,100.327,215.018z"/>
		</g>
		<path style="fill:#3FBF9D;" d="M72.356,347.25c9.27,8.105,29.832,5.817,29.832,5.817c4.039-9.944,1.948-45.763-0.913-77.346
			c-2.561-28.225-5.748-53.071-5.748-53.071c-0.879-0.252-2.227-0.198-3.76,0.014c-4.604,0.647-10.843,2.792-10.843,2.792
			L72.356,347.25z"/>
		<path style="fill:#3FBF9D;" d="M122.465,261.268c-0.286,0.892-0.47,1.444-0.47,1.444l4.243,42.235l7.649,45.579
			c0,0,5.708-3.276,7.404-6.552c1.703-3.283-14.562-77.448-14.562-77.448s4.488-9.794,3.882-13.091
			c-0.3-1.635-2.738-8.854-5.129-15.72c-0.879-2.527-1.744-5.013-2.5-7.145c-1.321-3.753-2.282-6.43-2.282-6.43l-2.425-0.463
			c0-0.007,0-0.007,0-0.007l-3.235-0.62c0,0,9.379,22.115,10.107,25.146C125.72,250.568,123.473,258.088,122.465,261.268z"/>
		<path style="fill:#1E9182;" d="M122.465,261.268c0,0,5.837-13.07,5.762-14.766c-0.075-1.703-3.808-5.953-3.808-5.953
			s0.661-1.308,1.063-2.833c0.15-0.538,0.259-1.11,0.293-1.655c0.048-0.777-1.199-3.004-2.793-5.49
			c-1.546-2.418-3.412-5.081-4.706-6.893c0-0.007,0-0.007,0-0.007l-3.235-0.62c0,0,9.379,22.115,10.107,25.146
			C125.72,250.568,123.473,258.088,122.465,261.268z"/>
		<polygon style="fill:#1E9182;" points="97.469,313.785 99.484,317.86 79.569,328.232 78.22,325.342 		"/>
		<path style="fill:#1E9182;" d="M94.172,247.919c0,0-3.228,7.642-3.16,10.237c0.048,1.771,6.321,11.579,10.264,17.566
			c-2.561-28.225-5.748-53.071-5.748-53.071c-0.879-0.252-2.227-0.198-3.76,0.014c-0.32,5.619-1.11,20.222-0.92,21.4
			C91.079,245.528,94.172,247.919,94.172,247.919z"/>
		<g>
			<g>
				<g>
					<polygon style="fill:#CD2B7B;" points="91.133,268.099 76.338,307.794 104.046,315.951 122.714,278.509 					"/>
					<polygon style="fill:#FFFFFF;" points="117.44,280.244 94.134,272.415 80.923,304.157 103.178,311.028 					"/>
					<g>
						
							<rect x="103.751" y="270.871" transform="matrix(0.3465 -0.938 0.938 0.3465 -194.8267 281.2308)" style="fill:#E0E0E0;" width="1.363" height="19.151"/>
					</g>
					<g>
						
							<rect x="102.206" y="275.324" transform="matrix(0.3311 -0.9436 0.9436 0.3311 -199.3961 287.2046)" style="fill:#E0E0E0;" width="1.362" height="17.852"/>
					</g>
					<g>
						
							<rect x="100.902" y="280.14" transform="matrix(0.3095 -0.9509 0.9509 0.3095 -204.0746 295.7182)" style="fill:#E0E0E0;" width="1.363" height="16.474"/>
					</g>
					<path style="fill:#FACC07;" d="M101.261,269.748l-1.057,3.003l13.538,4.855l1.437-3.157l-4.661-1.45
						c0,0,0.088-2.543-1.679-3.082c-1.767-0.539-4.177,1.024-4.177,1.024L101.261,269.748z"/>
				</g>
				<path style="fill:#FFA07F;" d="M80.713,264.625l-3.686,15.971l20.87,11.987l-4.619,8.426c0,0-27.589-9.562-29.279-10.945
					c-1.69-1.383,1.861-27.514,1.861-27.514L80.713,264.625z"/>
				<g>
					<g>
						<g>
							<g>
								<path style="fill:#FFA07F;" d="M118.405,300.102c-0.732,1.352-9.443-4.723-9.443-4.723l-2.433,1.669l3.402,2.88l2.357,6.053
									c0,0-0.878,0.908-2.02,1.956c-0.141,0.132-0.289,0.263-0.437,0.397c-0.689,0.618-1.442,1.249-2.139,1.745
									c-0.065,0.051-0.135,0.098-0.199,0.146c-0.353,0.24-1.602,0.824-1.828,0.804l-2.816-4.207c0,0-6.95-0.645-7.825-1.245
									c-0.346-0.24-3.594-8.47-3.93-9.395l3.061-3.414c0,0,9.439-0.715,9.974-0.729c1.942-0.049,4.032,0.039,5.622,0.461
									c0.675,0.177,1.257,0.417,1.698,0.732C114.498,295.404,119.135,298.753,118.405,300.102z"/>
								<g>
									<g>
										<path style="fill:#CF4A57;" d="M107.692,310.078c-0.065,0.051-0.135,0.098-0.199,0.146
											c-0.094-0.189-0.213-0.438-0.359-0.737c-0.334-0.676-0.801-1.584-1.325-2.555c-0.531-0.966-1.068-1.806-1.543-2.392
											c-0.121-0.146-0.232-0.278-0.328-0.397c-0.108-0.108-0.199-0.204-0.277-0.28c-0.151-0.16-0.24-0.253-0.24-0.253
											s0.12,0.042,0.337,0.131c0.107,0.043,0.241,0.099,0.392,0.168c0.142,0.082,0.302,0.175,0.482,0.287
											c0.699,0.445,1.549,1.26,2.132,2.322c0.573,1.063,0.806,2.106,0.888,2.856C107.68,309.652,107.69,309.888,107.692,310.078
											z"/>
									</g>
									<g>
										<path style="fill:#CF4A57;" d="M110.268,307.936c-0.141,0.132-0.289,0.263-0.437,0.397
											c-0.023-0.037-0.042-0.079-0.061-0.117c-0.334-0.676-0.801-1.584-1.325-2.552c-0.531-0.969-1.068-1.809-1.543-2.395
											c-0.121-0.146-0.229-0.278-0.326-0.393c-0.108-0.111-0.202-0.205-0.277-0.284c-0.154-0.161-0.24-0.25-0.24-0.25
											s0.117,0.042,0.334,0.128c0.106,0.046,0.241,0.099,0.392,0.171c0.143,0.079,0.306,0.176,0.482,0.285
											c0.702,0.448,1.551,1.264,2.131,2.324C109.933,306.234,110.173,307.205,110.268,307.936z"/>
									</g>
								</g>
							</g>
						</g>
					</g>
				</g>
			</g>
			<path style="fill:#3FBF9D;" d="M62,282.483c0,0,5.369-48.607,6.583-50.307c1.214-1.699,12.341-6.72,12.341-6.72l-2.704,54.726
				l18.064,10.634l-7.432,10.193c0,0-26.352-7.845-26.852-9.436S62,282.483,62,282.483z"/>
			<path style="fill:#1E9182;" d="M77.323,232.014c0,0,3.783,7.284,4.198,9.226c0.415,1.942-1.608,34.481-1.608,34.481l-3.48,1.367
				c0,0,3.803-34.635,3.399-35.444C79.427,240.835,77.323,232.014,77.323,232.014z"/>
			<polygon style="fill:#1E9182;" points="93.546,289.204 87.171,300.305 92.568,302.565 99.813,292.342 			"/>
		</g>
		<g>
			<path style="fill:#FFFFFF;" d="M107.42,228.577c0,0-2.272,10.02-12.445-2.155c-2.531-3.029,3.771-5.944,3.771-5.944
				L107.42,228.577z"/>
			<path style="fill:#FFFFFF;" d="M110.217,221.538c0,0,5.922,0.93,5.201,3.243c-3.931,12.615-7.999,3.797-7.999,3.797
				S107.987,227.708,110.217,221.538z"/>
		</g>
		<g>
			<path style="fill:#131D42;" d="M125.589,188.535c0.276,1.175,0.414,2.419,0.387,3.766c-0.041,2.844-0.404,5.613-1.258,8.108
				c-1.131,3.255-3.108,6.029-6.375,7.926c-3.294,1.894-7.48,1.842-11.152,1.705c-4.135-0.16-8.348-1.354-11.655-3.975
				c-1.51-1.204-2.832-2.723-3.606-4.543c-0.973-2.306-1.009-4.941-0.736-7.445c-0.23-0.332-0.396-0.722-0.528-1.147
				c-0.28-0.915-0.333-1.99-0.203-2.922c0.031-0.224,0.063-0.439,0.104-0.657c0.074-0.433,0.173-0.864,0.283-1.289
				c0.118-0.427,0.248-0.84,0.395-1.256c0.069-0.207,0.149-0.409,0.236-0.612c0.079-0.201,0.167-0.405,0.254-0.608
				c0.065-0.154,0.14-0.303,0.214-0.459c0.307-0.638,0.655-1.253,1.041-1.85c0.148-0.236,0.313-0.476,0.474-0.697
				c0.012-0.02,0.024-0.041,0.039-0.053c0.153-0.22,0.307-0.431,0.474-0.628c0.057-0.083,0.116-0.159,0.177-0.225
				c0.185-0.228,0.372-0.447,0.561-0.659c0.012-0.02,0.026-0.033,0.032-0.043c0.215-0.244,0.441-0.482,0.669-0.711
				c0.179-0.183,0.352-0.356,0.543-0.525c0.063-0.059,0.126-0.118,0.197-0.179c0.238-0.224,0.488-0.433,0.746-0.645
				c0.25-0.209,0.512-0.404,0.767-0.597c0.014-0.012,0.03-0.016,0.037-0.027c0.504-0.368,1.023-0.714,1.566-1.03
				c0.077-0.037,0.144-0.079,0.211-0.122c0.175-0.095,0.342-0.189,0.517-0.284c0.092-0.049,0.183-0.098,0.277-0.138
				c0.069-0.035,0.138-0.069,0.215-0.106c0.213-0.114,0.439-0.214,0.665-0.313c0.281-0.122,0.569-0.246,0.862-0.354
				c0.047-0.02,0.093-0.041,0.15-0.055c0.214-0.079,0.435-0.161,0.659-0.234c0.169-0.051,0.335-0.11,0.514-0.154
				c1.594-0.467,3.247-0.699,4.916-0.658c4.373,0.109,8.563,1.87,12.198,4.315c0.043,0.033,0.083,0.057,0.126,0.09
				c0.053,0.039,0.106,0.077,0.169,0.122c0.911,0.775,2.185,3.213,3.187,5.391C124.878,186.76,125.589,188.535,125.589,188.535z"/>
			<g>
				<g>
					<path style="fill:#FFA07F;" d="M123.771,199.684c-0.203,1.049-0.468,2.152-0.803,3.307c0,0,0.643,5.638,0.081,6.918
						c-0.565,1.283-4.174,9.268-8.178,8.877c-3.342-0.325-11.61-5.008-14.514-7.848c-0.581-0.565-0.947-1.056-1.02-1.426
						c-0.443-2.232-2.02-12.089-2.166-12.913c-0.394-2.234-1.748-19.191,18.896-14.967c3.718,0.764,6.705,3.557,7.631,7.238
						C124.368,191.526,124.655,195.108,123.771,199.684z"/>
					<g>
						<path style="fill:#FFFFFF;" d="M107.303,209.127c0,0,6.247-1.126,10.577,3.114c0,0-3.647,3.646-6.367,2.767
							C108.212,213.941,107.303,209.127,107.303,209.127z"/>
					</g>
					<path style="fill:#FFBF90;" d="M122.969,202.991c0,0,0.643,5.638,0.081,6.918c-0.565,1.283-4.174,9.268-8.178,8.877
						c-3.342-0.325-11.61-5.008-14.514-7.848c3.528,2.324,12.929,8.246,15.619,7.236c3.333-1.251,6.952-8.783,6.861-9.518
						c-0.091-0.738-0.428-5.553-0.428-5.553s0.641-1.539,1.362-3.42C123.569,200.733,123.303,201.836,122.969,202.991z"/>
				</g>
				<g>
					<path style="fill:#FFBF90;" d="M100.248,209.205c-2.582-0.14-4.495-1.623-5.531-2.879c-0.233-0.283-0.421-0.555-0.563-0.797
						c-0.768-1.317-1.093-5.941,0.776-7.063c1.31-0.785,2.303,0.284,2.78,0.995v0.003c0.203,0.302,0.313,0.54,0.313,0.54
						L100.248,209.205z"/>
					<path style="fill:#FFA07F;" d="M100.248,209.205c-2.582-0.14-4.495-1.623-5.531-2.879c-0.09-0.129-0.169-0.251-0.237-0.368
						c-0.768-1.317-1.093-5.941,0.776-7.062c1.061-0.637,1.914-0.057,2.454,0.565v0.003c0.203,0.302,0.313,0.54,0.313,0.54
						L100.248,209.205z"/>
					<path style="fill:#FF7D6F;" d="M94.422,202.158c-0.086,0.373-0.016,0.757,0.114,1.119c0.555,1.541,2.136,2.689,3.648,3.753
						c-0.466-0.742-0.652-1.589-0.58-2.42c0.025-0.289,0.08-0.577,0.076-0.867C97.663,202.578,94.93,199.955,94.422,202.158z"/>
					<g>
						<path style="fill:#CF4A57;" d="M98.941,207.454c0,0-0.03-0.016-0.086-0.046c-0.054-0.031-0.142-0.072-0.243-0.137
							c-0.202-0.128-0.482-0.334-0.749-0.644c-0.266-0.309-0.51-0.723-0.633-1.219c-0.112-0.494-0.106-1.073,0.147-1.637
							c0.026-0.072,0.065-0.139,0.103-0.206l0.028-0.05c0.007-0.013,0.003-0.005,0.003-0.005l0,0l0.001-0.001h0
							c0,0,0.002,0.002-0.004-0.008l-0.025-0.044l-0.052-0.087c-0.036-0.057-0.071-0.115-0.108-0.17
							c-0.146-0.224-0.303-0.434-0.463-0.629c-0.161-0.195-0.327-0.374-0.491-0.537c-0.165-0.162-0.324-0.314-0.48-0.426
							c-0.156-0.113-0.327-0.184-0.486-0.201c-0.159-0.014-0.308,0.026-0.408,0.078c-0.101,0.053-0.156,0.12-0.178,0.17
							c-0.024,0.049-0.022,0.079-0.022,0.079s-0.011-0.028,0-0.083c0.009-0.054,0.048-0.137,0.148-0.215
							c0.099-0.075,0.256-0.148,0.466-0.159c0.209-0.007,0.437,0.058,0.641,0.167c0.206,0.109,0.392,0.248,0.589,0.4
							c0.195,0.154,0.393,0.328,0.584,0.522c0.19,0.194,0.375,0.409,0.544,0.642c0.043,0.058,0.083,0.118,0.124,0.178l0.059,0.092
							l0.079,0.13l0.055,0.091c-0.013,0.031-0.033,0.062-0.049,0.094l-0.072,0.133c-0.033,0.058-0.066,0.117-0.088,0.18
							c-0.22,0.489-0.259,0.996-0.205,1.449c0.065,0.453,0.228,0.853,0.422,1.169c0.195,0.316,0.414,0.549,0.578,0.702
							c0.081,0.077,0.155,0.13,0.2,0.17C98.917,207.434,98.941,207.454,98.941,207.454z"/>
					</g>
				</g>
			</g>
			<g>
				<path style="fill:#131A70;" d="M125.534,195.574c0,0-2.706-3.444-4.133-2.02c-1.428,1.424-0.767,1.554-0.767,1.554
					L125.534,195.574z"/>
				<path style="fill:#131A70;" d="M104.806,196.616c0,0,4.7-5.686,6.727-3.756c1.184,1.127,0.4,1.932,0.4,1.932L104.806,196.616z"
					/>
				<path style="fill:#161818;" d="M111.291,197.031c-0.217,0.604-0.984,1.09-1.523,1.368c-0.287-0.313-0.632-0.495-1.002-0.487
					c-0.942,0.023-1.675,1.268-1.638,2.78c0.037,1.512,0.83,2.72,1.772,2.697c0.942-0.023,1.675-1.268,1.638-2.78
					c-0.011-0.468-0.096-0.907-0.234-1.29C111.007,198.67,111.291,197.031,111.291,197.031z"/>
				<path style="fill:#FFF0E7;" d="M105.462,199.203c0,0,0.623,0.926,1.672,1.321c1.049,0.395,2.128,0.11,2.128,0.11
					s-0.623-0.926-1.672-1.321C106.541,198.918,105.462,199.203,105.462,199.203z"/>
				<path style="fill:#161818;" d="M122.862,198.207c-0.149,0.414-0.67,0.749-1.044,0.944c-0.199-0.185-0.429-0.291-0.673-0.285
					c-0.71,0.017-1.263,0.955-1.235,2.095c0.028,1.14,0.626,2.05,1.335,2.033c0.71-0.017,1.263-0.955,1.235-2.095
					c-0.01-0.431-0.103-0.828-0.251-1.156C122.678,199.259,122.862,198.207,122.862,198.207z"/>
				<path style="fill:#FFF0E7;" d="M123.559,199.87c0,0-0.437,0.62-1.169,0.937c-0.732,0.317-1.482,0.212-1.482,0.212
					s0.436-0.62,1.168-0.937C122.808,199.765,123.559,199.87,123.559,199.87z"/>
				<g>
					<path style="fill:#FF7D6F;" d="M115.523,206.803c-0.423-0.143-0.847-0.361-1.29-0.305c0.466,1.002,1.342,1.807,2.381,2.186
						c0.08,0.029,0.164,0.057,0.249,0.051c0.104-0.006,0.199-0.06,0.288-0.114c0.561-0.348,1.053-0.807,1.437-1.344
						c0.078-0.109,0.153-0.224,0.181-0.355c0.091-0.433-0.203-0.332-0.457-0.225c-0.294,0.124-0.605,0.21-0.92,0.26
						C116.767,207.054,116.121,207.005,115.523,206.803z"/>
					<path style="fill:#FC5B68;" d="M116.699,208.435c0.257-0.241,0.547-0.447,0.811-0.683c0.326-0.291,0.628-0.607,0.891-0.956
						c-1.424-0.931-1.445-2.394-1.418-4.054c0.012-0.749,0.203-1.492,0.551-2.155c0.182-0.348,0.408-0.674,0.669-0.968
						c0.133-0.149,0.275-0.291,0.425-0.423c0.147-0.129,0.299-0.202,0.478-0.281c-0.084,0.101-0.14,0.217-0.215,0.32
						c-0.197,0.27-0.405,0.522-0.573,0.813c-0.169,0.291-0.312,0.596-0.428,0.912c-0.234,0.63-0.364,1.301-0.371,1.974
						c-0.007,0.66,0.106,1.323,0.362,1.933c0.292,0.696,0.797,1.38,1.446,1.775c0.006,0.003-0.93,1.139-1.022,1.231
						c-0.238,0.24-0.498,0.458-0.778,0.646c-0.276,0.184-0.592,0.402-0.935,0.397c-0.107-0.002-0.218-0.023-0.307-0.083
						c0.058-0.04,0.112-0.086,0.161-0.136c0.021-0.022,0.042-0.045,0.063-0.068C116.57,208.561,116.633,208.497,116.699,208.435z"/>
				</g>
				<path style="fill:#FF7D6F;" d="M120.813,207.263c0.239,0.594,1.535,0.632,2.895,0.085c1.36-0.547,2.269-1.472,2.03-2.066
					c-0.239-0.594-1.535-0.632-2.895-0.085C121.483,205.744,120.574,206.669,120.813,207.263z"/>
				<path style="fill:#FF7D6F;" d="M103.48,204.885c-0.212,0.91,1.304,2.041,3.387,2.527c2.083,0.486,3.944,0.142,4.156-0.767
					c0.212-0.91-1.304-2.041-3.387-2.527C105.552,203.632,103.692,203.976,103.48,204.885z"/>
			</g>
			<path style="fill:#131D42;" d="M95.476,198.145c1.457,0.549,2.753,2.031,3.056,3.558c0.643-2.537,1.434-5.124,1.75-7.722
				c1.933-1.581,4.701-3.01,7.167-3.405c0.193-1.033,0.629-1.973,0.822-3.005c1.227,1.147,2.73,2.385,3.957,3.532
				c4.221,0.551,8.628-0.027,12.619-1.506c-0.197-3.285-2.366-6.376-5.389-7.678c-5.681-2.447-12.949-3.534-18.082-0.083
				C96.243,185.287,94.256,192.081,95.476,198.145z"/>
			<path style="fill:#131A70;" d="M108.102,180.962c1.059,1.403,2.114,2.824,3.165,4.23c-2.356-0.923-4.704-1.849-7.059-2.765
				c0.006,1.511,0.02,3.019,0.034,4.528c-3.302,0.652-6.118,2.695-9.081,4.255c-1.411,0.75-2.944,1.392-4.496,1.719
				c-0.28-0.915-0.333-1.99-0.203-2.922c0.031-0.224,0.063-0.439,0.104-0.657c0.074-0.433,0.173-0.864,0.283-1.289
				c0.118-0.427,0.248-0.84,0.395-1.256c0.069-0.207,0.149-0.409,0.236-0.612c0.079-0.201,0.167-0.405,0.254-0.608
				c0.065-0.154,0.14-0.303,0.214-0.459c0.307-0.638,0.655-1.253,1.041-1.85c0.148-0.236,0.313-0.476,0.474-0.697
				c0.012-0.02,0.024-0.041,0.039-0.053c0.153-0.22,0.307-0.431,0.474-0.628c0.057-0.083,0.116-0.159,0.177-0.225
				c0.185-0.228,0.372-0.447,0.561-0.659c0.012-0.02,0.026-0.033,0.032-0.043c0.215-0.244,0.441-0.482,0.669-0.711
				c0.179-0.183,0.352-0.356,0.543-0.525c0.063-0.059,0.126-0.118,0.197-0.179c0.238-0.224,0.488-0.433,0.746-0.645
				c0.25-0.209,0.512-0.404,0.767-0.597c0.014-0.012,0.03-0.016,0.037-0.027c0.504-0.368,1.031-0.715,1.566-1.03
				c0.077-0.037,0.144-0.079,0.211-0.122c0.175-0.095,0.342-0.189,0.517-0.284c0.092-0.049,0.183-0.098,0.277-0.138
				c0.069-0.035,0.138-0.069,0.215-0.106c0.213-0.114,0.439-0.214,0.665-0.313c0.281-0.122,0.569-0.246,0.862-0.354
				c0.047-0.02,0.093-0.041,0.15-0.055c0.214-0.079,0.435-0.161,0.659-0.234c0.169-0.051,0.335-0.11,0.514-0.154
				c1.594-0.467,3.247-0.699,4.916-0.658c4.373,0.109,8.563,1.87,12.198,4.315c0.043,0.033,0.083,0.057,0.126,0.09
				c0.053,0.039,0.106,0.077,0.169,0.122c0.911,0.775,2.185,3.213,3.187,5.391C117.738,185.467,110.326,183.949,108.102,180.962z"/>
			<path style="fill:#172D8A;" d="M101.915,181.73c-0.248-0.874-0.179-1.849,0.195-2.68c1.815,0.484,3.629,0.968,5.444,1.452
				c-0.847-1.036-1.249-2.418-1.089-3.747c4.49,1.861,9.383,2.74,14.242,2.58c-0.043-0.033-0.085-0.057-0.128-0.089
				c-3.649-2.494-7.894-4.294-12.316-4.404c-6.813-0.178-13.364,4.208-16.31,10.283C95.145,183.673,98.496,182.535,101.915,181.73z"
				/>
		</g>
	</g>
	<g>
		<g>
			<g>
				<g>
					<g>
						<g>
							<path style="fill:#FF7D6F;" d="M292.672,244.596c0.984,0.95,2.437,1.184,3.791,1.366c2.469,0.339,4.991,0.945,7.457,1.281
								l5.309,4.075l3.168-6.45l0.931-1.896l-5.208-3.912c-0.755-3.558-1.992-7.16-4.065-10.148
								c-0.837-1.205-1.869-2.279-2.567-3.57c-0.885-1.648-1.178-3.545-1.867-5.286c-0.158-0.4-0.365-0.821-0.748-1.016
								c-0.492-0.25-1.122-0.025-1.485,0.391c-0.364,0.412-0.517,0.971-0.619,1.512c-0.011,0.058-0.023,0.122-0.029,0.182
								c-0.426,2.48-0.008,5.097,1.164,7.323c0.149,0.287,0.318,0.592,0.282,0.914c-0.036,0.285-0.229,0.526-0.433,0.736
								c-1.24,1.266-3.027,1.866-4.789,2.081c-0.732,0.09-1.521,0.141-2.095,0.603c-0.83,0.676-0.858,1.917-0.762,2.984
								c0.19,2.095,0.593,4.178,1.199,6.195C291.593,242.916,291.952,243.9,292.672,244.596z"/>
							<path style="fill:#FFA07F;" d="M305.015,244.679l5.705,3.605l2.608-5.313l-5.208-3.912c-0.755-3.558-1.992-7.16-4.065-10.148
								c-0.837-1.205-1.869-2.279-2.567-3.57c-0.885-1.648-1.178-3.545-1.867-5.286c-0.158-0.4-0.365-0.821-0.748-1.016
								c-0.492-0.25-1.122-0.025-1.485,0.391c-0.364,0.412-0.517,0.971-0.619,1.512c-0.011,0.058-0.023,0.122-0.029,0.182
								c0.307-0.18,0.579-0.437,0.926-0.468c0.899-0.086,1.185,1.145,1.346,2.03c0.389,2.114,1.901,3.812,3.116,5.585
								C304.465,231.681,304.776,240.55,305.015,244.679z"/>
							<path style="fill:#CF4A57;" d="M298.503,238.518c0.363,1.918,1.272,3.708,2.47,5.249c-1.521-1.158-2.847-2.652-3.479-4.456
								c-0.633-1.804-0.483-3.943,0.681-5.459c0.211-0.275,0.477-0.615,0.765-0.757c0.157,0.681-0.455,1.795-0.542,2.528
								C298.282,236.586,298.322,237.566,298.503,238.518z"/>
						</g>
					</g>
				</g>
			</g>
			<g>
				<path style="fill:#FFA07F;" d="M296.092,232.167c-2.911-0.96-6.52,0.109-6.52,0.109c-0.242,0.622-0.384,1.355-0.44,2.145
					c-0.031,0.331-0.043,0.673-0.043,1.024c0.002,0.776,0.057,1.591,0.16,2.411c0.04,0.359,0.089,0.72,0.145,1.079
					c0.153,0.955,0.343,1.895,0.549,2.767c0.083,0.375,0.173,0.736,0.259,1.081c0.243,0.936,0.48,1.744,0.666,2.346
					c0.216,0.698,0.362,1.117,0.362,1.117c2.81,0.064,6.711-2.073,6.711-2.073c0.29-1.034,0.389-2.146,0.356-3.255
					C298.178,236.556,296.092,232.167,296.092,232.167z"/>
				<g>
					<g>
						<path style="fill:#CF4A57;" d="M294.491,241.483c0,0-0.392-0.038-0.973-0.055c-0.585-0.015-1.353-0.025-2.179,0.059
							c-0.502,0.051-0.975,0.13-1.396,0.214c0.083,0.375,0.173,0.736,0.259,1.081c0.389,0.055,0.82,0.072,1.27,0.029
							c0.915-0.095,1.696-0.432,2.218-0.743C294.213,241.757,294.491,241.483,294.491,241.483z"/>
					</g>
					<g>
						<path style="fill:#CF4A57;" d="M293.561,237.823c0,0-0.372-0.069-0.923-0.12c-0.554-0.05-1.287-0.095-2.078-0.035
							c-0.469,0.036-0.914,0.111-1.312,0.188c0.04,0.359,0.089,0.72,0.145,1.079c0.384,0.065,0.816,0.099,1.272,0.062
							c0.86-0.069,1.608-0.367,2.111-0.644C293.283,238.072,293.561,237.823,293.561,237.823z"/>
					</g>
					<g>
						<path style="fill:#CF4A57;" d="M293.751,234.339c0,0-0.387-0.077-0.973-0.134c-0.588-0.052-1.37-0.095-2.215-0.018
							c-0.516,0.047-1.003,0.134-1.432,0.233c-0.031,0.331-0.043,0.673-0.043,1.024c0.468,0.081,1.015,0.121,1.596,0.067
							c0.902-0.082,1.683-0.378,2.221-0.653C293.446,234.584,293.751,234.339,293.751,234.339z"/>
					</g>
				</g>
				<path style="fill:#FFBF90;" d="M298.297,240.917c-0.505,0.799-1.082,1.541-1.837,2.1c-0.689,0.514-1.493,0.846-2.294,1.147
					c-0.917,0.346-1.885,0.753-2.852,0.935c-0.126,0.026-0.28,0.028-0.446,0.029c0.216,0.698,0.362,1.117,0.362,1.117
					c2.81,0.064,6.711-2.073,6.711-2.073C298.232,243.139,298.331,242.026,298.297,240.917z"/>
			</g>
			<g>
				<polygon style="fill:#FFA07F;" points="309.229,251.316 326.559,263.579 328.78,258.881 331.886,252.308 313.329,242.973 
					310.718,248.281 				"/>
				<polygon style="fill:#FF7D6F;" points="309.229,251.316 326.559,263.579 328.78,258.881 310.718,248.281 				"/>
			</g>
			<path style="fill:#FACC07;" d="M376.12,219.639c0,0-15.307,6.483-17.448,9.976c-5.167,8.433-8.474,15.678-10.57,25.105
				c0,0-14.896-6.539-23.583-10.758c-1.117-0.538-2.172-1.044-3.13-1.51l-9.422,16.082c1.134,0.661,2.347,1.364,3.62,2.08
				c14.531,8.288,36.647,19.577,41.51,17.422c5.724-2.543,13.975-20.879,13.975-20.879L376.12,219.639z"/>
			<path style="fill:#EA830C;" d="M311.967,258.535c1.134,0.661,2.347,1.364,3.62,2.08l10.448-15.921
				c-1.117-0.538-3.688-1.775-4.645-2.24L311.967,258.535z"/>
		</g>
		<path style="fill:#FACC07;" d="M401.102,216.903c0,0,18.333,4.37,24.846,13.385c2.719,3.763,4.525,52.414-2.835,61.688
			c-7.36,9.274-35.093-8.672-35.093-8.672l5.492-15.37l16.37-6.662L401.102,216.903z"/>
		<g>
			<g>
				<path style="fill:#131D42;" d="M400.122,453.579c-0.317-0.596-0.532-1.403-0.069-2.211c1.351-2.356,6.694-10.498,7.518-13.525
					c0.64-2.351,0.008-5.994-0.307-7.506l14.332-9.358c3.466,2.931,9.125,9.318,10.303,10.659L400.122,453.579z"/>
				<polygon style="fill:#FFF0E7;" points="402.366,456.709 434.144,434.769 431.9,431.639 400.122,453.579 				"/>
				<g>
					<path style="fill:#FFF0E7;" d="M410.876,436.872c0.048,0.021,0.096,0.042,0.143,0.064c0.352,0.167,0.754,0.519,0.504,0.939
						c-0.128,0.214-0.364,0.34-0.595,0.442c-0.795,0.349-1.65,0.5-2.512,0.582c-0.926,0.089-1.918,0.178-2.807-0.161
						c-0.919-0.35-0.747-1.388,0.118-1.756C407.226,436.344,409.348,436.216,410.876,436.872z"/>
					<path style="fill:#FFF0E7;" d="M409.691,440.197c0.048,0.021,0.095,0.042,0.143,0.064c0.352,0.167,0.754,0.519,0.504,0.939
						c-0.128,0.214-0.364,0.34-0.595,0.442c-0.795,0.349-1.65,0.5-2.512,0.582c-0.926,0.089-1.918,0.178-2.807-0.16
						c-0.919-0.35-0.747-1.388,0.119-1.756C406.041,439.669,408.163,439.54,409.691,440.197z"/>
					<path style="fill:#FFF0E7;" d="M407.542,443.333c0.048,0.021,0.096,0.042,0.142,0.064c0.352,0.167,0.754,0.519,0.504,0.939
						c-0.128,0.214-0.364,0.34-0.595,0.442c-0.794,0.349-1.65,0.5-2.512,0.582c-0.926,0.089-1.918,0.178-2.807-0.161
						c-0.919-0.35-0.747-1.388,0.119-1.756C403.892,442.805,406.014,442.677,407.542,443.333z"/>
				</g>
			</g>
			<polygon style="fill:#FF7D6F;" points="413.383,408.229 422.366,422.511 408.837,431.639 399.095,417.538 			"/>
			<path style="fill:#4A80E8;" d="M385.291,360.472l-0.001-1.824c-0.839-1.361-1.351-2.214-1.418-2.375
				c-2.244-5.367-0.183-31.087,1.171-45.312h-26.395c-0.06,2.4-0.126,5.097-0.195,7.96c-0.015,0.601-0.03,1.207-0.042,1.823
				c-0.024,0.946-0.045,1.907-0.066,2.878c-0.012,0.45-0.021,0.904-0.033,1.357c-0.318,14.216-0.601,29.94-0.36,32.808
				c0.116,1.378,4.72,7.281,8.061,13.087l0.118-0.075l40.982,60.84l17.536-10.202L385.291,360.472z"/>
			<g>
				<g>
					<polygon style="fill:#FFA07F;" points="372.685,421.718 369.654,440.067 355.15,437.709 356.882,420.352 					"/>
					<path style="fill:#131D42;" d="M332.916,448.744c0.173-0.65,0.566-1.39,1.462-1.683c2.614-0.855,12.144-3.368,14.826-5.068
						c2.082-1.32,4.107-4.437,4.909-5.764l17.024,2.509c0.563,4.456,0.386,12.918,0.341,14.688L332.916,448.744z"/>
					<polygon style="fill:#FFF0E7;" points="332.437,452.542 370.998,457.223 371.477,453.425 332.916,448.744 					"/>
					<g>
						<path style="fill:#FFF0E7;" d="M352.317,443.45c0.021,0.047,0.042,0.094,0.062,0.142c0.147,0.355,0.204,0.882-0.269,1.028
							c-0.241,0.075-0.503,0.012-0.743-0.065c-0.828-0.265-1.565-0.717-2.26-1.223c-0.747-0.544-1.543-1.132-1.97-1.969
							c-0.442-0.865,0.396-1.521,1.29-1.223C349.973,440.654,351.634,441.957,352.317,443.45z"/>
						<path style="fill:#FFF0E7;" d="M349.164,445.133c0.022,0.047,0.042,0.094,0.062,0.142c0.147,0.355,0.204,0.882-0.269,1.028
							c-0.241,0.075-0.503,0.012-0.743-0.065c-0.828-0.265-1.565-0.717-2.26-1.223c-0.747-0.545-1.543-1.132-1.97-1.969
							c-0.442-0.865,0.396-1.521,1.29-1.223C346.82,442.337,348.48,443.64,349.164,445.133z"/>
						<path style="fill:#FFF0E7;" d="M345.426,446.041c0.021,0.047,0.042,0.094,0.062,0.141c0.147,0.355,0.204,0.882-0.269,1.028
							c-0.241,0.074-0.502,0.012-0.743-0.065c-0.828-0.265-1.565-0.717-2.26-1.223c-0.747-0.544-1.543-1.132-1.97-1.969
							c-0.442-0.865,0.396-1.521,1.29-1.223C343.082,443.245,344.742,444.548,345.426,446.041z"/>
					</g>
				</g>
				<path style="fill:#6FB1FE;" d="M404.105,312.387l-5.464-0.022l-1.244-0.006l-3.383-0.014l-1.229-0.006l-15.717-0.066
					l-19.207,68.667l-4.413,56.34l17.94,4.47l7.466-53.645c0,0,20.768-49.587,24.316-58.624c0.154-0.395,0.305-0.783,0.455-1.169
					c0.61-1.551,1.192-3.032,1.738-4.421c0.151-0.385,0.299-0.762,0.442-1.132c2.45-6.226,4.076-10.347,4.076-10.347
					L404.105,312.387z"/>
			</g>
		</g>
		<g>
			<g>
				<g>
					<g>
						<g>
							<g>
								<path style="fill:#FFA07F;" d="M395.559,215.166c-0.308,0.308-13.846,10.326-13.846,10.326s0.311-6.171,0.459-9.386
									c0.043-0.995,0.074-1.708,0.074-1.865c0-1.285-1.097-6.852-1.097-6.852l13.662-6.248c0,0,0.216,2.817,0.425,5.928
									C395.488,210.82,395.728,214.996,395.559,215.166z"/>
								<path style="fill:#FF7D6F;" d="M395.235,207.068c-3.794,2.756-12.154,8.785-12.99,9.022
									c-0.025,0.006-0.049,0.012-0.074,0.015c0.043-0.995,0.074-1.708,0.074-1.865c0-1.285-1.097-6.852-1.097-6.852l13.662-6.248
									C394.81,201.141,395.025,203.958,395.235,207.068z"/>
							</g>
						</g>
						<g>
							<g>
								<path style="fill:#FFA07F;" d="M396.68,201.618c0,0-0.342,0.986-1.868,2.337h-0.003c-0.311,0.277-0.675,0.57-1.094,0.872
									c-1.603,1.15-16.608,7.58-18.92,7.272c-2.312-0.308-4.491-8.253-4.611-9.088c-0.743-5.126-2.787-20.966-2.787-20.966
									c5.703-17.262,26.047-8.323,28.359-6.627C398.067,177.112,396.68,201.618,396.68,201.618z"/>
								<g>
									<path style="fill:#FF7D6F;" d="M375.834,196.364c0,0,3.532,0.498,4.358,0l-0.5,2.229c0,0-4.771-1.061-5.332-1.45
										L375.834,196.364z"/>
									<path style="fill:#FC5B68;" d="M376.827,187.186c0.639,3.063,0.278,6.405-0.992,9.177c1.161,1.14,2.431,1.984,3.922,2.241
										c-1.796,0.492-3.911,0.005-5.315-1.412C375.912,194.243,376.891,190.614,376.827,187.186z"/>
								</g>
								<path style="fill:#FFFFFF;" d="M385.311,201.214c0,0-4.298-1.056-10.951,1.059c0,0,2.174,4.744,6.118,4.106
									C384.422,205.74,385.311,201.214,385.311,201.214z"/>
								<path style="fill:#FFBF90;" d="M394.809,203.954c-0.311,0.277-0.675,0.57-1.094,0.872c-1.603,1.15-16.608,7.58-18.92,7.272
									c-2.312-0.308-4.491-8.253-4.611-9.088c1.44,3.489,3.067,8.314,4.703,8.16C377.353,210.939,392.987,204.913,394.809,203.954
									z"/>
							</g>
							<g>
								<path style="fill:#131A70;" d="M369.173,188.098c0,0,1.531-4.356,3.439-3.419c1.908,0.936,1.293,1.291,1.293,1.291
									L369.173,188.098z"/>
								<path style="fill:#131A70;" d="M390.544,185.878c0,0-6.02-4.924-7.724-2.514c-0.995,1.406-0.02,2.08-0.02,2.08
									L390.544,185.878z"/>
								<g>
									<path style="fill:#161818;" d="M388.073,190.517c0,1.595-0.805,2.888-1.798,2.888c-0.993,0-1.798-1.293-1.798-2.888
										c0-1.595,0.805-2.887,1.798-2.887C387.268,187.63,388.073,188.923,388.073,190.517z"/>
									<path style="fill:#FFF0E7;" d="M389.791,188.906c0,0-0.632,0.992-1.728,1.435c-1.096,0.444-2.24,0.171-2.24,0.171
										s0.633-0.992,1.728-1.435C388.646,188.633,389.791,188.906,389.791,188.906z"/>
								</g>
								<g>
									<path style="fill:#161818;" d="M371.072,191.6c0,1.202,0.607,2.176,1.355,2.176c0.749,0,1.355-0.974,1.355-2.176
										s-0.607-2.176-1.355-2.176C371.679,189.423,371.072,190.398,371.072,191.6z"/>
									<path style="fill:#FFF0E7;" d="M369.908,190.544c0,0,0.476,0.642,1.255,0.958c0.78,0.315,1.568,0.185,1.568,0.185
										s-0.476-0.642-1.255-0.958C370.697,190.414,369.908,190.544,369.908,190.544z"/>
								</g>
								<path style="fill:#FF7D6F;" d="M372.41,198.264c-0.237,0.632-1.602,0.705-3.049,0.163c-1.447-0.542-2.429-1.493-2.192-2.125
									c0.237-0.632,1.602-0.705,3.049-0.163C371.665,196.681,372.646,197.633,372.41,198.264z"/>
								<path style="fill:#FF7D6F;" d="M390.616,195.315c0.247,0.953-1.322,2.184-3.505,2.75c-2.183,0.565-4.152,0.251-4.399-0.702
									c-0.247-0.953,1.322-2.184,3.505-2.75C388.4,194.047,390.37,194.361,390.616,195.315z"/>
							</g>
						</g>
					</g>
				</g>
				<g>
					<path style="fill:#FFBF90;" d="M394.472,202.228c3.09-0.243,5.34-2.077,6.544-3.612c0.271-0.346,0.489-0.677,0.651-0.971
						c0.882-1.601,1.136-7.152-1.136-8.442c-1.592-0.903-2.751,0.407-3.302,1.274v0.003c-0.235,0.368-0.36,0.656-0.36,0.656
						L394.472,202.228z"/>
					<path style="fill:#FFA07F;" d="M394.472,202.228c3.09-0.243,5.34-2.077,6.544-3.612c0.104-0.157,0.195-0.306,0.273-0.447
						c0.882-1.601,1.136-7.152-1.136-8.44c-1.29-0.732-2.295-0.012-2.924,0.749v0.003c-0.235,0.368-0.36,0.656-0.36,0.656
						L394.472,202.228z"/>
					<g>
						<path style="fill:#161818;" d="M378.005,181.915c2.612-0.738,5.234-1.493,7.642-2.755c1.529-0.8,2.968-1.831,4.132-3.101
							c4.612,4.594,7.1,11.544,5.874,17.88c0.266-1.342,1.253-2.515,2.523-3.021c1.28-0.498,2.657-0.507,3.768,0.293
							c0.738-2.355,1.475-4.728,1.937-7.145c0.231-1.2,0.391-2.399,0.453-3.617c0.178-3.679-0.658-7.553-3.066-10.344
							c-2.195-2.551-5.865-3.946-9.064-3.057c-0.222-0.755-0.586-1.413-1.164-1.875c-1.182-0.969-3.421-1.048-4.861-1.191
							c-1.999-0.204-4.026-0.16-6.025,0.133c-3.537,0.524-7.02,1.875-9.668,4.274c-2.355,2.124-3.954,4.976-5.03,7.953
							c-0.062,0.16-0.116,0.329-0.169,0.489c-0.96,2.826-1.511,5.785-2.053,8.735c5.545-0.649,10.859-3.164,14.876-7.047
							C378.592,179.586,378.548,180.875,378.005,181.915z"/>
						<path style="fill:#131A70;" d="M383.328,171.26c0.08,1.848-0.107,3.723-0.551,5.519c2.56-0.667,4.852-2.32,6.301-4.532
							c2.346,1.528,4.719,3.066,6.709,5.039c2,1.964,3.617,4.426,4.115,7.18c1.342,0.098,2.693-0.036,3.981-0.4
							c0.231-1.2,0.391-2.399,0.453-3.617c0.089-1.919-0.089-3.892-0.631-5.741c-0.489-1.688-1.28-3.27-2.435-4.603
							c-2.195-2.551-5.865-3.946-9.064-3.057c-0.222-0.755-0.586-1.413-1.164-1.875c-1.182-0.969-3.421-1.048-4.861-1.191
							c-1.999-0.204-4.026-0.16-6.025,0.133c-3.537,0.524-7.02,1.875-9.668,4.274c-0.222,0.195-0.435,0.4-0.64,0.631
							c-2.008,2.026-3.413,4.621-4.39,7.322c-0.062,0.16-0.116,0.329-0.169,0.489c2.168-0.178,4.319-0.444,6.452-0.871
							C375.864,175.143,379.907,173.695,383.328,171.26z"/>
						<path style="fill:#172D8A;" d="M387.016,167.971c0.4,1.173,0.391,2.471-0.018,3.635c1.955-0.409,3.83-1.146,5.546-2.168
							c3.519,1.697,6.416,4.648,8.051,8.193c1.129-0.862,2.177-1.84,3.11-2.924c-0.489-1.688-1.28-3.27-2.435-4.603
							c-2.195-2.551-5.865-3.946-9.064-3.057c-0.222-0.755-0.586-1.413-1.164-1.875c-1.182-0.969-3.421-1.048-4.861-1.191
							c-1.999-0.204-4.026-0.16-6.025,0.133c-3.537,0.524-7.02,1.875-9.668,4.274c-0.222,0.195-0.435,0.4-0.64,0.631
							C375.57,169.713,381.426,169.376,387.016,167.971z"/>
					</g>
					<path style="fill:#FF7D6F;" d="M401.249,193.613c0.114,0.444,0.042,0.906-0.104,1.344c-0.621,1.863-2.481,3.284-4.263,4.604
						c0.537-0.903,0.734-1.923,0.625-2.917c-0.038-0.346-0.113-0.69-0.116-1.036C397.377,194.212,400.576,190.988,401.249,193.613z"
						/>
					<g>
						<path style="fill:#CF4A57;" d="M395.988,200.092c0,0,0.035-0.02,0.101-0.057c0.065-0.039,0.169-0.091,0.287-0.171
							c0.239-0.159,0.568-0.415,0.879-0.794c0.309-0.378,0.589-0.882,0.723-1.479c0.12-0.595,0.095-1.289-0.224-1.957
							c-0.034-0.085-0.082-0.165-0.13-0.244l-0.035-0.06c-0.009-0.015-0.004-0.005-0.004-0.005l0,0l-0.002-0.001h0
							c0,0-0.002,0.003,0.005-0.01l0.03-0.053l0.06-0.106c0.041-0.07,0.081-0.14,0.124-0.207c0.168-0.273,0.35-0.529,0.537-0.768
							c0.187-0.238,0.381-0.457,0.572-0.657c0.193-0.199,0.379-0.386,0.563-0.524c0.184-0.139,0.387-0.23,0.576-0.255
							c0.19-0.021,0.37,0.022,0.491,0.081c0.123,0.061,0.19,0.14,0.218,0.198c0.03,0.059,0.028,0.094,0.031,0.094
							c0,0,0.009-0.034-0.005-0.099c-0.012-0.065-0.062-0.163-0.184-0.253c-0.121-0.088-0.311-0.171-0.563-0.177
							c-0.251-0.002-0.522,0.082-0.764,0.218c-0.244,0.137-0.462,0.309-0.693,0.497c-0.229,0.19-0.461,0.404-0.684,0.642
							c-0.223,0.238-0.438,0.5-0.633,0.785c-0.05,0.071-0.096,0.144-0.143,0.217l-0.068,0.112l-0.091,0.158l-0.063,0.111
							c0.016,0.037,0.041,0.074,0.061,0.111l0.091,0.158c0.041,0.069,0.082,0.138,0.111,0.213c0.278,0.579,0.34,1.186,0.288,1.73
							c-0.065,0.545-0.248,1.029-0.471,1.413c-0.224,0.385-0.48,0.67-0.672,0.859c-0.095,0.095-0.182,0.16-0.235,0.21
							C396.016,200.066,395.988,200.092,395.988,200.092z"/>
					</g>
				</g>
			</g>
		</g>
		<path style="fill:#FACC07;" d="M354.68,310.958c22.055,9.612,58.76,4.893,58.76,4.893c0.944-10.434,1.568-37.225,1.385-52.604
			c-0.242-19.301-2.528-37.78-9.793-43.607c-0.069-0.052-0.13-0.104-0.199-0.156c-0.087-0.069-0.173-0.13-0.26-0.191
			c-0.329-0.225-1.723-1.325-3.472-2.39c-1.87-1.126-4.13-2.234-5.905-2.234l-13.084,1.723c-0.814,0.389-3.948,2.095-5.992,3.247
			c-0.754,0.424-1.359,0.771-1.645,0.952c0,0-0.009,0-0.009,0.009c-0.009,0.009-0.017,0.017-0.035,0.026
			c-0.052,0.043-0.138,0.113-0.26,0.208c-0.087,0.069-0.19,0.156-0.311,0.251c-1.074,0.892-3.49,2.962-6.408,6.053
			c-0.805,1.403-1.628,3.931-2.459,7.265c-3.325,13.274-6.736,39.295-8.945,58.085C355.52,297.017,355.061,307.555,354.68,310.958z"
			/>
		<path style="fill:#EA830C;" d="M363.755,257.657c1.808-7.219,3.029-14.816,5.562-21.816c0.079-0.219,0.468-0.209,0.439,0.059
			c-0.783,7.166-2.931,14.277-4.448,21.32c-1.634,7.587-3.156,15.293-5.279,22.759c-0.249,0.875-1.501,0.5-1.344-0.371
			C360.016,272.248,361.939,264.912,363.755,257.657z"/>
		<path style="fill:#FFA07F;" d="M375.666,219.287c2.71,3.403,8.091,8.873,13.018,8.579c5.395-0.32,10.235-7.282,12.417-10.962
			c-1.87-1.126-4.13-2.234-5.905-2.234l-13.084,1.723C381.298,216.782,377.71,218.135,375.666,219.287z"/>
		<path style="fill:#FACC07;" d="M402.956,216.932c0,0-3.481-2.854-3.911-4.282c-0.43-1.428-0.19-3.36-0.19-3.36
			s-14.49,2.173-17.026,3.36s0.192,1.316-1.967,2.785c-2.159,1.47-4.81,3.864-4.81,3.864s6.698,18.404,13.425,13.972
			C395.206,228.838,402.956,216.932,402.956,216.932z"/>
		<g>
			<g>
				<g>
					<g>
						<path style="fill:#FFA07F;" d="M357.396,262.64c-0.276,1.04,13.484,9.405,15.193,9.53l2.375-0.141l6.714,4.254
							c0,0,1.048-0.896,2.001-2.387c0.52-0.802,1.006-1.784,1.289-2.89c0.16-0.617,0.254-1.276,0.25-1.965
							c-0.003-0.356-3.458-2.857-3.458-2.857s1.842-5.258-0.035-7.705c-1.109-1.443-2.23-2.911-2.72-4.665
							c-0.258-0.915-0.393-1.871-0.753-2.751c-0.36-0.883-0.999-1.716-1.906-2.007c-0.106-0.035-0.219-0.061-0.328-0.036
							c-0.227,0.051-0.35,0.288-0.421,0.518c-0.01,0.023-0.016,0.049-0.022,0.072c-0.715,2.574-0.518,5.395,0.547,7.841
							c0,0-8.327-3.263-10.237-4.899c0,0-4.919-2.368-5.552-1.537c-0.234,0.307-0.359,0.626-0.421,0.904
							c-0.109,0.47-0.043,0.826-0.043,0.826s9.677,6.406,9.823,6.931c0.146,0.529-9.706-3.083-10.591-2.689
							c-0.253,0.111-0.423,0.433-0.529,0.839c-0.1,0.373-0.152,0.817-0.172,1.23c-0.044,0.692-0.009,1.291-0.009,1.291
							s-0.067,0.119-0.174,0.314c-0.136,0.268-0.338,0.672-0.52,1.113C357.58,262.058,357.471,262.357,357.396,262.64z"/>
						<g>
							<g>
								<path style="fill:#CF4A57;" d="M358.402,259.055c0.271,0.132,0.549,0.264,0.835,0.388c1.667,0.732,3.259,1.197,4.424,1.469
									c1.094,0.254,1.815,0.352,1.901,0.362c-0.073-0.044-0.699-0.414-1.683-0.938c-1.052-0.56-2.505-1.301-4.146-2.019
									c-0.396-0.173-0.784-0.335-1.16-0.491C358.474,258.198,358.422,258.642,358.402,259.055z"/>
							</g>
							<g>
								<path style="fill:#CF4A57;" d="M357.7,261.773c2.63,1.216,4.944,1.734,5.091,1.766c-0.117-0.097-1.973-1.581-4.571-2.88
									C358.083,260.927,357.881,261.332,357.7,261.773z"/>
							</g>
						</g>
						<path style="fill:#FFBF90;" d="M375.598,249.538c0.142,0.14,0.28,0.284,0.407,0.428c1.047,1.209,1.295,2.893,1.902,4.369
							c0.84,2.033,2.411,3.768,2.857,5.921c0.375,1.82-0.104,3.687-0.421,5.519c-0.096,0.565-0.175,1.174,0.075,1.694
							c0.207,0.425,0.606,0.72,0.99,0.998c1.166,0.846,2.411,1.651,3.561,2.539c0.16-0.617,0.254-1.276,0.25-1.965
							c-0.003-0.356-3.458-2.857-3.458-2.857s1.842-5.258-0.035-7.705c-1.109-1.443-2.23-2.911-2.72-4.665
							c-0.258-0.915-0.393-1.871-0.753-2.751c-0.36-0.883-0.999-1.716-1.906-2.007c-0.106-0.035-0.219-0.061-0.328-0.036
							C375.793,249.07,375.67,249.307,375.598,249.538z"/>
					</g>
				</g>
			</g>
			<g>
				<polygon style="fill:#FFA07F;" points="381.678,276.283 389.452,281.182 392.366,274.538 393.512,271.91 381.761,266.181 
					381.741,268.702 				"/>
				<polygon style="fill:#FFBF90;" points="381.741,268.702 392.366,274.538 393.512,271.91 381.761,266.181 				"/>
			</g>
		</g>
		<polygon style="fill:#EA830C;" points="398.642,269.068 393.512,267.935 388.02,283.304 392.786,286.142 		"/>
		<path style="fill:#EA830C;" d="M401.364,269.325c2.107-0.319,4.422,0.185,6.507,0.567c0.568,0.104,1.172,0.201,1.787,0.308
			c-2.03-5.339-2.742-11.268-3.489-16.895c-0.702-5.29-1.478-11.037-0.803-16.352c0.077-0.605,0.875-0.611,0.947,0
			c0.631,5.356,0.392,10.814,1.009,16.196c0.667,5.82,2.311,11.428,3.152,17.201c1.611,0.311,3.236,0.742,4.476,1.607
			c0.425,0.296,0.278,0.962-0.266,0.983c-2.104,0.083-4.242-0.853-6.294-1.307c-2.289-0.506-4.87-0.703-7.026-1.604
			C401.08,269.91,400.96,269.386,401.364,269.325z"/>
		<path style="fill:#EA830C;" d="M395.159,286.516c5.412,2.115,10.476,4.809,16.037,6.627c0.954,0.312,0.561,1.796-0.417,1.513
			c-5.416-1.566-11.519-3.594-16.136-6.917C394.08,287.335,394.395,286.217,395.159,286.516z"/>
		<g>
			<path style="fill:#131A70;" d="M291.528,206.874l-44.453,10.999c-0.399,0.099-0.643,0.503-0.544,0.902l2.091,8.452l9.238,37.336
				l2.091,8.45c0.099,0.4,0.503,0.644,0.903,0.545l44.452-10.998c0.4-0.099,0.644-0.503,0.545-0.903l-2.091-8.45l-9.238-37.336
				l-2.091-8.451C292.332,207.019,291.928,206.775,291.528,206.874z"/>
			
				<rect x="255.3" y="214.591" transform="matrix(0.9707 -0.2402 0.2402 0.9707 -49.2717 73.2366)" style="fill:#FDE4D9;" width="41.062" height="48.347"/>
			<path style="fill:#6FB1FE;" d="M275.946,209.5l-2.509,0.621c-0.014,0.004-0.029-0.004-0.034-0.018
				c-0.807-2.13-3.093-3.369-5.358-2.809c-2.265,0.561-3.711,2.723-3.431,4.984c0.002,0.015-0.007,0.028-0.022,0.032l-2.507,0.62
				c-0.548,0.135-0.882,0.69-0.747,1.237l1.166,4.713c0.136,0.548,0.69,0.882,1.237,0.747l13.862-3.43
				c0.548-0.136,0.882-0.69,0.747-1.238l-1.166-4.713C277.048,209.699,276.494,209.364,275.946,209.5z M272.517,213.814
				l-5.307,1.313c-0.543,0.134-1.147-0.107-1.357-0.624c-0.256-0.632,0.112-1.321,0.749-1.478l5.326-1.318
				c0.504-0.125,1.064,0.075,1.298,0.538C273.558,212.901,273.186,213.649,272.517,213.814z"/>
			<path style="fill:#C99D8D;" d="M288.729,218.21c0.168,0.677-0.244,1.361-0.921,1.528l-30.219,7.477
				c-0.676,0.167-1.361-0.245-1.529-0.922l0,0c-0.167-0.676,0.246-1.361,0.923-1.528l30.219-7.477
				C287.879,217.121,288.562,217.534,288.729,218.21L288.729,218.21z"/>
			<path style="fill:#C99D8D;" d="M290.225,224.255c0.167,0.675-0.245,1.36-0.921,1.528l-30.219,7.477
				c-0.676,0.167-1.362-0.246-1.529-0.922l0,0c-0.168-0.677,0.246-1.361,0.922-1.529l30.219-7.477
				C289.374,223.164,290.057,223.577,290.225,224.255L290.225,224.255z"/>
			<path style="fill:#C99D8D;" d="M291.841,230.788c0.167,0.676-0.245,1.36-0.921,1.528l-30.219,7.477
				c-0.676,0.167-1.362-0.245-1.529-0.922l0,0c-0.167-0.676,0.246-1.361,0.923-1.528l30.219-7.477
				C290.991,229.698,291.674,230.111,291.841,230.788L291.841,230.788z"/>
			<path style="fill:#C99D8D;" d="M293.336,236.831c0.168,0.677-0.244,1.361-0.921,1.529l-30.219,7.477
				c-0.676,0.167-1.361-0.245-1.529-0.922l0,0c-0.167-0.676,0.246-1.361,0.923-1.528l30.219-7.477
				C292.486,235.742,293.169,236.155,293.336,236.831L293.336,236.831z"/>
			<path style="fill:#C99D8D;" d="M294.917,243.219c0.167,0.676-0.244,1.361-0.921,1.528l-30.219,7.477
				c-0.676,0.167-1.362-0.246-1.529-0.922l0,0c-0.167-0.676,0.246-1.361,0.923-1.528l30.219-7.477
				C294.066,242.13,294.75,242.543,294.917,243.219L294.917,243.219z"/>
			<path style="fill:#C99D8D;" d="M289.512,250.97c-0.167-0.675-0.852-1.089-1.529-0.922l-17.641,4.365
				c-0.677,0.168-1.09,0.853-0.923,1.528c0.168,0.677,0.852,1.09,1.529,0.922l17.641-4.365
				C289.267,252.331,289.68,251.647,289.512,250.97z"/>
		</g>
	</g>
</g>
</svg>
