<?xml version="1.0" encoding="utf-8"?>
<!-- Generator: Adobe Illustrator 27.5.0, SVG Export Plug-In . SVG Version: 6.00 Build 0)  -->
<svg version="1.1" xmlns="http://www.w3.org/2000/svg" xmlns:xlink="http://www.w3.org/1999/xlink" x="0px" y="0px"
	 viewBox="0 0 500 500" style="enable-background:new 0 0 500 500;" xml:space="preserve">
<g id="BACKGROUND">
	<rect style="fill:#ECF0F1;" width="500" height="500"/>
</g>
<g id="OBJECTS">
	<g>
		<ellipse style="fill:#DBDBDB;" cx="250" cy="432.634" rx="150.19" ry="16.857"/>
	</g>
	<g>
		<g>
			<g>
				<rect x="240.402" y="249.814" style="fill:#2B3342;" width="15.201" height="4.69"/>
			</g>
			<g>
				<path style="fill:#2B3342;" d="M260.36,335.89h-24.218c-2.155,0-3.902-1.747-3.902-3.902V322.4c0-2.155,1.747-3.902,3.902-3.902
					h24.218c2.155,0,3.902,1.747,3.902,3.902v9.589C264.262,334.143,262.515,335.89,260.36,335.89z"/>
			</g>
			<g>
				<g>
					<g>
						<path style="fill:#E74C3C;" d="M233.172,409.038c-0.009,3.651-0.012,7.431-0.012,11.378h5.758
							c0-3.949,0.004-7.728,0.012-11.378H233.172z"/>
					</g>
					<g>
						<path style="fill:#2B3342;" d="M234.466,332.262c-1.91,30.619-2.271,51.778-2.281,83.886c0,0.741,0.6,1.342,1.341,1.342h5.364
							c0.74,0,1.341-0.601,1.341-1.341c0.009-31.936,0.368-52.974,2.265-83.381c0.046-0.739-0.515-1.376-1.254-1.422l-5.354-0.339
							C235.149,330.96,234.512,331.523,234.466,332.262z"/>
					</g>
					<g>
						<path style="fill:#1B2123;" d="M239.484,419.292c-0.116-0.027-0.234-0.042-0.355-0.041c-1.147,0.013-2.037,1.254-3.181,1.172
							c-0.626-0.045-1.145-0.481-1.716-0.742c-1.052-0.48-3.109-0.197-3.924,0.88c-5.449,1.899-14.261,6.994-11.058,8.105l0,0
							c6.753,1.078,20.884-1.855,20.884-1.855c0.744-0.066,1.293-0.723,1.227-1.466l-0.429-4.824
							C240.867,419.781,240.221,419.236,239.484,419.292z"/>
					</g>
				</g>
				<g>
					<g>
						<path style="fill:#E74C3C;" d="M263.33,409.038c0.009,3.651,0.012,7.431,0.012,11.378h-5.758
							c0-3.949-0.004-7.728-0.012-11.378H263.33z"/>
					</g>
					<g>
						<path style="fill:#2B3342;" d="M262.037,332.262c1.91,30.619,2.271,51.778,2.281,83.886c0,0.741-0.6,1.342-1.341,1.342h-5.365
							c-0.74,0-1.341-0.601-1.341-1.341c-0.009-31.936-0.368-52.974-2.265-83.381c-0.046-0.739,0.515-1.376,1.253-1.422l5.354-0.339
							C261.353,330.96,261.99,331.523,262.037,332.262z"/>
					</g>
					<g>
						<path style="fill:#1B2123;" d="M257.018,419.292c0.116-0.027,0.234-0.042,0.355-0.041c1.147,0.013,2.037,1.254,3.181,1.172
							c0.626-0.045,1.144-0.481,1.716-0.742c1.052-0.48,3.109-0.197,3.924,0.88c5.449,1.899,14.262,6.994,11.058,8.105l0,0
							c-6.753,1.078-20.884-1.855-20.884-1.855c-0.744-0.066-1.293-0.723-1.227-1.466l0.429-4.824
							C255.635,419.781,256.282,419.236,257.018,419.292z"/>
					</g>
				</g>
			</g>
			<g>
				<g>
					<path style="fill:#4F3425;" d="M264.045,231.392h-31.603c-2.973,0-5.383-2.41-5.383-5.383v-1.487
						c0-2.973,2.41-5.383,5.383-5.383h31.603c2.973,0,5.383,2.41,5.383,5.383v1.487
						C269.429,228.982,267.018,231.392,264.045,231.392z"/>
				</g>
				<g>
					<rect x="243.022" y="232.826" style="fill:#4F3425;" width="9.95" height="22.115"/>
				</g>
				<g>
					<path style="fill:#704D36;" d="M248.283,200.259L248.283,200.259c-8.959,0-16.222,7.263-16.222,16.222v17.49
						c0,5.191,3.258,9.621,7.841,11.357c0.818,0.31,1.493,0.896,1.97,1.629c1.363,2.096,3.725,3.482,6.411,3.482l0,0
						c2.686,0,5.048-1.386,6.411-3.482c0.477-0.733,1.152-1.32,1.97-1.629c4.583-1.736,7.841-6.166,7.841-11.357v-17.49
						C264.505,207.522,257.242,200.259,248.283,200.259z"/>
				</g>
				<g>
					<path style="fill:#F0FFE1;" d="M241.441,232.844c-0.25,0-0.434,0.257-0.38,0.527c0.574,2.916,2.92,5.1,5.727,5.1h2.99
						c2.807,0,5.152-2.184,5.727-5.1c0.053-0.271-0.13-0.527-0.38-0.527H241.441z"/>
				</g>
				<g>
					<g>
						<path style="fill:#21140E;" d="M245.915,214.038c-3.092-0.439-6.186,0.519-8.489,2.627c-0.275,0.251-0.434,0.601-0.437,0.96
							c-0.003,0.334,0.126,0.641,0.363,0.864c0.233,0.22,0.536,0.33,0.843,0.33c0.315,0,0.634-0.115,0.886-0.345
							c1.761-1.612,4.126-2.344,6.49-2.008l0.001,0c0.667,0.093,1.296-0.329,1.434-0.963c0.069-0.318,0.002-0.644-0.189-0.919
							C246.612,214.289,246.283,214.09,245.915,214.038z"/>
					</g>
					<g>
						<path style="fill:#21140E;" d="M259.14,218.972c-2.303-2.108-5.398-3.066-8.488-2.627c-0.369,0.052-0.698,0.251-0.903,0.545
							c-0.191,0.274-0.258,0.601-0.189,0.918c0.138,0.634,0.769,1.057,1.434,0.964l0.001,0c2.364-0.335,4.729,0.397,6.491,2.009
							c0.251,0.23,0.57,0.345,0.884,0.345c0.307,0,0.61-0.11,0.843-0.329c0.237-0.223,0.366-0.53,0.363-0.864
							C259.574,219.573,259.415,219.223,259.14,218.972z"/>
					</g>
				</g>
				<g>
					<path style="fill:#4F3425;" d="M251.453,227.796c-0.001-0.657-0.359-1.228-0.889-1.535l-0.004-3.536
						c-0.001-1.26-1.024-2.281-2.285-2.279l0,0c-1.26,0.002-2.281,1.025-2.279,2.285l0.005,3.536
						c-0.53,0.308-0.886,0.88-0.886,1.537c0.001,0.915,0.695,1.667,1.584,1.762c0.411,0.398,0.971,0.644,1.589,0.643l0,0
						c0.618-0.001,1.176-0.248,1.587-0.647C250.762,229.465,251.454,228.711,251.453,227.796z"/>
				</g>
				<g>
					<g>
						<g>
							<path style="fill:#21140E;" d="M245.842,221.396c0,1.184-0.96,2.144-2.144,2.144c-1.184,0-2.144-0.96-2.144-2.144
								c0-1.184,0.96-2.144,2.144-2.144C244.882,219.252,245.842,220.212,245.842,221.396z"/>
						</g>
						<g>
							<path style="fill:#FCFBFA;" d="M243.863,220.736c0,0.455-0.369,0.825-0.824,0.825c-0.456,0-0.825-0.369-0.825-0.825
								c0-0.455,0.369-0.825,0.825-0.825C243.494,219.912,243.863,220.281,243.863,220.736z"/>
						</g>
					</g>
					<g>
						<g>
							<path style="fill:#21140E;" d="M255.011,221.396c0,1.184-0.96,2.144-2.144,2.144c-1.184,0-2.144-0.96-2.144-2.144
								c0-1.184,0.96-2.144,2.144-2.144C254.052,219.252,255.011,220.212,255.011,221.396z"/>
						</g>
						<g>
							<circle style="fill:#FCFBFA;" cx="252.208" cy="220.736" r="0.825"/>
						</g>
					</g>
				</g>
				<g>
					<path style="fill:#21140E;" d="M241.499,229.387c-2.422,0-4.385,1.963-4.385,4.385v6.867v1.489l0,0
						c0,4.112,3.334,7.446,7.446,7.446h7.446c4.112,0,7.446-3.334,7.446-7.446l0,0v-1.489v-6.867c0-2.422-1.963-4.385-4.385-4.385
						H241.499z M243.709,231.207h9.703c2.422,0,4.385,1.963,4.385,4.385l0,0c0,2.422-1.963,4.385-4.385,4.385h-9.703
						c-2.422,0-4.385-1.963-4.385-4.385l0,0C239.324,233.17,241.288,231.207,243.709,231.207z"/>
				</g>
			</g>
			<g>
				<path style="fill:#3498DB;" d="M259.536,320.414H237.3c-2.925,0-5.296-2.371-5.296-5.296v-53.932
					c0-2.925,2.371-5.296,5.296-5.296h22.236c2.925,0,5.296,2.371,5.296,5.296v53.932
					C264.832,318.043,262.461,320.414,259.536,320.414z"/>
			</g>
			<g>
				<polygon style="fill:#C9241C;" points="244.352,254.709 246.252,260.386 250.085,260.406 252.017,254.75 				"/>
			</g>
			<g>
				<path style="fill:#E74C3C;" d="M249.414,260.301l-2.599-0.009c-0.372-0.001-0.679,0.291-0.697,0.663l-1.878,40.814
					c-0.007,0.145,0.032,0.288,0.111,0.409l3.183,4.923c0.275,0.426,0.899,0.423,1.17-0.005l3.194-5.033
					c0.077-0.121,0.114-0.262,0.107-0.405l-1.9-40.694C250.089,260.594,249.785,260.302,249.414,260.301z"/>
			</g>
			<g>
				<path style="fill:#4B4F4E;" d="M232.004,261.185v53.932c0,1.173,0.382,2.257,1.028,3.135c5.27-2.935,8.836-8.561,8.836-15.021
					v-47.342H237.3C234.375,255.889,232.004,258.26,232.004,261.185z"/>
			</g>
			<g>
				<path style="fill:#4B4F4E;" d="M264.832,261.185v53.932c0,1.173-0.382,2.257-1.028,3.135c-5.27-2.935-8.836-8.561-8.836-15.021
					v-47.342h4.568C262.461,255.889,264.832,258.26,264.832,261.185z"/>
			</g>
			<g>
				<g>
					<path style="fill:#333534;" d="M240.156,259.381c-0.73,1.354-1.461,2.708-2.192,4.063c-0.41,0.76-0.82,1.519-1.229,2.279
						c-0.369,0.683-0.696,1.345-0.576,2.157c0.137,0.927,0.79,1.536,1.381,2.2c0.621,0.697,1.242,1.393,1.863,2.09
						c0.283,0.317,0.53,0.634,0.455,1.096c-0.041,0.251-0.174,0.516-0.26,0.752c-0.347,0.951-0.695,1.902-1.042,2.853
						c-0.306,0.839-0.77,1.724-0.151,2.551c0.51,0.681,1.225,1.253,1.826,1.855c0.442,0.442,1.128-0.244,0.686-0.686
						c-0.527-0.527-1.175-1.033-1.625-1.625c-0.451-0.594,0.015-1.334,0.243-1.957c0.327-0.895,0.654-1.791,0.981-2.686
						c0.285-0.781,0.504-1.541,0.01-2.316c-0.368-0.578-0.93-1.077-1.383-1.585c-0.532-0.597-1.099-1.177-1.603-1.799
						c-0.59-0.727-0.48-1.464-0.074-2.217c0.379-0.702,0.757-1.404,1.136-2.106c0.797-1.477,1.593-2.954,2.39-4.43
						C241.29,259.321,240.453,258.83,240.156,259.381L240.156,259.381z"/>
				</g>
			</g>
			<g>
				<g>
					<path style="fill:#333534;" d="M256.085,259.871c0.686,1.271,1.372,2.542,2.058,3.814c0.42,0.779,0.84,1.558,1.261,2.337
						c0.342,0.635,0.753,1.252,0.489,2.014c-0.242,0.7-1.011,1.323-1.488,1.859c-0.534,0.599-1.086,1.186-1.603,1.799
						c-1.168,1.384-0.019,3.235,0.508,4.677c0.225,0.615,0.992,1.9,0.543,2.529c-0.444,0.622-1.15,1.15-1.692,1.692
						c-0.442,0.442,0.244,1.128,0.686,0.686c0.552-0.552,1.133-1.086,1.661-1.661c0.638-0.695,0.497-1.421,0.207-2.215
						c-0.333-0.911-0.666-1.823-0.999-2.734c-0.254-0.696-0.775-1.566-0.263-2.25c0.91-1.215,2.17-2.18,3.033-3.432
						c1.151-1.671-0.247-3.455-1.045-4.933c-0.84-1.557-1.68-3.113-2.519-4.67C256.626,258.831,255.788,259.32,256.085,259.871
						L256.085,259.871z"/>
				</g>
			</g>
			<g>
				<path style="fill:#2980B9;" d="M245.163,259.262l-4.79-4.035c-0.132-0.101-0.21-0.258-0.212-0.424l-0.029-4.45
					c-0.003-0.448,0.511-0.703,0.866-0.43l5.952,4.581c0.132,0.102,0.21,0.259,0.21,0.426l-1.132,3.904
					C246.027,259.279,245.517,259.532,245.163,259.262z"/>
			</g>
			<g>
				<path style="fill:#2980B9;" d="M251.295,259.262l4.79-4.035c0.132-0.101,0.21-0.258,0.212-0.424l0.029-4.45
					c0.003-0.448-0.511-0.703-0.866-0.43l-5.952,4.581c-0.132,0.102-0.21,0.259-0.21,0.426l1.132,3.904
					C250.43,259.279,250.941,259.532,251.295,259.262z"/>
			</g>
			<g>
				<path style="fill:#2C3E50;" d="M264.674,323.268H231.94v-3.477c0-0.893,0.724-1.617,1.617-1.617h29.594
					c0.893,0,1.617,0.724,1.617,1.617v3.382C264.769,323.226,264.726,323.268,264.674,323.268z"/>
			</g>
			<g>
				<path style="fill:#2980B9;" d="M251.387,323.753h-6.064c-0.603,0-1.092-0.489-1.092-1.092v-3.8c0-0.603,0.489-1.092,1.092-1.092
					h6.064c0.603,0,1.091,0.489,1.091,1.092v3.8C252.478,323.264,251.99,323.753,251.387,323.753z"/>
			</g>
		</g>
		<g>
			<path style="fill:#704D36;" d="M230.275,309.207c1.381,2.504,1.818,5.896,4.144,6.389c0.742,0.157,2.59-0.432,2.158-4.576
				c-0.209-2.004-1.295-3.194-3.454-4.662C231.149,307.172,231.149,307.082,230.275,309.207z"/>
		</g>
		<g>
			<path style="fill:#3498DB;" d="M227.746,305.854c-0.174,0.441-0.302,0.883-0.388,1.319c-0.023,0.115,0.023,0.232,0.118,0.3
				c0.615,0.442,1.239,0.873,1.872,1.293c0.217,0.144,0.435,0.285,0.654,0.426c0.083,0.053,0.187,0.065,0.277,0.028
				c1.052-0.439,2.271-2.095,2.805-2.882c0.155-0.228,0.09-0.537-0.141-0.686c-0.99-0.636-1.963-1.299-2.916-1.988
				c-0.327-0.236-0.784-0.187-1.047,0.119C228.486,304.358,228.06,305.058,227.746,305.854z"/>
		</g>
		<g>
			<g>
				<path style="fill:#4B4F4E;" d="M235.248,256.307c-5.863,3.492-11.99,6.631-17.569,10.58c-4.398,3.113-8.665,6.879-10.409,12.147
					c-3.291,9.943,5.21,18.134,12.443,23.505c2.33,1.73,4.774,3.366,7.333,4.743c3.083,1.658,5.833-3.036,2.745-4.697
					c-5.185-2.79-10.223-6.454-14.09-10.907c-2.365-2.724-4.242-6.018-3.593-9.646c0.787-4.399,4.447-7.662,7.9-10.152
					c5.681-4.097,11.978-7.299,17.985-10.877C240.998,259.214,238.266,254.51,235.248,256.307L235.248,256.307z"/>
			</g>
		</g>
		<g>
			<path style="fill:#704D36;" d="M267.25,309.207c-1.382,2.504-1.819,5.896-4.144,6.389c-0.742,0.157-2.59-0.432-2.159-4.576
				c0.209-2.004,1.295-3.194,3.454-4.662C266.375,307.172,266.375,307.082,267.25,309.207z"/>
		</g>
		<g>
			<path style="fill:#3498DB;" d="M269.779,305.854c0.174,0.441,0.302,0.883,0.388,1.319c0.023,0.115-0.023,0.232-0.118,0.3
				c-0.615,0.442-1.239,0.873-1.872,1.293c-0.217,0.144-0.435,0.285-0.654,0.426c-0.083,0.053-0.187,0.065-0.278,0.028
				c-1.052-0.439-2.271-2.095-2.805-2.882c-0.155-0.228-0.09-0.537,0.141-0.686c0.991-0.636,1.963-1.299,2.916-1.988
				c0.327-0.236,0.784-0.187,1.047,0.119C269.038,304.358,269.465,305.058,269.779,305.854z"/>
		</g>
		<g>
			<g>
				<path style="fill:#4B4F4E;" d="M259.531,261.004c5.422,3.23,11.039,6.171,16.282,9.694c3.594,2.415,7.774,5.484,9.197,9.782
					c2.549,7.701-5.486,14.221-11.105,18.205c-1.98,1.404-4.032,2.749-6.171,3.9c-3.084,1.659-0.34,6.357,2.745,4.697
					c5.995-3.226,11.979-7.613,16.197-12.98c3.061-3.896,4.909-8.303,4.057-13.316c-0.892-5.242-4.662-9.327-8.714-12.48
					c-6.11-4.753-13.112-8.25-19.742-12.199C259.262,254.512,256.523,259.212,259.531,261.004L259.531,261.004z"/>
			</g>
		</g>
	</g>
	<g>
		<g>
			<g>
				<path style="fill:#9A9E9C;" d="M345.101,407.127l35.289,7.901c1.395,0.312,1.168,2.366-0.262,2.366H309.55
					c-1.43,0-1.657-2.054-0.262-2.366l35.289-7.901C344.75,407.088,344.928,407.088,345.101,407.127z"/>
			</g>
			<g>
				<path style="fill:#AFB5B3;" d="M344.839,422.471L344.839,422.471c1.01,0,1.829-0.819,1.829-1.829v-37.807
					c0-1.01-0.819-1.829-1.829-1.829l0,0c-1.01,0-1.829,0.819-1.829,1.829v37.807C343.01,421.652,343.829,422.471,344.839,422.471z"
					/>
			</g>
			<g>
				<path style="fill:#4B4F4E;" d="M374.009,422.565c0,2.021,1.638,3.659,3.659,3.659c2.021,0,3.659-1.638,3.659-3.659
					c0-2.021-1.638-3.659-3.659-3.659C375.647,418.907,374.009,420.545,374.009,422.565z"/>
			</g>
			<g>
				<path style="fill:#4B4F4E;" d="M341.298,427.444c0,2.021,1.638,3.659,3.659,3.659s3.659-1.638,3.659-3.659
					s-1.638-3.659-3.659-3.659S341.298,425.423,341.298,427.444z"/>
			</g>
			<g>
				<path style="fill:#4B4F4E;" d="M308.369,422.565c0,2.021,1.638,3.659,3.659,3.659c2.021,0,3.659-1.638,3.659-3.659
					c0-2.021-1.638-3.659-3.659-3.659C310.007,418.907,308.369,420.545,308.369,422.565z"/>
			</g>
			<g>
				<path style="fill:#4B4F4E;" d="M343.516,384.103h2.782c1.886,0,3.414-1.529,3.414-3.414v-2.782c0-1.886-1.529-3.414-3.414-3.414
					h-2.782c-1.886,0-3.414,1.529-3.414,3.414v2.782C340.102,382.574,341.63,384.103,343.516,384.103z"/>
			</g>
			<g>
				<path style="fill:#4B4F4E;" d="M313.545,372.722h62.723c1.048,0,1.897-0.849,1.897-1.897l0,0c0-1.047-0.849-1.897-1.897-1.897
					h-62.723c-1.048,0-1.897,0.849-1.897,1.897l0,0C311.649,371.872,312.498,372.722,313.545,372.722z"/>
			</g>
			<g>
				<path style="fill:#AFB5B3;" d="M377.027,372.722v1.17c0,2.986-2.42,5.406-5.406,5.406h-53.428c-2.986,0-5.406-2.42-5.406-5.406
					v-1.17H377.027z"/>
			</g>
			<g>
				<path style="fill:#AFB5B3;" d="M344.907,407.102c0.065,0.004,0.13,0.011,0.194,0.025l35.289,7.901
					c1.395,0.312,1.168,2.366-0.262,2.366h-35.221V407.102z"/>
			</g>
			<g>
				<path style="fill:#9A9E9C;" d="M330.018,368.928h46.434l5.705-80.221c0.086-1.205-0.868-2.229-2.076-2.229h-41.898
					c-1.066,0-1.959,0.805-2.07,1.865l-8.165,78.288C327.82,367.859,328.783,368.928,330.018,368.928z"/>
			</g>
			<g>
				<path style="fill:#4B4F4E;" d="M323.409,368.928h48.744l5.705-80.221c0.086-1.205-0.868-2.229-2.076-2.229h-41.898
					c-1.066,0-1.959,0.805-2.07,1.865L323.409,368.928z"/>
			</g>
		</g>
		<g>
			<g>
				<path style="fill:#9A9E9C;" d="M155.811,408.669l-35.289,7.9c-1.395,0.313-1.168,2.366,0.262,2.366h70.578
					c1.43,0,1.657-2.054,0.262-2.366l-35.289-7.9C156.162,408.631,155.983,408.631,155.811,408.669z"/>
			</g>
			<g>
				<path style="fill:#AFB5B3;" d="M156.073,424.013L156.073,424.013c-1.01,0-1.829-0.819-1.829-1.829v-37.807
					c0-1.01,0.819-1.829,1.829-1.829l0,0c1.01,0,1.829,0.819,1.829,1.829v37.807C157.902,423.194,157.083,424.013,156.073,424.013z"
					/>
			</g>
			<g>
				<path style="fill:#4B4F4E;" d="M126.903,424.108c0,2.021-1.638,3.659-3.659,3.659c-2.021,0-3.659-1.638-3.659-3.659
					c0-2.021,1.638-3.659,3.659-3.659C125.265,420.449,126.903,422.087,126.903,424.108z"/>
			</g>
			<g>
				<path style="fill:#4B4F4E;" d="M159.614,428.986c0,2.021-1.638,3.659-3.659,3.659c-2.021,0-3.659-1.638-3.659-3.659
					c0-2.021,1.638-3.659,3.659-3.659C157.976,425.328,159.614,426.966,159.614,428.986z"/>
			</g>
			<g>
				<path style="fill:#4B4F4E;" d="M192.543,424.108c0,2.021-1.638,3.659-3.659,3.659c-2.021,0-3.659-1.638-3.659-3.659
					c0-2.021,1.638-3.659,3.659-3.659C190.905,420.449,192.543,422.087,192.543,424.108z"/>
			</g>
			<g>
				<path style="fill:#4B4F4E;" d="M157.396,385.645h-2.782c-1.886,0-3.414-1.529-3.414-3.414v-2.782
					c0-1.886,1.529-3.414,3.414-3.414h2.782c1.886,0,3.414,1.529,3.414,3.414v2.782C160.81,384.117,159.282,385.645,157.396,385.645
					z"/>
			</g>
			<g>
				<path style="fill:#4B4F4E;" d="M187.366,374.264h-62.723c-1.048,0-1.897-0.849-1.897-1.897l0,0c0-1.048,0.849-1.897,1.897-1.897
					h62.723c1.048,0,1.897,0.849,1.897,1.897l0,0C189.263,373.415,188.414,374.264,187.366,374.264z"/>
			</g>
			<g>
				<path style="fill:#AFB5B3;" d="M123.885,374.264v1.17c0,2.986,2.42,5.406,5.406,5.406h53.428c2.986,0,5.406-2.42,5.406-5.406
					v-1.17H123.885z"/>
			</g>
			<g>
				<path style="fill:#AFB5B3;" d="M156.005,408.644c-0.065,0.004-0.13,0.011-0.194,0.025l-35.289,7.9
					c-1.395,0.313-1.168,2.366,0.262,2.366h35.221V408.644z"/>
			</g>
			<g>
				<path style="fill:#9A9E9C;" d="M170.894,370.47h-46.434l-5.705-80.221c-0.086-1.204,0.868-2.229,2.076-2.229h41.898
					c1.066,0,1.96,0.805,2.07,1.865l8.165,78.288C173.092,369.401,172.128,370.47,170.894,370.47z"/>
			</g>
			<g>
				<path style="fill:#4B4F4E;" d="M177.503,370.47h-48.744l-5.705-80.221c-0.086-1.204,0.868-2.229,2.076-2.229h41.898
					c1.066,0,1.959,0.805,2.07,1.865L177.503,370.47z"/>
			</g>
		</g>
	</g>
	<g>
		<g>
			<polygon style="fill:#2C3E50;" points="164.191,286.525 148.255,286.525 148.697,280.223 164.075,280.223 			"/>
		</g>
		<g>
			<g>
				<g>
					<g>
						<path style="fill:#186E9E;" d="M164.109,292.43c12.918,12.84,24.966,26.617,36.956,40.32c2.9,3.314,7.714-1.533,4.829-4.83
							c-11.99-13.703-24.038-27.479-36.956-40.319C165.818,284.498,160.986,289.325,164.109,292.43L164.109,292.43z"/>
					</g>
				</g>
				<g>
					<g>
						<g>
							<g>
								<rect x="152.524" y="272.596" style="fill:#EEA57D;" width="9.552" height="15.596"/>
							</g>
							<g>
								<path style="fill:#EEA57D;" d="M142.328,259.023h29.166c2.744,0,4.968-2.224,4.968-4.968v-1.372
									c0-2.744-2.224-4.968-4.968-4.968h-29.166c-2.744,0-4.968,2.224-4.968,4.968v1.372
									C137.36,256.799,139.584,259.023,142.328,259.023z"/>
							</g>
							<g>
								<path style="fill:#F6C09C;" d="M150.983,231.181h12.634c4.094,0,7.413,3.319,7.413,7.413v10.43
									c0,3.821,2.493,25.377,2.493,25.377c0,2.021-1.639,3.66-3.66,3.66l-10.66-0.017c-8.634,0-15.634-7-15.634-15.634v-23.815
									C143.57,234.5,146.889,231.181,150.983,231.181z"/>
							</g>
							<g>
								<path style="fill:#F0FFE1;" d="M164.584,257.697c0.261,0,0.451,0.322,0.396,0.662c-0.598,3.662-3.041,6.404-5.963,6.404
									h-3.114c-2.923,0-5.365-2.742-5.963-6.404c-0.055-0.34,0.135-0.662,0.396-0.662H164.584z"/>
							</g>
							<g>
								<g>
									<g>
										<path style="fill:#143A12;" d="M160.723,249.526c0,0.807,0.654,1.461,1.461,1.461s1.461-0.654,1.461-1.461
											s-0.654-1.461-1.461-1.461S160.723,248.719,160.723,249.526z"/>
									</g>
									<g>
										<path style="fill:#FCFBFA;" d="M162.072,249.077c0,0.31,0.251,0.562,0.562,0.562c0.31,0,0.562-0.252,0.562-0.562
											c0-0.31-0.252-0.562-0.562-0.562C162.323,248.515,162.072,248.766,162.072,249.077z"/>
									</g>
								</g>
								<g>
									<g>
										<path style="fill:#143A12;" d="M151.275,249.526c0,0.807,0.654,1.461,1.461,1.461s1.461-0.654,1.461-1.461
											s-0.654-1.461-1.461-1.461S151.275,248.719,151.275,249.526z"/>
									</g>
									<g>
										<path style="fill:#FCFBFA;" d="M152.623,249.077c0,0.31,0.252,0.562,0.562,0.562c0.31,0,0.562-0.252,0.562-0.562
											c0-0.31-0.251-0.562-0.562-0.562C152.875,248.515,152.623,248.766,152.623,249.077z"/>
									</g>
								</g>
							</g>
							<g>
								<path style="fill:#B87D3D;" d="M143.56,238.594v9.085c0,0.994,1.278,1.398,1.852,0.586c0.854-1.208,1.357-2.683,1.357-4.275
									v-9.085c0-0.994-1.278-1.397-1.852-0.586C144.063,235.527,143.56,237.002,143.56,238.594z"/>
							</g>
							<g>
								<path style="fill:#B87D3D;" d="M171.03,238.594v9.085c0,0.994-1.278,1.398-1.852,0.586
									c-0.854-1.208-1.357-2.683-1.357-4.275v-9.085c0-0.994,1.278-1.397,1.852-0.586
									C170.528,235.527,171.03,237.002,171.03,238.594z"/>
							</g>
							<g>
								<path style="fill:#B87D3D;" d="M166.97,259.297c0.348,0,0.603-0.213,0.529-0.437c-0.798-2.415-4.059-4.224-7.96-4.224
									h-4.157c-3.902,0-7.162,1.809-7.96,4.224c-0.074,0.224,0.181,0.437,0.529,0.437H166.97z"/>
							</g>
							<g>
								<path style="fill:#EEA57D;" d="M150.246,243.229c4.531-2.31,9.897-2.31,14.428,0c0.242,0.123,0.537,0.049,0.662-0.176l0,0
									c0.125-0.225,0.02-0.522-0.239-0.654c-4.797-2.446-10.478-2.446-15.274,0c-0.259,0.132-0.364,0.429-0.239,0.654l0,0
									C149.709,243.277,150.004,243.352,150.246,243.229z"/>
							</g>
							<g>
								<g>
									<path style="fill:#B87D3D;" d="M159.901,244.584c2.369-0.336,4.767,0.406,6.532,2.021c0.199,0.182,0.502,0.198,0.689,0.021
										l0,0c0.187-0.176,0.166-0.502-0.06-0.709c-1.97-1.804-4.647-2.632-7.291-2.256c-0.304,0.043-0.505,0.299-0.45,0.551l0,0
										C159.375,244.464,159.634,244.621,159.901,244.584z"/>
								</g>
								<g>
									<path style="fill:#B87D3D;" d="M155.081,244.584c-2.369-0.336-4.767,0.406-6.532,2.021
										c-0.199,0.182-0.502,0.198-0.689,0.021l0,0c-0.187-0.176-0.166-0.502,0.061-0.709c1.97-1.804,4.647-2.632,7.291-2.256
										c0.304,0.043,0.505,0.299,0.45,0.551l0,0C155.607,244.464,155.347,244.621,155.081,244.584z"/>
								</g>
							</g>
							<g>
								<path style="fill:#EEA57D;" d="M150.274,241.366c4.531-2.311,9.897-2.311,14.428,0c0.242,0.123,0.537,0.048,0.662-0.176l0,0
									c0.125-0.224,0.02-0.522-0.239-0.654c-4.796-2.446-10.478-2.446-15.274,0c-0.259,0.132-0.364,0.429-0.239,0.654l0,0
									C149.737,241.414,150.032,241.489,150.274,241.366z"/>
							</g>
							<g>
								<g>
									<path style="fill:#E74C3C;" d="M143.582,247.725v1.186c0,0.003,0.002,0.006,0.005,0.006c0.095,0,1.367,0,2.172,0
										c0.296,0,0.527,0.271,0.462,0.56c-0.072,0.326-0.085,0.673-0.023,1.033c0.225,1.295,1.388,2.218,2.702,2.218h4.55
										c1.346,0,2.529-0.967,2.72-2.299c0.038-0.266,0.035-0.524-0.002-0.771c-0.081-0.537,0.299-1.028,0.836-1.106
										c0.31-0.045,0.624-0.048,0.935-0.01c0.559,0.068,0.943,0.578,0.864,1.136c-0.034,0.238-0.036,0.486-0.001,0.74
										c0.185,1.338,1.371,2.31,2.721,2.31h4.548c1.338,0,2.516-0.956,2.715-2.279c0.048-0.318,0.037-0.627-0.021-0.918
										c-0.064-0.318,0.182-0.614,0.506-0.614h1.717c0.003,0,0.006-0.003,0.006-0.006v-1.186c0-0.003-0.003-0.006-0.006-0.006
										h-3.53c-0.001,0-0.002,0-0.003-0.001c-0.39-0.222-0.84-0.35-1.319-0.35h-4.68c-0.664,0-1.271,0.244-1.74,0.646
										c-0.002,0.002-0.004,0.002-0.006,0.001c-1.378-0.75-3.043-0.747-4.419,0.009c0.008,0.014,0.015,0.028,0.023,0.042
										c-0.476-0.432-1.105-0.697-1.797-0.697h-4.681c-0.48,0-0.929,0.128-1.319,0.35c-0.001,0.001-0.002,0.001-0.003,0.001
										h-3.929C143.584,247.719,143.582,247.722,143.582,247.725z M159.481,249.954c0.05-1.066,0.972-1.884,2.039-1.884h4.618
										c1.122,0,2.029,0.939,1.976,2.072c-0.05,1.066-0.972,1.884-2.039,1.884h-4.618
										C160.335,252.026,159.428,251.087,159.481,249.954z M146.862,249.954c0.05-1.066,0.972-1.884,2.038-1.884h4.618
										c1.122,0,2.029,0.939,1.976,2.072c-0.05,1.066-0.972,1.884-2.039,1.884h-4.618
										C147.716,252.026,146.809,251.087,146.862,249.954z"/>
								</g>
							</g>
							<g>
								<path style="fill:#EEA57D;" d="M155.947,252.544l0.266-3.646c0-1.028,2.621-1.028,2.621,0l0.266,3.646
									c0.447,0.089,0.788,0.547,0.788,1.1v0.093c0,0.606-0.41,1.099-0.92,1.115c-0.243,0.658-0.798,1.118-1.445,1.118l0,0
									c-0.647,0-1.202-0.46-1.445-1.118c-0.51-0.017-0.919-0.509-0.919-1.115v-0.093
									C155.159,253.09,155.5,252.632,155.947,252.544z"/>
							</g>
						</g>
						<g>
							<g>
								<path style="fill:#2980B9;" d="M164.703,355.793h-24.286c-3.194,0-5.784-2.59-5.784-5.784v-58.904
									c0-3.195,2.59-5.784,5.784-5.784h24.286c3.195,0,5.784,2.59,5.784,5.784v58.904
									C170.487,353.203,167.898,355.793,164.703,355.793z"/>
							</g>
							<g>
								<path style="fill:#E74C3C;" d="M160.102,290.881l-3.329-0.012c-0.269-0.001-0.491,0.21-0.503,0.479l-2.066,44.904
									c-0.005,0.104,0.023,0.208,0.08,0.295l3.739,5.783c0.199,0.307,0.649,0.305,0.845-0.004l3.747-5.905
									c0.055-0.087,0.082-0.189,0.078-0.292l-2.09-44.77C160.589,291.092,160.369,290.882,160.102,290.881z"/>
							</g>
							<g>
								<g>
									<path style="fill:#E74C3C;" d="M218.65,412.384c-0.156,3.694-0.323,7.518-0.501,11.512l-5.825-0.26
										c0.178-3.995,0.345-7.818,0.501-11.512L218.65,412.384z"/>
								</g>
								<g>
									<path style="fill:#1B2123;" d="M211.802,422.473c0.118-0.022,0.239-0.032,0.361-0.026c1.16,0.064,2.004,1.361,3.165,1.329
										c0.636-0.017,1.18-0.435,1.769-0.673c1.086-0.438,3.155-0.059,3.93,1.067c5.427,2.167,14.113,7.72,10.822,8.698l0,0
										c-6.88,0.786-21.044-2.819-21.044-2.819c-0.749-0.1-1.275-0.789-1.175-1.539l0.651-4.862
										C210.381,422.907,211.06,422.384,211.802,422.473z"/>
								</g>
								<g>
									<g>
										<path style="fill:#2B3342;" d="M159.922,367.163c10.781,0.071,21.617,0.732,32.252,2.574
											c3.724,0.645,7.444,1.399,11.074,2.458c1.719,0.501,5.085,1.154,6.389,2.518c2.953,3.09,2.107,11.304,2.16,15.337
											c0.102,7.724-0.329,15.455-0.953,23.151c-0.491,6.053,8.949,6.021,9.437,0c0.726-8.963,1.245-18.008,0.848-27.001
											c-0.255-5.763-0.287-13.845-4.819-18.161c-4.878-4.645-13.569-5.915-19.855-7.086c-12.029-2.241-24.31-3.148-36.533-3.228
											C153.849,357.686,153.842,367.123,159.922,367.163L159.922,367.163z"/>
									</g>
								</g>
								<g>
									<path style="fill:#E74C3C;" d="M196.849,415.398c-1.152,3.514-2.35,7.149-3.604,10.945l-5.537-1.83
										c1.255-3.797,2.452-7.432,3.604-10.945L196.849,415.398z"/>
								</g>
								<g>
									<path style="fill:#1B2123;" d="M187.521,423.252c0.12,0.011,0.239,0.033,0.355,0.073c1.099,0.376,1.56,1.853,2.686,2.138
										c0.617,0.156,1.253-0.099,1.885-0.168c1.164-0.127,3.052,0.799,3.493,2.093c4.636,3.557,11.49,11.257,8.057,11.307l0,0
										c-6.835-1.11-19.491-8.421-19.491-8.421c-0.694-0.3-1.014-1.106-0.714-1.8l1.945-4.503
										C186.035,423.284,186.83,422.965,187.521,423.252z"/>
								</g>
								<g>
									<path style="fill:#2E3D4C;" d="M166.564,370.776h-16.971c-8.643,0-15.65-7.007-15.65-15.65l0,0
										c0-2.5,2.027-4.527,4.527-4.527h28.094c2.5,0,4.527,2.027,4.527,4.527v11.123
										C171.091,368.75,169.064,370.776,166.564,370.776z"/>
								</g>
								<g>
									<polygon style="fill:#C9241C;" points="154.261,285.256 156.337,290.864 160.523,290.885 162.633,285.297 									"/>
								</g>
								<g>
									<path style="fill:#2B3342;" d="M171.568,356.134h-37.972v-4.033c0-1.036,0.84-1.876,1.876-1.876h34.33
										c1.036,0,1.876,0.84,1.876,1.876v3.923C171.678,356.085,171.629,356.134,171.568,356.134z"/>
								</g>
								<g>
									<path style="fill:#9A9E9C;" d="M162.097,356.697h-7.035c-0.699,0-1.266-0.567-1.266-1.266v-4.409
										c0-0.699,0.567-1.266,1.266-1.266h7.035c0.699,0,1.266,0.567,1.266,1.266v4.409
										C163.363,356.13,162.796,356.697,162.097,356.697z"/>
								</g>
								<g>
									<path style="fill:#186E9E;" d="M154.481,290.422l-6.24-4.407c-0.172-0.11-0.274-0.281-0.276-0.463l-0.038-4.86
										c-0.004-0.489,0.666-0.768,1.128-0.469l7.753,5.003c0.172,0.111,0.273,0.283,0.273,0.466l-1.475,4.264
										C155.607,290.441,154.943,290.717,154.481,290.422z"/>
								</g>
								<g>
									<path style="fill:#186E9E;" d="M161.681,290.424l2.668-4.418c0.074-0.111,0.117-0.282,0.116-0.464l-0.013-4.86
										c-0.001-0.489-0.292-0.767-0.49-0.467l-3.318,5.018c-0.074,0.111-0.116,0.284-0.115,0.466l0.663,4.261
										C161.195,290.446,161.484,290.72,161.681,290.424z"/>
								</g>
								<g>
									<g>
										<path style="fill:#2E3D4C;" d="M146.982,370.858c9.609,0.064,19.258,0.603,28.731,2.29
											c4.672,0.832,12.391,1.543,16.249,4.722c2.906,2.394,1.751,8.546,1.458,12.127c-0.694,8.455-2.62,16.839-4.936,24.982
											c-1.849,6.502,8.266,9.277,10.111,2.788c2.715-9.55,4.801-19.44,5.429-29.369c0.381-6.035,0.524-13.566-4.398-17.904
											c-4.865-4.288-12.518-5.764-18.657-6.989c-11.173-2.229-22.611-3.055-33.987-3.131
											C140.234,360.328,140.226,370.813,146.982,370.858L146.982,370.858z"/>
									</g>
								</g>
							</g>
						</g>
					</g>
					<g>
						<g>
							<g>
								<path style="fill:#186E9E;" d="M138.428,287.109c-9.26,5.673-18.499,12.967-23.059,23.116
									c-3.183,7.085-4.159,16.144,0.937,22.587c6.559,8.293,19.739,10.029,29.672,9.49c4.371-0.237,4.399-7.069,0-6.83
									c-7.083,0.385-15.965-0.318-21.87-4.589c-5.875-4.25-5.266-11.904-2.521-17.942c3.992-8.779,12.303-15.043,20.288-19.935
									C145.617,290.714,142.19,284.804,138.428,287.109L138.428,287.109z"/>
							</g>
						</g>
					</g>
				</g>
			</g>
			<g>
				<path style="fill:#FDD4B6;" d="M145.361,341.837h19.394c0.636-1.099,0.659-2.408-0.797-3.807
					c-1.861-1.789-19.565-2.877-18.879,2.588C145.132,341.041,145.228,341.45,145.361,341.837z"/>
			</g>
		</g>
	</g>
	<g>
		<path style="fill:#4B4F4E;" d="M350.489,343.037H145.422c-1.373,0-2.486,1.113-2.486,2.486l0,0c0,1.373,1.113,2.486,2.486,2.486
			h10.508c1.373,0,2.486,1.113,2.486,2.486v90.388c0,1.373,1.113,2.486,2.486,2.486h1.356c1.373,0,2.486-1.113,2.486-2.486v-90.388
			c0-1.373,1.113-2.486,2.486-2.486h161.455c1.373,0,2.486,1.113,2.486,2.486v90.388c0,1.373,1.113,2.486,2.486,2.486h1.356
			c1.373,0,2.486-1.113,2.486-2.486v-90.388c0-1.373,1.113-2.486,2.486-2.486h10.508c1.373,0,2.486-1.113,2.486-2.486l0,0
			C352.975,344.15,351.862,343.037,350.489,343.037z"/>
	</g>
	<g>
		<g>
			<path style="fill:#9A9E9C;" d="M216.216,343.037H168.57l5.645-31.559c0.281-1.569,1.646-2.712,3.24-2.712h44.89L216.216,343.037z
				"/>
		</g>
		<g>
			<path style="fill:#9A9E9C;" d="M190.582,339.415h-47.645l0,0c0,2,1.622,3.622,3.622,3.622h44.023V339.415z"/>
		</g>
		<g>
			<path style="fill:#AFB5B3;" d="M215.797,343.037h-44.441l6.13-34.271h45.454c1.143,0,2.007,1.033,1.806,2.158l-5.18,28.959
				C219.24,341.708,217.652,343.037,215.797,343.037z"/>
		</g>
		<g>
			<path style="fill:#4B4F4E;" d="M203.376,325.708c-0.462,2.231-2.594,4.04-4.762,4.04s-3.602-1.809-3.203-4.04
				c0.398-2.231,2.53-4.04,4.762-4.04C202.404,321.668,203.838,323.476,203.376,325.708z"/>
		</g>
	</g>
	<g>
		<g>
			<g>
				<path style="fill:#EEA57D;" d="M308.852,414.089c0.864,3.595,1.274,4.939,2.216,8.823l5.05-1.601
					c-0.943-3.885-1.303-4.916-2.166-8.51L308.852,414.089z"/>
			</g>
			<g>
				<path style="fill:#1B2123;" d="M316.352,420.079c-0.109-0.001-4.037,2.015-5.334,2.582c-6.503,3.75-12.914,13.478-9.812,13.854
					l0,0c6.239-0.449,18.489-10.183,18.253-10.9l-1.531-4.651C317.504,419.7,316.991,419.86,316.352,420.079z"/>
			</g>
			<g>
				<path style="fill:#EEA57D;" d="M304.222,431.719c0.533,0.03,1.061-0.21,1.566-0.464c4.406-2.216,8.43-5.822,11.611-10.406
					c0.098-0.141,0.196-0.29,0.286-0.445c-0.374-0.642-0.812-0.504-1.333-0.324c-0.109-0.001-4.037,2.015-5.334,2.582
					c-3.048,1.758-6.076,4.829-8.114,7.635c0.007,0.131,0.026,0.26,0.061,0.387C303.143,431.327,303.689,431.689,304.222,431.719z"
					/>
			</g>
			<g>
				<polygon style="fill:#2C3E50;" points="336.923,284.088 352.171,284.088 352.11,281.621 336.731,281.621 				"/>
			</g>
			<g>
				<g>
					<path style="fill:#186E9E;" d="M332.115,288.053c-11.792,11.672-22.76,24.224-33.735,36.658
						c-1.076,1.219-2.15,2.438-3.221,3.661c-2.713,3.101,1.815,7.665,4.545,4.545c8.946-10.227,18.011-20.362,27.289-30.289
						c3.17-3.392,6.367-6.763,9.667-10.03C339.604,289.684,335.059,285.139,332.115,288.053L332.115,288.053z"/>
				</g>
			</g>
			<g>
				<path style="fill:#2980B9;" d="M359.047,285.632h-21.998c-2.339,0-4.32,1.693-4.993,4.029
					c-2.754,7.994-9.607,24.726-0.42,28.223c0.058,0.022,0.115,0.043,0.173,0.064l0.941,32.364c0,0,31.536,0,31.536,0.008v-58.903
					C364.287,288.221,361.941,285.632,359.047,285.632z"/>
			</g>
			<g>
				<g>
					<g>
						<path style="fill:#186E9E;" d="M359.053,293.143c6.773,4.077,13.454,9.094,17.914,15.733c1.901,2.83,3.363,5.872,4.086,9.215
							c0.335,1.552,0.452,3.119,0.407,4.707c-0.009,0.316-0.026,0.632-0.047,0.948c-0.002,0.03-0.145,1.094-0.038,0.447
							c-0.102,0.618-0.251,1.23-0.444,1.825c-0.093,0.289-0.194,0.578-0.312,0.857c0.214-0.503,0-0.034-0.045,0.054
							c-0.273,0.532-0.573,1.037-0.897,1.539c-0.106,0.164-0.225,0.327-0.343,0.483c0.4-0.528-0.209,0.232-0.246,0.271
							c-0.408,0.44-0.818,0.873-1.264,1.277c-0.892,0.808-1.086,0.94-2.307,1.691c-1.038,0.639-2.125,1.195-3.238,1.69
							c-0.557,0.248,0.689-0.274-0.272,0.117c-0.3,0.122-0.602,0.239-0.906,0.352c-0.507,0.19-1.018,0.368-1.532,0.537
							c-1.224,0.403-2.466,0.749-3.718,1.051c-1.009,0.244-2.025,0.458-3.045,0.648c-0.585,0.109-1.171,0.209-1.758,0.302
							c-0.19,0.03-0.38,0.059-0.57,0.088c-0.141,0.021-1.343,0.182-0.527,0.078c-2.575,0.33-5.189,0.576-7.789,0.576
							c-4.135-0.001-4.142,6.426,0,6.427c7.714,0.001,15.833-1.371,22.918-4.433c4.98-2.152,9.521-5.619,11.619-10.761
							c2.712-6.646,0.699-14.69-2.642-20.719c-4.891-8.824-13.255-15.43-21.759-20.55
							C358.744,285.455,355.509,291.01,359.053,293.143L359.053,293.143z"/>
					</g>
				</g>
			</g>
			<g>
				<g>
					
						<ellipse transform="matrix(0.2091 -0.9779 0.9779 0.2091 16.4286 531.2584)" style="fill:#CD5926;" cx="336.656" cy="255.472" rx="14.615" ry="14.615"/>
				</g>
				<g>
					
						<ellipse transform="matrix(0.3861 -0.9224 0.9224 0.3861 -21.6985 478.3397)" style="fill:#CD5926;" cx="348.539" cy="255.472" rx="14.615" ry="14.615"/>
				</g>
				<g>
					<path style="fill:#EEA57D;" d="M348.66,271.178h-9.897l-0.013,13.663l2.914,2.399l0.766,2.425
						c0.096,0.305,0.514,0.341,0.661,0.055l1.316-2.566l4.285-1.8L348.66,271.178z"/>
				</g>
				<g>
					<path style="fill:#EEA57D;" d="M358.184,265.165h-31.145c-2.099,0-3.8-1.701-3.8-3.8v-0.08c0-2.099,1.701-3.8,3.8-3.8h31.145
						c2.099,0,3.8,1.701,3.8,3.8v0.08C361.983,263.464,360.282,265.165,358.184,265.165z"/>
				</g>
				<g>
					<g>
						<path style="fill:#E74C3C;" d="M327.817,265.502c0,0.781-0.633,1.414-1.414,1.414c-0.781,0-1.414-0.633-1.414-1.414
							c0-0.781,0.633-1.414,1.414-1.414C327.184,264.088,327.817,264.721,327.817,265.502z"/>
					</g>
					<g>
						<path style="fill:#E74C3C;" d="M359.323,265.098c0,0.781-0.633,1.414-1.414,1.414c-0.781,0-1.414-0.633-1.414-1.414
							c0-0.781,0.633-1.414,1.414-1.414C358.691,263.684,359.323,264.317,359.323,265.098z"/>
					</g>
				</g>
				<g>
					<path style="fill:#CD5926;" d="M350.572,238.438c0,4.648-3.768,8.415-8.415,8.415c-4.648,0-8.415-3.768-8.415-8.415
						c0-4.648,3.768-8.415,8.415-8.415C346.804,230.023,350.572,233.791,350.572,238.438z"/>
				</g>
				<g>
					<path style="fill:#F6C09C;" d="M346.229,280.38h-4.342c-8.44,0-15.282-6.842-15.282-15.282v-15.484
						c0-4.573,3.707-8.281,8.281-8.281h14.542c4.573,0,8.281,3.707,8.281,8.281v19.288
						C357.708,275.241,352.569,280.38,346.229,280.38z"/>
				</g>
				<g>
					<path style="fill:#F0FFE1;" d="M337.106,265.162c-0.172,0-0.299,0.246-0.262,0.505c0.396,2.792,2.012,4.884,3.945,4.884h2.06
						c1.934,0,3.55-2.091,3.945-4.884c0.037-0.259-0.09-0.505-0.262-0.505H337.106z"/>
				</g>
				<g>
					<g>
						<g>
							<path style="fill:#143A12;" d="M338.322,259.583c0,0.967-0.784,1.752-1.752,1.752c-0.968,0-1.752-0.784-1.752-1.752
								c0-0.968,0.784-1.752,1.752-1.752C337.538,257.831,338.322,258.616,338.322,259.583z"/>
						</g>
						<g>
							<circle style="fill:#FCFBFA;" cx="336.031" cy="259.044" r="0.674"/>
						</g>
					</g>
					<g>
						<g>
							<path style="fill:#143A12;" d="M349.654,259.583c0,0.967-0.784,1.752-1.752,1.752s-1.752-0.784-1.752-1.752
								c0-0.968,0.784-1.752,1.752-1.752S349.654,258.616,349.654,259.583z"/>
						</g>
						<g>
							<circle style="fill:#FCFBFA;" cx="347.363" cy="259.044" r="0.674"/>
						</g>
					</g>
				</g>
				<g>
					<path style="fill:#CD5926;" d="M338.985,255.981c-1.838-0.505-3.813-0.168-5.38,0.919c-0.176,0.122-0.418,0.104-0.547-0.053
						l0,0c-0.129-0.157-0.078-0.41,0.122-0.549c1.749-1.213,3.953-1.59,6.005-1.026c0.236,0.065,0.368,0.286,0.298,0.477l0,0
						C339.414,255.941,339.192,256.038,338.985,255.981z"/>
				</g>
				<g>
					<path style="fill:#CD5926;" d="M345.219,255.981c1.838-0.505,3.813-0.168,5.379,0.919c0.176,0.122,0.418,0.104,0.548-0.053l0,0
						c0.129-0.157,0.078-0.41-0.123-0.549c-1.749-1.213-3.953-1.59-6.005-1.026c-0.236,0.065-0.368,0.286-0.298,0.477l0,0
						C344.79,255.941,345.012,256.038,345.219,255.981z"/>
				</g>
				<g>
					<path style="fill:#EEA57D;" d="M342.084,263.814c-0.163,0.006-0.327,0.006-0.49,0c-1.198-0.079-1.964-1.159-1.705-1.942
						c0.149-0.531,0.299-1.061,0.41-1.598c0.204-0.848,0.723-1.572,1.399-1.572c0.094,0,0.188,0,0.282,0
						c0.676,0,1.194,0.723,1.399,1.572c0.111,0.537,0.261,1.068,0.41,1.598C344.048,262.655,343.282,263.735,342.084,263.814z"/>
				</g>
				<g>
					<path style="fill:#CD5926;" d="M349.562,241.333h-3.703h-3.635h-3.905h-3.433c-4.573,0-8.281,3.707-8.281,8.281v7.797
						c5.875-0.721,14.103-6.287,15.434-14.084c0.011-0.063,0.065-0.109,0.128-0.109h0.11c0.066,0,0.122,0.048,0.133,0.113
						c1.332,7.795,9.559,13.359,15.433,14.08v-7.797C357.842,245.04,354.135,241.333,349.562,241.333z"/>
				</g>
			</g>
			<g>
				<path style="fill:#186E9E;" d="M347.373,290.42l5.212-4.359c0.172-0.083,0.274-0.212,0.276-0.35l0.038-3.673
					c0.004-0.37-0.665-0.58-1.128-0.355l-7.068,5.152c-0.172,0.084-0.273,0.214-0.273,0.352l1.818,2.88
					C346.247,290.435,346.912,290.643,347.373,290.42z"/>
			</g>
			<g>
				<path style="fill:#186E9E;" d="M339.306,289.822l-2.839-3.768c-0.074-0.084-0.117-0.213-0.116-0.35l0.013-3.673
					c0.001-0.37,0.292-0.579,0.49-0.353l4.518,5.249c0.074,0.084,0.116,0.214,0.115,0.352l-1.548,2.275
					C339.682,289.897,339.503,290.046,339.306,289.822z"/>
			</g>
			<g>
				<path style="fill:#EEA57D;" d="M288.865,410.553c0.141,3.694,0.278,5.093,0.439,9.087l5.267-0.577
					c-0.161-3.995-0.311-5.076-0.452-8.77L288.865,410.553z"/>
			</g>
			<g>
				<path style="fill:#1B2123;" d="M295.041,417.9c-0.107-0.022-4.354,1.182-5.737,1.483c-7.113,2.4-15.311,10.677-12.343,11.656
					l0,0c6.205,0.786,20.13-6.351,20.039-7.1l-0.588-4.861C296.245,417.754,295.71,417.81,295.041,417.9z"/>
			</g>
			<g>
				<g>
					<path style="fill:#2B3342;" d="M341.829,356.126c-8.895,0.029-17.773,0.726-26.566,2.073
						c-6.665,1.021-13.412,2.376-19.609,5.112c-1.88,0.83-3.788,1.881-5.184,3.422c-1.504,1.66-2.3,3.829-2.795,5.982
						c-1.314,5.714-1.387,11.776-1.384,17.611c0.004,7.021,0.349,14.043,0.87,21.044c0.18,2.417,1.933,4.487,4.487,4.487
						c2.289,0,4.668-2.057,4.487-4.487c-0.437-5.858-0.741-11.728-0.839-17.602c-0.051-3.046-0.047-6.094,0.062-9.138
						c0.048-1.321,0.115-2.642,0.214-3.96c0.046-0.613,0.099-1.226,0.16-1.838c0.033-0.325,0.073-0.649,0.105-0.974
						c0.099-0.994-0.132,0.754,0.034-0.284c0.157-0.979,0.32-1.955,0.562-2.917c0.092-0.367,0.192-0.732,0.309-1.092
						c0.062-0.193,0.179-0.411,0.213-0.611c0.069-0.412-0.567,0.977-0.08,0.213c0.043-0.067,0.398-0.804,0.468-0.779
						c-0.672-0.241-0.562,1.087-0.257,0.398c0.064-0.144,0.299-0.249,0.4-0.364c-0.563,0.637-0.491,0.353,0.096-0.021
						c0.451-0.288,0.923-0.543,1.4-0.783c0.238-0.119,1.634-0.735,0.616-0.314c0.523-0.216,1.053-0.418,1.585-0.61
						c1.28-0.462,2.582-0.864,3.893-1.23c3.184-0.89,6.426-1.57,9.681-2.139c8.924-1.56,18.017-2.197,27.07-2.226
						C347.603,365.081,347.614,356.107,341.829,356.126L341.829,356.126z"/>
				</g>
			</g>
			<g>
				<path style="fill:#2E3D4C;" d="M336.056,368.945h14.341c8.208,0,14.862-6.654,14.862-14.862v-3.91
					c0-0.776-0.629-1.404-1.404-1.404h-31.126c-0.537,0-0.972,0.435-0.972,0.972v14.906
					C331.757,367.02,333.682,368.945,336.056,368.945z"/>
			</g>
			<g>
				<g>
					<path style="fill:#2E3D4C;" d="M353.499,359.297c-8.242,0.027-16.474,0.651-24.613,1.968
						c-6.017,0.973-12.001,2.351-17.598,4.811c-3.945,1.734-7.172,4.266-8.294,8.598c-1.405,5.428-0.868,11.439-0.27,16.938
						c0.885,8.133,2.396,16.206,4.46,24.122c1.456,5.584,10.113,3.216,8.653-2.386c-0.83-3.182-1.567-6.386-2.211-9.611
						c-0.595-2.98-1.222-6.597-1.578-9.22c-0.399-2.94-0.689-5.901-0.826-8.865c-0.058-1.259-0.087-2.52-0.066-3.78
						c0.01-0.604,0.03-1.208,0.066-1.811c0.015-0.253,0.032-0.505,0.053-0.758c0.011-0.14,0.133-1.348,0.05-0.651
						c-0.07,0.595,0.144-0.822,0.186-1.015c0.081-0.378,0.199-0.745,0.288-1.121c0.257-1.084-0.334,0.337,0.004-0.106
						c0.095-0.125,0.208-0.342,0.27-0.489c0.347-0.816-0.23,0.431-0.281,0.34c-0.035-0.064,0.612-0.597,0.671-0.657
						c0.605-0.616-0.874,0.53,0.154-0.094c0.75-0.456,1.498-0.894,2.291-1.274c0.296-0.142,1.388-0.6,0.48-0.234
						c0.517-0.208,1.035-0.41,1.559-0.6c1.236-0.449,2.492-0.843,3.757-1.203c2.766-0.785,5.579-1.401,8.408-1.913
						c7.96-1.442,16.194-1.99,24.386-2.017C359.273,368.251,359.284,359.278,353.499,359.297L353.499,359.297z"/>
				</g>
			</g>
			<g>
				<path style="fill:#EEA57D;" d="M280.86,426.929c0.517,0.134,1.081,0.003,1.627-0.147c4.756-1.307,9.409-4.052,13.429-7.922
					c0.123-0.119,0.249-0.246,0.368-0.381c-0.24-0.703-0.697-0.653-1.244-0.58c-0.107-0.022-4.354,1.182-5.737,1.483
					c-3.334,1.125-6.907,3.541-9.456,5.892c-0.019,0.129-0.026,0.26-0.016,0.391C279.88,426.332,280.343,426.794,280.86,426.929z"/>
			</g>
		</g>
		<g>
			<path style="fill:#FDD4B6;" d="M331.577,341.837h19.394c0.636-1.099,0.659-2.408-0.797-3.807
				c-1.861-1.789-19.565-2.877-18.879,2.588C331.348,341.041,331.443,341.45,331.577,341.837z"/>
		</g>
	</g>
	<g>
		<g>
			<path style="fill:#9A9E9C;" d="M278.869,343.037h47.646l-5.645-31.559c-0.281-1.569-1.646-2.712-3.24-2.712h-44.89
				L278.869,343.037z"/>
		</g>
		<g>
			<path style="fill:#9A9E9C;" d="M304.503,339.415h47.646l0,0c0,2-1.622,3.622-3.622,3.622h-44.023V339.415z"/>
		</g>
		<g>
			<path style="fill:#AFB5B3;" d="M279.287,343.037h44.441l-6.13-34.271h-45.454c-1.142,0-2.007,1.033-1.806,2.158l5.18,28.959
				C275.845,341.708,277.433,343.037,279.287,343.037z"/>
		</g>
		<g>
			<path style="fill:#4B4F4E;" d="M291.708,325.708c0.462,2.231,2.594,4.04,4.762,4.04c2.168,0,3.602-1.809,3.203-4.04
				c-0.398-2.231-2.53-4.04-4.762-4.04C292.68,321.668,291.246,323.476,291.708,325.708z"/>
		</g>
	</g>
	<g>
		<g>
			<path style="fill:#3498DB;" d="M318.432,270.01c0,0.633-0.517,1.15-1.149,1.139c-1.159-0.02-2.222-0.072-3.225-0.156
				c-16.797-1.408-16.793-12.09-16.784-43.799V189.2c0-0.629,0.51-1.139,1.139-1.139h0c0.629,0,1.139,0.51,1.139,1.139
				l-0.001,37.995c-0.009,31.76-0.011,40.297,14.699,41.53c0.947,0.079,1.954,0.128,3.055,0.147
				C317.928,268.882,318.432,269.385,318.432,270.01L318.432,270.01z"/>
		</g>
		<g>
			<path style="fill:#2980B9;" d="M182.872,264.888L182.872,264.888c0-0.626,0.504-1.128,1.128-1.139
				c1.101-0.019,2.108-0.068,3.056-0.147c14.711-1.233,14.708-9.769,14.699-41.529l0-49.378c0-0.629,0.509-1.138,1.138-1.138l0,0
				c0.629,0,1.138,0.51,1.138,1.138l0.001,49.377c0.009,31.709,0.013,42.391-16.785,43.799c-1.003,0.084-2.067,0.136-3.226,0.156
				C183.388,266.037,182.872,265.52,182.872,264.888z"/>
		</g>
		<g>
			<g>
				<path style="fill:#2980B9;" d="M234.893,97.377h-48.356c-22.44,0-40.8,18.36-40.8,40.8v0c0,22.44,18.36,40.8,40.8,40.8h31.856
					h6.266h10.234c22.44,0,40.8-18.36,40.8-40.8v0C275.694,115.738,257.334,97.377,234.893,97.377z"/>
			</g>
			<g>
				<path style="fill:#2C3E50;" d="M287.792,70.289h-36.855c-28.648,0-52.087,21.743-52.087,48.318v0
					c0,26.575,23.439,48.318,52.087,48.318h12.276h10.121h14.458c28.648,0,52.087-21.743,52.087-48.318v0
					C339.879,92.032,316.44,70.289,287.792,70.289z"/>
			</g>
			<g>
				<path style="fill:#3498DB;" d="M301.072,102.664h-48.687c-24.383,0-44.332,19.949-44.332,44.332v0
					c0,24.383,19.949,44.332,44.332,44.332h28.496h7.64h12.551c24.383,0,44.332-19.949,44.332-44.332v0
					C345.403,122.613,325.454,102.664,301.072,102.664z"/>
			</g>
			<g>
				<g>
					<path style="fill:#E5C53E;" d="M225.396,123.415c0.094,0.047,0.616,0.088,1.446,0.123h28.774
						c0.83-0.036,1.352-0.076,1.446-0.123c4.405-2.185-0.398-7.7,3.993-16.226c3.649-7.084,12.214-9.848,12.376-24.414
						c0.108-9.687-3.735-17.786-11.466-23.912c-5.782-4.581-13.285-7.008-20.737-6.907c-7.453-0.1-14.956,2.326-20.738,6.907
						c-7.731,6.126-11.574,14.225-11.466,23.912c0.163,14.566,8.727,17.33,12.376,24.414
						C225.795,115.714,220.991,121.229,225.396,123.415z"/>
				</g>
				<g>
					<path style="fill:#ECF0F1;" d="M227.303,126.323v13.985c0,6.121,4.962,11.083,11.084,11.083h5.687
						c6.121,0,11.083-4.962,11.083-11.083v-13.985H227.303z"/>
				</g>
				<g>
					<g>
						<path style="fill:#E5C53E;" d="M241.975,43.752V21.616c0-0.611-0.495-1.107-1.106-1.107h-0.028
							c-0.611,0-1.106,0.495-1.106,1.107l0,22.136c0,0.611,0.496,1.107,1.107,1.106c0.009,0,0.019,0,0.028,0
							C241.48,44.858,241.975,44.362,241.975,43.752z"/>
					</g>
					<g>
						<path style="fill:#E5C53E;" d="M203.519,83.21c-0.004-0.608-0.497-1.099-1.105-1.099l-23.199,0c-0.619,0-1.12,0.502-1.12,1.12
							l0,0c0,0.619,0.502,1.12,1.12,1.12h23.199c0.614,0,1.109-0.5,1.105-1.113C203.519,83.229,203.519,83.219,203.519,83.21z"/>
					</g>
					<g>
						<path style="fill:#E5C53E;" d="M213.907,54.709l-15.865-15.865c-0.423-0.423-1.108-0.423-1.53,0l-0.054,0.054
							c-0.422,0.423-0.422,1.108,0,1.53l15.865,15.865c0.432,0.432,1.129,0.415,1.554-0.024c0.01-0.011,0.021-0.022,0.032-0.033
							C214.323,55.809,214.328,55.131,213.907,54.709z"/>
					</g>
					<g>
						<path style="fill:#E5C53E;" d="M269.561,56.089c9.593-9.584,13.974-13.95,15.668-15.63c0.425-0.421,0.429-1.105,0.011-1.534
							l-0.043-0.044c-0.423-0.433-1.115-0.44-1.545-0.014c-1.703,1.689-6.09,6.062-15.674,15.636c-0.427,0.427-0.423,1.116,0,1.547
							c0.007,0.007,0.014,0.015,0.022,0.022C268.427,56.51,269.128,56.522,269.561,56.089z"/>
					</g>
					<g>
						<path style="fill:#E5C53E;" d="M278.544,83.215c0,0.009,0,0.019,0,0.028c-0.004,0.613,0.497,1.113,1.11,1.113
							c14.024,0.006,20.377,0.016,22.814,0.027c0.607,0.003,1.102-0.485,1.109-1.093l0-0.029c0.007-0.614-0.485-1.116-1.099-1.118
							c-2.45-0.01-8.812-0.021-22.822-0.027C279.047,82.116,278.547,82.607,278.544,83.215z"/>
					</g>
				</g>
			</g>
		</g>
		<path style="fill:#2C3E50;" d="M289.446,191.404h-2.288l-0.03,4.391l0.001,2.373c0.009,31.761,0.011,40.296-14.699,41.529
			c-0.94,0.078-1.967,0.128-3.064,0.148c-0.62,0.011-1.12,0.51-1.12,1.13v0.018c0,0.628,0.513,1.141,1.141,1.13
			c1.157-0.02,2.223-0.072,3.234-0.157c16.797-1.407,16.793-12.089,16.784-43.798L289.446,191.404z"/>
	</g>
</g>
<g id="DESIGNED_BY_FREEPIK">
	<g>
		<g>
			<path style="fill:#808080;" d="M180.308,472.293v-0.161c-0.218,0.249-0.432,0.452-0.644,0.608
				c-0.212,0.157-0.441,0.276-0.689,0.357c-0.247,0.082-0.517,0.122-0.81,0.122c-0.388,0-0.747-0.082-1.078-0.246
				c-0.33-0.164-0.616-0.399-0.857-0.704c-0.242-0.305-0.425-0.662-0.549-1.074c-0.124-0.412-0.187-0.857-0.187-1.335
				c0-1.013,0.247-1.804,0.742-2.369c0.495-0.565,1.146-0.848,1.953-0.848c0.467,0,0.861,0.081,1.181,0.24
				c0.321,0.16,0.633,0.408,0.938,0.739v-2.392c0-0.333,0.066-0.583,0.199-0.754c0.132-0.17,0.321-0.255,0.567-0.255
				c0.245,0,0.434,0.078,0.567,0.234c0.133,0.157,0.199,0.386,0.199,0.691v7.147c0,0.309-0.071,0.54-0.214,0.694
				c-0.143,0.154-0.326,0.231-0.552,0.231c-0.221,0-0.405-0.08-0.549-0.24C180.38,472.817,180.308,472.589,180.308,472.293z
				 M177.12,469.912c0,0.439,0.068,0.813,0.205,1.122c0.137,0.309,0.324,0.541,0.561,0.697c0.238,0.157,0.497,0.236,0.778,0.236
				c0.285,0,0.545-0.074,0.781-0.223c0.235-0.148,0.423-0.376,0.564-0.682c0.141-0.307,0.21-0.691,0.21-1.149
				c0-0.432-0.07-0.803-0.21-1.114c-0.14-0.31-0.33-0.547-0.57-0.712c-0.24-0.164-0.502-0.245-0.786-0.245
				c-0.297,0-0.562,0.084-0.796,0.252c-0.234,0.168-0.415,0.409-0.543,0.724C177.184,469.131,177.12,469.496,177.12,469.912z"/>
			<path style="fill:#808080;" d="M187.454,470.322h-3.17c0.004,0.367,0.078,0.692,0.223,0.973c0.144,0.281,0.336,0.493,0.576,0.635
				c0.24,0.143,0.504,0.213,0.793,0.213c0.194,0,0.371-0.022,0.531-0.067c0.16-0.046,0.315-0.117,0.466-0.214
				c0.15-0.097,0.289-0.201,0.415-0.312c0.126-0.111,0.29-0.262,0.493-0.452c0.083-0.071,0.202-0.107,0.357-0.107
				c0.166,0,0.3,0.046,0.403,0.137c0.103,0.092,0.155,0.219,0.155,0.386c0,0.146-0.058,0.317-0.172,0.513
				c-0.116,0.196-0.289,0.384-0.52,0.564c-0.232,0.18-0.522,0.329-0.873,0.448c-0.35,0.119-0.753,0.178-1.208,0.178
				c-1.04,0-1.85-0.297-2.428-0.891c-0.578-0.593-0.866-1.399-0.866-2.416c0-0.479,0.071-0.924,0.213-1.332
				c0.143-0.41,0.351-0.761,0.623-1.054c0.273-0.293,0.609-0.517,1.01-0.674c0.399-0.156,0.843-0.234,1.33-0.234
				c0.633,0,1.176,0.132,1.629,0.4c0.454,0.267,0.794,0.612,1.019,1.035c0.225,0.424,0.339,0.856,0.339,1.294
				c0,0.408-0.117,0.672-0.35,0.793C188.206,470.261,187.878,470.322,187.454,470.322z M184.284,469.402h2.939
				c-0.039-0.554-0.189-0.969-0.448-1.244c-0.259-0.275-0.6-0.413-1.024-0.413c-0.404,0-0.735,0.139-0.994,0.418
				C184.497,468.442,184.34,468.855,184.284,469.402z"/>
			<path style="fill:#808080;" d="M194.838,471.099c0,0.447-0.108,0.831-0.327,1.149c-0.217,0.319-0.539,0.56-0.965,0.725
				c-0.425,0.164-0.943,0.246-1.552,0.246c-0.582,0-1.08-0.089-1.496-0.267c-0.415-0.178-0.722-0.401-0.92-0.667
				c-0.198-0.268-0.297-0.535-0.297-0.805c0-0.178,0.063-0.33,0.19-0.456c0.126-0.126,0.287-0.19,0.481-0.19
				c0.17,0,0.3,0.042,0.391,0.125c0.091,0.083,0.179,0.2,0.261,0.35c0.166,0.29,0.366,0.504,0.597,0.648
				c0.231,0.142,0.547,0.214,0.947,0.214c0.324,0,0.59-0.073,0.798-0.217c0.208-0.145,0.311-0.31,0.311-0.496
				c0-0.285-0.107-0.492-0.324-0.622c-0.216-0.131-0.571-0.256-1.066-0.375c-0.558-0.138-1.012-0.284-1.362-0.436
				c-0.35-0.151-0.63-0.353-0.84-0.602c-0.21-0.25-0.315-0.557-0.315-0.92c0-0.324,0.097-0.631,0.291-0.92
				c0.194-0.288,0.48-0.519,0.859-0.691c0.377-0.173,0.833-0.259,1.367-0.259c0.42,0,0.797,0.043,1.131,0.131
				c0.335,0.086,0.614,0.204,0.837,0.35c0.224,0.146,0.394,0.308,0.51,0.486c0.117,0.178,0.175,0.352,0.175,0.523
				c0,0.185-0.062,0.338-0.186,0.457c-0.124,0.118-0.301,0.178-0.532,0.178c-0.166,0-0.308-0.048-0.424-0.143
				c-0.117-0.095-0.25-0.237-0.401-0.427c-0.123-0.158-0.266-0.285-0.433-0.38c-0.166-0.095-0.392-0.142-0.677-0.142
				c-0.293,0-0.536,0.062-0.73,0.187c-0.194,0.124-0.291,0.279-0.291,0.465c0,0.171,0.071,0.31,0.213,0.419
				c0.143,0.109,0.334,0.2,0.576,0.27c0.242,0.071,0.573,0.157,0.997,0.261c0.502,0.123,0.912,0.27,1.231,0.44
				c0.318,0.17,0.56,0.371,0.725,0.603C194.756,470.538,194.838,470.802,194.838,471.099z"/>
			<path style="fill:#808080;" d="M196.494,465.876c-0.225,0-0.418-0.07-0.579-0.208c-0.16-0.138-0.24-0.334-0.24-0.588
				c0-0.23,0.082-0.418,0.246-0.567c0.164-0.149,0.355-0.223,0.573-0.223c0.21,0,0.396,0.067,0.558,0.202
				c0.162,0.135,0.244,0.33,0.244,0.588c0,0.25-0.08,0.444-0.238,0.585C196.899,465.805,196.711,465.876,196.494,465.876z
				 M197.295,467.549v4.683c0,0.325-0.077,0.571-0.232,0.737c-0.155,0.166-0.35,0.249-0.588,0.249c-0.238,0-0.431-0.085-0.579-0.255
				c-0.149-0.17-0.222-0.414-0.222-0.73v-4.636c0-0.32,0.074-0.561,0.222-0.724c0.148-0.162,0.341-0.243,0.579-0.243
				c0.238,0,0.433,0.081,0.588,0.243C197.218,467.035,197.295,467.261,197.295,467.549z"/>
			<path style="fill:#808080;" d="M204.395,467.817v4.707c0,0.538-0.058,1.001-0.173,1.39c-0.114,0.387-0.298,0.708-0.552,0.961
				c-0.253,0.253-0.585,0.441-0.994,0.563c-0.41,0.123-0.919,0.184-1.529,0.184c-0.558,0-1.057-0.078-1.496-0.234
				c-0.439-0.157-0.777-0.358-1.015-0.605c-0.237-0.247-0.357-0.502-0.357-0.763c0-0.198,0.068-0.36,0.202-0.483
				c0.134-0.125,0.297-0.187,0.486-0.187c0.237,0,0.445,0.105,0.623,0.314c0.087,0.107,0.177,0.216,0.27,0.324
				c0.093,0.109,0.197,0.202,0.309,0.28c0.113,0.076,0.249,0.134,0.407,0.172c0.158,0.037,0.341,0.056,0.546,0.056
				c0.42,0,0.745-0.058,0.977-0.175c0.232-0.117,0.394-0.28,0.487-0.49c0.093-0.209,0.147-0.433,0.163-0.673
				c0.016-0.24,0.027-0.624,0.035-1.155c-0.25,0.349-0.537,0.615-0.864,0.797c-0.326,0.182-0.715,0.273-1.166,0.273
				c-0.542,0-1.016-0.139-1.422-0.416c-0.405-0.277-0.717-0.665-0.935-1.163c-0.218-0.499-0.326-1.074-0.326-1.727
				c0-0.486,0.066-0.927,0.198-1.318c0.133-0.393,0.322-0.723,0.567-0.992c0.245-0.269,0.528-0.472,0.849-0.608
				c0.321-0.136,0.673-0.204,1.057-0.204c0.459,0,0.857,0.089,1.193,0.264c0.336,0.177,0.649,0.453,0.938,0.829v-0.22
				c0-0.281,0.069-0.498,0.208-0.653c0.139-0.154,0.317-0.231,0.535-0.231c0.313,0,0.52,0.103,0.623,0.306
				C204.343,467.139,204.395,467.433,204.395,467.817z M199.699,469.871c0,0.657,0.143,1.154,0.43,1.49
				c0.287,0.337,0.658,0.505,1.113,0.505c0.269,0,0.523-0.073,0.762-0.217c0.24-0.145,0.435-0.362,0.585-0.653
				c0.15-0.291,0.225-0.644,0.225-1.06c0-0.66-0.145-1.176-0.436-1.543c-0.291-0.368-0.674-0.552-1.149-0.552
				c-0.463,0-0.834,0.176-1.113,0.529C199.838,468.721,199.699,469.222,199.699,469.871z"/>
			<path style="fill:#808080;" d="M206.97,467.526v0.196c0.285-0.376,0.596-0.652,0.935-0.828c0.338-0.176,0.727-0.264,1.166-0.264
				c0.428,0,0.809,0.093,1.146,0.28c0.336,0.186,0.588,0.449,0.753,0.789c0.108,0.198,0.176,0.413,0.208,0.641
				c0.032,0.23,0.048,0.522,0.048,0.879v3.015c0,0.325-0.075,0.571-0.223,0.737c-0.148,0.166-0.341,0.249-0.579,0.249
				c-0.242,0-0.437-0.085-0.588-0.255c-0.151-0.17-0.226-0.414-0.226-0.73v-2.701c0-0.534-0.074-0.943-0.223-1.226
				c-0.149-0.283-0.444-0.425-0.888-0.425c-0.288,0-0.552,0.086-0.789,0.258c-0.237,0.173-0.412,0.41-0.522,0.71
				c-0.079,0.242-0.119,0.692-0.119,1.353v2.03c0,0.328-0.077,0.576-0.228,0.74c-0.152,0.164-0.349,0.246-0.59,0.246
				c-0.234,0-0.426-0.085-0.576-0.255c-0.15-0.17-0.225-0.414-0.225-0.73v-4.683c0-0.309,0.067-0.54,0.202-0.692
				c0.135-0.152,0.319-0.228,0.552-0.228c0.143,0,0.272,0.034,0.387,0.101c0.114,0.068,0.207,0.169,0.276,0.302
				C206.935,467.167,206.97,467.332,206.97,467.526z"/>
			<path style="fill:#808080;" d="M216.829,470.322h-3.17c0.004,0.367,0.078,0.692,0.223,0.973c0.144,0.281,0.336,0.493,0.576,0.635
				c0.239,0.143,0.503,0.213,0.792,0.213c0.194,0,0.371-0.022,0.532-0.067c0.16-0.046,0.315-0.117,0.466-0.214
				c0.15-0.097,0.288-0.201,0.416-0.312c0.126-0.111,0.29-0.262,0.492-0.452c0.083-0.071,0.202-0.107,0.356-0.107
				c0.166,0,0.301,0.046,0.404,0.137c0.103,0.092,0.154,0.219,0.154,0.386c0,0.146-0.057,0.317-0.172,0.513
				c-0.115,0.196-0.288,0.384-0.52,0.564c-0.232,0.18-0.522,0.329-0.872,0.448c-0.35,0.119-0.753,0.178-1.208,0.178
				c-1.041,0-1.85-0.297-2.428-0.891c-0.577-0.593-0.866-1.399-0.866-2.416c0-0.479,0.071-0.924,0.214-1.332
				c0.143-0.41,0.351-0.761,0.624-1.054c0.273-0.293,0.609-0.517,1.009-0.674c0.399-0.156,0.843-0.234,1.33-0.234
				c0.633,0,1.176,0.132,1.629,0.4c0.454,0.267,0.793,0.612,1.019,1.035c0.225,0.424,0.338,0.856,0.338,1.294
				c0,0.408-0.117,0.672-0.35,0.793C217.581,470.261,217.253,470.322,216.829,470.322z M213.659,469.402h2.938
				c-0.039-0.554-0.189-0.969-0.448-1.244c-0.259-0.275-0.601-0.413-1.024-0.413c-0.404,0-0.736,0.139-0.995,0.418
				C213.871,468.442,213.715,468.855,213.659,469.402z"/>
			<path style="fill:#808080;" d="M223.435,472.293v-0.161c-0.218,0.249-0.432,0.452-0.644,0.608
				c-0.212,0.157-0.441,0.276-0.688,0.357c-0.247,0.082-0.517,0.122-0.81,0.122c-0.388,0-0.747-0.082-1.078-0.246
				c-0.331-0.164-0.616-0.399-0.858-0.704c-0.242-0.305-0.424-0.662-0.549-1.074c-0.125-0.412-0.187-0.857-0.187-1.335
				c0-1.013,0.247-1.804,0.742-2.369c0.495-0.565,1.146-0.848,1.953-0.848c0.467,0,0.861,0.081,1.181,0.24
				c0.32,0.16,0.633,0.408,0.938,0.739v-2.392c0-0.333,0.066-0.583,0.199-0.754c0.132-0.17,0.322-0.255,0.567-0.255
				c0.245,0,0.434,0.078,0.567,0.234c0.132,0.157,0.199,0.386,0.199,0.691v7.147c0,0.309-0.071,0.54-0.214,0.694
				c-0.143,0.154-0.326,0.231-0.552,0.231c-0.222,0-0.405-0.08-0.549-0.24C223.507,472.817,223.435,472.589,223.435,472.293z
				 M220.248,469.912c0,0.439,0.068,0.813,0.204,1.122c0.137,0.309,0.324,0.541,0.562,0.697c0.237,0.157,0.496,0.236,0.777,0.236
				c0.285,0,0.546-0.074,0.781-0.223c0.236-0.148,0.424-0.376,0.564-0.682c0.141-0.307,0.211-0.691,0.211-1.149
				c0-0.432-0.07-0.803-0.211-1.114c-0.14-0.31-0.33-0.547-0.57-0.712c-0.24-0.164-0.502-0.245-0.787-0.245
				c-0.296,0-0.562,0.084-0.795,0.252c-0.233,0.168-0.414,0.409-0.543,0.724C220.312,469.131,220.248,469.496,220.248,469.912z"/>
			<path style="fill:#808080;" d="M230.059,465.145v2.475c0.304-0.316,0.615-0.559,0.932-0.727c0.316-0.168,0.709-0.252,1.175-0.252
				c0.538,0,1.01,0.128,1.416,0.382c0.405,0.256,0.72,0.626,0.944,1.111c0.223,0.484,0.336,1.06,0.336,1.725
				c0,0.491-0.063,0.94-0.187,1.35c-0.125,0.409-0.306,0.765-0.543,1.065c-0.238,0.301-0.525,0.534-0.864,0.698
				c-0.339,0.164-0.712,0.246-1.119,0.246c-0.25,0-0.484-0.029-0.703-0.089c-0.22-0.059-0.407-0.137-0.561-0.234
				c-0.154-0.096-0.286-0.197-0.395-0.3c-0.109-0.103-0.253-0.258-0.431-0.463v0.161c0,0.304-0.073,0.535-0.22,0.692
				c-0.146,0.156-0.332,0.234-0.558,0.234c-0.229,0-0.413-0.077-0.549-0.234c-0.137-0.157-0.205-0.388-0.205-0.692v-7.077
				c0-0.328,0.066-0.577,0.198-0.745c0.133-0.168,0.318-0.252,0.555-0.252c0.25,0,0.441,0.08,0.576,0.24
				C229.991,464.62,230.059,464.848,230.059,465.145z M230.136,469.96c0,0.645,0.147,1.14,0.442,1.486
				c0.295,0.347,0.682,0.521,1.161,0.521c0.407,0,0.759-0.177,1.053-0.532c0.295-0.355,0.442-0.862,0.442-1.523
				c0-0.427-0.061-0.796-0.184-1.104c-0.123-0.309-0.297-0.548-0.522-0.715c-0.226-0.168-0.489-0.252-0.79-0.252
				c-0.309,0-0.584,0.084-0.825,0.252c-0.242,0.168-0.431,0.411-0.57,0.73C230.205,469.141,230.136,469.52,230.136,469.96z"/>
			<path style="fill:#808080;" d="M236.963,473.42l0.148-0.363l-1.995-5.022c-0.122-0.288-0.184-0.499-0.184-0.629
				c0-0.139,0.036-0.267,0.107-0.385c0.071-0.119,0.169-0.214,0.294-0.285c0.125-0.072,0.255-0.107,0.389-0.107
				c0.233,0,0.409,0.074,0.529,0.223c0.119,0.148,0.223,0.361,0.314,0.638l1.371,3.989l1.3-3.71c0.103-0.3,0.196-0.536,0.279-0.706
				c0.083-0.17,0.171-0.285,0.264-0.344c0.093-0.06,0.225-0.09,0.395-0.09c0.123,0,0.24,0.032,0.353,0.098
				c0.113,0.065,0.2,0.153,0.261,0.264c0.061,0.111,0.092,0.227,0.092,0.35c-0.016,0.075-0.041,0.182-0.077,0.321
				c-0.036,0.138-0.079,0.28-0.13,0.421l-2.113,5.533c-0.182,0.487-0.361,0.868-0.535,1.145c-0.174,0.277-0.404,0.491-0.691,0.638
				c-0.287,0.149-0.674,0.223-1.161,0.223c-0.475,0-0.831-0.051-1.068-0.154c-0.238-0.104-0.356-0.292-0.356-0.564
				c0-0.186,0.056-0.33,0.169-0.43c0.112-0.101,0.28-0.152,0.501-0.152c0.087,0,0.173,0.012,0.256,0.037
				c0.103,0.023,0.192,0.035,0.267,0.035c0.186,0,0.333-0.027,0.44-0.084c0.106-0.055,0.202-0.151,0.288-0.288
				C236.754,473.887,236.852,473.685,236.963,473.42z"/>
		</g>
		<g>
			<path style="fill:#808080;" d="M260.439,466.769h0.386v-0.487c0-0.509,0.062-0.911,0.192-1.211
				c0.128-0.299,0.347-0.516,0.654-0.653c0.306-0.136,0.727-0.204,1.26-0.204c0.95,0,1.42,0.229,1.42,0.697
				c0,0.149-0.049,0.278-0.15,0.384c-0.096,0.106-0.214,0.16-0.349,0.16c-0.062,0-0.174-0.012-0.329-0.037
				c-0.148-0.021-0.283-0.035-0.389-0.035c-0.292,0-0.479,0.088-0.566,0.259c-0.079,0.172-0.122,0.418-0.122,0.74v0.386h0.396
				c0.62,0,0.926,0.185,0.926,0.56c0,0.262-0.079,0.431-0.245,0.503c-0.164,0.071-0.39,0.107-0.681,0.107h-0.396v4.294
				c0,0.319-0.075,0.563-0.231,0.73c-0.151,0.17-0.346,0.254-0.589,0.254c-0.229,0-0.419-0.084-0.574-0.254
				c-0.153-0.167-0.228-0.411-0.228-0.73v-4.294h-0.446c-0.243,0-0.426-0.053-0.558-0.164c-0.131-0.107-0.197-0.25-0.197-0.423
				C259.624,466.962,259.896,466.769,260.439,466.769"/>
			<path style="fill:#808080;" d="M265.745,470.878v1.355c0,0.327-0.083,0.574-0.234,0.737c-0.154,0.166-0.349,0.247-0.586,0.247
				c-0.239,0-0.43-0.082-0.579-0.25c-0.148-0.165-0.225-0.41-0.225-0.734v-4.514c0-0.729,0.262-1.093,0.788-1.093
				c0.271,0,0.464,0.084,0.583,0.255c0.119,0.171,0.184,0.421,0.198,0.755c0.192-0.334,0.39-0.584,0.593-0.755
				c0.208-0.171,0.477-0.255,0.819-0.255c0.343,0,0.67,0.084,0.991,0.255c0.322,0.171,0.482,0.398,0.482,0.678
				c0,0.197-0.069,0.362-0.204,0.488c-0.138,0.131-0.284,0.195-0.441,0.195c-0.062,0-0.207-0.039-0.433-0.112
				c-0.228-0.071-0.43-0.108-0.602-0.108c-0.237,0-0.433,0.064-0.582,0.186c-0.151,0.128-0.269,0.311-0.353,0.554
				c-0.081,0.247-0.137,0.541-0.17,0.878C265.759,469.979,265.745,470.392,265.745,470.878"/>
			<path style="fill:#808080;" d="M273.196,470.32h-3.171c0.005,0.367,0.077,0.694,0.222,0.974c0.147,0.279,0.337,0.491,0.578,0.635
				c0.24,0.142,0.502,0.212,0.793,0.212c0.194,0,0.37-0.021,0.531-0.07c0.159-0.043,0.316-0.116,0.466-0.213
				c0.151-0.095,0.288-0.199,0.415-0.313c0.126-0.109,0.292-0.26,0.494-0.449c0.084-0.071,0.203-0.109,0.355-0.109
				c0.168,0,0.301,0.046,0.406,0.139c0.104,0.092,0.152,0.219,0.152,0.386c0,0.147-0.056,0.317-0.167,0.512
				c-0.117,0.198-0.289,0.385-0.523,0.566c-0.234,0.178-0.524,0.329-0.873,0.446c-0.35,0.119-0.754,0.179-1.207,0.179
				c-1.044,0-1.853-0.296-2.429-0.889c-0.577-0.595-0.87-1.401-0.87-2.418c0-0.479,0.073-0.924,0.217-1.334
				c0.14-0.411,0.349-0.76,0.624-1.055c0.272-0.294,0.606-0.518,1.008-0.674c0.399-0.156,0.842-0.234,1.33-0.234
				c0.632,0,1.176,0.134,1.629,0.404c0.452,0.264,0.796,0.61,1.018,1.034c0.226,0.426,0.339,0.855,0.339,1.296
				c0,0.405-0.118,0.669-0.351,0.791C273.947,470.26,273.619,470.32,273.196,470.32 M270.024,469.399h2.938
				c-0.039-0.553-0.186-0.969-0.446-1.242c-0.261-0.276-0.599-0.413-1.025-0.413c-0.403,0-0.736,0.137-0.995,0.418
				C270.237,468.442,270.079,468.853,270.024,469.399"/>
			<path style="fill:#808080;" d="M279.938,470.32h-3.171c0.003,0.367,0.078,0.694,0.221,0.974c0.145,0.279,0.337,0.491,0.576,0.635
				c0.239,0.142,0.503,0.212,0.795,0.212c0.192,0,0.371-0.021,0.528-0.07c0.162-0.043,0.316-0.116,0.469-0.213
				c0.151-0.095,0.287-0.199,0.415-0.313c0.125-0.109,0.29-0.26,0.493-0.449c0.084-0.071,0.204-0.109,0.355-0.109
				c0.168,0,0.302,0.046,0.406,0.139c0.103,0.092,0.15,0.219,0.15,0.386c0,0.147-0.054,0.317-0.171,0.512
				c-0.111,0.198-0.285,0.385-0.519,0.566c-0.231,0.178-0.525,0.329-0.872,0.446c-0.349,0.119-0.755,0.179-1.209,0.179
				c-1.042,0-1.849-0.296-2.429-0.889c-0.577-0.595-0.868-1.401-0.868-2.418c0-0.479,0.073-0.924,0.217-1.334
				c0.142-0.411,0.349-0.76,0.623-1.055c0.272-0.294,0.608-0.518,1.009-0.674c0.399-0.156,0.844-0.234,1.331-0.234
				c0.63,0,1.174,0.134,1.633,0.404c0.45,0.264,0.791,0.61,1.013,1.034c0.225,0.426,0.341,0.855,0.341,1.296
				c0,0.405-0.12,0.669-0.351,0.791C280.688,470.26,280.36,470.32,279.938,470.32 M276.767,469.399h2.938
				c-0.04-0.553-0.19-0.969-0.447-1.242c-0.263-0.276-0.601-0.413-1.027-0.413c-0.403,0-0.735,0.137-0.996,0.418
				C276.978,468.442,276.819,468.853,276.767,469.399"/>
			<path style="fill:#808080;" d="M283.487,467.538v0.194c0.304-0.375,0.621-0.651,0.953-0.828c0.324-0.178,0.699-0.267,1.114-0.267
				c0.497,0,0.96,0.13,1.379,0.386c0.419,0.259,0.749,0.635,0.993,1.129c0.244,0.497,0.366,1.081,0.366,1.758
				c0,0.497-0.07,0.957-0.21,1.376c-0.14,0.418-0.336,0.767-0.581,1.05c-0.246,0.281-0.535,0.501-0.868,0.654
				c-0.339,0.151-0.695,0.227-1.08,0.227c-0.461,0-0.853-0.093-1.166-0.28c-0.314-0.182-0.614-0.458-0.901-0.816v2.433
				c0,0.71-0.26,1.069-0.777,1.069c-0.306,0-0.505-0.092-0.607-0.275c-0.095-0.187-0.146-0.452-0.146-0.807v-6.996
				c0-0.309,0.066-0.537,0.2-0.692c0.134-0.15,0.32-0.228,0.553-0.228c0.231,0,0.416,0.078,0.56,0.234
				C283.417,467.018,283.487,467.241,283.487,467.538 M286.665,469.892c0-0.428-0.067-0.796-0.197-1.102
				c-0.131-0.308-0.312-0.542-0.541-0.705c-0.23-0.164-0.489-0.248-0.77-0.248c-0.446,0-0.824,0.178-1.13,0.527
				c-0.308,0.354-0.462,0.872-0.462,1.558c0,0.641,0.153,1.146,0.46,1.504c0.305,0.358,0.679,0.536,1.133,0.536
				c0.268,0,0.519-0.079,0.748-0.233c0.232-0.158,0.416-0.392,0.552-0.704C286.595,470.714,286.665,470.335,286.665,469.892"/>
			<path style="fill:#808080;" d="M289.925,465.871c-0.226,0-0.418-0.071-0.577-0.209c-0.162-0.139-0.242-0.333-0.242-0.585
				c0-0.23,0.082-0.419,0.248-0.569c0.164-0.146,0.354-0.222,0.571-0.222c0.212,0,0.397,0.067,0.559,0.2
				c0.162,0.137,0.244,0.334,0.244,0.591c0,0.25-0.079,0.444-0.236,0.585C290.332,465.8,290.145,465.871,289.925,465.871
				 M290.727,467.546v4.689c0,0.322-0.077,0.568-0.231,0.732c-0.156,0.168-0.35,0.25-0.588,0.25c-0.238,0-0.428-0.084-0.58-0.254
				c-0.146-0.173-0.222-0.416-0.222-0.729v-4.642c0-0.319,0.076-0.559,0.222-0.721c0.152-0.165,0.342-0.245,0.58-0.245
				c0.238,0,0.432,0.079,0.588,0.245C290.65,467.033,290.727,467.259,290.727,467.546"/>
			<path style="fill:#808080;" d="M295.952,472.477l-1.428-2.354l-0.88,0.83v1.291c0,0.312-0.083,0.551-0.248,0.718
				c-0.16,0.17-0.354,0.254-0.566,0.254c-0.249,0-0.447-0.082-0.588-0.25c-0.142-0.165-0.215-0.41-0.215-0.734v-6.915
				c0-0.358,0.072-0.632,0.207-0.821c0.139-0.191,0.341-0.283,0.596-0.283c0.25,0,0.445,0.086,0.593,0.257
				c0.146,0.169,0.221,0.421,0.221,0.751v3.933l1.823-1.914c0.227-0.235,0.395-0.4,0.517-0.486c0.118-0.087,0.262-0.13,0.431-0.13
				c0.204,0,0.371,0.065,0.51,0.193c0.132,0.129,0.2,0.291,0.2,0.483c0,0.237-0.221,0.556-0.659,0.951l-0.861,0.789l1.662,2.614
				c0.121,0.196,0.212,0.34,0.265,0.441c0.052,0.1,0.081,0.2,0.081,0.289c0,0.258-0.071,0.459-0.213,0.61
				c-0.14,0.148-0.327,0.221-0.554,0.221c-0.198,0-0.352-0.051-0.458-0.16C296.282,472.949,296.133,472.755,295.952,472.477"/>
			<path style="fill:#808080;" d="M299.474,473.217c-0.245,0-0.455-0.079-0.634-0.238c-0.178-0.156-0.268-0.378-0.268-0.665
				c0-0.241,0.086-0.449,0.256-0.622c0.172-0.174,0.38-0.262,0.63-0.262c0.248,0,0.46,0.087,0.639,0.258
				c0.174,0.172,0.264,0.383,0.264,0.626c0,0.283-0.089,0.505-0.264,0.662C299.919,473.138,299.711,473.217,299.474,473.217"/>
			<path style="fill:#808080;" d="M307.536,471.211c0,0.2-0.061,0.417-0.182,0.646c-0.12,0.231-0.305,0.449-0.554,0.656
				c-0.247,0.207-0.557,0.377-0.934,0.502c-0.375,0.126-0.8,0.192-1.269,0.192c-1.004,0-1.786-0.294-2.349-0.876
				c-0.56-0.585-0.841-1.368-0.841-2.35c0-0.667,0.128-1.254,0.387-1.765c0.255-0.509,0.628-0.904,1.113-1.184
				c0.487-0.28,1.072-0.419,1.746-0.419c0.421,0,0.805,0.061,1.158,0.184c0.35,0.122,0.645,0.282,0.891,0.474
				c0.242,0.197,0.428,0.402,0.556,0.62c0.129,0.22,0.192,0.426,0.192,0.617c0,0.192-0.071,0.357-0.214,0.492
				c-0.147,0.134-0.322,0.203-0.524,0.203c-0.137,0-0.249-0.035-0.338-0.104c-0.09-0.07-0.19-0.181-0.299-0.339
				c-0.198-0.299-0.404-0.526-0.622-0.674c-0.214-0.152-0.488-0.226-0.821-0.226c-0.476,0-0.865,0.186-1.159,0.561
				c-0.292,0.372-0.439,0.887-0.439,1.534c0,0.305,0.039,0.587,0.114,0.842c0.073,0.254,0.182,0.472,0.325,0.652
				c0.144,0.179,0.315,0.315,0.516,0.409c0.203,0.096,0.425,0.141,0.665,0.141c0.326,0,0.604-0.075,0.836-0.225
				c0.235-0.151,0.439-0.38,0.616-0.689c0.099-0.182,0.205-0.323,0.318-0.427c0.114-0.102,0.256-0.156,0.422-0.156
				c0.198,0,0.363,0.077,0.491,0.227C307.469,470.88,307.536,471.042,307.536,471.211"/>
			<path style="fill:#808080;" d="M314.53,469.923c0,0.481-0.076,0.928-0.222,1.337c-0.155,0.408-0.37,0.758-0.656,1.049
				c-0.285,0.293-0.626,0.518-1.02,0.675c-0.4,0.154-0.844,0.234-1.337,0.234c-0.491,0-0.933-0.08-1.326-0.239
				c-0.389-0.156-0.732-0.384-1.016-0.676c-0.288-0.298-0.505-0.646-0.657-1.048c-0.143-0.402-0.219-0.846-0.219-1.332
				c0-0.491,0.077-0.941,0.224-1.349c0.151-0.409,0.368-0.757,0.649-1.046c0.282-0.289,0.621-0.511,1.019-0.669
				c0.402-0.156,0.844-0.234,1.326-0.234c0.49,0,0.936,0.078,1.337,0.239c0.398,0.157,0.739,0.384,1.027,0.674
				c0.286,0.297,0.502,0.643,0.65,1.045C314.455,468.991,314.53,469.434,314.53,469.923 M312.903,469.923
				c0-0.662-0.146-1.176-0.436-1.543c-0.289-0.372-0.681-0.555-1.171-0.555c-0.317,0-0.597,0.082-0.839,0.246
				c-0.242,0.164-0.425,0.406-0.556,0.728c-0.131,0.321-0.197,0.696-0.197,1.124c0,0.424,0.064,0.792,0.193,1.108
				c0.13,0.319,0.314,0.561,0.553,0.729c0.241,0.167,0.522,0.253,0.845,0.253c0.49,0,0.882-0.185,1.171-0.557
				C312.756,471.086,312.903,470.574,312.903,469.923"/>
			<path style="fill:#808080;" d="M320.712,470.042v2.154c0,0.342-0.075,0.594-0.231,0.767c-0.156,0.17-0.357,0.255-0.611,0.255
				c-0.245,0-0.446-0.085-0.594-0.255c-0.154-0.173-0.233-0.425-0.233-0.767v-2.582c0-0.408-0.013-0.726-0.04-0.953
				c-0.029-0.221-0.105-0.41-0.226-0.552c-0.123-0.147-0.318-0.22-0.582-0.22c-0.532,0-0.879,0.181-1.048,0.55
				c-0.167,0.36-0.254,0.883-0.254,1.567v2.189c0,0.336-0.076,0.591-0.226,0.765c-0.156,0.171-0.355,0.258-0.603,0.258
				c-0.247,0-0.448-0.087-0.604-0.258c-0.157-0.173-0.235-0.428-0.235-0.765v-4.637c0-0.306,0.07-0.538,0.209-0.695
				c0.143-0.16,0.329-0.239,0.556-0.239c0.223,0,0.407,0.077,0.557,0.222c0.148,0.149,0.222,0.354,0.222,0.615v0.153
				c0.283-0.334,0.584-0.582,0.903-0.738c0.323-0.162,0.676-0.241,1.07-0.241c0.407,0,0.757,0.082,1.049,0.244
				c0.294,0.163,0.533,0.409,0.725,0.735c0.274-0.33,0.568-0.577,0.881-0.738c0.313-0.161,0.658-0.241,1.039-0.241
				c0.441,0,0.826,0.089,1.146,0.262c0.319,0.174,0.558,0.425,0.717,0.747c0.138,0.295,0.206,0.756,0.206,1.385v3.164
				c0,0.342-0.076,0.594-0.229,0.767c-0.154,0.17-0.359,0.255-0.612,0.255c-0.247,0-0.446-0.087-0.603-0.258
				c-0.156-0.173-0.235-0.428-0.235-0.765v-2.726c0-0.349-0.015-0.627-0.043-0.836c-0.029-0.211-0.11-0.388-0.239-0.529
				c-0.133-0.142-0.331-0.215-0.596-0.215c-0.214,0-0.416,0.066-0.609,0.192c-0.192,0.124-0.342,0.298-0.45,0.508
				C320.774,468.864,320.712,469.348,320.712,470.042"/>
		</g>
		<g>
			<path style="fill:#808080;" d="M245.272,469.531c-0.001-0.003-0.001-0.006-0.001-0.011
				C245.271,469.525,245.271,469.527,245.272,469.531z"/>
			<path style="fill:#808080;" d="M245.354,470.049c0.001,0,0.001,0,0.001,0c-0.031-0.148-0.055-0.294-0.074-0.439
				C245.3,469.756,245.324,469.903,245.354,470.049z"/>
			<path style="fill:#808080;" d="M245.89,471.553c-0.004-0.006-0.007-0.013-0.011-0.021
				C245.883,471.539,245.886,471.547,245.89,471.553z"/>
			<path style="fill:#808080;" d="M245.839,471.453c-0.014-0.027-0.027-0.056-0.041-0.084
				C245.811,471.398,245.825,471.425,245.839,471.453z"/>
			<path style="fill:#808080;" d="M245.504,470.628c0.079,0.25,0.175,0.493,0.286,0.724c-0.113-0.236-0.206-0.479-0.283-0.724
				C245.506,470.628,245.505,470.628,245.504,470.628z"/>
			<path style="fill:#808080;" d="M251.545,463.32c0.313,0,0.544,0.025,0.809,0.069l0.075-0.477c0,0-0.732-0.225-1.694-0.147
				l-0.076-0.259c0.299-0.063,0.524-0.329,0.524-0.646c0-0.364-0.296-0.659-0.661-0.659c-0.364,0-0.66,0.295-0.66,0.659
				c0,0.317,0.224,0.583,0.522,0.646l0.084,0.289c-1.021,0.14-1.834,0.539-1.834,0.539l0.144,0.441
				c0.618-0.206,1.154-0.331,1.64-0.383C250.895,463.342,251.253,463.32,251.545,463.32z"/>
			<path style="fill:#808080;" d="M245.878,465.732l0.004-0.005c0.024-0.031,0.047-0.06,0.071-0.089l-0.196-0.141l-0.305-0.223
				c-0.017,0.024-0.497,0.465-0.876,1.28c-0.016-0.026-0.035-0.051-0.056-0.074c-0.114-0.124-0.272-0.187-0.474-0.184
				c-0.003,0-0.006,0-0.009,0c-0.125,0-0.21-0.041-0.267-0.092c0.056-0.071,0.089-0.16,0.089-0.258c0-0.23-0.187-0.418-0.418-0.418
				c-0.23,0-0.418,0.188-0.418,0.418c0,0.231,0.187,0.418,0.418,0.418c0.036,0,0.071-0.006,0.104-0.013
				c0.103,0.114,0.266,0.214,0.505,0.209c0.123-0.001,0.213,0.031,0.273,0.097c0.069,0.076,0.093,0.185,0.1,0.267
				c-0.001,0.001-0.001,0.003-0.002,0.003c-0.272,0.743-0.194,1.669-0.194,1.669l0.661,0.026c0.013-0.337,0.062-0.926,0.232-1.394
				C245.449,466.322,245.861,465.756,245.878,465.732z"/>
			<path style="fill:#808080;" d="M257.295,463.873c-0.23,0-0.418,0.187-0.418,0.418c0,0.036,0.006,0.07,0.015,0.103
				c-0.115,0.104-0.214,0.267-0.211,0.507c0.002,0.123-0.03,0.212-0.096,0.273c-0.053,0.047-0.12,0.072-0.185,0.088
				c-0.492-0.689-1.097-1.11-1.097-1.11l-0.474,0.508c0.358,0.326,0.725,0.734,1.08,1.244c0.246,0.352,0.499,0.806,0.71,1.259
				l0.64-0.304c0,0-0.292-0.722-0.704-1.37c0.072-0.025,0.144-0.064,0.207-0.12c0.125-0.113,0.187-0.273,0.183-0.474
				c-0.001-0.13,0.042-0.218,0.093-0.276c0.071,0.054,0.16,0.089,0.258,0.089c0.232,0,0.419-0.187,0.419-0.418
				C257.714,464.059,257.527,463.873,257.295,463.873z"/>
			<path style="fill:#808080;" d="M255.634,469.624c-0.881,0.429-2.33,0.996-4.238,1.262c-0.749,0.104-1.475,0.142-2.143,0.142
				c-0.869,0-1.637-0.065-2.227-0.139c-0.673-0.085-1.199-0.188-1.52-0.261c0.077,0.245,0.171,0.488,0.283,0.724
				c0.002,0.006,0.005,0.013,0.008,0.017c0.013,0.028,0.027,0.056,0.041,0.084c0.013,0.027,0.027,0.054,0.041,0.079
				c0.004,0.007,0.007,0.015,0.011,0.021c0.189,0.357,0.417,0.684,0.675,0.968c0.9,0.984,1.817,1.14,1.826,1.141l0.014,0.002
				l0.013,0.005c0.008,0.003,0.821,0.266,2.057,0.266c1.216,0,2.409-0.245,3.546-0.729c0.842-0.431,1.639-1.085,2.034-1.669
				c0.305-0.452,0.526-0.933,0.656-1.434c0.069-0.266,0.124-0.692,0.092-1.141C256.556,469.128,256.164,469.366,255.634,469.624z"/>
			<path style="fill:#808080;" d="M246.161,465.94c-0.026,0.037-0.408,0.578-0.71,1.408c-0.226,0.622-0.216,1.527-0.216,1.538v0.002
				c0,0.212,0.012,0.423,0.035,0.632c0,0.005,0,0.008,0.001,0.011c0.002,0.027,0.007,0.052,0.009,0.079
				c0.019,0.145,0.043,0.291,0.074,0.439c0.438,0.111,3.049,0.72,5.968,0.314c1.829-0.254,3.218-0.795,4.062-1.204
				c0.701-0.34,1.151-0.648,1.325-0.774c-0.173-0.643-0.651-1.65-1.089-2.279c-1.253-1.791-2.604-2.25-3.298-2.364
				c-0.265-0.043-0.477-0.068-0.777-0.068c-0.28,0-0.626,0.023-1.089,0.071c-0.464,0.048-0.982,0.17-1.583,0.372
				c-0.842,0.282-1.605,0.724-2.204,1.28l-0.021,0.019C246.56,465.497,246.374,465.669,246.161,465.94z M253.829,465.524
				c0.601,0,1.089,0.488,1.089,1.089c0,0.601-0.489,1.09-1.089,1.09c-0.601,0-1.089-0.489-1.089-1.09
				C252.74,466.012,253.228,465.524,253.829,465.524z M248.678,465.48c0.973,0,1.76,0.789,1.76,1.761
				c0,0.972-0.788,1.759-1.76,1.759c-0.972,0-1.76-0.787-1.76-1.759C246.918,466.269,247.707,465.48,248.678,465.48z"/>
		</g>
	</g>
</g>
</svg>
